<?xml version="1.0" encoding="UTF-8" standalone="no"?><svg xmlns="http://www.w3.org/2000/svg" xmlns:xlink="http://www.w3.org/1999/xlink" contentScriptType="application/ecmascript" contentStyleType="text/css" height="305px" preserveAspectRatio="none" style="width:640px;height:305px;" version="1.1" viewBox="0 0 640 305" width="640px" zoomAndPan="magnify"><defs><filter height="300%" id="f9azb87j9zdq0" width="300%" x="-1" y="-1"><feGaussianBlur result="blurOut" stdDeviation="2.0"/><feColorMatrix in="blurOut" result="blurOut2" type="matrix" values="0 0 0 0 0 0 0 0 0 0 0 0 0 0 0 0 0 0 .4 0"/><feOffset dx="4.0" dy="4.0" in="blurOut2" result="blurOut3"/><feBlend in="SourceGraphic" in2="blurOut3" mode="normal"/></filter></defs><g><!--MD5=[426e75666daf533f17226ff4c87e20fd]
class Shape--><rect codeLine="2" fill="#FEFECE" filter="url(#f9azb87j9zdq0)" height="60.8047" id="Shape" style="stroke: #A80036; stroke-width: 1.5;" width="70" x="122" y="7"/><ellipse cx="137" cy="23" fill="#ADD1B2" rx="11" ry="11" style="stroke: #A80036; stroke-width: 1.0;"/><path d="M139.3438,18.6719 C138.4063,18.2344 137.8125,18.0938 136.9375,18.0938 C134.3125,18.0938 132.3125,20.1719 132.3125,22.8906 L132.3125,24.0156 C132.3125,26.5938 134.4219,28.4844 137.3125,28.4844 C138.5313,28.4844 139.6875,28.1875 140.4375,27.6406 C141.0156,27.2344 141.3438,26.7813 141.3438,26.3906 C141.3438,25.9375 140.9531,25.5469 140.4844,25.5469 C140.2656,25.5469 140.0625,25.625 139.875,25.8125 C139.4219,26.2969 139.4219,26.2969 139.2344,26.3906 C138.8125,26.6563 138.125,26.7813 137.3594,26.7813 C135.3125,26.7813 134.0156,25.6875 134.0156,23.9844 L134.0156,22.8906 C134.0156,21.1094 135.2656,19.7969 137,19.7969 C137.5781,19.7969 138.1875,19.9531 138.6563,20.2031 C139.1406,20.4844 139.3125,20.7031 139.4063,21.1094 C139.4688,21.5156 139.5,21.6406 139.6406,21.7656 C139.7813,21.9063 140.0156,22.0156 140.2344,22.0156 C140.5,22.0156 140.7656,21.875 140.9375,21.6563 C141.0469,21.5 141.0781,21.3125 141.0781,20.8906 L141.0781,19.4688 C141.0781,19.0313 141.0625,18.9063 140.9688,18.75 C140.8125,18.4844 140.5313,18.3438 140.2344,18.3438 C139.9375,18.3438 139.7344,18.4375 139.5156,18.75 L139.3438,18.6719 Z "/><text fill="#000000" font-family="sans-serif" font-size="12" lengthAdjust="spacingAndGlyphs" textLength="38" x="151" y="27.1543">Shape</text><line style="stroke: #A80036; stroke-width: 1.5;" x1="123" x2="191" y1="39" y2="39"/><line style="stroke: #A80036; stroke-width: 1.5;" x1="123" x2="191" y1="47" y2="47"/><text fill="#000000" font-family="sans-serif" font-size="11" lengthAdjust="spacingAndGlyphs" textLength="44" x="128" y="61.2104">+draw()</text><!--MD5=[a7f9118cae7621dd25d25149752faef0]
class Circle--><rect codeLine="6" fill="#FEFECE" filter="url(#f9azb87j9zdq0)" height="60.8047" id="Circle" style="stroke: #A80036; stroke-width: 1.5;" width="66" x="7" y="219.5"/><ellipse cx="22" cy="235.5" fill="#ADD1B2" rx="11" ry="11" style="stroke: #A80036; stroke-width: 1.0;"/><path d="M24.3438,231.1719 C23.4063,230.7344 22.8125,230.5938 21.9375,230.5938 C19.3125,230.5938 17.3125,232.6719 17.3125,235.3906 L17.3125,236.5156 C17.3125,239.0938 19.4219,240.9844 22.3125,240.9844 C23.5313,240.9844 24.6875,240.6875 25.4375,240.1406 C26.0156,239.7344 26.3438,239.2813 26.3438,238.8906 C26.3438,238.4375 25.9531,238.0469 25.4844,238.0469 C25.2656,238.0469 25.0625,238.125 24.875,238.3125 C24.4219,238.7969 24.4219,238.7969 24.2344,238.8906 C23.8125,239.1563 23.125,239.2813 22.3594,239.2813 C20.3125,239.2813 19.0156,238.1875 19.0156,236.4844 L19.0156,235.3906 C19.0156,233.6094 20.2656,232.2969 22,232.2969 C22.5781,232.2969 23.1875,232.4531 23.6563,232.7031 C24.1406,232.9844 24.3125,233.2031 24.4063,233.6094 C24.4688,234.0156 24.5,234.1406 24.6406,234.2656 C24.7813,234.4063 25.0156,234.5156 25.2344,234.5156 C25.5,234.5156 25.7656,234.375 25.9375,234.1563 C26.0469,234 26.0781,233.8125 26.0781,233.3906 L26.0781,231.9688 C26.0781,231.5313 26.0625,231.4063 25.9688,231.25 C25.8125,230.9844 25.5313,230.8438 25.2344,230.8438 C24.9375,230.8438 24.7344,230.9375 24.5156,231.25 L24.3438,231.1719 Z "/><text fill="#000000" font-family="sans-serif" font-size="12" lengthAdjust="spacingAndGlyphs" textLength="34" x="36" y="239.6543">Circle</text><line style="stroke: #A80036; stroke-width: 1.5;" x1="8" x2="72" y1="251.5" y2="251.5"/><line style="stroke: #A80036; stroke-width: 1.5;" x1="8" x2="72" y1="259.5" y2="259.5"/><text fill="#000000" font-family="sans-serif" font-size="11" lengthAdjust="spacingAndGlyphs" textLength="44" x="13" y="273.7104">+draw()</text><!--MD5=[41314a0efc36828092cff9ebad2fcafd]
class Group--><rect codeLine="10" fill="#FEFECE" filter="url(#f9azb87j9zdq0)" height="73.6094" id="Group" style="stroke: #A80036; stroke-width: 1.5;" width="157" x="108.5" y="213"/><ellipse cx="164.25" cy="229" fill="#ADD1B2" rx="11" ry="11" style="stroke: #A80036; stroke-width: 1.0;"/><path d="M166.5938,224.6719 C165.6563,224.2344 165.0625,224.0938 164.1875,224.0938 C161.5625,224.0938 159.5625,226.1719 159.5625,228.8906 L159.5625,230.0156 C159.5625,232.5938 161.6719,234.4844 164.5625,234.4844 C165.7813,234.4844 166.9375,234.1875 167.6875,233.6406 C168.2656,233.2344 168.5938,232.7813 168.5938,232.3906 C168.5938,231.9375 168.2031,231.5469 167.7344,231.5469 C167.5156,231.5469 167.3125,231.625 167.125,231.8125 C166.6719,232.2969 166.6719,232.2969 166.4844,232.3906 C166.0625,232.6563 165.375,232.7813 164.6094,232.7813 C162.5625,232.7813 161.2656,231.6875 161.2656,229.9844 L161.2656,228.8906 C161.2656,227.1094 162.5156,225.7969 164.25,225.7969 C164.8281,225.7969 165.4375,225.9531 165.9063,226.2031 C166.3906,226.4844 166.5625,226.7031 166.6563,227.1094 C166.7188,227.5156 166.75,227.6406 166.8906,227.7656 C167.0313,227.9063 167.2656,228.0156 167.4844,228.0156 C167.75,228.0156 168.0156,227.875 168.1875,227.6563 C168.2969,227.5 168.3281,227.3125 168.3281,226.8906 L168.3281,225.4688 C168.3281,225.0313 168.3125,224.9063 168.2188,224.75 C168.0625,224.4844 167.7813,224.3438 167.4844,224.3438 C167.1875,224.3438 166.9844,224.4375 166.7656,224.75 L166.5938,224.6719 Z "/><text fill="#000000" font-family="sans-serif" font-size="12" lengthAdjust="spacingAndGlyphs" textLength="37" x="184.75" y="233.1543">Group</text><line style="stroke: #A80036; stroke-width: 1.5;" x1="109.5" x2="264.5" y1="245" y2="245"/><text fill="#000000" font-family="sans-serif" font-size="11" lengthAdjust="spacingAndGlyphs" textLength="145" x="114.5" y="259.2104">-objects:vector&lt;Shape*&gt;</text><line style="stroke: #A80036; stroke-width: 1.5;" x1="109.5" x2="264.5" y1="265.8047" y2="265.8047"/><text fill="#000000" font-family="sans-serif" font-size="11" lengthAdjust="spacingAndGlyphs" textLength="44" x="114.5" y="280.0151">+draw()</text><path d="M227.5,128 L227.5,153.1328 A0,0 0 0 0 227.5,153.1328 L398.209,153.1328 L265.667,213.9097 L406.209,153.1328 L628.5,153.1328 A0,0 0 0 0 628.5,153.1328 L628.5,138 L618.5,128 L227.5,128 A0,0 0 0 0 227.5,128 " fill="#FBFB77" filter="url(#f9azb87j9zdq0)" style="stroke: #A80036; stroke-width: 1.0;"/><path d="M618.5,128 L618.5,138 L628.5,138 L618.5,128 " fill="#FBFB77" style="stroke: #A80036; stroke-width: 1.0;"/><text fill="#000000" font-family="sans-serif" font-size="13" lengthAdjust="spacingAndGlyphs" textLength="376" x="233.5" y="145.0669">draw() will call for every object in objects call object.draw()</text><!--MD5=[d637a7d0c5b779627461b5a6979d5756]
reverse link Shape to Circle--><path codeLine="16" d="M130.617,85.967 C107.853,126.923 75.6872,184.794 56.4311,219.4381 " fill="none" id="Shape-backto-Circle" style="stroke: #A80036; stroke-width: 1.0; stroke-dasharray: 7.0,7.0;"/><polygon fill="none" points="124.65,82.293,140.485,68.213,136.887,89.095,124.65,82.293" style="stroke: #A80036; stroke-width: 1.0;"/><!--MD5=[4c596b1ea1532166442c2bc68166726f]
reverse link Shape to Group--><path codeLine="17" d="M153.078,88.371 C155.903,126.58 163.662,178.404 171.922,212.7323 " fill="none" id="Shape-backto-Group" style="stroke: #A80036; stroke-width: 1.0; stroke-dasharray: 7.0,7.0;"/><polygon fill="none" points="146.077,88.549,152.03,68.213,160.059,87.823,146.077,88.549" style="stroke: #A80036; stroke-width: 1.0;"/><!--MD5=[e88cf9a48c2a2bccbb567a30e30b090a]
link Shape to Group--><path codeLine="18" d="M170.98,68.213 C180.103,102.322 188.786,158.803 191.602,199.5659 " fill="none" id="Shape-to-Group" style="stroke: #A80036; stroke-width: 1.0; stroke-dasharray: 7.0,7.0;"/><polygon fill="#FFFFFF" points="192.324,212.7323,195.9894,206.5223,191.6669,200.7503,188.0014,206.9603,192.324,212.7323" style="stroke: #A80036; stroke-width: 1.0;"/><!--MD5=[3fdec264ae6850192a83a3920886d634]
@startuml
skinparam classAttributeIconSize 0
class Shape
{
+draw()
}
class Circle 
{
+draw()
}
class Group
{
-objects:vector<Shape*>
+draw() 
}
note "draw() will call for every object in objects call object.draw() " as N1
Circle -up..|> Shape
Group -up..|> Shape
Shape -up..o Group
N1 .. Group
@enduml

PlantUML version 1.2020.17beta5(Unknown compile time)
(GPL source distribution)
Java Runtime: Java(TM) SE Runtime Environment
JVM: Java HotSpot(TM) 64-Bit Server VM
Default Encoding: UTF-8
Language: en
Country: US
--></g></svg>