<?xml version="1.0" encoding="UTF-8" standalone="no"?><svg xmlns="http://www.w3.org/2000/svg" xmlns:xlink="http://www.w3.org/1999/xlink" contentScriptType="application/ecmascript" contentStyleType="text/css" height="488px" preserveAspectRatio="none" style="width:621px;height:488px;" version="1.1" viewBox="0 0 621 488" width="621px" zoomAndPan="magnify"><defs><filter height="300%" id="ff7mfj1sx2gm1" width="300%" x="-1" y="-1"><feGaussianBlur result="blurOut" stdDeviation="2.0"/><feColorMatrix in="blurOut" result="blurOut2" type="matrix" values="0 0 0 0 0 0 0 0 0 0 0 0 0 0 0 0 0 0 .4 0"/><feOffset dx="4.0" dy="4.0" in="blurOut2" result="blurOut3"/><feBlend in="SourceGraphic" in2="blurOut3" mode="normal"/></filter></defs><g><!--MD5=[3f0ef310aaa84a542276992c5216544d]
class Car--><rect codeLine="2" fill="#FEFECE" filter="url(#ff7mfj1sx2gm1)" height="86.4141" id="Car" style="stroke: #A80036; stroke-width: 1.5;" width="146" x="174.5" y="7"/><ellipse cx="233.25" cy="23" fill="#ADD1B2" rx="11" ry="11" style="stroke: #A80036; stroke-width: 1.0;"/><path d="M235.5938,18.6719 C234.6563,18.2344 234.0625,18.0938 233.1875,18.0938 C230.5625,18.0938 228.5625,20.1719 228.5625,22.8906 L228.5625,24.0156 C228.5625,26.5938 230.6719,28.4844 233.5625,28.4844 C234.7813,28.4844 235.9375,28.1875 236.6875,27.6406 C237.2656,27.2344 237.5938,26.7813 237.5938,26.3906 C237.5938,25.9375 237.2031,25.5469 236.7344,25.5469 C236.5156,25.5469 236.3125,25.625 236.125,25.8125 C235.6719,26.2969 235.6719,26.2969 235.4844,26.3906 C235.0625,26.6563 234.375,26.7813 233.6094,26.7813 C231.5625,26.7813 230.2656,25.6875 230.2656,23.9844 L230.2656,22.8906 C230.2656,21.1094 231.5156,19.7969 233.25,19.7969 C233.8281,19.7969 234.4375,19.9531 234.9063,20.2031 C235.3906,20.4844 235.5625,20.7031 235.6563,21.1094 C235.7188,21.5156 235.75,21.6406 235.8906,21.7656 C236.0313,21.9063 236.2656,22.0156 236.4844,22.0156 C236.75,22.0156 237.0156,21.875 237.1875,21.6563 C237.2969,21.5 237.3281,21.3125 237.3281,20.8906 L237.3281,19.4688 C237.3281,19.0313 237.3125,18.9063 237.2188,18.75 C237.0625,18.4844 236.7813,18.3438 236.4844,18.3438 C236.1875,18.3438 235.9844,18.4375 235.7656,18.75 L235.5938,18.6719 Z "/><text fill="#000000" font-family="sans-serif" font-size="12" lengthAdjust="spacingAndGlyphs" textLength="20" x="253.75" y="27.1543">Car</text><line style="stroke: #A80036; stroke-width: 1.5;" x1="175.5" x2="319.5" y1="39" y2="39"/><text fill="#000000" font-family="sans-serif" font-size="11" lengthAdjust="spacingAndGlyphs" textLength="105" x="180.5" y="53.2104">#description:string</text><line style="stroke: #A80036; stroke-width: 1.5;" x1="175.5" x2="319.5" y1="59.8047" y2="59.8047"/><text fill="#000000" font-family="sans-serif" font-size="11" font-style="italic" lengthAdjust="spacingAndGlyphs" textLength="134" x="180.5" y="74.0151">+getDescription():string</text><text fill="#000000" font-family="sans-serif" font-size="11" font-style="italic" lengthAdjust="spacingAndGlyphs" textLength="109" x="180.5" y="86.8198">+getPrice():double;</text><!--MD5=[0f7bc2b2700b8f1b8b0a0321832dd523]
class BaseModel--><rect codeLine="8" fill="#FEFECE" filter="url(#ff7mfj1sx2gm1)" height="60.8047" id="BaseModel" style="stroke: #A80036; stroke-width: 1.5;" width="117" x="353" y="214"/><ellipse cx="376.1" cy="230" fill="#ADD1B2" rx="11" ry="11" style="stroke: #A80036; stroke-width: 1.0;"/><path d="M378.4438,225.6719 C377.5063,225.2344 376.9125,225.0938 376.0375,225.0938 C373.4125,225.0938 371.4125,227.1719 371.4125,229.8906 L371.4125,231.0156 C371.4125,233.5938 373.5219,235.4844 376.4125,235.4844 C377.6313,235.4844 378.7875,235.1875 379.5375,234.6406 C380.1156,234.2344 380.4438,233.7813 380.4438,233.3906 C380.4438,232.9375 380.0531,232.5469 379.5844,232.5469 C379.3656,232.5469 379.1625,232.625 378.975,232.8125 C378.5219,233.2969 378.5219,233.2969 378.3344,233.3906 C377.9125,233.6563 377.225,233.7813 376.4594,233.7813 C374.4125,233.7813 373.1156,232.6875 373.1156,230.9844 L373.1156,229.8906 C373.1156,228.1094 374.3656,226.7969 376.1,226.7969 C376.6781,226.7969 377.2875,226.9531 377.7563,227.2031 C378.2406,227.4844 378.4125,227.7031 378.5063,228.1094 C378.5688,228.5156 378.6,228.6406 378.7406,228.7656 C378.8813,228.9063 379.1156,229.0156 379.3344,229.0156 C379.6,229.0156 379.8656,228.875 380.0375,228.6563 C380.1469,228.5 380.1781,228.3125 380.1781,227.8906 L380.1781,226.4688 C380.1781,226.0313 380.1625,225.9063 380.0688,225.75 C379.9125,225.4844 379.6313,225.3438 379.3344,225.3438 C379.0375,225.3438 378.8344,225.4375 378.6156,225.75 L378.4438,225.6719 Z "/><text fill="#000000" font-family="sans-serif" font-size="12" lengthAdjust="spacingAndGlyphs" textLength="67" x="391.9" y="234.1543">BaseModel</text><line style="stroke: #A80036; stroke-width: 1.5;" x1="354" x2="469" y1="246" y2="246"/><line style="stroke: #A80036; stroke-width: 1.5;" x1="354" x2="469" y1="254" y2="254"/><text fill="#000000" font-family="sans-serif" font-size="11" lengthAdjust="spacingAndGlyphs" textLength="105" x="359" y="268.2104">+getPrice():double</text><path d="M505.5,232 L505.5,240.5 L470.242,244.5 L505.5,248.5 L505.5,257.1328 A0,0 0 0 0 505.5,257.1328 L609.5,257.1328 A0,0 0 0 0 609.5,257.1328 L609.5,242 L599.5,232 L505.5,232 A0,0 0 0 0 505.5,232 " fill="#FBFB77" filter="url(#ff7mfj1sx2gm1)" style="stroke: #A80036; stroke-width: 1.0;"/><path d="M599.5,232 L599.5,242 L609.5,242 L599.5,232 " fill="#FBFB77" style="stroke: #A80036; stroke-width: 1.0;"/><text fill="#000000" font-family="sans-serif" font-size="13" lengthAdjust="spacingAndGlyphs" textLength="83" x="511.5" y="249.0669">return 35000</text><!--MD5=[0730a765a178c2b5ac48524e79572a8d]
class OptionsDecorator--><rect codeLine="15" fill="#FEFECE" filter="url(#ff7mfj1sx2gm1)" height="60.8047" id="OptionsDecorator" style="stroke: #A80036; stroke-width: 1.5;" width="140" x="177.5" y="214"/><ellipse cx="192.5" cy="230" fill="#ADD1B2" rx="11" ry="11" style="stroke: #A80036; stroke-width: 1.0;"/><path d="M194.8438,225.6719 C193.9063,225.2344 193.3125,225.0938 192.4375,225.0938 C189.8125,225.0938 187.8125,227.1719 187.8125,229.8906 L187.8125,231.0156 C187.8125,233.5938 189.9219,235.4844 192.8125,235.4844 C194.0313,235.4844 195.1875,235.1875 195.9375,234.6406 C196.5156,234.2344 196.8438,233.7813 196.8438,233.3906 C196.8438,232.9375 196.4531,232.5469 195.9844,232.5469 C195.7656,232.5469 195.5625,232.625 195.375,232.8125 C194.9219,233.2969 194.9219,233.2969 194.7344,233.3906 C194.3125,233.6563 193.625,233.7813 192.8594,233.7813 C190.8125,233.7813 189.5156,232.6875 189.5156,230.9844 L189.5156,229.8906 C189.5156,228.1094 190.7656,226.7969 192.5,226.7969 C193.0781,226.7969 193.6875,226.9531 194.1563,227.2031 C194.6406,227.4844 194.8125,227.7031 194.9063,228.1094 C194.9688,228.5156 195,228.6406 195.1406,228.7656 C195.2813,228.9063 195.5156,229.0156 195.7344,229.0156 C196,229.0156 196.2656,228.875 196.4375,228.6563 C196.5469,228.5 196.5781,228.3125 196.5781,227.8906 L196.5781,226.4688 C196.5781,226.0313 196.5625,225.9063 196.4688,225.75 C196.3125,225.4844 196.0313,225.3438 195.7344,225.3438 C195.4375,225.3438 195.2344,225.4375 195.0156,225.75 L194.8438,225.6719 Z "/><text fill="#000000" font-family="sans-serif" font-size="12" lengthAdjust="spacingAndGlyphs" textLength="108" x="206.5" y="234.1543">OptionsDecorator</text><line style="stroke: #A80036; stroke-width: 1.5;" x1="178.5" x2="316.5" y1="246" y2="246"/><line style="stroke: #A80036; stroke-width: 1.5;" x1="178.5" x2="316.5" y1="254" y2="254"/><text fill="#000000" font-family="sans-serif" font-size="11" font-style="italic" lengthAdjust="spacingAndGlyphs" textLength="109" x="183.5" y="268.2104">+getPrice():double;</text><!--MD5=[cf6e0a6b8083ba72f4a55905082c92ea]
class Navigation--><rect codeLine="20" fill="#FEFECE" filter="url(#ff7mfj1sx2gm1)" height="73.6094" id="Navigation" style="stroke: #A80036; stroke-width: 1.5;" width="137" x="7" y="396"/><ellipse cx="41.35" cy="412" fill="#ADD1B2" rx="11" ry="11" style="stroke: #A80036; stroke-width: 1.0;"/><path d="M43.6938,407.6719 C42.7563,407.2344 42.1625,407.0938 41.2875,407.0938 C38.6625,407.0938 36.6625,409.1719 36.6625,411.8906 L36.6625,413.0156 C36.6625,415.5938 38.7719,417.4844 41.6625,417.4844 C42.8813,417.4844 44.0375,417.1875 44.7875,416.6406 C45.3656,416.2344 45.6938,415.7813 45.6938,415.3906 C45.6938,414.9375 45.3031,414.5469 44.8344,414.5469 C44.6156,414.5469 44.4125,414.625 44.225,414.8125 C43.7719,415.2969 43.7719,415.2969 43.5844,415.3906 C43.1625,415.6563 42.475,415.7813 41.7094,415.7813 C39.6625,415.7813 38.3656,414.6875 38.3656,412.9844 L38.3656,411.8906 C38.3656,410.1094 39.6156,408.7969 41.35,408.7969 C41.9281,408.7969 42.5375,408.9531 43.0063,409.2031 C43.4906,409.4844 43.6625,409.7031 43.7563,410.1094 C43.8188,410.5156 43.85,410.6406 43.9906,410.7656 C44.1313,410.9063 44.3656,411.0156 44.5844,411.0156 C44.85,411.0156 45.1156,410.875 45.2875,410.6563 C45.3969,410.5 45.4281,410.3125 45.4281,409.8906 L45.4281,408.4688 C45.4281,408.0313 45.4125,407.9063 45.3188,407.75 C45.1625,407.4844 44.8813,407.3438 44.5844,407.3438 C44.2875,407.3438 44.0844,407.4375 43.8656,407.75 L43.6938,407.6719 Z "/><text fill="#000000" font-family="sans-serif" font-size="12" lengthAdjust="spacingAndGlyphs" textLength="62" x="59.65" y="416.1543">Navigation</text><line style="stroke: #A80036; stroke-width: 1.5;" x1="8" x2="143" y1="428" y2="428"/><line style="stroke: #A80036; stroke-width: 1.5;" x1="8" x2="143" y1="436" y2="436"/><text fill="#000000" font-family="sans-serif" font-size="11" lengthAdjust="spacingAndGlyphs" textLength="125" x="13" y="450.2104">getDescription():string</text><text fill="#000000" font-family="sans-serif" font-size="11" lengthAdjust="spacingAndGlyphs" textLength="99" x="13" y="463.0151">getPrice():double;</text><!--MD5=[bbe56577037d852b1c78a54760285559]
class SoundSystem--><rect codeLine="25" fill="#FEFECE" filter="url(#ff7mfj1sx2gm1)" height="73.6094" id="SoundSystem" style="stroke: #A80036; stroke-width: 1.5;" width="137" x="179" y="396"/><ellipse cx="203.9" cy="412" fill="#ADD1B2" rx="11" ry="11" style="stroke: #A80036; stroke-width: 1.0;"/><path d="M206.2438,407.6719 C205.3063,407.2344 204.7125,407.0938 203.8375,407.0938 C201.2125,407.0938 199.2125,409.1719 199.2125,411.8906 L199.2125,413.0156 C199.2125,415.5938 201.3219,417.4844 204.2125,417.4844 C205.4313,417.4844 206.5875,417.1875 207.3375,416.6406 C207.9156,416.2344 208.2438,415.7813 208.2438,415.3906 C208.2438,414.9375 207.8531,414.5469 207.3844,414.5469 C207.1656,414.5469 206.9625,414.625 206.775,414.8125 C206.3219,415.2969 206.3219,415.2969 206.1344,415.3906 C205.7125,415.6563 205.025,415.7813 204.2594,415.7813 C202.2125,415.7813 200.9156,414.6875 200.9156,412.9844 L200.9156,411.8906 C200.9156,410.1094 202.1656,408.7969 203.9,408.7969 C204.4781,408.7969 205.0875,408.9531 205.5563,409.2031 C206.0406,409.4844 206.2125,409.7031 206.3063,410.1094 C206.3688,410.5156 206.4,410.6406 206.5406,410.7656 C206.6813,410.9063 206.9156,411.0156 207.1344,411.0156 C207.4,411.0156 207.6656,410.875 207.8375,410.6563 C207.9469,410.5 207.9781,410.3125 207.9781,409.8906 L207.9781,408.4688 C207.9781,408.0313 207.9625,407.9063 207.8688,407.75 C207.7125,407.4844 207.4313,407.3438 207.1344,407.3438 C206.8375,407.3438 206.6344,407.4375 206.4156,407.75 L206.2438,407.6719 Z "/><text fill="#000000" font-family="sans-serif" font-size="12" lengthAdjust="spacingAndGlyphs" textLength="83" x="220.1" y="416.1543">SoundSystem</text><line style="stroke: #A80036; stroke-width: 1.5;" x1="180" x2="315" y1="428" y2="428"/><line style="stroke: #A80036; stroke-width: 1.5;" x1="180" x2="315" y1="436" y2="436"/><text fill="#000000" font-family="sans-serif" font-size="11" lengthAdjust="spacingAndGlyphs" textLength="125" x="185" y="450.2104">getDescription():string</text><text fill="#000000" font-family="sans-serif" font-size="11" lengthAdjust="spacingAndGlyphs" textLength="99" x="185" y="463.0151">getPrice():double;</text><!--MD5=[b3397dc79cc7751a66b03cc686aa34fb]
class LeatherSeat--><rect codeLine="31" fill="#FEFECE" filter="url(#ff7mfj1sx2gm1)" height="73.6094" id="LeatherSeat" style="stroke: #A80036; stroke-width: 1.5;" width="137" x="351" y="396"/><ellipse cx="380.85" cy="412" fill="#ADD1B2" rx="11" ry="11" style="stroke: #A80036; stroke-width: 1.0;"/><path d="M383.1938,407.6719 C382.2563,407.2344 381.6625,407.0938 380.7875,407.0938 C378.1625,407.0938 376.1625,409.1719 376.1625,411.8906 L376.1625,413.0156 C376.1625,415.5938 378.2719,417.4844 381.1625,417.4844 C382.3813,417.4844 383.5375,417.1875 384.2875,416.6406 C384.8656,416.2344 385.1938,415.7813 385.1938,415.3906 C385.1938,414.9375 384.8031,414.5469 384.3344,414.5469 C384.1156,414.5469 383.9125,414.625 383.725,414.8125 C383.2719,415.2969 383.2719,415.2969 383.0844,415.3906 C382.6625,415.6563 381.975,415.7813 381.2094,415.7813 C379.1625,415.7813 377.8656,414.6875 377.8656,412.9844 L377.8656,411.8906 C377.8656,410.1094 379.1156,408.7969 380.85,408.7969 C381.4281,408.7969 382.0375,408.9531 382.5063,409.2031 C382.9906,409.4844 383.1625,409.7031 383.2563,410.1094 C383.3188,410.5156 383.35,410.6406 383.4906,410.7656 C383.6313,410.9063 383.8656,411.0156 384.0844,411.0156 C384.35,411.0156 384.6156,410.875 384.7875,410.6563 C384.8969,410.5 384.9281,410.3125 384.9281,409.8906 L384.9281,408.4688 C384.9281,408.0313 384.9125,407.9063 384.8188,407.75 C384.6625,407.4844 384.3813,407.3438 384.0844,407.3438 C383.7875,407.3438 383.5844,407.4375 383.3656,407.75 L383.1938,407.6719 Z "/><text fill="#000000" font-family="sans-serif" font-size="12" lengthAdjust="spacingAndGlyphs" textLength="72" x="398.15" y="416.1543">LeatherSeat</text><line style="stroke: #A80036; stroke-width: 1.5;" x1="352" x2="487" y1="428" y2="428"/><line style="stroke: #A80036; stroke-width: 1.5;" x1="352" x2="487" y1="436" y2="436"/><text fill="#000000" font-family="sans-serif" font-size="11" lengthAdjust="spacingAndGlyphs" textLength="125" x="357" y="450.2104">getDescription():string</text><text fill="#000000" font-family="sans-serif" font-size="11" lengthAdjust="spacingAndGlyphs" textLength="99" x="357" y="463.0151">getPrice():double;</text><!--MD5=[a0d614a21dbb6eff20686f61e5fc4582]
reverse link Car to OptionsDecorator--><path codeLine="36" d="M235.485,113.259 C233.966,147.016 234.802,187.173 237.992,213.885 " fill="none" id="Car-backto-OptionsDecorator" style="stroke: #A80036; stroke-width: 1.0; stroke-dasharray: 7.0,7.0;"/><polygon fill="none" points="228.502,112.77,236.735,93.245,242.474,113.642,228.502,112.77" style="stroke: #A80036; stroke-width: 1.0;"/><!--MD5=[a8bfb0eef420a665faad2b88b7582f36]
reverse link OptionsDecorator to Car--><path codeLine="37" d="M258.926,200.938 C261.7,168.904 261.691,125.202 258.899,93.245 " fill="none" id="OptionsDecorator-backto-Car" style="stroke: #A80036; stroke-width: 1.0;"/><polygon fill="#A80036" points="257.567,213.885,262.1715,208.3353,258.8196,201.9506,254.2152,207.5002,257.567,213.885" style="stroke: #A80036; stroke-width: 1.0;"/><!--MD5=[21474268a8c18a434541d26bc3869c37]
reverse link OptionsDecorator to Navigation--><path codeLine="39" d="M206.495,289.961 C176.639,322.334 136.712,365.628 108.815,395.876 " fill="none" id="OptionsDecorator-backto-Navigation" style="stroke: #A80036; stroke-width: 1.0; stroke-dasharray: 7.0,7.0;"/><polygon fill="none" points="201.541,285.008,220.246,275.051,211.833,294.499,201.541,285.008" style="stroke: #A80036; stroke-width: 1.0;"/><!--MD5=[5aa7dd1ce9bf93138bfc437502f9babd]
reverse link OptionsDecorator to SoundSystem--><path codeLine="40" d="M247.5,295.352 C247.5,327.019 247.5,367.278 247.5,395.876 " fill="none" id="OptionsDecorator-backto-SoundSystem" style="stroke: #A80036; stroke-width: 1.0; stroke-dasharray: 7.0,7.0;"/><polygon fill="none" points="240.5,295.052,247.5,275.051,254.5,295.051,240.5,295.052" style="stroke: #A80036; stroke-width: 1.0;"/><!--MD5=[73ed8f4470f559b21372e205aaebc44a]
reverse link OptionsDecorator to LeatherSeat--><path codeLine="41" d="M288.505,289.961 C318.361,322.334 358.288,365.628 386.185,395.876 " fill="none" id="OptionsDecorator-backto-LeatherSeat" style="stroke: #A80036; stroke-width: 1.0; stroke-dasharray: 7.0,7.0;"/><polygon fill="none" points="283.167,294.499,274.754,275.051,293.459,285.008,283.167,294.499" style="stroke: #A80036; stroke-width: 1.0;"/><!--MD5=[94fb906c6fb0d79a38e8e35a16c3a022]
reverse link Car to BaseModel--><path codeLine="42" d="M296.51,108.527 C326.048,143.198 362.439,185.913 386.269,213.885 " fill="none" id="Car-backto-BaseModel" style="stroke: #A80036; stroke-width: 1.0; stroke-dasharray: 7.0,7.0;"/><polygon fill="none" points="291.132,113.009,283.49,93.245,301.789,103.93,291.132,113.009" style="stroke: #A80036; stroke-width: 1.0;"/><!--MD5=[98c8529a08e33f1df70c26908dfb1db3]
@startuml
skinparam classAttributeIconSize 0
class Car
{
    # description:string
    +{abstract} getDescription():string
    +{abstract} getPrice():double;
}
class BaseModel
{
+ getPrice():double
}
note "return 35000" as BaseModelNote
BaseModelNote -left.. BaseModel

class OptionsDecorator
{
    +{abstract} getPrice():double;
}

class Navigation
{
    getDescription():string
    getPrice():double;
}
class SoundSystem
{
    getDescription():string
    getPrice():double;

}
class LeatherSeat
{
    getDescription():string
    getPrice():double;
}
OptionsDecorator -up..|> Car
OptionsDecorator *- - Car

Navigation -up..|> OptionsDecorator
SoundSystem -up..|> OptionsDecorator
LeatherSeat -up..|> OptionsDecorator
BaseModel -up..|> Car
@enduml

PlantUML version 1.2020.17beta5(Unknown compile time)
(GPL source distribution)
Java Runtime: Java(TM) SE Runtime Environment
JVM: Java HotSpot(TM) 64-Bit Server VM
Default Encoding: UTF-8
Language: en
Country: US
--></g></svg>