<?xml version="1.0" encoding="UTF-8" standalone="no"?><svg xmlns="http://www.w3.org/2000/svg" xmlns:xlink="http://www.w3.org/1999/xlink" contentScriptType="application/ecmascript" contentStyleType="text/css" height="705px" preserveAspectRatio="none" style="width:959px;height:705px;" version="1.1" viewBox="0 0 959 705" width="959px" zoomAndPan="magnify"><defs><filter height="300%" id="fm97gc08skz1" width="300%" x="-1" y="-1"><feGaussianBlur result="blurOut" stdDeviation="2.0"/><feColorMatrix in="blurOut" result="blurOut2" type="matrix" values="0 0 0 0 0 0 0 0 0 0 0 0 0 0 0 0 0 0 .4 0"/><feOffset dx="4.0" dy="4.0" in="blurOut2" result="blurOut3"/><feBlend in="SourceGraphic" in2="blurOut3" mode="normal"/></filter></defs><g><!--MD5=[3f0ef310aaa84a542276992c5216544d]
class Car--><rect codeLine="5" fill="#FEFECE" filter="url(#fm97gc08skz1)" height="92.3516" id="Car" style="stroke: #A80036; stroke-width: 1.5;" width="146" x="73.5" y="152"/><ellipse cx="97.5" cy="170.9688" fill="#B4A7E5" rx="11" ry="11" style="stroke: #A80036; stroke-width: 1.0;"/><path d="M98.4531,167.75 L100.1719,167.75 C100.5625,167.75 100.75,167.7188 100.875,167.6406 C101.1406,167.4844 101.2813,167.2031 101.2813,166.9063 C101.2813,166.6406 101.1719,166.375 100.9375,166.2031 C100.7656,166.0938 100.625,166.0625 100.1719,166.0625 L95.0313,166.0625 C94.5938,166.0625 94.4688,166.0781 94.3125,166.1719 C94.0625,166.3281 93.9063,166.625 93.9063,166.9063 C93.9063,167.1875 94.0469,167.4375 94.2656,167.6094 C94.4219,167.7188 94.6094,167.75 95.0313,167.75 L96.75,167.75 L96.75,174.2656 L95.0313,174.2656 C94.5938,174.2656 94.4688,174.2813 94.3125,174.3906 C94.0625,174.5469 93.9063,174.8281 93.9063,175.125 C93.9063,175.375 94.0469,175.6406 94.2656,175.7969 C94.4219,175.9219 94.625,175.9688 95.0313,175.9688 L100.1719,175.9688 C100.9219,175.9688 101.2813,175.6875 101.2813,175.125 C101.2813,174.8438 101.1719,174.5938 100.9375,174.4219 C100.7656,174.2969 100.625,174.2656 100.1719,174.2656 L98.4531,174.2656 L98.4531,167.75 Z "/><text fill="#000000" font-family="sans-serif" font-size="12" font-style="italic" lengthAdjust="spacingAndGlyphs" textLength="94" x="113.5" y="168.1387">&lt;&lt;Interface&gt;&gt;</text><text fill="#000000" font-family="sans-serif" font-size="12" font-style="italic" lengthAdjust="spacingAndGlyphs" textLength="20" x="152.5" y="182.1074">Car</text><line style="stroke: #A80036; stroke-width: 1.5;" x1="74.5" x2="218.5" y1="189.9375" y2="189.9375"/><text fill="#000000" font-family="sans-serif" font-size="11" lengthAdjust="spacingAndGlyphs" textLength="105" x="79.5" y="204.1479">#description:string</text><line style="stroke: #A80036; stroke-width: 1.5;" x1="74.5" x2="218.5" y1="210.7422" y2="210.7422"/><text fill="#000000" font-family="sans-serif" font-size="11" font-style="italic" lengthAdjust="spacingAndGlyphs" textLength="134" x="79.5" y="224.9526">+getDescription():string</text><text fill="#000000" font-family="sans-serif" font-size="11" font-style="italic" lengthAdjust="spacingAndGlyphs" textLength="109" x="79.5" y="237.7573">+getPrice():double;</text><!--MD5=[0f7bc2b2700b8f1b8b0a0321832dd523]
class BaseModel--><rect codeLine="12" fill="#FEFECE" filter="url(#fm97gc08skz1)" height="60.8047" id="BaseModel" style="stroke: #A80036; stroke-width: 1.5;" width="117" x="269" y="384"/><ellipse cx="292.1" cy="400" fill="#ADD1B2" rx="11" ry="11" style="stroke: #A80036; stroke-width: 1.0;"/><path d="M294.4438,395.6719 C293.5063,395.2344 292.9125,395.0938 292.0375,395.0938 C289.4125,395.0938 287.4125,397.1719 287.4125,399.8906 L287.4125,401.0156 C287.4125,403.5938 289.5219,405.4844 292.4125,405.4844 C293.6313,405.4844 294.7875,405.1875 295.5375,404.6406 C296.1156,404.2344 296.4438,403.7813 296.4438,403.3906 C296.4438,402.9375 296.0531,402.5469 295.5844,402.5469 C295.3656,402.5469 295.1625,402.625 294.975,402.8125 C294.5219,403.2969 294.5219,403.2969 294.3344,403.3906 C293.9125,403.6563 293.225,403.7813 292.4594,403.7813 C290.4125,403.7813 289.1156,402.6875 289.1156,400.9844 L289.1156,399.8906 C289.1156,398.1094 290.3656,396.7969 292.1,396.7969 C292.6781,396.7969 293.2875,396.9531 293.7563,397.2031 C294.2406,397.4844 294.4125,397.7031 294.5063,398.1094 C294.5688,398.5156 294.6,398.6406 294.7406,398.7656 C294.8813,398.9063 295.1156,399.0156 295.3344,399.0156 C295.6,399.0156 295.8656,398.875 296.0375,398.6563 C296.1469,398.5 296.1781,398.3125 296.1781,397.8906 L296.1781,396.4688 C296.1781,396.0313 296.1625,395.9063 296.0688,395.75 C295.9125,395.4844 295.6313,395.3438 295.3344,395.3438 C295.0375,395.3438 294.8344,395.4375 294.6156,395.75 L294.4438,395.6719 Z "/><text fill="#000000" font-family="sans-serif" font-size="12" lengthAdjust="spacingAndGlyphs" textLength="67" x="307.9" y="404.1543">BaseModel</text><line style="stroke: #A80036; stroke-width: 1.5;" x1="270" x2="385" y1="416" y2="416"/><line style="stroke: #A80036; stroke-width: 1.5;" x1="270" x2="385" y1="424" y2="424"/><text fill="#000000" font-family="sans-serif" font-size="11" lengthAdjust="spacingAndGlyphs" textLength="105" x="275" y="438.2104">+getPrice():double</text><path d="M421.5,402 L421.5,410.5 L386.242,414.5 L421.5,418.5 L421.5,427.1328 A0,0 0 0 0 421.5,427.1328 L525.5,427.1328 A0,0 0 0 0 525.5,427.1328 L525.5,412 L515.5,402 L421.5,402 A0,0 0 0 0 421.5,402 " fill="#FBFB77" filter="url(#fm97gc08skz1)" style="stroke: #A80036; stroke-width: 1.0;"/><path d="M515.5,402 L515.5,412 L525.5,412 L515.5,402 " fill="#FBFB77" style="stroke: #A80036; stroke-width: 1.0;"/><text fill="#000000" font-family="sans-serif" font-size="13" lengthAdjust="spacingAndGlyphs" textLength="83" x="427.5" y="419.0669">return 35000</text><!--MD5=[0730a765a178c2b5ac48524e79572a8d]
class OptionsDecorator--><rect codeLine="19" fill="#FEFECE" filter="url(#fm97gc08skz1)" height="99.2188" id="OptionsDecorator" style="stroke: #A80036; stroke-width: 1.5;" width="174" x="59.5" y="365"/><ellipse cx="89.8" cy="381" fill="#ADD1B2" rx="11" ry="11" style="stroke: #A80036; stroke-width: 1.0;"/><path d="M92.1438,376.6719 C91.2063,376.2344 90.6125,376.0938 89.7375,376.0938 C87.1125,376.0938 85.1125,378.1719 85.1125,380.8906 L85.1125,382.0156 C85.1125,384.5938 87.2219,386.4844 90.1125,386.4844 C91.3313,386.4844 92.4875,386.1875 93.2375,385.6406 C93.8156,385.2344 94.1438,384.7813 94.1438,384.3906 C94.1438,383.9375 93.7531,383.5469 93.2844,383.5469 C93.0656,383.5469 92.8625,383.625 92.675,383.8125 C92.2219,384.2969 92.2219,384.2969 92.0344,384.3906 C91.6125,384.6563 90.925,384.7813 90.1594,384.7813 C88.1125,384.7813 86.8156,383.6875 86.8156,381.9844 L86.8156,380.8906 C86.8156,379.1094 88.0656,377.7969 89.8,377.7969 C90.3781,377.7969 90.9875,377.9531 91.4563,378.2031 C91.9406,378.4844 92.1125,378.7031 92.2063,379.1094 C92.2688,379.5156 92.3,379.6406 92.4406,379.7656 C92.5813,379.9063 92.8156,380.0156 93.0344,380.0156 C93.3,380.0156 93.5656,379.875 93.7375,379.6563 C93.8469,379.5 93.8781,379.3125 93.8781,378.8906 L93.8781,377.4688 C93.8781,377.0313 93.8625,376.9063 93.7688,376.75 C93.6125,376.4844 93.3313,376.3438 93.0344,376.3438 C92.7375,376.3438 92.5344,376.4375 92.3156,376.75 L92.1438,376.6719 Z "/><text fill="#000000" font-family="sans-serif" font-size="12" lengthAdjust="spacingAndGlyphs" textLength="108" x="107.2" y="385.1543">OptionsDecorator</text><line style="stroke: #A80036; stroke-width: 1.5;" x1="60.5" x2="232.5" y1="397" y2="397"/><text fill="#000000" font-family="sans-serif" font-size="11" lengthAdjust="spacingAndGlyphs" textLength="75" x="65.5" y="411.2104">#m_car: Car*</text><line style="stroke: #A80036; stroke-width: 1.5;" x1="60.5" x2="232.5" y1="417.8047" y2="417.8047"/><text fill="#000000" font-family="sans-serif" font-size="11" lengthAdjust="spacingAndGlyphs" textLength="162" x="65.5" y="432.0151">+OptionsDecorator(Car *car)</text><text fill="#000000" font-family="sans-serif" font-size="11" font-style="italic" lengthAdjust="spacingAndGlyphs" textLength="109" x="65.5" y="444.8198">+getPrice():double;</text><text fill="#000000" font-family="sans-serif" font-size="11" font-style="italic" lengthAdjust="spacingAndGlyphs" textLength="138" x="65.5" y="457.6245">+getDescription():string;</text><!--MD5=[cf6e0a6b8083ba72f4a55905082c92ea]
class Navigation--><rect codeLine="27" fill="#FEFECE" filter="url(#fm97gc08skz1)" height="73.6094" id="Navigation" style="stroke: #A80036; stroke-width: 1.5;" width="137" x="253" y="613"/><ellipse cx="287.35" cy="629" fill="#ADD1B2" rx="11" ry="11" style="stroke: #A80036; stroke-width: 1.0;"/><path d="M289.6938,624.6719 C288.7563,624.2344 288.1625,624.0938 287.2875,624.0938 C284.6625,624.0938 282.6625,626.1719 282.6625,628.8906 L282.6625,630.0156 C282.6625,632.5938 284.7719,634.4844 287.6625,634.4844 C288.8813,634.4844 290.0375,634.1875 290.7875,633.6406 C291.3656,633.2344 291.6938,632.7813 291.6938,632.3906 C291.6938,631.9375 291.3031,631.5469 290.8344,631.5469 C290.6156,631.5469 290.4125,631.625 290.225,631.8125 C289.7719,632.2969 289.7719,632.2969 289.5844,632.3906 C289.1625,632.6563 288.475,632.7813 287.7094,632.7813 C285.6625,632.7813 284.3656,631.6875 284.3656,629.9844 L284.3656,628.8906 C284.3656,627.1094 285.6156,625.7969 287.35,625.7969 C287.9281,625.7969 288.5375,625.9531 289.0063,626.2031 C289.4906,626.4844 289.6625,626.7031 289.7563,627.1094 C289.8188,627.5156 289.85,627.6406 289.9906,627.7656 C290.1313,627.9063 290.3656,628.0156 290.5844,628.0156 C290.85,628.0156 291.1156,627.875 291.2875,627.6563 C291.3969,627.5 291.4281,627.3125 291.4281,626.8906 L291.4281,625.4688 C291.4281,625.0313 291.4125,624.9063 291.3188,624.75 C291.1625,624.4844 290.8813,624.3438 290.5844,624.3438 C290.2875,624.3438 290.0844,624.4375 289.8656,624.75 L289.6938,624.6719 Z "/><text fill="#000000" font-family="sans-serif" font-size="12" lengthAdjust="spacingAndGlyphs" textLength="62" x="305.65" y="633.1543">Navigation</text><line style="stroke: #A80036; stroke-width: 1.5;" x1="254" x2="389" y1="645" y2="645"/><line style="stroke: #A80036; stroke-width: 1.5;" x1="254" x2="389" y1="653" y2="653"/><text fill="#000000" font-family="sans-serif" font-size="11" lengthAdjust="spacingAndGlyphs" textLength="125" x="259" y="667.2104">getDescription():string</text><text fill="#000000" font-family="sans-serif" font-size="11" lengthAdjust="spacingAndGlyphs" textLength="99" x="259" y="680.0151">getPrice():double;</text><!--MD5=[bbe56577037d852b1c78a54760285559]
class SoundSystem--><rect codeLine="32" fill="#FEFECE" filter="url(#fm97gc08skz1)" height="73.6094" id="SoundSystem" style="stroke: #A80036; stroke-width: 1.5;" width="137" x="7" y="612"/><ellipse cx="31.9" cy="628" fill="#ADD1B2" rx="11" ry="11" style="stroke: #A80036; stroke-width: 1.0;"/><path d="M34.2438,623.6719 C33.3063,623.2344 32.7125,623.0938 31.8375,623.0938 C29.2125,623.0938 27.2125,625.1719 27.2125,627.8906 L27.2125,629.0156 C27.2125,631.5938 29.3219,633.4844 32.2125,633.4844 C33.4313,633.4844 34.5875,633.1875 35.3375,632.6406 C35.9156,632.2344 36.2438,631.7813 36.2438,631.3906 C36.2438,630.9375 35.8531,630.5469 35.3844,630.5469 C35.1656,630.5469 34.9625,630.625 34.775,630.8125 C34.3219,631.2969 34.3219,631.2969 34.1344,631.3906 C33.7125,631.6563 33.025,631.7813 32.2594,631.7813 C30.2125,631.7813 28.9156,630.6875 28.9156,628.9844 L28.9156,627.8906 C28.9156,626.1094 30.1656,624.7969 31.9,624.7969 C32.4781,624.7969 33.0875,624.9531 33.5563,625.2031 C34.0406,625.4844 34.2125,625.7031 34.3063,626.1094 C34.3688,626.5156 34.4,626.6406 34.5406,626.7656 C34.6813,626.9063 34.9156,627.0156 35.1344,627.0156 C35.4,627.0156 35.6656,626.875 35.8375,626.6563 C35.9469,626.5 35.9781,626.3125 35.9781,625.8906 L35.9781,624.4688 C35.9781,624.0313 35.9625,623.9063 35.8688,623.75 C35.7125,623.4844 35.4313,623.3438 35.1344,623.3438 C34.8375,623.3438 34.6344,623.4375 34.4156,623.75 L34.2438,623.6719 Z "/><text fill="#000000" font-family="sans-serif" font-size="12" lengthAdjust="spacingAndGlyphs" textLength="83" x="48.1" y="632.1543">SoundSystem</text><line style="stroke: #A80036; stroke-width: 1.5;" x1="8" x2="143" y1="644" y2="644"/><line style="stroke: #A80036; stroke-width: 1.5;" x1="8" x2="143" y1="652" y2="652"/><text fill="#000000" font-family="sans-serif" font-size="11" lengthAdjust="spacingAndGlyphs" textLength="125" x="13" y="666.2104">getDescription():string</text><text fill="#000000" font-family="sans-serif" font-size="11" lengthAdjust="spacingAndGlyphs" textLength="99" x="13" y="679.0151">getPrice():double;</text><!--MD5=[b3397dc79cc7751a66b03cc686aa34fb]
class LeatherSeat--><rect codeLine="38" fill="#FEFECE" filter="url(#fm97gc08skz1)" height="73.6094" id="LeatherSeat" style="stroke: #A80036; stroke-width: 1.5;" width="137" x="803" y="612"/><ellipse cx="832.85" cy="628" fill="#ADD1B2" rx="11" ry="11" style="stroke: #A80036; stroke-width: 1.0;"/><path d="M835.1938,623.6719 C834.2563,623.2344 833.6625,623.0938 832.7875,623.0938 C830.1625,623.0938 828.1625,625.1719 828.1625,627.8906 L828.1625,629.0156 C828.1625,631.5938 830.2719,633.4844 833.1625,633.4844 C834.3813,633.4844 835.5375,633.1875 836.2875,632.6406 C836.8656,632.2344 837.1938,631.7813 837.1938,631.3906 C837.1938,630.9375 836.8031,630.5469 836.3344,630.5469 C836.1156,630.5469 835.9125,630.625 835.725,630.8125 C835.2719,631.2969 835.2719,631.2969 835.0844,631.3906 C834.6625,631.6563 833.975,631.7813 833.2094,631.7813 C831.1625,631.7813 829.8656,630.6875 829.8656,628.9844 L829.8656,627.8906 C829.8656,626.1094 831.1156,624.7969 832.85,624.7969 C833.4281,624.7969 834.0375,624.9531 834.5063,625.2031 C834.9906,625.4844 835.1625,625.7031 835.2563,626.1094 C835.3188,626.5156 835.35,626.6406 835.4906,626.7656 C835.6313,626.9063 835.8656,627.0156 836.0844,627.0156 C836.35,627.0156 836.6156,626.875 836.7875,626.6563 C836.8969,626.5 836.9281,626.3125 836.9281,625.8906 L836.9281,624.4688 C836.9281,624.0313 836.9125,623.9063 836.8188,623.75 C836.6625,623.4844 836.3813,623.3438 836.0844,623.3438 C835.7875,623.3438 835.5844,623.4375 835.3656,623.75 L835.1938,623.6719 Z "/><text fill="#000000" font-family="sans-serif" font-size="12" lengthAdjust="spacingAndGlyphs" textLength="72" x="850.15" y="632.1543">LeatherSeat</text><line style="stroke: #A80036; stroke-width: 1.5;" x1="804" x2="939" y1="644" y2="644"/><line style="stroke: #A80036; stroke-width: 1.5;" x1="804" x2="939" y1="652" y2="652"/><text fill="#000000" font-family="sans-serif" font-size="11" lengthAdjust="spacingAndGlyphs" textLength="125" x="809" y="666.2104">getDescription():string</text><text fill="#000000" font-family="sans-serif" font-size="11" lengthAdjust="spacingAndGlyphs" textLength="99" x="809" y="679.0151">getPrice():double;</text><!--MD5=[ed6624c6556d5e7b1bd23032162d20b7]
class Client--><rect codeLine="43" fill="#FEFECE" filter="url(#fm97gc08skz1)" height="48" id="Client" style="stroke: #A80036; stroke-width: 1.5;" width="65" x="114" y="25"/><ellipse cx="129" cy="41" fill="#ADD1B2" rx="11" ry="11" style="stroke: #A80036; stroke-width: 1.0;"/><path d="M131.3438,36.6719 C130.4063,36.2344 129.8125,36.0938 128.9375,36.0938 C126.3125,36.0938 124.3125,38.1719 124.3125,40.8906 L124.3125,42.0156 C124.3125,44.5938 126.4219,46.4844 129.3125,46.4844 C130.5313,46.4844 131.6875,46.1875 132.4375,45.6406 C133.0156,45.2344 133.3438,44.7813 133.3438,44.3906 C133.3438,43.9375 132.9531,43.5469 132.4844,43.5469 C132.2656,43.5469 132.0625,43.625 131.875,43.8125 C131.4219,44.2969 131.4219,44.2969 131.2344,44.3906 C130.8125,44.6563 130.125,44.7813 129.3594,44.7813 C127.3125,44.7813 126.0156,43.6875 126.0156,41.9844 L126.0156,40.8906 C126.0156,39.1094 127.2656,37.7969 129,37.7969 C129.5781,37.7969 130.1875,37.9531 130.6563,38.2031 C131.1406,38.4844 131.3125,38.7031 131.4063,39.1094 C131.4688,39.5156 131.5,39.6406 131.6406,39.7656 C131.7813,39.9063 132.0156,40.0156 132.2344,40.0156 C132.5,40.0156 132.7656,39.875 132.9375,39.6563 C133.0469,39.5 133.0781,39.3125 133.0781,38.8906 L133.0781,37.4688 C133.0781,37.0313 133.0625,36.9063 132.9688,36.75 C132.8125,36.4844 132.5313,36.3438 132.2344,36.3438 C131.9375,36.3438 131.7344,36.4375 131.5156,36.75 L131.3438,36.6719 Z "/><text fill="#000000" font-family="sans-serif" font-size="12" lengthAdjust="spacingAndGlyphs" textLength="33" x="143" y="45.1543">Client</text><line style="stroke: #A80036; stroke-width: 1.5;" x1="115" x2="178" y1="57" y2="57"/><line style="stroke: #A80036; stroke-width: 1.5;" x1="115" x2="178" y1="65" y2="65"/><path d="M214.5,6 L214.5,45 L179.293,49 L214.5,53 L214.5,91.6641 A0,0 0 0 0 214.5,91.6641 L808.5,91.6641 A0,0 0 0 0 808.5,91.6641 L808.5,16 L798.5,6 L214.5,6 A0,0 0 0 0 214.5,6 " fill="#FBFB77" filter="url(#fm97gc08skz1)" style="stroke: #A80036; stroke-width: 1.0;"/><path d="M798.5,6 L798.5,16 L808.5,16 L798.5,6 " fill="#FBFB77" style="stroke: #A80036; stroke-width: 1.0;"/><text fill="#000000" font-family="sans-serif" font-size="13" lengthAdjust="spacingAndGlyphs" textLength="235" x="220.5" y="23.0669">Car *base_model=new BaseModel();</text><text fill="#000000" font-family="sans-serif" font-size="13" lengthAdjust="spacingAndGlyphs" textLength="435" x="220.5" y="38.1997">Car *base_model_sound_system=new SoundSystem(base_model);</text><text fill="#000000" font-family="sans-serif" font-size="13" lengthAdjust="spacingAndGlyphs" textLength="573" x="220.5" y="53.3325">Car *base_model_sound_system_navigan=new Navigation(base_model_sound_system);</text><text fill="#000000" font-family="sans-serif" font-size="13" lengthAdjust="spacingAndGlyphs" textLength="360" x="220.5" y="68.4653">base_model_sound_system_navigan-&gt;getDescription();</text><text fill="#000000" font-family="sans-serif" font-size="13" lengthAdjust="spacingAndGlyphs" textLength="314" x="220.5" y="83.5981">base_model_sound_system_navigan-&gt;getPrice()</text><path d="M199.5,524 L199.5,549.1328 L445.5,549.1328 L445.5,534 L435.5,524 L199.5,524 " fill="#FBFB77" filter="url(#fm97gc08skz1)" style="stroke: #A80036; stroke-width: 1.0;"/><path d="M435.5,524 L435.5,534 L445.5,534 L435.5,524 " fill="#FBFB77" style="stroke: #A80036; stroke-width: 1.0;"/><text fill="#000000" font-family="sans-serif" font-size="13" lengthAdjust="spacingAndGlyphs" textLength="225" x="205.5" y="541.0669">return  m_car-&gt;getPrice()+  + 500;</text><path d="M481,524 L481,549.1328 A0,0 0 0 0 481,549.1328 L632.617,549.1328 L391.5,663 L640.617,549.1328 L818,549.1328 A0,0 0 0 0 818,549.1328 L818,534 L808,524 L481,524 A0,0 0 0 0 481,524 " fill="#FBFB77" filter="url(#fm97gc08skz1)" style="stroke: #A80036; stroke-width: 1.0;"/><path d="M808,524 L808,534 L818,534 L808,524 " fill="#FBFB77" style="stroke: #A80036; stroke-width: 1.0;"/><text fill="#000000" font-family="sans-serif" font-size="13" lengthAdjust="spacingAndGlyphs" textLength="316" x="487" y="541.0669">return  m_car-&gt;getDescription()+ ' + Navigation';</text><!--MD5=[a0d614a21dbb6eff20686f61e5fc4582]
reverse link Car to OptionsDecorator--><path codeLine="44" d="M134.651,264.486 C133.183,296.867 133.509,335.269 135.629,364.977 " fill="none" id="Car-backto-OptionsDecorator" style="stroke: #A80036; stroke-width: 1.0; stroke-dasharray: 7.0,7.0;"/><polygon fill="none" points="127.682,263.77,135.875,244.228,141.656,264.613,127.682,263.77" style="stroke: #A80036; stroke-width: 1.0;"/><!--MD5=[a8bfb0eef420a665faad2b88b7582f36]
reverse link OptionsDecorator to Car--><path codeLine="45" d="M158.856,351.756 C160.688,317.434 160.32,275.479 157.75,244.228 " fill="none" id="OptionsDecorator-backto-Car" style="stroke: #A80036; stroke-width: 1.0;"/><polygon fill="#FFFFFF" points="158.01,364.977,162.3849,359.2446,158.7762,353.0015,154.4013,358.7338,158.01,364.977" style="stroke: #A80036; stroke-width: 1.0;"/><!--MD5=[5aa7dd1ce9bf93138bfc437502f9babd]
reverse link OptionsDecorator to SoundSystem--><path codeLine="47" d="M125.704,483.601 C112.888,525.568 96.9669,577.703 86.5344,611.8662 " fill="none" id="OptionsDecorator-backto-SoundSystem" style="stroke: #A80036; stroke-width: 1.0; stroke-dasharray: 7.0,7.0;"/><polygon fill="none" points="119.08,481.323,131.616,464.24,132.47,485.412,119.08,481.323" style="stroke: #A80036; stroke-width: 1.0;"/><!--MD5=[73ed8f4470f559b21372e205aaebc44a]
reverse link OptionsDecorator to LeatherSeat--><path codeLine="48" d="M253.307,462.982 C407.61,493.761 739.629,444.015 835.5,524 C860.975,545.254 869.027,583.377 871.286,611.7611 " fill="none" id="OptionsDecorator-backto-LeatherSeat" style="stroke: #A80036; stroke-width: 1.0; stroke-dasharray: 7.0,7.0;"/><polygon fill="none" points="251.487,469.745,233.635,458.33,254.709,456.12,251.487,469.745" style="stroke: #A80036; stroke-width: 1.0;"/><!--MD5=[21474268a8c18a434541d26bc3869c37]
reverse link OptionsDecorator to Navigation--><path codeLine="49" d="M154.94,484.017 C160.06,506.174 168.285,529.924 181.5,549 C198.113,572.981 222.523,593.1095 246.326,608.8208 " fill="none" id="OptionsDecorator-backto-Navigation" style="stroke: #A80036; stroke-width: 1.0; stroke-dasharray: 7.0,7.0;"/><polygon fill="none" points="148.053,485.272,151.057,464.296,161.789,482.567,148.053,485.272" style="stroke: #A80036; stroke-width: 1.0;"/><!--MD5=[94fb906c6fb0d79a38e8e35a16c3a022]
reverse link Car to BaseModel--><path codeLine="51" d="M197.747,259.732 C231.987,300.309 275.524,351.904 302.448,383.811 " fill="none" id="Car-backto-BaseModel" style="stroke: #A80036; stroke-width: 1.0; stroke-dasharray: 7.0,7.0;"/><polygon fill="none" points="192.213,264.027,184.664,244.228,202.912,254.999,192.213,264.027" style="stroke: #A80036; stroke-width: 1.0;"/><!--MD5=[484f4805157df45ac41e200815dd1f9f]
link Client to Car--><path codeLine="52" d="M146.5,73.293 C146.5,92.944 146.5,121.767 146.5,146.648 " fill="none" id="Client-to-Car" style="stroke: #A80036; stroke-width: 1.0;"/><polygon fill="#A80036" points="146.5,151.893,150.5,142.893,146.5,146.893,142.5,142.893,146.5,151.893" style="stroke: #A80036; stroke-width: 1.0;"/><!--MD5=[518723d1e64ba70129f4475b0791e3ff]
link NavigationgetPrice to Navigation--><path codeLine="64" d="M339.335,549.183 C355.865,561.77 380.072,583.467 390.5,609 C401.592,636.159 420.837,675 391.5,675 " fill="none" id="NavigationgetPrice-Navigation" style="stroke: #A80036; stroke-width: 1.0;"/><!--MD5=[bbcbb5fd832a37f72e685ddf4a22d9be]
@startuml
skinparam classAttributeIconSize 0



interface "<<Interface>>\n Car" as Car
{
   # description:string
    +{abstract} getDescription():string
    +{abstract} getPrice():double;
}

class BaseModel
{
+ getPrice():double
}
note "return 35000" as BaseModelNote
BaseModelNote -left.. BaseModel

class OptionsDecorator
{
# m_car: Car*
+OptionsDecorator(Car *car)    
+{abstract} getPrice():double;
+{abstract} getDescription():string;
}

class Navigation
{
    getDescription():string
    getPrice():double;
}
class SoundSystem
{
    getDescription():string
    getPrice():double;

}
class LeatherSeat
{
    getDescription():string
    getPrice():double;
}
class Client{}
OptionsDecorator -up..|> Car
OptionsDecorator o- - Car

SoundSystem -up..|> OptionsDecorator
LeatherSeat -up..|> OptionsDecorator
Navigation -up..|> OptionsDecorator

BaseModel -up..|> Car
Client - -> Car


note "Car *base_model=new BaseModel();\nCar *base_model_sound_system=new SoundSystem(base_model);\nCar *base_model_sound_system_navigan=new Navigation(base_model_sound_system);\nbase_model_sound_system_navigan->getDescription();\nbase_model_sound_system_navigan->getPrice()" as ClientNote


ClientNote -left- -Client

note "return  m_car->getPrice()+  + 500;" as NavigationgetPrice
note "return  m_car->getDescription()+ ' + Navigation';" as NavigationgetDescription

NavigationgetDescription - - Navigation::getDescription
NavigationgetPrice - - Navigation::getPrice
@enduml

PlantUML version 1.2020.17(Sat Sep 19 12:30:11 UTC 2020)
(GPL source distribution)
Java Runtime: Java(TM) SE Runtime Environment
JVM: Java HotSpot(TM) 64-Bit Server VM
Default Encoding: UTF-8
Language: en
Country: US
--></g></svg>