<?xml version="1.0" encoding="UTF-8" standalone="no"?><svg xmlns="http://www.w3.org/2000/svg" xmlns:xlink="http://www.w3.org/1999/xlink" contentScriptType="application/ecmascript" contentStyleType="text/css" height="233px" preserveAspectRatio="none" style="width:492px;height:233px;" version="1.1" viewBox="0 0 492 233" width="492px" zoomAndPan="magnify"><defs><filter height="300%" id="f1lbooquhnf40x" width="300%" x="-1" y="-1"><feGaussianBlur result="blurOut" stdDeviation="2.0"/><feColorMatrix in="blurOut" result="blurOut2" type="matrix" values="0 0 0 0 0 0 0 0 0 0 0 0 0 0 0 0 0 0 .4 0"/><feOffset dx="4.0" dy="4.0" in="blurOut2" result="blurOut3"/><feBlend in="SourceGraphic" in2="blurOut3" mode="normal"/></filter></defs><g><!--MD5=[78db38bbc9e86f0d611c5198b76d70dc]
class Alarm--><rect codeLine="3" fill="#FEFECE" filter="url(#f1lbooquhnf40x)" height="73.6094" id="Alarm" style="stroke: #A80036; stroke-width: 1.5;" width="105" x="55.5" y="141"/><ellipse cx="88.05" cy="157" fill="#ADD1B2" rx="11" ry="11" style="stroke: #A80036; stroke-width: 1.0;"/><path d="M90.3938,152.6719 C89.4563,152.2344 88.8625,152.0938 87.9875,152.0938 C85.3625,152.0938 83.3625,154.1719 83.3625,156.8906 L83.3625,158.0156 C83.3625,160.5938 85.4719,162.4844 88.3625,162.4844 C89.5813,162.4844 90.7375,162.1875 91.4875,161.6406 C92.0656,161.2344 92.3938,160.7813 92.3938,160.3906 C92.3938,159.9375 92.0031,159.5469 91.5344,159.5469 C91.3156,159.5469 91.1125,159.625 90.925,159.8125 C90.4719,160.2969 90.4719,160.2969 90.2844,160.3906 C89.8625,160.6563 89.175,160.7813 88.4094,160.7813 C86.3625,160.7813 85.0656,159.6875 85.0656,157.9844 L85.0656,156.8906 C85.0656,155.1094 86.3156,153.7969 88.05,153.7969 C88.6281,153.7969 89.2375,153.9531 89.7063,154.2031 C90.1906,154.4844 90.3625,154.7031 90.4563,155.1094 C90.5188,155.5156 90.55,155.6406 90.6906,155.7656 C90.8313,155.9063 91.0656,156.0156 91.2844,156.0156 C91.55,156.0156 91.8156,155.875 91.9875,155.6563 C92.0969,155.5 92.1281,155.3125 92.1281,154.8906 L92.1281,153.4688 C92.1281,153.0313 92.1125,152.9063 92.0188,152.75 C91.8625,152.4844 91.5813,152.3438 91.2844,152.3438 C90.9875,152.3438 90.7844,152.4375 90.5656,152.75 L90.3938,152.6719 Z "/><text fill="#000000" font-family="sans-serif" font-size="12" lengthAdjust="spacingAndGlyphs" textLength="34" x="105.95" y="161.1543">Alarm</text><line style="stroke: #A80036; stroke-width: 1.5;" x1="56.5" x2="159.5" y1="173" y2="173"/><line style="stroke: #A80036; stroke-width: 1.5;" x1="56.5" x2="159.5" y1="181" y2="181"/><text fill="#000000" font-family="sans-serif" font-size="11" lengthAdjust="spacingAndGlyphs" textLength="92" x="61.5" y="195.2104">+alarmOn():void</text><text fill="#000000" font-family="sans-serif" font-size="11" lengthAdjust="spacingAndGlyphs" textLength="93" x="61.5" y="208.0151">+alarmOff():void</text><!--MD5=[eb6eb8fb48bb8f1576650fb5e3f706bb]
class Ac--><rect codeLine="9" fill="#FEFECE" filter="url(#f1lbooquhnf40x)" height="73.6094" id="Ac" style="stroke: #A80036; stroke-width: 1.5;" width="86" x="196" y="141"/><ellipse cx="228.55" cy="157" fill="#ADD1B2" rx="11" ry="11" style="stroke: #A80036; stroke-width: 1.0;"/><path d="M230.8938,152.6719 C229.9563,152.2344 229.3625,152.0938 228.4875,152.0938 C225.8625,152.0938 223.8625,154.1719 223.8625,156.8906 L223.8625,158.0156 C223.8625,160.5938 225.9719,162.4844 228.8625,162.4844 C230.0813,162.4844 231.2375,162.1875 231.9875,161.6406 C232.5656,161.2344 232.8938,160.7813 232.8938,160.3906 C232.8938,159.9375 232.5031,159.5469 232.0344,159.5469 C231.8156,159.5469 231.6125,159.625 231.425,159.8125 C230.9719,160.2969 230.9719,160.2969 230.7844,160.3906 C230.3625,160.6563 229.675,160.7813 228.9094,160.7813 C226.8625,160.7813 225.5656,159.6875 225.5656,157.9844 L225.5656,156.8906 C225.5656,155.1094 226.8156,153.7969 228.55,153.7969 C229.1281,153.7969 229.7375,153.9531 230.2063,154.2031 C230.6906,154.4844 230.8625,154.7031 230.9563,155.1094 C231.0188,155.5156 231.05,155.6406 231.1906,155.7656 C231.3313,155.9063 231.5656,156.0156 231.7844,156.0156 C232.05,156.0156 232.3156,155.875 232.4875,155.6563 C232.5969,155.5 232.6281,155.3125 232.6281,154.8906 L232.6281,153.4688 C232.6281,153.0313 232.6125,152.9063 232.5188,152.75 C232.3625,152.4844 232.0813,152.3438 231.7844,152.3438 C231.4875,152.3438 231.2844,152.4375 231.0656,152.75 L230.8938,152.6719 Z "/><text fill="#000000" font-family="sans-serif" font-size="12" lengthAdjust="spacingAndGlyphs" textLength="15" x="246.45" y="161.1543">Ac</text><line style="stroke: #A80036; stroke-width: 1.5;" x1="197" x2="281" y1="173" y2="173"/><line style="stroke: #A80036; stroke-width: 1.5;" x1="197" x2="281" y1="181" y2="181"/><text fill="#000000" font-family="sans-serif" font-size="11" lengthAdjust="spacingAndGlyphs" textLength="73" x="202" y="195.2104">+acOn():void</text><text fill="#000000" font-family="sans-serif" font-size="11" lengthAdjust="spacingAndGlyphs" textLength="74" x="202" y="208.0151">+acOff():void</text><!--MD5=[c40581dce3a61b73d493470d15ee44f1]
class Tv--><rect codeLine="15" fill="#FEFECE" filter="url(#f1lbooquhnf40x)" height="73.6094" id="Tv" style="stroke: #A80036; stroke-width: 1.5;" width="84" x="317" y="141"/><ellipse cx="349.1" cy="157" fill="#ADD1B2" rx="11" ry="11" style="stroke: #A80036; stroke-width: 1.0;"/><path d="M351.4438,152.6719 C350.5063,152.2344 349.9125,152.0938 349.0375,152.0938 C346.4125,152.0938 344.4125,154.1719 344.4125,156.8906 L344.4125,158.0156 C344.4125,160.5938 346.5219,162.4844 349.4125,162.4844 C350.6313,162.4844 351.7875,162.1875 352.5375,161.6406 C353.1156,161.2344 353.4438,160.7813 353.4438,160.3906 C353.4438,159.9375 353.0531,159.5469 352.5844,159.5469 C352.3656,159.5469 352.1625,159.625 351.975,159.8125 C351.5219,160.2969 351.5219,160.2969 351.3344,160.3906 C350.9125,160.6563 350.225,160.7813 349.4594,160.7813 C347.4125,160.7813 346.1156,159.6875 346.1156,157.9844 L346.1156,156.8906 C346.1156,155.1094 347.3656,153.7969 349.1,153.7969 C349.6781,153.7969 350.2875,153.9531 350.7563,154.2031 C351.2406,154.4844 351.4125,154.7031 351.5063,155.1094 C351.5688,155.5156 351.6,155.6406 351.7406,155.7656 C351.8813,155.9063 352.1156,156.0156 352.3344,156.0156 C352.6,156.0156 352.8656,155.875 353.0375,155.6563 C353.1469,155.5 353.1781,155.3125 353.1781,154.8906 L353.1781,153.4688 C353.1781,153.0313 353.1625,152.9063 353.0688,152.75 C352.9125,152.4844 352.6313,152.3438 352.3344,152.3438 C352.0375,152.3438 351.8344,152.4375 351.6156,152.75 L351.4438,152.6719 Z "/><text fill="#000000" font-family="sans-serif" font-size="12" lengthAdjust="spacingAndGlyphs" textLength="14" x="366.9" y="161.1543">Tv</text><line style="stroke: #A80036; stroke-width: 1.5;" x1="318" x2="400" y1="173" y2="173"/><line style="stroke: #A80036; stroke-width: 1.5;" x1="318" x2="400" y1="181" y2="181"/><text fill="#000000" font-family="sans-serif" font-size="11" lengthAdjust="spacingAndGlyphs" textLength="71" x="323" y="195.2104">+tvOn():void</text><text fill="#000000" font-family="sans-serif" font-size="11" lengthAdjust="spacingAndGlyphs" textLength="72" x="323" y="208.0151">+tvOff():void</text><!--MD5=[f32c6238910104464f204809c49fd2ee]
class HouseFacade--><rect codeLine="21" fill="#FEFECE" filter="url(#f1lbooquhnf40x)" height="73.6094" id="HouseFacade" style="stroke: #A80036; stroke-width: 1.5;" width="115" x="181.5" y="7"/><ellipse cx="196.5" cy="23" fill="#ADD1B2" rx="11" ry="11" style="stroke: #A80036; stroke-width: 1.0;"/><path d="M198.8438,18.6719 C197.9063,18.2344 197.3125,18.0938 196.4375,18.0938 C193.8125,18.0938 191.8125,20.1719 191.8125,22.8906 L191.8125,24.0156 C191.8125,26.5938 193.9219,28.4844 196.8125,28.4844 C198.0313,28.4844 199.1875,28.1875 199.9375,27.6406 C200.5156,27.2344 200.8438,26.7813 200.8438,26.3906 C200.8438,25.9375 200.4531,25.5469 199.9844,25.5469 C199.7656,25.5469 199.5625,25.625 199.375,25.8125 C198.9219,26.2969 198.9219,26.2969 198.7344,26.3906 C198.3125,26.6563 197.625,26.7813 196.8594,26.7813 C194.8125,26.7813 193.5156,25.6875 193.5156,23.9844 L193.5156,22.8906 C193.5156,21.1094 194.7656,19.7969 196.5,19.7969 C197.0781,19.7969 197.6875,19.9531 198.1563,20.2031 C198.6406,20.4844 198.8125,20.7031 198.9063,21.1094 C198.9688,21.5156 199,21.6406 199.1406,21.7656 C199.2813,21.9063 199.5156,22.0156 199.7344,22.0156 C200,22.0156 200.2656,21.875 200.4375,21.6563 C200.5469,21.5 200.5781,21.3125 200.5781,20.8906 L200.5781,19.4688 C200.5781,19.0313 200.5625,18.9063 200.4688,18.75 C200.3125,18.4844 200.0313,18.3438 199.7344,18.3438 C199.4375,18.3438 199.2344,18.4375 199.0156,18.75 L198.8438,18.6719 Z "/><text fill="#000000" font-family="sans-serif" font-size="12" lengthAdjust="spacingAndGlyphs" textLength="83" x="210.5" y="27.1543">HouseFacade</text><line style="stroke: #A80036; stroke-width: 1.5;" x1="182.5" x2="295.5" y1="39" y2="39"/><line style="stroke: #A80036; stroke-width: 1.5;" x1="182.5" x2="295.5" y1="47" y2="47"/><text fill="#000000" font-family="sans-serif" font-size="11" lengthAdjust="spacingAndGlyphs" textLength="91" x="187.5" y="61.2104">goToWork():void</text><text fill="#000000" font-family="sans-serif" font-size="11" lengthAdjust="spacingAndGlyphs" textLength="101" x="187.5" y="74.0151">comeHome():void</text><path d="M6,8.5 L6,79.0313 A0,0 0 0 0 6,79.0313 L146,79.0313 A0,0 0 0 0 146,79.0313 L146,48 L181.263,44 L146,40 L146,18.5 L136,8.5 L6,8.5 A0,0 0 0 0 6,8.5 " fill="#FBFB77" filter="url(#f1lbooquhnf40x)" style="stroke: #A80036; stroke-width: 1.0;"/><path d="M136,8.5 L136,18.5 L146,18.5 L136,8.5 " fill="#FBFB77" style="stroke: #A80036; stroke-width: 1.0;"/><text fill="#000000" font-family="sans-serif" font-size="13" lengthAdjust="spacingAndGlyphs" textLength="119" x="12" y="25.5669">goToWork will call:</text><text fill="#000000" font-family="sans-serif" font-size="13" lengthAdjust="spacingAndGlyphs" textLength="69" x="16" y="40.6997">ac.acOff();</text><text fill="#000000" font-family="sans-serif" font-size="13" lengthAdjust="spacingAndGlyphs" textLength="65" x="16" y="55.8325">tv.tvOff();</text><text fill="#000000" font-family="sans-serif" font-size="13" lengthAdjust="spacingAndGlyphs" textLength="111" x="16" y="70.9653">alarm.alarmOn();</text><path d="M331.5,8.5 L331.5,40 L296.732,44 L331.5,48 L331.5,79.0313 A0,0 0 0 0 331.5,79.0313 L480.5,79.0313 A0,0 0 0 0 480.5,79.0313 L480.5,18.5 L470.5,8.5 L331.5,8.5 A0,0 0 0 0 331.5,8.5 " fill="#FBFB77" filter="url(#f1lbooquhnf40x)" style="stroke: #A80036; stroke-width: 1.0;"/><path d="M470.5,8.5 L470.5,18.5 L480.5,18.5 L470.5,8.5 " fill="#FBFB77" style="stroke: #A80036; stroke-width: 1.0;"/><text fill="#000000" font-family="sans-serif" font-size="13" lengthAdjust="spacingAndGlyphs" textLength="128" x="337.5" y="25.5669">comeHome will call:</text><text fill="#000000" font-family="sans-serif" font-size="13" lengthAdjust="spacingAndGlyphs" textLength="113" x="341.5" y="40.6997">alarm.alarmOff();</text><text fill="#000000" font-family="sans-serif" font-size="13" lengthAdjust="spacingAndGlyphs" textLength="67" x="341.5" y="55.8325">ac.acOn();</text><text fill="#000000" font-family="sans-serif" font-size="13" lengthAdjust="spacingAndGlyphs" textLength="63" x="341.5" y="70.9653">tv.tvOn();</text><!--MD5=[ffa54b15d272aa814fa32525fcac37c8]
reverse link HouseFacade to Tv--><path codeLine="26" d="M280.809,90.99 C295.695,107.365 312.232,125.5551 326.249,140.974 " fill="none" id="HouseFacade-backto-Tv" style="stroke: #A80036; stroke-width: 1.0;"/><polygon fill="#A80036" points="271.791,81.07,272.8673,88.2003,279.8631,89.9492,278.7868,82.8189,271.791,81.07" style="stroke: #A80036; stroke-width: 1.0;"/><!--MD5=[1ecb82d67831391a87bf7aa4e3d328a1]
reverse link HouseFacade to Ac--><path codeLine="27" d="M239,94.256 C239,109.755 239,126.5733 239,140.974 " fill="none" id="HouseFacade-backto-Ac" style="stroke: #A80036; stroke-width: 1.0;"/><polygon fill="#A80036" points="239,81.07,235,87.07,239,93.07,243,87.07,239,81.07" style="stroke: #A80036; stroke-width: 1.0;"/><!--MD5=[c357897913ba120b2c1e77b86f881bae]
reverse link HouseFacade to Alarm--><path codeLine="28" d="M193.818,90.527 C177.448,107.022 159.2,125.4096 143.753,140.974 " fill="none" id="HouseFacade-backto-Alarm" style="stroke: #A80036; stroke-width: 1.0;"/><polygon fill="#A80036" points="203.204,81.07,196.1384,82.5111,194.7511,89.5875,201.8167,88.1464,203.204,81.07" style="stroke: #A80036; stroke-width: 1.0;"/><!--MD5=[4e150abdd1c6dfbadd91cf8d88ddd4a8]
@startuml
skinparam classAttributeIconSize 0

class Alarm
{
+   alarmOn():void
+   alarmOff():void
}

class Ac
{
+ acOn():void
+ acOff():void
}

class Tv
{
+     tvOn():void
+     tvOff():void
}

Class HouseFacade
{
    goToWork():void
    comeHome():void
}
HouseFacade *- -Tv
HouseFacade *- -Ac
HouseFacade *- -Alarm

note "goToWork will call:\n ac.acOff(); \n tv.tvOff(); \n alarm.alarmOn();" as goToWorkNote
note "comeHome will call:\n alarm.alarmOff(); \n ac.acOn(); \n tv.tvOn();" as comeHomeNote

goToWorkNote -right- - HouseFacade
comeHomeNote-left- - HouseFacade
@enduml

PlantUML version 1.2020.17beta5(Unknown compile time)
(GPL source distribution)
Java Runtime: Java(TM) SE Runtime Environment
JVM: Java HotSpot(TM) 64-Bit Server VM
Default Encoding: UTF-8
Language: en
Country: US
--></g></svg>