<?xml version="1.0" encoding="UTF-8" standalone="no"?><svg xmlns="http://www.w3.org/2000/svg" xmlns:xlink="http://www.w3.org/1999/xlink" contentScriptType="application/ecmascript" contentStyleType="text/css" height="72px" preserveAspectRatio="none" style="width:381px;height:72px;" version="1.1" viewBox="0 0 381 72" width="381px" zoomAndPan="magnify"><defs><filter height="300%" id="f5kycijwmpk9v" width="300%" x="-1" y="-1"><feGaussianBlur result="blurOut" stdDeviation="2.0"/><feColorMatrix in="blurOut" result="blurOut2" type="matrix" values="0 0 0 0 0 0 0 0 0 0 0 0 0 0 0 0 0 0 .4 0"/><feOffset dx="4.0" dy="4.0" in="blurOut2" result="blurOut3"/><feBlend in="SourceGraphic" in2="blurOut3" mode="normal"/></filter></defs><g><!--MD5=[5f175ec018c225c86e8e77149e6345d4]
entity component--><rect fill="#FEFECE" filter="url(#f5kycijwmpk9v)" height="46.2969" style="stroke: #A80036; stroke-width: 1.5;" width="124" x="238.5" y="7"/><rect fill="#FEFECE" height="10" style="stroke: #A80036; stroke-width: 1.5;" width="15" x="342.5" y="12"/><rect fill="#FEFECE" height="2" style="stroke: #A80036; stroke-width: 1.5;" width="4" x="340.5" y="14"/><rect fill="#FEFECE" height="2" style="stroke: #A80036; stroke-width: 1.5;" width="4" x="340.5" y="18"/><text fill="#000000" font-family="sans-serif" font-size="14" lengthAdjust="spacingAndGlyphs" textLength="84" x="253.5" y="39.9951">component</text><path d="M6,17.5 L6,42.6328 A0,0 0 0 0 6,42.6328 L203,42.6328 A0,0 0 0 0 203,42.6328 L203,35.5 L238.209,30 L203,27.5 L203,27.5 L193,17.5 L6,17.5 A0,0 0 0 0 6,17.5 " fill="#FBFB77" filter="url(#f5kycijwmpk9v)" style="stroke: #A80036; stroke-width: 1.0;"/><path d="M193,17.5 L193,27.5 L203,27.5 L193,17.5 " fill="#FBFB77" style="stroke: #A80036; stroke-width: 1.0;"/><text fill="#000000" font-family="sans-serif" font-size="13" lengthAdjust="spacingAndGlyphs" textLength="176" x="12" y="34.5669">This is the UML 2.0 notation</text><!--MD5=[08026af6d0c1afbe288222408d12d0f8]
@startuml
[component]
note left : This is the UML 2.0 notation
@enduml

PlantUML version 1.2020.16(Sun Aug 23 20:20:43 UTC 2020)
(GPL source distribution)
Java Runtime: Java(TM) SE Runtime Environment
JVM: Java HotSpot(TM) 64-Bit Server VM
Default Encoding: UTF-8
Language: en
Country: US
--></g></svg>