<?xml version="1.0" encoding="UTF-8" standalone="no"?><svg xmlns="http://www.w3.org/2000/svg" xmlns:xlink="http://www.w3.org/1999/xlink" contentScriptType="application/ecmascript" contentStyleType="text/css" height="243px" preserveAspectRatio="none" style="width:556px;height:243px;" version="1.1" viewBox="0 0 556 243" width="556px" zoomAndPan="magnify"><defs><filter height="300%" id="f1orytd09tjr1i" width="300%" x="-1" y="-1"><feGaussianBlur result="blurOut" stdDeviation="2.0"/><feColorMatrix in="blurOut" result="blurOut2" type="matrix" values="0 0 0 0 0 0 0 0 0 0 0 0 0 0 0 0 0 0 .4 0"/><feOffset dx="4.0" dy="4.0" in="blurOut2" result="blurOut3"/><feBlend in="SourceGraphic" in2="blurOut3" mode="normal"/></filter></defs><g><!--MD5=[eb3c4068ba3702a628ae4f682a10bfae]
cluster SalesServer--><rect fill="#FFFFFF" filter="url(#f1orytd09tjr1i)" height="130" style="stroke: #000000; stroke-width: 1.5;" width="348" x="189" y="94"/><rect fill="#FFFFFF" height="10" style="stroke: #000000; stroke-width: 1.5;" width="15" x="517" y="99"/><rect fill="#FFFFFF" height="2" style="stroke: #000000; stroke-width: 1.5;" width="4" x="515" y="101"/><rect fill="#FFFFFF" height="2" style="stroke: #000000; stroke-width: 1.5;" width="4" x="515" y="105"/><text fill="#000000" font-family="sans-serif" font-size="14" font-weight="bold" lengthAdjust="spacingAndGlyphs" textLength="99" x="313.5" y="119.9951">Sales Server</text><!--MD5=[00ec90a8503d4b9f1338f321e2873bce]
entity TransactionProcessor--><rect fill="#FFFFFF" filter="url(#f1orytd09tjr1i)" height="62.5938" style="stroke: #A80036; stroke-width: 1.5;" width="124" x="389" y="137"/><rect fill="#FFFFFF" height="10" style="stroke: #A80036; stroke-width: 1.5;" width="15" x="493" y="142"/><rect fill="#FFFFFF" height="2" style="stroke: #A80036; stroke-width: 1.5;" width="4" x="491" y="144"/><rect fill="#FFFFFF" height="2" style="stroke: #A80036; stroke-width: 1.5;" width="4" x="491" y="148"/><text fill="#000000" font-family="sans-serif" font-size="14" lengthAdjust="spacingAndGlyphs" textLength="84" x="404" y="169.9951">Transaction</text><text fill="#000000" font-family="sans-serif" font-size="14" lengthAdjust="spacingAndGlyphs" textLength="70" x="404" y="186.292">Processor</text><!--MD5=[09041f892825edfb73dfe8946363c7a4]
entity AccountingDriver--><rect fill="#FFFFFF" filter="url(#f1orytd09tjr1i)" height="62.5938" style="stroke: #A80036; stroke-width: 1.5;" width="121" x="232.5" y="137"/><rect fill="#FFFFFF" height="10" style="stroke: #A80036; stroke-width: 1.5;" width="15" x="333.5" y="142"/><rect fill="#FFFFFF" height="2" style="stroke: #A80036; stroke-width: 1.5;" width="4" x="331.5" y="144"/><rect fill="#FFFFFF" height="2" style="stroke: #A80036; stroke-width: 1.5;" width="4" x="331.5" y="148"/><text fill="#000000" font-family="sans-serif" font-size="14" lengthAdjust="spacingAndGlyphs" textLength="81" x="247.5" y="169.9951">Accounting</text><text fill="#000000" font-family="sans-serif" font-size="14" lengthAdjust="spacingAndGlyphs" textLength="44" x="247.5" y="186.292">Driver</text><!--MD5=[c1fe354191168b098bc4322397caaff0]
entity POS--><rect fill="#FFFFFF" filter="url(#f1orytd09tjr1i)" height="62.5938" style="stroke: #A80036; stroke-width: 1.5;" width="133" x="245.5" y="7"/><rect fill="#FFFFFF" height="10" style="stroke: #A80036; stroke-width: 1.5;" width="15" x="358.5" y="12"/><rect fill="#FFFFFF" height="2" style="stroke: #A80036; stroke-width: 1.5;" width="4" x="356.5" y="14"/><rect fill="#FFFFFF" height="2" style="stroke: #A80036; stroke-width: 1.5;" width="4" x="356.5" y="18"/><text fill="#000000" font-family="sans-serif" font-size="14" lengthAdjust="spacingAndGlyphs" textLength="57" x="260.5" y="39.9951">Point of</text><text fill="#000000" font-family="sans-serif" font-size="14" lengthAdjust="spacingAndGlyphs" textLength="93" x="260.5" y="56.292">Sale Machine</text><!--MD5=[ab8011494b009f71eb7a101944338a8c]
entity MessageQueue--><rect fill="#FFFFFF" filter="url(#f1orytd09tjr1i)" height="46.2969" style="stroke: #A80036; stroke-width: 1.5;" width="150" x="7" y="15.5"/><rect fill="#FFFFFF" height="10" style="stroke: #A80036; stroke-width: 1.5;" width="15" x="137" y="20.5"/><rect fill="#FFFFFF" height="2" style="stroke: #A80036; stroke-width: 1.5;" width="4" x="135" y="22.5"/><rect fill="#FFFFFF" height="2" style="stroke: #A80036; stroke-width: 1.5;" width="4" x="135" y="26.5"/><text fill="#000000" font-family="sans-serif" font-size="14" lengthAdjust="spacingAndGlyphs" textLength="110" x="22" y="48.4951">Message Queue</text><!--MD5=[13af838779be5f3bf93da592b0035d26]
entity SalesMessages--><ellipse cx="201" cy="38.5" fill="#FEFECE" filter="url(#f1orytd09tjr1i)" rx="8" ry="8" style="stroke: #A80036; stroke-width: 2.0;"/><text fill="#000000" font-family="sans-serif" font-size="14" lengthAdjust="spacingAndGlyphs" textLength="37" x="167" y="68.4951">Sales</text><text fill="#000000" font-family="sans-serif" font-size="14" lengthAdjust="spacingAndGlyphs" textLength="68" x="167" y="84.792">Messages</text><!--MD5=[ab4954cbe87980fa1c0011221a861d20]
reverse link MessageQueue to SalesServer--><path d="M105.2849,65.417 C121.8155,83.8165 144.2755,108.8156 162.8316,129.4694 C172.1097,139.7963 180.4118,149.0368 186.5087,155.8229 C187.2709,156.6711 187.9985,157.4811 188.6893,158.2499 C188.7757,158.3461 188.8615,158.4415 188.9466,158.5363 " fill="none" id="MessageQueue-backto-SalesServer" style="stroke: #A80036; stroke-width: 1.0;"/><rect fill="#FFFFFF" height="10" style="stroke: #A80036; stroke-width: 1.5;" width="10" x="96.7692" y="56.504"/><!--MD5=[c1a2bf20449444cb9edd15e8dba408e6]
link MessageQueue to SalesMessages--><path codeLine="15" d="M157.305,38.5 C168.797,38.5 180.29,38.5 191.783,38.5 " fill="none" id="MessageQueue-SalesMessages" style="stroke: #A80036; stroke-width: 1.0;"/><!--MD5=[ece8e2f3bd1ff34a8de761be1c5693e8]
reverse link SalesMessages to POS--><path codeLine="16" d="M220.23,38.5 C228.531,38.5 236.831,38.5 245.132,38.5 " fill="none" id="SalesMessages-backto-POS" style="stroke: #A80036; stroke-width: 1.0;"/><path d="M213.1844,46.9568 A9,9 0 0 0 213.182 30.0423" fill="none" style="stroke: #A80036; stroke-width: 1.5;"/><!--MD5=[4ebe9bd9592bf23d7ad96d0099acbed6]
reverse link POS to SalesServer--><path d="M240.541,65.583 C228.029,70.708 218.252,75.323 216,78 C212.8304,81.7685 210.1498,85.9367 207.8863,90.3526 C207.3204,91.4566 206.7806,92.576 206.2657,93.7085 " fill="none" id="POS-backto-SalesServer" style="stroke: #A80036; stroke-width: 1.0;"/><rect fill="#FFFFFF" height="10" style="stroke: #A80036; stroke-width: 1.5;" width="10" x="240.265" y="58.674"/><!--MD5=[69a4149d8cb3302e9853014fde7f5575]
@startuml
component "Sales Server" as SalesServer {
  component "Transaction\nProcessor" as TransactionProcessor{
  }
  component "Accounting\n Driver" as AccountingDriver{
  }
}
component "Point of\nSale Machine" as POS{
}
component "Message Queue" as MessageQueue{
}
MessageQueue #- - SalesServer

() "Sales\n Messages" as SalesMessages

MessageQueue - SalesMessages
POS -left-(SalesMessages
POS #- - SalesServer
@enduml

PlantUML version 1.2020.16(Sun Aug 23 20:20:43 UTC 2020)
(GPL source distribution)
Java Runtime: Java(TM) SE Runtime Environment
JVM: Java HotSpot(TM) 64-Bit Server VM
Default Encoding: UTF-8
Language: en
Country: US
--></g></svg>