<?xml version="1.0" encoding="UTF-8" standalone="no"?><svg xmlns="http://www.w3.org/2000/svg" xmlns:xlink="http://www.w3.org/1999/xlink" contentScriptType="application/ecmascript" contentStyleType="text/css" height="397px" preserveAspectRatio="none" style="width:330px;height:397px;" version="1.1" viewBox="0 0 330 397" width="330px" zoomAndPan="magnify"><defs><filter height="300%" id="f1htl5h7u0rb3q" width="300%" x="-1" y="-1"><feGaussianBlur result="blurOut" stdDeviation="2.0"/><feColorMatrix in="blurOut" result="blurOut2" type="matrix" values="0 0 0 0 0 0 0 0 0 0 0 0 0 0 0 0 0 0 .4 0"/><feOffset dx="4.0" dy="4.0" in="blurOut2" result="blurOut3"/><feBlend in="SourceGraphic" in2="blurOut3" mode="normal"/></filter></defs><g><line style="stroke: #A80036; stroke-width: 1.0; stroke-dasharray: 5.0,5.0;" x1="26" x2="26" y1="86.2969" y2="310.2266"/><line style="stroke: #A80036; stroke-width: 1.0; stroke-dasharray: 5.0,5.0;" x1="158.5" x2="158.5" y1="86.2969" y2="310.2266"/><line style="stroke: #A80036; stroke-width: 1.0; stroke-dasharray: 5.0,5.0;" x1="291.5" x2="291.5" y1="86.2969" y2="310.2266"/><text fill="#000000" font-family="sans-serif" font-size="14" lengthAdjust="spacingAndGlyphs" textLength="30" x="8" y="82.9951">user</text><ellipse cx="26" cy="13" fill="#FEFECE" filter="url(#f1htl5h7u0rb3q)" rx="8" ry="8" style="stroke: #A80036; stroke-width: 2.0;"/><path d="M26,21 L26,48 M13,29 L39,29 M26,48 L13,63 M26,48 L39,63 " fill="none" filter="url(#f1htl5h7u0rb3q)" style="stroke: #A80036; stroke-width: 2.0;"/><text fill="#000000" font-family="sans-serif" font-size="14" lengthAdjust="spacingAndGlyphs" textLength="30" x="8" y="322.2217">user</text><ellipse cx="26" cy="335.5234" fill="#FEFECE" filter="url(#f1htl5h7u0rb3q)" rx="8" ry="8" style="stroke: #A80036; stroke-width: 2.0;"/><path d="M26,343.5234 L26,370.5234 M13,351.5234 L39,351.5234 M26,370.5234 L13,385.5234 M26,370.5234 L39,385.5234 " fill="none" filter="url(#f1htl5h7u0rb3q)" style="stroke: #A80036; stroke-width: 2.0;"/><rect fill="#FEFECE" filter="url(#f1htl5h7u0rb3q)" height="30.2969" style="stroke: #A80036; stroke-width: 1.5;" width="69" x="122.5" y="51"/><text fill="#000000" font-family="sans-serif" font-size="14" lengthAdjust="spacingAndGlyphs" textLength="55" x="129.5" y="70.9951">Theater</text><rect fill="#FEFECE" filter="url(#f1htl5h7u0rb3q)" height="30.2969" style="stroke: #A80036; stroke-width: 1.5;" width="69" x="122.5" y="309.2266"/><text fill="#000000" font-family="sans-serif" font-size="14" lengthAdjust="spacingAndGlyphs" textLength="55" x="129.5" y="329.2217">Theater</text><rect fill="#FEFECE" filter="url(#f1htl5h7u0rb3q)" height="30.2969" style="stroke: #A80036; stroke-width: 1.5;" width="59" x="260.5" y="51"/><text fill="#000000" font-family="sans-serif" font-size="14" lengthAdjust="spacingAndGlyphs" textLength="45" x="267.5" y="70.9951">Server</text><rect fill="#FEFECE" filter="url(#f1htl5h7u0rb3q)" height="30.2969" style="stroke: #A80036; stroke-width: 1.5;" width="59" x="260.5" y="309.2266"/><text fill="#000000" font-family="sans-serif" font-size="14" lengthAdjust="spacingAndGlyphs" textLength="45" x="267.5" y="329.2217">Server</text><polygon fill="#A80036" points="147,113.4297,157,117.4297,147,121.4297,151,117.4297" style="stroke: #A80036; stroke-width: 1.0;"/><line style="stroke: #A80036; stroke-width: 1.0;" x1="26" x2="153" y1="117.4297" y2="117.4297"/><text fill="#000000" font-family="sans-serif" font-size="13" lengthAdjust="spacingAndGlyphs" textLength="69" x="33" y="112.3638">Insert card</text><polygon fill="#A80036" points="147,142.5625,157,146.5625,147,150.5625,151,146.5625" style="stroke: #A80036; stroke-width: 1.0;"/><line style="stroke: #A80036; stroke-width: 1.0;" x1="26" x2="153" y1="146.5625" y2="146.5625"/><text fill="#000000" font-family="sans-serif" font-size="13" lengthAdjust="spacingAndGlyphs" textLength="76" x="33" y="141.4966">Select date</text><polygon fill="#A80036" points="37,171.6953,27,175.6953,37,179.6953,33,175.6953" style="stroke: #A80036; stroke-width: 1.0;"/><line style="stroke: #A80036; stroke-width: 1.0; stroke-dasharray: 2.0,2.0;" x1="31" x2="158" y1="175.6953" y2="175.6953"/><text fill="#000000" font-family="sans-serif" font-size="13" lengthAdjust="spacingAndGlyphs" textLength="66" x="43" y="170.6294">Offer seat</text><polygon fill="#A80036" points="147,200.8281,157,204.8281,147,208.8281,151,204.8281" style="stroke: #A80036; stroke-width: 1.0;"/><line style="stroke: #A80036; stroke-width: 1.0;" x1="26" x2="153" y1="204.8281" y2="204.8281"/><text fill="#000000" font-family="sans-serif" font-size="13" lengthAdjust="spacingAndGlyphs" textLength="85" x="33" y="199.7622">Submit order</text><polygon fill="#A80036" points="280,229.9609,290,233.9609,280,237.9609,284,233.9609" style="stroke: #A80036; stroke-width: 1.0;"/><line style="stroke: #A80036; stroke-width: 1.0;" x1="159" x2="286" y1="233.9609" y2="233.9609"/><text fill="#000000" font-family="sans-serif" font-size="13" lengthAdjust="spacingAndGlyphs" textLength="85" x="166" y="228.895">Submit order</text><polygon fill="#A80036" points="170,259.0938,160,263.0938,170,267.0938,166,263.0938" style="stroke: #A80036; stroke-width: 1.0;"/><line style="stroke: #A80036; stroke-width: 1.0;" x1="164" x2="291" y1="263.0938" y2="263.0938"/><text fill="#000000" font-family="sans-serif" font-size="13" lengthAdjust="spacingAndGlyphs" textLength="109" x="176" y="258.0278">Order Confirmed</text><polygon fill="#A80036" points="37,288.2266,27,292.2266,37,296.2266,33,292.2266" style="stroke: #A80036; stroke-width: 1.0;"/><line style="stroke: #A80036; stroke-width: 1.0;" x1="31" x2="158" y1="292.2266" y2="292.2266"/><text fill="#000000" font-family="sans-serif" font-size="13" lengthAdjust="spacingAndGlyphs" textLength="109" x="43" y="287.1606">Order Confirmed</text><!--MD5=[282332e117223feb5b890c233a78c964]
@startuml
actor user
participant Theater
participant Server
user-> Theater: Insert card
user-> Theater: Select date
Theater - -> user: Offer seat
user -> Theater :Submit order
Theater -> Server: Submit order 
Server -> Theater: Order Confirmed
Theater -> user: Order Confirmed
@enduml

PlantUML version 1.2020.09beta3(Unknown compile time)
(GPL source distribution)
Java Runtime: Java(TM) SE Runtime Environment
JVM: Java HotSpot(TM) 64-Bit Server VM
Java Version: 14.0.1+7
Operating System: Linux
Default Encoding: UTF-8
Language: en
Country: US
--></g></svg>