<?xml version="1.0" encoding="UTF-8" standalone="no"?><svg xmlns="http://www.w3.org/2000/svg" xmlns:xlink="http://www.w3.org/1999/xlink" contentScriptType="application/ecmascript" contentStyleType="text/css" height="79px" preserveAspectRatio="none" style="width:315px;height:79px;" version="1.1" viewBox="0 0 315 79" width="315px" zoomAndPan="magnify"><defs><filter height="300%" id="f1jcfpp4ebq17h" width="300%" x="-1" y="-1"><feGaussianBlur result="blurOut" stdDeviation="2.0"/><feColorMatrix in="blurOut" result="blurOut2" type="matrix" values="0 0 0 0 0 0 0 0 0 0 0 0 0 0 0 0 0 0 .4 0"/><feOffset dx="4.0" dy="4.0" in="blurOut2" result="blurOut3"/><feBlend in="SourceGraphic" in2="blurOut3" mode="normal"/></filter></defs><g><!--MD5=[3fd616f346a44cd59a91eb10b19e157c]
class User--><rect codeLine="2" fill="#FEFECE" filter="url(#f1jcfpp4ebq17h)" height="53.9375" id="User" style="stroke: #A80036; stroke-width: 1.5;" width="111" x="185" y="7"/><ellipse cx="200" cy="25.9688" fill="#ADD1B2" rx="11" ry="11" style="stroke: #A80036; stroke-width: 1.0;"/><path d="M202.3438,21.6406 C201.4063,21.2031 200.8125,21.0625 199.9375,21.0625 C197.3125,21.0625 195.3125,23.1406 195.3125,25.8594 L195.3125,26.9844 C195.3125,29.5625 197.4219,31.4531 200.3125,31.4531 C201.5313,31.4531 202.6875,31.1563 203.4375,30.6094 C204.0156,30.2031 204.3438,29.75 204.3438,29.3594 C204.3438,28.9063 203.9531,28.5156 203.4844,28.5156 C203.2656,28.5156 203.0625,28.5938 202.875,28.7813 C202.4219,29.2656 202.4219,29.2656 202.2344,29.3594 C201.8125,29.625 201.125,29.75 200.3594,29.75 C198.3125,29.75 197.0156,28.6563 197.0156,26.9531 L197.0156,25.8594 C197.0156,24.0781 198.2656,22.7656 200,22.7656 C200.5781,22.7656 201.1875,22.9219 201.6563,23.1719 C202.1406,23.4531 202.3125,23.6719 202.4063,24.0781 C202.4688,24.4844 202.5,24.6094 202.6406,24.7344 C202.7813,24.875 203.0156,24.9844 203.2344,24.9844 C203.5,24.9844 203.7656,24.8438 203.9375,24.625 C204.0469,24.4688 204.0781,24.2813 204.0781,23.8594 L204.0781,22.4375 C204.0781,22 204.0625,21.875 203.9688,21.7188 C203.8125,21.4531 203.5313,21.3125 203.2344,21.3125 C202.9375,21.3125 202.7344,21.4063 202.5156,21.7188 L202.3438,21.6406 Z "/><text fill="#000000" font-family="sans-serif" font-size="12" lengthAdjust="spacingAndGlyphs" textLength="75" x="214" y="23.1387">«Metaclass»</text><text fill="#000000" font-family="sans-serif" font-size="12" lengthAdjust="spacingAndGlyphs" textLength="29" x="239" y="37.1074">User</text><line style="stroke: #A80036; stroke-width: 1.5;" x1="186" x2="295" y1="44.9375" y2="44.9375"/><line style="stroke: #A80036; stroke-width: 1.5;" x1="186" x2="295" y1="52.9375" y2="52.9375"/><!--MD5=[f9680670f3090febe556ef1c58008178]
class WebClient--><rect codeLine="4" fill="#FEFECE" filter="url(#f1jcfpp4ebq17h)" height="53.9375" id="WebClient" style="stroke: #A80036; stroke-width: 1.5;" width="118" x="7" y="7"/><ellipse cx="22" cy="25.9688" fill="#ADD1B2" rx="11" ry="11" style="stroke: #A80036; stroke-width: 1.0;"/><path d="M24.3438,21.6406 C23.4063,21.2031 22.8125,21.0625 21.9375,21.0625 C19.3125,21.0625 17.3125,23.1406 17.3125,25.8594 L17.3125,26.9844 C17.3125,29.5625 19.4219,31.4531 22.3125,31.4531 C23.5313,31.4531 24.6875,31.1563 25.4375,30.6094 C26.0156,30.2031 26.3438,29.75 26.3438,29.3594 C26.3438,28.9063 25.9531,28.5156 25.4844,28.5156 C25.2656,28.5156 25.0625,28.5938 24.875,28.7813 C24.4219,29.2656 24.4219,29.2656 24.2344,29.3594 C23.8125,29.625 23.125,29.75 22.3594,29.75 C20.3125,29.75 19.0156,28.6563 19.0156,26.9531 L19.0156,25.8594 C19.0156,24.0781 20.2656,22.7656 22,22.7656 C22.5781,22.7656 23.1875,22.9219 23.6563,23.1719 C24.1406,23.4531 24.3125,23.6719 24.4063,24.0781 C24.4688,24.4844 24.5,24.6094 24.6406,24.7344 C24.7813,24.875 25.0156,24.9844 25.2344,24.9844 C25.5,24.9844 25.7656,24.8438 25.9375,24.625 C26.0469,24.4688 26.0781,24.2813 26.0781,23.8594 L26.0781,22.4375 C26.0781,22 26.0625,21.875 25.9688,21.7188 C25.8125,21.4531 25.5313,21.3125 25.2344,21.3125 C24.9375,21.3125 24.7344,21.4063 24.5156,21.7188 L24.3438,21.6406 Z "/><text fill="#000000" font-family="sans-serif" font-size="12" lengthAdjust="spacingAndGlyphs" textLength="82" x="36" y="23.1387">«stereotype»</text><text fill="#000000" font-family="sans-serif" font-size="12" lengthAdjust="spacingAndGlyphs" textLength="65" x="48.5" y="37.1074">Web Client</text><line style="stroke: #A80036; stroke-width: 1.5;" x1="8" x2="124" y1="44.9375" y2="44.9375"/><line style="stroke: #A80036; stroke-width: 1.5;" x1="8" x2="124" y1="52.9375" y2="52.9375"/><!--MD5=[d493427aa18257980ffce44265594f9e]
link WebClient to User--><path codeLine="5" d="M125.401,34 C138.037,34 151.566,34 164.732,34 " fill="none" id="WebClient-to-User" style="stroke: #A80036; stroke-width: 1.0;"/><polygon fill="none" points="164.942,26.9999,184.942,34,164.942,40.9999,164.942,26.9999" style="stroke: #A80036; stroke-width: 1.0;"/><!--MD5=[a81a5f11c835f859c31c2ccacdc2e873]
@startuml
left to right direction
class  "«Metaclass» \n User " as User

class "«stereotype» \n Web Client"  as WebClient
WebClient - -|>  User
@enduml

PlantUML version 1.2020.16(Sun Aug 23 20:20:43 UTC 2020)
(GPL source distribution)
Java Runtime: Java(TM) SE Runtime Environment
JVM: Java HotSpot(TM) 64-Bit Server VM
Default Encoding: UTF-8
Language: en
Country: US
--></g></svg>