<?xml version="1.0" encoding="UTF-8" standalone="no"?><svg xmlns="http://www.w3.org/2000/svg" xmlns:xlink="http://www.w3.org/1999/xlink" contentScriptType="application/ecmascript" contentStyleType="text/css" height="271px" preserveAspectRatio="none" style="width:134px;height:271px;" version="1.1" viewBox="0 0 134 271" width="134px" zoomAndPan="magnify"><defs><filter height="300%" id="fs2oyo633cl3q" width="300%" x="-1" y="-1"><feGaussianBlur result="blurOut" stdDeviation="2.0"/><feColorMatrix in="blurOut" result="blurOut2" type="matrix" values="0 0 0 0 0 0 0 0 0 0 0 0 0 0 0 0 0 0 .4 0"/><feOffset dx="4.0" dy="4.0" in="blurOut2" result="blurOut3"/><feBlend in="SourceGraphic" in2="blurOut3" mode="normal"/></filter></defs><g><!--MD5=[1904c273551b1d3cd5b432df5b70c153]
class Y--><rect codeLine="2" fill="#FEFECE" filter="url(#fs2oyo633cl3q)" height="73.6094" id="Y" style="stroke: #A80036; stroke-width: 1.5;" width="108" x="7" y="179"/><ellipse cx="53.25" cy="195" fill="#ADD1B2" rx="11" ry="11" style="stroke: #A80036; stroke-width: 1.0;"/><path d="M55.5938,190.6719 C54.6563,190.2344 54.0625,190.0938 53.1875,190.0938 C50.5625,190.0938 48.5625,192.1719 48.5625,194.8906 L48.5625,196.0156 C48.5625,198.5938 50.6719,200.4844 53.5625,200.4844 C54.7813,200.4844 55.9375,200.1875 56.6875,199.6406 C57.2656,199.2344 57.5938,198.7813 57.5938,198.3906 C57.5938,197.9375 57.2031,197.5469 56.7344,197.5469 C56.5156,197.5469 56.3125,197.625 56.125,197.8125 C55.6719,198.2969 55.6719,198.2969 55.4844,198.3906 C55.0625,198.6563 54.375,198.7813 53.6094,198.7813 C51.5625,198.7813 50.2656,197.6875 50.2656,195.9844 L50.2656,194.8906 C50.2656,193.1094 51.5156,191.7969 53.25,191.7969 C53.8281,191.7969 54.4375,191.9531 54.9063,192.2031 C55.3906,192.4844 55.5625,192.7031 55.6563,193.1094 C55.7188,193.5156 55.75,193.6406 55.8906,193.7656 C56.0313,193.9063 56.2656,194.0156 56.4844,194.0156 C56.75,194.0156 57.0156,193.875 57.1875,193.6563 C57.2969,193.5 57.3281,193.3125 57.3281,192.8906 L57.3281,191.4688 C57.3281,191.0313 57.3125,190.9063 57.2188,190.75 C57.0625,190.4844 56.7813,190.3438 56.4844,190.3438 C56.1875,190.3438 55.9844,190.4375 55.7656,190.75 L55.5938,190.6719 Z "/><text fill="#000000" font-family="sans-serif" font-size="12" lengthAdjust="spacingAndGlyphs" textLength="7" x="73.75" y="199.1543">Y</text><line style="stroke: #A80036; stroke-width: 1.5;" x1="8" x2="114" y1="211" y2="211"/><line style="stroke: #A80036; stroke-width: 1.5;" x1="8" x2="114" y1="219" y2="219"/><text fill="#000000" font-family="sans-serif" font-size="11" lengthAdjust="spacingAndGlyphs" textLength="62" x="13" y="233.2104">+foo():void</text><text fill="#000000" font-family="sans-serif" font-size="11" lengthAdjust="spacingAndGlyphs" text-decoration="underline" textLength="96" x="13" y="246.0151">+StaticFoo():void</text><!--MD5=[b203f6b098b8dffe494a95d9c500f8e2]
class X--><rect codeLine="7" fill="#FEFECE" filter="url(#fs2oyo633cl3q)" height="112.0234" id="X" style="stroke: #A80036; stroke-width: 1.5;" width="89" x="16.5" y="7"/><ellipse cx="53.55" cy="23" fill="#ADD1B2" rx="11" ry="11" style="stroke: #A80036; stroke-width: 1.0;"/><path d="M55.8938,18.6719 C54.9563,18.2344 54.3625,18.0938 53.4875,18.0938 C50.8625,18.0938 48.8625,20.1719 48.8625,22.8906 L48.8625,24.0156 C48.8625,26.5938 50.9719,28.4844 53.8625,28.4844 C55.0813,28.4844 56.2375,28.1875 56.9875,27.6406 C57.5656,27.2344 57.8938,26.7813 57.8938,26.3906 C57.8938,25.9375 57.5031,25.5469 57.0344,25.5469 C56.8156,25.5469 56.6125,25.625 56.425,25.8125 C55.9719,26.2969 55.9719,26.2969 55.7844,26.3906 C55.3625,26.6563 54.675,26.7813 53.9094,26.7813 C51.8625,26.7813 50.5656,25.6875 50.5656,23.9844 L50.5656,22.8906 C50.5656,21.1094 51.8156,19.7969 53.55,19.7969 C54.1281,19.7969 54.7375,19.9531 55.2063,20.2031 C55.6906,20.4844 55.8625,20.7031 55.9563,21.1094 C56.0188,21.5156 56.05,21.6406 56.1906,21.7656 C56.3313,21.9063 56.5656,22.0156 56.7844,22.0156 C57.05,22.0156 57.3156,21.875 57.4875,21.6563 C57.5969,21.5 57.6281,21.3125 57.6281,20.8906 L57.6281,19.4688 C57.6281,19.0313 57.6125,18.9063 57.5188,18.75 C57.3625,18.4844 57.0813,18.3438 56.7844,18.3438 C56.4875,18.3438 56.2844,18.4375 56.0656,18.75 L55.8938,18.6719 Z "/><text fill="#000000" font-family="sans-serif" font-size="12" lengthAdjust="spacingAndGlyphs" textLength="8" x="72.45" y="27.1543">X</text><line style="stroke: #A80036; stroke-width: 1.5;" x1="17.5" x2="104.5" y1="39" y2="39"/><line style="stroke: #A80036; stroke-width: 1.5;" x1="17.5" x2="104.5" y1="47" y2="47"/><text fill="#000000" font-family="sans-serif" font-size="11" lengthAdjust="spacingAndGlyphs" textLength="64" x="22.5" y="61.2104">f1(Y y):void</text><text fill="#000000" font-family="sans-serif" font-size="11" lengthAdjust="spacingAndGlyphs" textLength="70" x="22.5" y="74.0151">f2(Y *y):void</text><text fill="#000000" font-family="sans-serif" font-size="11" lengthAdjust="spacingAndGlyphs" textLength="77" x="22.5" y="86.8198">f3(Y &amp;y) :void</text><text fill="#000000" font-family="sans-serif" font-size="11" lengthAdjust="spacingAndGlyphs" textLength="46" x="22.5" y="99.6245">f4():void</text><text fill="#000000" font-family="sans-serif" font-size="11" lengthAdjust="spacingAndGlyphs" textLength="46" x="22.5" y="112.4292">f5():void</text><!--MD5=[ddba56da0fa3f7e2613d730fc101d463]
link X to Y--><path codeLine="15" d="M61,119.369 C61,137.371 61,157.0206 61,173.7996 " fill="none" id="X-&gt;Y" style="stroke: #A80036; stroke-width: 1.0; stroke-dasharray: 7.0,7.0;"/><polygon fill="#A80036" points="61,178.9097,65,169.9097,61,173.9097,57,169.9097,61,178.9097" style="stroke: #A80036; stroke-width: 1.0;"/><!--MD5=[d1c336cec1551d457cb6ad9c549b6cd7]
@startuml
skinparam classAttributeIconSize 0
class Y
{
+     foo():void
+     {static} StaticFoo():void
}
class X
{
	f1(Y y):void  
	f2(Y *y):void 
	f3(Y &y) :void
	f4():void     
	f5():void     
}
X  ..>  Y
@enduml

PlantUML version 1.2020.16beta7(Unknown compile time)
(GPL source distribution)
Java Runtime: Java(TM) SE Runtime Environment
JVM: Java HotSpot(TM) 64-Bit Server VM
Default Encoding: UTF-8
Language: en
Country: US
--></g></svg>