<?xml version="1.0" encoding="UTF-8" standalone="no"?><svg xmlns="http://www.w3.org/2000/svg" xmlns:xlink="http://www.w3.org/1999/xlink" contentScriptType="application/ecmascript" contentStyleType="text/css" height="253px" preserveAspectRatio="none" style="width:188px;height:253px;" version="1.1" viewBox="0 0 188 253" width="188px" zoomAndPan="magnify"><defs><filter height="300%" id="f2qcu3s1hfb7l" width="300%" x="-1" y="-1"><feGaussianBlur result="blurOut" stdDeviation="2.0"/><feColorMatrix in="blurOut" result="blurOut2" type="matrix" values="0 0 0 0 0 0 0 0 0 0 0 0 0 0 0 0 0 0 .4 0"/><feOffset dx="4.0" dy="4.0" in="blurOut2" result="blurOut3"/><feBlend in="SourceGraphic" in2="blurOut3" mode="normal"/></filter></defs><g><!--MD5=[0154ce9715a30d7d18fef37a629d6312]
entity First Actor--><ellipse cx="44" cy="22.5" fill="#FEFECE" filter="url(#f2qcu3s1hfb7l)" rx="8" ry="8" style="stroke: #A80036; stroke-width: 1.5;"/><path d="M44,30.5 L44,57.5 M31,38.5 L57,38.5 M44,57.5 L31,72.5 M44,57.5 L57,72.5 " fill="none" filter="url(#f2qcu3s1hfb7l)" style="stroke: #A80036; stroke-width: 1.5;"/><text fill="#000000" font-family="sans-serif" font-size="14" lengthAdjust="spacingAndGlyphs" textLength="76" x="6" y="90.9951">First Actor</text><!--MD5=[5ec2bc3286d2ec187d74869b8a89494d]
entity Men2--><ellipse cx="147" cy="14" fill="#FEFECE" filter="url(#f2qcu3s1hfb7l)" rx="8" ry="8" style="stroke: #A80036; stroke-width: 1.5;"/><path d="M147,22 L147,49 M134,30 L160,30 M147,49 L134,64 M147,49 L160,64 " fill="none" filter="url(#f2qcu3s1hfb7l)" style="stroke: #A80036; stroke-width: 1.5;"/><text fill="#000000" font-family="sans-serif" font-size="14" lengthAdjust="spacingAndGlyphs" textLength="59" x="117.5" y="82.4951">Another</text><text fill="#000000" font-family="sans-serif" font-size="14" lengthAdjust="spacingAndGlyphs" textLength="38" x="117.5" y="98.792">actor</text><!--MD5=[79172a5b8cf4708b70f8421824327b2e]
entity Men3--><ellipse cx="44" cy="172" fill="#FEFECE" filter="url(#f2qcu3s1hfb7l)" rx="8" ry="8" style="stroke: #A80036; stroke-width: 1.5;"/><path d="M44,180 L44,207 M31,188 L57,188 M44,207 L31,222 M44,207 L57,222 " fill="none" filter="url(#f2qcu3s1hfb7l)" style="stroke: #A80036; stroke-width: 1.5;"/><text fill="#000000" font-family="sans-serif" font-size="14" lengthAdjust="spacingAndGlyphs" textLength="39" x="24.5" y="240.4951">Men3</text><!--MD5=[200996eba66f061e110bcd98da79c008]
entity Men4--><ellipse cx="135" cy="172" fill="#FEFECE" filter="url(#f2qcu3s1hfb7l)" rx="8" ry="8" style="stroke: #A80036; stroke-width: 1.5;"/><path d="M135,180 L135,207 M122,188 L148,188 M135,207 L122,222 M135,207 L148,222 " fill="none" filter="url(#f2qcu3s1hfb7l)" style="stroke: #A80036; stroke-width: 1.5;"/><text fill="#000000" font-family="sans-serif" font-size="14" lengthAdjust="spacingAndGlyphs" textLength="72" x="99" y="240.4951">Last actor</text><!--MD5=[32695581bfc6df6e46ed822335726fc9]
link First Actor to Men2--><!--MD5=[46540c89cfed84983fa390ae0de17841]
link First Actor to Men3--><!--MD5=[8066332cfd9bf54d340eafafbe68caa6]
link Men3 to Men4--><!--MD5=[52ba08b014fb4a11bf41c060158a7cfd]
@startuml
:First Actor:
:Another\nactor: as Men2
actor Men3
actor :Last actor: as Men4
@enduml

PlantUML version 1.2020.16(Sun Aug 23 20:20:43 UTC 2020)
(GPL source distribution)
Java Runtime: Java(TM) SE Runtime Environment
JVM: Java HotSpot(TM) 64-Bit Server VM
Default Encoding: UTF-8
Language: en
Country: US
--></g></svg>