<?xml version="1.0" encoding="UTF-8" standalone="no"?><svg xmlns="http://www.w3.org/2000/svg" xmlns:xlink="http://www.w3.org/1999/xlink" contentScriptType="application/ecmascript" contentStyleType="text/css" height="389px" preserveAspectRatio="none" style="width:917px;height:389px;" version="1.1" viewBox="0 0 917 389" width="917px" zoomAndPan="magnify"><defs><filter height="300%" id="fqena9vv8w8tn" width="300%" x="-1" y="-1"><feGaussianBlur result="blurOut" stdDeviation="2.0"/><feColorMatrix in="blurOut" result="blurOut2" type="matrix" values="0 0 0 0 0 0 0 0 0 0 0 0 0 0 0 0 0 0 .4 0"/><feOffset dx="4.0" dy="4.0" in="blurOut2" result="blurOut3"/><feBlend in="SourceGraphic" in2="blurOut3" mode="normal"/></filter></defs><g><!--MD5=[3e7cdce79d63a93978a6dfb9547a1460]
class IAirTrafficControlMediator--><rect codeLine="4" fill="#FEFECE" filter="url(#fqena9vv8w8tn)" height="105.1563" id="IAirTrafficControlMediator" style="stroke: #A80036; stroke-width: 1.5;" width="243" x="7" y="7"/><ellipse cx="46.75" cy="25.9688" fill="#B4A7E5" rx="11" ry="11" style="stroke: #A80036; stroke-width: 1.0;"/><path d="M47.7031,22.75 L49.4219,22.75 C49.8125,22.75 50,22.7188 50.125,22.6406 C50.3906,22.4844 50.5313,22.2031 50.5313,21.9063 C50.5313,21.6406 50.4219,21.375 50.1875,21.2031 C50.0156,21.0938 49.875,21.0625 49.4219,21.0625 L44.2813,21.0625 C43.8438,21.0625 43.7188,21.0781 43.5625,21.1719 C43.3125,21.3281 43.1563,21.625 43.1563,21.9063 C43.1563,22.1875 43.2969,22.4375 43.5156,22.6094 C43.6719,22.7188 43.8594,22.75 44.2813,22.75 L46,22.75 L46,29.2656 L44.2813,29.2656 C43.8438,29.2656 43.7188,29.2813 43.5625,29.3906 C43.3125,29.5469 43.1563,29.8281 43.1563,30.125 C43.1563,30.375 43.2969,30.6406 43.5156,30.7969 C43.6719,30.9219 43.875,30.9688 44.2813,30.9688 L49.4219,30.9688 C50.1719,30.9688 50.5313,30.6875 50.5313,30.125 C50.5313,29.8438 50.4219,29.5938 50.1875,29.4219 C50.0156,29.2969 49.875,29.2656 49.4219,29.2656 L47.7031,29.2656 L47.7031,22.75 Z "/><text fill="#000000" font-family="sans-serif" font-size="12" font-style="italic" lengthAdjust="spacingAndGlyphs" textLength="54" x="115.25" y="23.1387">Interface</text><text fill="#000000" font-family="sans-serif" font-size="12" font-style="italic" lengthAdjust="spacingAndGlyphs" textLength="152" x="70.25" y="37.1074">IAirTrafficControlMediator</text><line style="stroke: #A80036; stroke-width: 1.5;" x1="8" x2="249" y1="44.9375" y2="44.9375"/><line style="stroke: #A80036; stroke-width: 1.5;" x1="8" x2="249" y1="52.9375" y2="52.9375"/><text fill="#000000" font-family="sans-serif" font-size="11" font-style="italic" lengthAdjust="spacingAndGlyphs" textLength="231" x="13" y="67.1479">+registerRunway(Runway *runway):void</text><text fill="#000000" font-family="sans-serif" font-size="11" font-style="italic" lengthAdjust="spacingAndGlyphs" textLength="187" x="13" y="79.9526">+registerFlight(Flight *flight):void</text><text fill="#000000" font-family="sans-serif" font-size="11" font-style="italic" lengthAdjust="spacingAndGlyphs" textLength="113" x="13" y="92.7573">+isLandingOk():void</text><text fill="#000000" font-family="sans-serif" font-size="11" font-style="italic" lengthAdjust="spacingAndGlyphs" textLength="203" x="13" y="105.562">+setLandingStatus(bool status):void</text><!--MD5=[307e0f6005108dfc47bdc268a17c5f16]
class AirTrafficControlMediator--><rect codeLine="15" fill="#FEFECE" filter="url(#fqena9vv8w8tn)" height="137.6328" id="AirTrafficControlMediator" style="stroke: #A80036; stroke-width: 1.5;" width="230" x="13.5" y="233"/><ellipse cx="50.55" cy="249" fill="#ADD1B2" rx="11" ry="11" style="stroke: #A80036; stroke-width: 1.0;"/><path d="M52.8938,244.6719 C51.9563,244.2344 51.3625,244.0938 50.4875,244.0938 C47.8625,244.0938 45.8625,246.1719 45.8625,248.8906 L45.8625,250.0156 C45.8625,252.5938 47.9719,254.4844 50.8625,254.4844 C52.0813,254.4844 53.2375,254.1875 53.9875,253.6406 C54.5656,253.2344 54.8938,252.7813 54.8938,252.3906 C54.8938,251.9375 54.5031,251.5469 54.0344,251.5469 C53.8156,251.5469 53.6125,251.625 53.425,251.8125 C52.9719,252.2969 52.9719,252.2969 52.7844,252.3906 C52.3625,252.6563 51.675,252.7813 50.9094,252.7813 C48.8625,252.7813 47.5656,251.6875 47.5656,249.9844 L47.5656,248.8906 C47.5656,247.1094 48.8156,245.7969 50.55,245.7969 C51.1281,245.7969 51.7375,245.9531 52.2063,246.2031 C52.6906,246.4844 52.8625,246.7031 52.9563,247.1094 C53.0188,247.5156 53.05,247.6406 53.1906,247.7656 C53.3313,247.9063 53.5656,248.0156 53.7844,248.0156 C54.05,248.0156 54.3156,247.875 54.4875,247.6563 C54.5969,247.5 54.6281,247.3125 54.6281,246.8906 L54.6281,245.4688 C54.6281,245.0313 54.6125,244.9063 54.5188,244.75 C54.3625,244.4844 54.0813,244.3438 53.7844,244.3438 C53.4875,244.3438 53.2844,244.4375 53.0656,244.75 L52.8938,244.6719 Z "/><text fill="#000000" font-family="sans-serif" font-size="12" lengthAdjust="spacingAndGlyphs" textLength="149" x="69.45" y="253.1543">AirTrafficControlMediator</text><line style="stroke: #A80036; stroke-width: 1.5;" x1="14.5" x2="242.5" y1="265" y2="265"/><text fill="#000000" font-family="sans-serif" font-size="11" lengthAdjust="spacingAndGlyphs" textLength="72" x="19.5" y="279.2104">-Flight *flight</text><text fill="#000000" font-family="sans-serif" font-size="11" lengthAdjust="spacingAndGlyphs" textLength="99" x="19.5" y="292.0151">-Runway *runway</text><text fill="#000000" font-family="sans-serif" font-size="11" lengthAdjust="spacingAndGlyphs" textLength="61" x="19.5" y="304.8198">+bool land</text><line style="stroke: #A80036; stroke-width: 1.5;" x1="14.5" x2="242.5" y1="311.4141" y2="311.4141"/><text fill="#000000" font-family="sans-serif" font-size="11" lengthAdjust="spacingAndGlyphs" textLength="204" x="19.5" y="325.6245">+setLandingStatus(bool status):void</text><text fill="#000000" font-family="sans-serif" font-size="11" lengthAdjust="spacingAndGlyphs" textLength="103" x="19.5" y="338.4292">isLandingOk():bool</text><text fill="#000000" font-family="sans-serif" font-size="11" lengthAdjust="spacingAndGlyphs" textLength="218" x="19.5" y="351.2339">registerRunway(Runway *runway):void</text><text fill="#000000" font-family="sans-serif" font-size="11" lengthAdjust="spacingAndGlyphs" textLength="177" x="19.5" y="364.0386">registerFlight(Flight *flight):void</text><!--MD5=[521817ab83e81da341a3f4b5e91bae41]
class Command--><rect codeLine="26" fill="#FEFECE" filter="url(#fqena9vv8w8tn)" height="66.7422" id="Command" style="stroke: #A80036; stroke-width: 1.5;" width="98" x="528.5" y="26"/><ellipse cx="543.5" cy="44.9688" fill="#B4A7E5" rx="11" ry="11" style="stroke: #A80036; stroke-width: 1.0;"/><path d="M544.4531,41.75 L546.1719,41.75 C546.5625,41.75 546.75,41.7188 546.875,41.6406 C547.1406,41.4844 547.2813,41.2031 547.2813,40.9063 C547.2813,40.6406 547.1719,40.375 546.9375,40.2031 C546.7656,40.0938 546.625,40.0625 546.1719,40.0625 L541.0313,40.0625 C540.5938,40.0625 540.4688,40.0781 540.3125,40.1719 C540.0625,40.3281 539.9063,40.625 539.9063,40.9063 C539.9063,41.1875 540.0469,41.4375 540.2656,41.6094 C540.4219,41.7188 540.6094,41.75 541.0313,41.75 L542.75,41.75 L542.75,48.2656 L541.0313,48.2656 C540.5938,48.2656 540.4688,48.2813 540.3125,48.3906 C540.0625,48.5469 539.9063,48.8281 539.9063,49.125 C539.9063,49.375 540.0469,49.6406 540.2656,49.7969 C540.4219,49.9219 540.625,49.9688 541.0313,49.9688 L546.1719,49.9688 C546.9219,49.9688 547.2813,49.6875 547.2813,49.125 C547.2813,48.8438 547.1719,48.5938 546.9375,48.4219 C546.7656,48.2969 546.625,48.2656 546.1719,48.2656 L544.4531,48.2656 L544.4531,41.75 Z "/><text fill="#000000" font-family="sans-serif" font-size="12" font-style="italic" lengthAdjust="spacingAndGlyphs" textLength="54" x="561.5" y="42.1387">Interface</text><text fill="#000000" font-family="sans-serif" font-size="12" font-style="italic" lengthAdjust="spacingAndGlyphs" textLength="62" x="561.5" y="56.1074">Command</text><line style="stroke: #A80036; stroke-width: 1.5;" x1="529.5" x2="625.5" y1="63.9375" y2="63.9375"/><line style="stroke: #A80036; stroke-width: 1.5;" x1="529.5" x2="625.5" y1="71.9375" y2="71.9375"/><text fill="#000000" font-family="sans-serif" font-size="11" font-style="italic" lengthAdjust="spacingAndGlyphs" textLength="69" x="534.5" y="86.1479">+land():void</text><!--MD5=[bd6e5d4dd3d7814cbdc3148d3ed1ec4b]
class Flight--><rect codeLine="33" fill="#FEFECE" filter="url(#fqena9vv8w8tn)" height="99.2188" id="Flight" style="stroke: #A80036; stroke-width: 1.5;" width="277" x="279" y="252.5"/><ellipse cx="397.25" cy="268.5" fill="#ADD1B2" rx="11" ry="11" style="stroke: #A80036; stroke-width: 1.0;"/><path d="M399.5938,264.1719 C398.6563,263.7344 398.0625,263.5938 397.1875,263.5938 C394.5625,263.5938 392.5625,265.6719 392.5625,268.3906 L392.5625,269.5156 C392.5625,272.0938 394.6719,273.9844 397.5625,273.9844 C398.7813,273.9844 399.9375,273.6875 400.6875,273.1406 C401.2656,272.7344 401.5938,272.2813 401.5938,271.8906 C401.5938,271.4375 401.2031,271.0469 400.7344,271.0469 C400.5156,271.0469 400.3125,271.125 400.125,271.3125 C399.6719,271.7969 399.6719,271.7969 399.4844,271.8906 C399.0625,272.1563 398.375,272.2813 397.6094,272.2813 C395.5625,272.2813 394.2656,271.1875 394.2656,269.4844 L394.2656,268.3906 C394.2656,266.6094 395.5156,265.2969 397.25,265.2969 C397.8281,265.2969 398.4375,265.4531 398.9063,265.7031 C399.3906,265.9844 399.5625,266.2031 399.6563,266.6094 C399.7188,267.0156 399.75,267.1406 399.8906,267.2656 C400.0313,267.4063 400.2656,267.5156 400.4844,267.5156 C400.75,267.5156 401.0156,267.375 401.1875,267.1563 C401.2969,267 401.3281,266.8125 401.3281,266.3906 L401.3281,264.9688 C401.3281,264.5313 401.3125,264.4063 401.2188,264.25 C401.0625,263.9844 400.7813,263.8438 400.4844,263.8438 C400.1875,263.8438 399.9844,263.9375 399.7656,264.25 L399.5938,264.1719 Z "/><text fill="#000000" font-family="sans-serif" font-size="12" lengthAdjust="spacingAndGlyphs" textLength="32" x="417.75" y="272.6543">Flight</text><line style="stroke: #A80036; stroke-width: 1.5;" x1="280" x2="555" y1="284.5" y2="284.5"/><text fill="#000000" font-family="sans-serif" font-size="11" lengthAdjust="spacingAndGlyphs" textLength="225" x="285" y="298.7104">-IAirTrafficControlMediator *atcMediator;</text><line style="stroke: #A80036; stroke-width: 1.5;" x1="280" x2="555" y1="305.3047" y2="305.3047"/><text fill="#000000" font-family="sans-serif" font-size="11" lengthAdjust="spacingAndGlyphs" textLength="265" x="285" y="319.5151">+Flight(IAirTrafficControlMediator *atcMediator)</text><text fill="#000000" font-family="sans-serif" font-size="11" lengthAdjust="spacingAndGlyphs" textLength="59" x="285" y="332.3198">land():void</text><text fill="#000000" font-family="sans-serif" font-size="11" lengthAdjust="spacingAndGlyphs" textLength="90" x="285" y="345.1245">getReady():void</text><path d="M661.5,47 L661.5,72.1328 L905.5,72.1328 L905.5,57 L895.5,47 L661.5,47 " fill="#FBFB77" filter="url(#fqena9vv8w8tn)" style="stroke: #A80036; stroke-width: 1.0;"/><path d="M895.5,47 L895.5,57 L905.5,57 L895.5,47 " fill="#FBFB77" style="stroke: #A80036; stroke-width: 1.0;"/><text fill="#000000" font-family="sans-serif" font-size="13" lengthAdjust="spacingAndGlyphs" textLength="223" x="667.5" y="64.0669">cout&lt;&lt;'Ready for landing.'&lt;&lt;endl;</text><!--MD5=[624efc8b2782ac62250e8e0a9e5ef244]
class Runway--><rect codeLine="47" fill="#FEFECE" filter="url(#fqena9vv8w8tn)" height="86.4141" id="Runway" style="stroke: #A80036; stroke-width: 1.5;" width="291" x="591" y="259"/><ellipse cx="709.75" cy="275" fill="#ADD1B2" rx="11" ry="11" style="stroke: #A80036; stroke-width: 1.0;"/><path d="M712.0938,270.6719 C711.1563,270.2344 710.5625,270.0938 709.6875,270.0938 C707.0625,270.0938 705.0625,272.1719 705.0625,274.8906 L705.0625,276.0156 C705.0625,278.5938 707.1719,280.4844 710.0625,280.4844 C711.2813,280.4844 712.4375,280.1875 713.1875,279.6406 C713.7656,279.2344 714.0938,278.7813 714.0938,278.3906 C714.0938,277.9375 713.7031,277.5469 713.2344,277.5469 C713.0156,277.5469 712.8125,277.625 712.625,277.8125 C712.1719,278.2969 712.1719,278.2969 711.9844,278.3906 C711.5625,278.6563 710.875,278.7813 710.1094,278.7813 C708.0625,278.7813 706.7656,277.6875 706.7656,275.9844 L706.7656,274.8906 C706.7656,273.1094 708.0156,271.7969 709.75,271.7969 C710.3281,271.7969 710.9375,271.9531 711.4063,272.2031 C711.8906,272.4844 712.0625,272.7031 712.1563,273.1094 C712.2188,273.5156 712.25,273.6406 712.3906,273.7656 C712.5313,273.9063 712.7656,274.0156 712.9844,274.0156 C713.25,274.0156 713.5156,273.875 713.6875,273.6563 C713.7969,273.5 713.8281,273.3125 713.8281,272.8906 L713.8281,271.4688 C713.8281,271.0313 713.8125,270.9063 713.7188,270.75 C713.5625,270.4844 713.2813,270.3438 712.9844,270.3438 C712.6875,270.3438 712.4844,270.4375 712.2656,270.75 L712.0938,270.6719 Z "/><text fill="#000000" font-family="sans-serif" font-size="12" lengthAdjust="spacingAndGlyphs" textLength="45" x="730.25" y="279.1543">Runway</text><line style="stroke: #A80036; stroke-width: 1.5;" x1="592" x2="881" y1="291" y2="291"/><text fill="#000000" font-family="sans-serif" font-size="11" lengthAdjust="spacingAndGlyphs" textLength="225" x="597" y="305.2104">-IAirTrafficControlMediator *atcMediator;</text><line style="stroke: #A80036; stroke-width: 1.5;" x1="592" x2="881" y1="311.8047" y2="311.8047"/><text fill="#000000" font-family="sans-serif" font-size="11" lengthAdjust="spacingAndGlyphs" textLength="279" x="597" y="326.0151">+Runway(IAirTrafficControlMediator *atcMediator)</text><text fill="#000000" font-family="sans-serif" font-size="11" lengthAdjust="spacingAndGlyphs" textLength="68" x="597" y="338.8198">+land():void</text><!--MD5=[68eae30552a4d9d5861f72787c8b0d5f]
reverse link Command to Runway--><path codeLine="56" d="M610.285,110.089 C639.263,153.921 681.075,217.165 708.512,258.666 " fill="none" id="Command-backto-Runway" style="stroke: #A80036; stroke-width: 1.0; stroke-dasharray: 7.0,7.0;"/><polygon fill="none" points="604.3,113.729,599.109,93.185,615.978,106.008,604.3,113.729" style="stroke: #A80036; stroke-width: 1.0;"/><!--MD5=[a7eb9ae663ef497b0ce5fb2be7f8797f]
reverse link Command to Flight--><path codeLine="57" d="M544.493,110.113 C516.824,151.704 477.534,210.761 450.006,252.139 " fill="none" id="Command-backto-Flight" style="stroke: #A80036; stroke-width: 1.0; stroke-dasharray: 7.0,7.0;"/><polygon fill="none" points="538.849,105.96,555.755,93.185,550.505,113.714,538.849,105.96" style="stroke: #A80036; stroke-width: 1.0;"/><!--MD5=[0b6c0abc8c74e4f56197e6c5302fcbe9]
reverse link IAirTrafficControlMediator to AirTrafficControlMediator--><path codeLine="58" d="M128.5,132.545 C128.5,164.252 128.5,201.318 128.5,232.596 " fill="none" id="IAirTrafficControlMediator-backto-AirTrafficControlMediator" style="stroke: #A80036; stroke-width: 1.0; stroke-dasharray: 7.0,7.0;"/><polygon fill="none" points="121.5,132.093,128.5,112.093,135.5,132.093,121.5,132.093" style="stroke: #A80036; stroke-width: 1.0;"/><!--MD5=[5a95a68c270e0aafa8acf7809635e72f]
@startuml
skinparam classAttributeIconSize 0


interface "Interface \n IAirTrafficControlMediator" as IAirTrafficControlMediator
{
+{abstract} registerRunway(Runway *runway):void
+{abstract} registerFlight(Flight *flight):void
+{abstract} isLandingOk():void
+{abstract} setLandingStatus(bool status):void
}




class AirTrafficControlMediator
{
    -Flight *flight
    -Runway *runway
    +bool land
    +setLandingStatus(bool status):void
    isLandingOk():bool
    registerRunway(Runway *runway):void
    registerFlight(Flight *flight):void
}

interface "Interface \n Command" as Command
{
    +{abstract}land():void
}



class Flight 
{
    -IAirTrafficControlMediator *atcMediator;
    +Flight(IAirTrafficControlMediator *atcMediator)
    land():void
    getReady():void
}




note "cout<<'Ready for landing.'<<endl;" as n2


class Runway
{
    -IAirTrafficControlMediator *atcMediator;
    +Runway(IAirTrafficControlMediator *atcMediator)
    +land():void 

}


Runway -up..|> Command
Flight -up..|> Command
AirTrafficControlMediator -up..|> IAirTrafficControlMediator
@enduml

PlantUML version 1.2020.17beta5(Unknown compile time)
(GPL source distribution)
Java Runtime: Java(TM) SE Runtime Environment
JVM: Java HotSpot(TM) 64-Bit Server VM
Default Encoding: UTF-8
Language: en
Country: US
--></g></svg>