<?xml version="1.0" encoding="UTF-8" standalone="no"?><svg xmlns="http://www.w3.org/2000/svg" xmlns:xlink="http://www.w3.org/1999/xlink" contentScriptType="application/ecmascript" contentStyleType="text/css" height="580px" preserveAspectRatio="none" style="width:526px;height:580px;" version="1.1" viewBox="0 0 526 580" width="526px" zoomAndPan="magnify"><defs><filter height="300%" id="f1187r1s8qysr7" width="300%" x="-1" y="-1"><feGaussianBlur result="blurOut" stdDeviation="2.0"/><feColorMatrix in="blurOut" result="blurOut2" type="matrix" values="0 0 0 0 0 0 0 0 0 0 0 0 0 0 0 0 0 0 .4 0"/><feOffset dx="4.0" dy="4.0" in="blurOut2" result="blurOut3"/><feBlend in="SourceGraphic" in2="blurOut3" mode="normal"/></filter></defs><g><!--MD5=[47a651c3eb69e56150d345527faced07]
class BallMotionStrategy--><rect codeLine="4" fill="#FEFECE" filter="url(#f1187r1s8qysr7)" height="66.7422" id="BallMotionStrategy" style="stroke: #A80036; stroke-width: 1.5;" width="149" x="7" y="7"/><ellipse cx="22" cy="25.9688" fill="#B4A7E5" rx="11" ry="11" style="stroke: #A80036; stroke-width: 1.0;"/><path d="M22.9531,22.75 L24.6719,22.75 C25.0625,22.75 25.25,22.7188 25.375,22.6406 C25.6406,22.4844 25.7813,22.2031 25.7813,21.9063 C25.7813,21.6406 25.6719,21.375 25.4375,21.2031 C25.2656,21.0938 25.125,21.0625 24.6719,21.0625 L19.5313,21.0625 C19.0938,21.0625 18.9688,21.0781 18.8125,21.1719 C18.5625,21.3281 18.4063,21.625 18.4063,21.9063 C18.4063,22.1875 18.5469,22.4375 18.7656,22.6094 C18.9219,22.7188 19.1094,22.75 19.5313,22.75 L21.25,22.75 L21.25,29.2656 L19.5313,29.2656 C19.0938,29.2656 18.9688,29.2813 18.8125,29.3906 C18.5625,29.5469 18.4063,29.8281 18.4063,30.125 C18.4063,30.375 18.5469,30.6406 18.7656,30.7969 C18.9219,30.9219 19.125,30.9688 19.5313,30.9688 L24.6719,30.9688 C25.4219,30.9688 25.7813,30.6875 25.7813,30.125 C25.7813,29.8438 25.6719,29.5938 25.4375,29.4219 C25.2656,29.2969 25.125,29.2656 24.6719,29.2656 L22.9531,29.2656 L22.9531,22.75 Z "/><text fill="#000000" font-family="sans-serif" font-size="12" font-style="italic" lengthAdjust="spacingAndGlyphs" textLength="54" x="65.5" y="23.1387">Interface</text><text fill="#000000" font-family="sans-serif" font-size="12" font-style="italic" lengthAdjust="spacingAndGlyphs" textLength="113" x="40" y="37.1074">BallMotionStrategy</text><line style="stroke: #A80036; stroke-width: 1.5;" x1="8" x2="155" y1="44.9375" y2="44.9375"/><line style="stroke: #A80036; stroke-width: 1.5;" x1="8" x2="155" y1="52.9375" y2="52.9375"/><text fill="#000000" font-family="sans-serif" font-size="11" font-style="italic" lengthAdjust="spacingAndGlyphs" textLength="122" x="13" y="67.1479">+move(Ball ball):void</text><!--MD5=[e8b86d3735267dd329cf00b051d3730a]
class BallColorStrategy--><rect codeLine="8" fill="#FEFECE" filter="url(#f1187r1s8qysr7)" height="66.7422" id="BallColorStrategy" style="stroke: #A80036; stroke-width: 1.5;" width="173" x="218" y="7"/><ellipse cx="248.3" cy="25.9688" fill="#B4A7E5" rx="11" ry="11" style="stroke: #A80036; stroke-width: 1.0;"/><path d="M249.2531,22.75 L250.9719,22.75 C251.3625,22.75 251.55,22.7188 251.675,22.6406 C251.9406,22.4844 252.0813,22.2031 252.0813,21.9063 C252.0813,21.6406 251.9719,21.375 251.7375,21.2031 C251.5656,21.0938 251.425,21.0625 250.9719,21.0625 L245.8313,21.0625 C245.3938,21.0625 245.2688,21.0781 245.1125,21.1719 C244.8625,21.3281 244.7063,21.625 244.7063,21.9063 C244.7063,22.1875 244.8469,22.4375 245.0656,22.6094 C245.2219,22.7188 245.4094,22.75 245.8313,22.75 L247.55,22.75 L247.55,29.2656 L245.8313,29.2656 C245.3938,29.2656 245.2688,29.2813 245.1125,29.3906 C244.8625,29.5469 244.7063,29.8281 244.7063,30.125 C244.7063,30.375 244.8469,30.6406 245.0656,30.7969 C245.2219,30.9219 245.425,30.9688 245.8313,30.9688 L250.9719,30.9688 C251.7219,30.9688 252.0813,30.6875 252.0813,30.125 C252.0813,29.8438 251.9719,29.5938 251.7375,29.4219 C251.5656,29.2969 251.425,29.2656 250.9719,29.2656 L249.2531,29.2656 L249.2531,22.75 Z "/><text fill="#000000" font-family="sans-serif" font-size="12" font-style="italic" lengthAdjust="spacingAndGlyphs" textLength="54" x="290.2" y="23.1387">Interface</text><text fill="#000000" font-family="sans-serif" font-size="12" font-style="italic" lengthAdjust="spacingAndGlyphs" textLength="103" x="269.7" y="37.1074">BallColorStrategy</text><line style="stroke: #A80036; stroke-width: 1.5;" x1="219" x2="390" y1="44.9375" y2="44.9375"/><line style="stroke: #A80036; stroke-width: 1.5;" x1="219" x2="390" y1="52.9375" y2="52.9375"/><text fill="#000000" font-family="sans-serif" font-size="11" font-style="italic" lengthAdjust="spacingAndGlyphs" textLength="161" x="224" y="67.1479">+changeColor(Ball ball):void</text><!--MD5=[94c7f9372c62fd735ca66cf2c8b73ece]
class Ball--><rect codeLine="13" fill="#FEFECE" filter="url(#f1187r1s8qysr7)" height="99.2188" id="Ball" style="stroke: #A80036; stroke-width: 1.5;" width="294" x="107.5" y="195"/><ellipse cx="239.75" cy="211" fill="#ADD1B2" rx="11" ry="11" style="stroke: #A80036; stroke-width: 1.0;"/><path d="M242.0938,206.6719 C241.1563,206.2344 240.5625,206.0938 239.6875,206.0938 C237.0625,206.0938 235.0625,208.1719 235.0625,210.8906 L235.0625,212.0156 C235.0625,214.5938 237.1719,216.4844 240.0625,216.4844 C241.2813,216.4844 242.4375,216.1875 243.1875,215.6406 C243.7656,215.2344 244.0938,214.7813 244.0938,214.3906 C244.0938,213.9375 243.7031,213.5469 243.2344,213.5469 C243.0156,213.5469 242.8125,213.625 242.625,213.8125 C242.1719,214.2969 242.1719,214.2969 241.9844,214.3906 C241.5625,214.6563 240.875,214.7813 240.1094,214.7813 C238.0625,214.7813 236.7656,213.6875 236.7656,211.9844 L236.7656,210.8906 C236.7656,209.1094 238.0156,207.7969 239.75,207.7969 C240.3281,207.7969 240.9375,207.9531 241.4063,208.2031 C241.8906,208.4844 242.0625,208.7031 242.1563,209.1094 C242.2188,209.5156 242.25,209.6406 242.3906,209.7656 C242.5313,209.9063 242.7656,210.0156 242.9844,210.0156 C243.25,210.0156 243.5156,209.875 243.6875,209.6563 C243.7969,209.5 243.8281,209.3125 243.8281,208.8906 L243.8281,207.4688 C243.8281,207.0313 243.8125,206.9063 243.7188,206.75 C243.5625,206.4844 243.2813,206.3438 242.9844,206.3438 C242.6875,206.3438 242.4844,206.4375 242.2656,206.75 L242.0938,206.6719 Z "/><text fill="#000000" font-family="sans-serif" font-size="12" lengthAdjust="spacingAndGlyphs" textLength="21" x="260.25" y="215.1543">Ball</text><line style="stroke: #A80036; stroke-width: 1.5;" x1="108.5" x2="400.5" y1="227" y2="227"/><text fill="#000000" font-family="sans-serif" font-size="11" lengthAdjust="spacingAndGlyphs" textLength="231" x="113.5" y="241.2104">-BallMotionStrategy * ballMotionStrategy</text><text fill="#000000" font-family="sans-serif" font-size="11" lengthAdjust="spacingAndGlyphs" textLength="211" x="113.5" y="254.0151">-BallColorStrategy *ballColorStrategy</text><line style="stroke: #A80036; stroke-width: 1.5;" x1="108.5" x2="400.5" y1="260.6094" y2="260.6094"/><text fill="#000000" font-family="sans-serif" font-size="11" lengthAdjust="spacingAndGlyphs" textLength="270" x="113.5" y="274.8198">+setBallColorStrategy(BallColorStrategy *):void</text><text fill="#000000" font-family="sans-serif" font-size="11" lengthAdjust="spacingAndGlyphs" textLength="282" x="113.5" y="287.6245">+setBallMotionStrategy(BallMotionStrategy*):void</text><!--MD5=[e1844af7ab52fd2286594d43272b65bd]
class NullBallMotionStrategy--><rect codeLine="22" fill="#FEFECE" filter="url(#f1187r1s8qysr7)" height="60.8047" id="NullBallMotionStrategy" style="stroke: #A80036; stroke-width: 1.5;" width="165" x="57" y="358"/><ellipse cx="72" cy="374" fill="#ADD1B2" rx="11" ry="11" style="stroke: #A80036; stroke-width: 1.0;"/><path d="M74.3438,369.6719 C73.4063,369.2344 72.8125,369.0938 71.9375,369.0938 C69.3125,369.0938 67.3125,371.1719 67.3125,373.8906 L67.3125,375.0156 C67.3125,377.5938 69.4219,379.4844 72.3125,379.4844 C73.5313,379.4844 74.6875,379.1875 75.4375,378.6406 C76.0156,378.2344 76.3438,377.7813 76.3438,377.3906 C76.3438,376.9375 75.9531,376.5469 75.4844,376.5469 C75.2656,376.5469 75.0625,376.625 74.875,376.8125 C74.4219,377.2969 74.4219,377.2969 74.2344,377.3906 C73.8125,377.6563 73.125,377.7813 72.3594,377.7813 C70.3125,377.7813 69.0156,376.6875 69.0156,374.9844 L69.0156,373.8906 C69.0156,372.1094 70.2656,370.7969 72,370.7969 C72.5781,370.7969 73.1875,370.9531 73.6563,371.2031 C74.1406,371.4844 74.3125,371.7031 74.4063,372.1094 C74.4688,372.5156 74.5,372.6406 74.6406,372.7656 C74.7813,372.9063 75.0156,373.0156 75.2344,373.0156 C75.5,373.0156 75.7656,372.875 75.9375,372.6563 C76.0469,372.5 76.0781,372.3125 76.0781,371.8906 L76.0781,370.4688 C76.0781,370.0313 76.0625,369.9063 75.9688,369.75 C75.8125,369.4844 75.5313,369.3438 75.2344,369.3438 C74.9375,369.3438 74.7344,369.4375 74.5156,369.75 L74.3438,369.6719 Z "/><text fill="#000000" font-family="sans-serif" font-size="12" lengthAdjust="spacingAndGlyphs" textLength="133" x="86" y="378.1543">NullBallMotionStrategy</text><line style="stroke: #A80036; stroke-width: 1.5;" x1="58" x2="221" y1="390" y2="390"/><line style="stroke: #A80036; stroke-width: 1.5;" x1="58" x2="221" y1="398" y2="398"/><text fill="#000000" font-family="sans-serif" font-size="11" lengthAdjust="spacingAndGlyphs" textLength="117" x="63" y="412.2104">move(Ball ball) :void</text><!--MD5=[08884d4b0f761220fab03a467a1c7251]
class NullBallColorStrategy--><rect codeLine="27" fill="#FEFECE" filter="url(#f1187r1s8qysr7)" height="60.8047" id="NullBallColorStrategy" style="stroke: #A80036; stroke-width: 1.5;" width="191" x="316" y="358"/><ellipse cx="346.3" cy="374" fill="#ADD1B2" rx="11" ry="11" style="stroke: #A80036; stroke-width: 1.0;"/><path d="M348.6438,369.6719 C347.7063,369.2344 347.1125,369.0938 346.2375,369.0938 C343.6125,369.0938 341.6125,371.1719 341.6125,373.8906 L341.6125,375.0156 C341.6125,377.5938 343.7219,379.4844 346.6125,379.4844 C347.8313,379.4844 348.9875,379.1875 349.7375,378.6406 C350.3156,378.2344 350.6438,377.7813 350.6438,377.3906 C350.6438,376.9375 350.2531,376.5469 349.7844,376.5469 C349.5656,376.5469 349.3625,376.625 349.175,376.8125 C348.7219,377.2969 348.7219,377.2969 348.5344,377.3906 C348.1125,377.6563 347.425,377.7813 346.6594,377.7813 C344.6125,377.7813 343.3156,376.6875 343.3156,374.9844 L343.3156,373.8906 C343.3156,372.1094 344.5656,370.7969 346.3,370.7969 C346.8781,370.7969 347.4875,370.9531 347.9563,371.2031 C348.4406,371.4844 348.6125,371.7031 348.7063,372.1094 C348.7688,372.5156 348.8,372.6406 348.9406,372.7656 C349.0813,372.9063 349.3156,373.0156 349.5344,373.0156 C349.8,373.0156 350.0656,372.875 350.2375,372.6563 C350.3469,372.5 350.3781,372.3125 350.3781,371.8906 L350.3781,370.4688 C350.3781,370.0313 350.3625,369.9063 350.2688,369.75 C350.1125,369.4844 349.8313,369.3438 349.5344,369.3438 C349.2375,369.3438 349.0344,369.4375 348.8156,369.75 L348.6438,369.6719 Z "/><text fill="#000000" font-family="sans-serif" font-size="12" lengthAdjust="spacingAndGlyphs" textLength="125" x="363.7" y="378.1543">NullBallColorStrategy</text><line style="stroke: #A80036; stroke-width: 1.5;" x1="317" x2="506" y1="390" y2="390"/><line style="stroke: #A80036; stroke-width: 1.5;" x1="317" x2="506" y1="398" y2="398"/><text fill="#000000" font-family="sans-serif" font-size="11" lengthAdjust="spacingAndGlyphs" textLength="179" x="322" y="412.2104">void changeColor(Ball ball):void</text><path d="M229.5,543 L229.5,568.1328 L369.5,568.1328 L369.5,553 L359.5,543 L229.5,543 " fill="#FBFB77" filter="url(#f1187r1s8qysr7)" style="stroke: #A80036; stroke-width: 1.0;"/><path d="M359.5,543 L359.5,553 L369.5,553 L359.5,543 " fill="#FBFB77" style="stroke: #A80036; stroke-width: 1.0;"/><text fill="#000000" font-family="sans-serif" font-size="13" lengthAdjust="spacingAndGlyphs" textLength="119" x="235.5" y="560.0669">{do nothing here}</text><!--MD5=[043baf1532ed9d1fe21eb066f96655f0]
reverse link BallMotionStrategy to NullBallMotionStrategy--><path codeLine="34" d="M76.2632,94.041 C72.6968,145.837 71.4358,226.768 89.5,294 C95.1604,315.067 106.3624,336.644 116.731,353.704 " fill="none" id="BallMotionStrategy-backto-NullBallMotionStrategy" style="stroke: #A80036; stroke-width: 1.0; stroke-dasharray: 7.0,7.0;"/><polygon fill="none" points="69.2874,93.458,77.8536,74.077,83.2431,94.57,69.2874,93.458" style="stroke: #A80036; stroke-width: 1.0;"/><!--MD5=[5c82be50d985b847a7bab4baee68f4a8]
reverse link BallColorStrategy to NullBallColorStrategy--><path codeLine="35" d="M353.105,89.269 C378.187,117.4 406.245,155.201 419.5,195 C437.263,248.335 428.177,314.64 419.89,353.735 " fill="none" id="BallColorStrategy-backto-NullBallColorStrategy" style="stroke: #A80036; stroke-width: 1.0; stroke-dasharray: 7.0,7.0;"/><polygon fill="none" points="347.674,93.707,339.204,74.284,357.938,84.186,347.674,93.707" style="stroke: #A80036; stroke-width: 1.0;"/><!--MD5=[1030178f9b2e0906bb4ffd7d3f891401]
link NullBallMotionStrategy to DoNothing--><path codeLine="36" d="M171.494,422.094 C207.607,459.448 264.432,518.2262 288.327,542.9425 " fill="none" id="NullBallMotionStrategy-DoNothing" style="stroke: #A80036; stroke-width: 1.0; stroke-dasharray: 7.0,7.0;"/><!--MD5=[2ff5f6061ee31fa10d772a249ad88e68]
link NullBallColorStrategy to DoNothing--><path codeLine="37" d="M389.104,422.094 C363.825,459.448 324.048,518.2262 307.321,542.9425 " fill="none" id="NullBallColorStrategy-DoNothing" style="stroke: #A80036; stroke-width: 1.0; stroke-dasharray: 7.0,7.0;"/><!--MD5=[a03da127f4c79c8981e37a9fb57624fb]
reverse link BallColorStrategy to Ball--><path codeLine="38" d="M295.091,79.511 C287.016,112.134 275.329,159.351 266.567,194.75 " fill="none" id="BallColorStrategy-backto-Ball" style="stroke: #A80036; stroke-width: 1.0; stroke-dasharray: 7.0,7.0;"/><polygon fill="#A80036" points="296.355,74.404,290.3099,82.1794,295.1538,79.2576,298.0756,84.1014,296.355,74.404" style="stroke: #A80036; stroke-width: 1.0;"/><!--MD5=[f7ea725972a58e21c542b5f6f1f2037c]
reverse link BallMotionStrategy to Ball--><path codeLine="39" d="M113.025,78.309 C140.994,110.967 182.058,158.914 212.749,194.75 " fill="none" id="BallMotionStrategy-backto-Ball" style="stroke: #A80036; stroke-width: 1.0; stroke-dasharray: 7.0,7.0;"/><polygon fill="#A80036" points="109.68,74.404,112.4954,83.8419,112.9321,78.2019,118.572,78.6386,109.68,74.404" style="stroke: #A80036; stroke-width: 1.0;"/><!--MD5=[68819620adcb423e42829f129ef1e2c9]
@startuml
skinparam classAttributeIconSize 0


interface "Interface \n BallMotionStrategy" as BallMotionStrategy{
+{abstract} move(Ball ball):void
}

interface "Interface \n BallColorStrategy" as BallColorStrategy{
+{abstract}changeColor(Ball ball):void
}


class Ball
{
- BallMotionStrategy * ballMotionStrategy
- BallColorStrategy *ballColorStrategy
 +setBallColorStrategy(BallColorStrategy *):void
 +setBallMotionStrategy(BallMotionStrategy*):void
}


class NullBallMotionStrategy
{
   move(Ball ball) :void
}

class NullBallColorStrategy
{
    void changeColor(Ball ball):void
}

note "{do nothing here}" as DoNothing

NullBallMotionStrategy -up...|> BallMotionStrategy
NullBallColorStrategy -up...|>  BallColorStrategy
DoNothing -up..NullBallMotionStrategy::Move
DoNothing -up..NullBallColorStrategy::Move
Ball -up..> BallColorStrategy
Ball -up..> BallMotionStrategy
@enduml

PlantUML version 1.2020.17beta5(Unknown compile time)
(GPL source distribution)
Java Runtime: Java(TM) SE Runtime Environment
JVM: Java HotSpot(TM) 64-Bit Server VM
Default Encoding: UTF-8
Language: en
Country: US
--></g></svg>