<?xml version="1.0" encoding="UTF-8" standalone="no"?><svg xmlns="http://www.w3.org/2000/svg" xmlns:xlink="http://www.w3.org/1999/xlink" contentScriptType="application/ecmascript" contentStyleType="text/css" height="568px" preserveAspectRatio="none" style="width:1480px;height:568px;" version="1.1" viewBox="0 0 1480 568" width="1480px" zoomAndPan="magnify"><defs><filter height="300%" id="f156lma1ciloh4" width="300%" x="-1" y="-1"><feGaussianBlur result="blurOut" stdDeviation="2.0"/><feColorMatrix in="blurOut" result="blurOut2" type="matrix" values="0 0 0 0 0 0 0 0 0 0 0 0 0 0 0 0 0 0 .4 0"/><feOffset dx="4.0" dy="4.0" in="blurOut2" result="blurOut3"/><feBlend in="SourceGraphic" in2="blurOut3" mode="normal"/></filter></defs><g><!--MD5=[d2258248519fa17253ad8957974a86d2]
class CarElement--><rect codeLine="3" fill="#FEFECE" filter="url(#f156lma1ciloh4)" height="66.7422" id="CarElement" style="stroke: #A80036; stroke-width: 1.5;" width="241" x="383.5" y="26"/><ellipse cx="462.75" cy="44.9688" fill="#B4A7E5" rx="11" ry="11" style="stroke: #A80036; stroke-width: 1.0;"/><path d="M463.7031,41.75 L465.4219,41.75 C465.8125,41.75 466,41.7188 466.125,41.6406 C466.3906,41.4844 466.5313,41.2031 466.5313,40.9063 C466.5313,40.6406 466.4219,40.375 466.1875,40.2031 C466.0156,40.0938 465.875,40.0625 465.4219,40.0625 L460.2813,40.0625 C459.8438,40.0625 459.7188,40.0781 459.5625,40.1719 C459.3125,40.3281 459.1563,40.625 459.1563,40.9063 C459.1563,41.1875 459.2969,41.4375 459.5156,41.6094 C459.6719,41.7188 459.8594,41.75 460.2813,41.75 L462,41.75 L462,48.2656 L460.2813,48.2656 C459.8438,48.2656 459.7188,48.2813 459.5625,48.3906 C459.3125,48.5469 459.1563,48.8281 459.1563,49.125 C459.1563,49.375 459.2969,49.6406 459.5156,49.7969 C459.6719,49.9219 459.875,49.9688 460.2813,49.9688 L465.4219,49.9688 C466.1719,49.9688 466.5313,49.6875 466.5313,49.125 C466.5313,48.8438 466.4219,48.5938 466.1875,48.4219 C466.0156,48.2969 465.875,48.2656 465.4219,48.2656 L463.7031,48.2656 L463.7031,41.75 Z "/><text fill="#000000" font-family="sans-serif" font-size="12" font-style="italic" lengthAdjust="spacingAndGlyphs" textLength="54" x="491.25" y="42.1387">Interface</text><text fill="#000000" font-family="sans-serif" font-size="12" font-style="italic" lengthAdjust="spacingAndGlyphs" textLength="70" x="487.25" y="56.1074">CarElement</text><line style="stroke: #A80036; stroke-width: 1.5;" x1="384.5" x2="623.5" y1="63.9375" y2="63.9375"/><line style="stroke: #A80036; stroke-width: 1.5;" x1="384.5" x2="623.5" y1="71.9375" y2="71.9375"/><text fill="#000000" font-family="sans-serif" font-size="11" font-style="italic" lengthAdjust="spacingAndGlyphs" textLength="229" x="389.5" y="86.1479">+accept(CarElementVisitor *visitor):void</text><!--MD5=[f7bd4d911997281c06922bd436687551]
class CarElementVisitor--><rect codeLine="8" fill="#FEFECE" filter="url(#f156lma1ciloh4)" height="105.1563" id="CarElementVisitor" style="stroke: #A80036; stroke-width: 1.5;" width="166" x="1214" y="7"/><ellipse cx="1239.35" cy="25.9688" fill="#B4A7E5" rx="11" ry="11" style="stroke: #A80036; stroke-width: 1.0;"/><path d="M1240.3031,22.75 L1242.0219,22.75 C1242.4125,22.75 1242.6,22.7188 1242.725,22.6406 C1242.9906,22.4844 1243.1313,22.2031 1243.1313,21.9063 C1243.1313,21.6406 1243.0219,21.375 1242.7875,21.2031 C1242.6156,21.0938 1242.475,21.0625 1242.0219,21.0625 L1236.8813,21.0625 C1236.4438,21.0625 1236.3188,21.0781 1236.1625,21.1719 C1235.9125,21.3281 1235.7563,21.625 1235.7563,21.9063 C1235.7563,22.1875 1235.8969,22.4375 1236.1156,22.6094 C1236.2719,22.7188 1236.4594,22.75 1236.8813,22.75 L1238.6,22.75 L1238.6,29.2656 L1236.8813,29.2656 C1236.4438,29.2656 1236.3188,29.2813 1236.1625,29.3906 C1235.9125,29.5469 1235.7563,29.8281 1235.7563,30.125 C1235.7563,30.375 1235.8969,30.6406 1236.1156,30.7969 C1236.2719,30.9219 1236.475,30.9688 1236.8813,30.9688 L1242.0219,30.9688 C1242.7719,30.9688 1243.1313,30.6875 1243.1313,30.125 C1243.1313,29.8438 1243.0219,29.5938 1242.7875,29.4219 C1242.6156,29.2969 1242.475,29.2656 1242.0219,29.2656 L1240.3031,29.2656 L1240.3031,22.75 Z "/><text fill="#000000" font-family="sans-serif" font-size="12" font-style="italic" lengthAdjust="spacingAndGlyphs" textLength="54" x="1282.15" y="23.1387">Interface</text><text fill="#000000" font-family="sans-serif" font-size="12" font-style="italic" lengthAdjust="spacingAndGlyphs" textLength="107" x="1259.65" y="37.1074">CarElementVisitor</text><line style="stroke: #A80036; stroke-width: 1.5;" x1="1215" x2="1379" y1="44.9375" y2="44.9375"/><line style="stroke: #A80036; stroke-width: 1.5;" x1="1215" x2="1379" y1="52.9375" y2="52.9375"/><text fill="#000000" font-family="sans-serif" font-size="11" font-style="italic" lengthAdjust="spacingAndGlyphs" textLength="135" x="1220" y="67.1479">+visit(Body *body):void</text><text fill="#000000" font-family="sans-serif" font-size="11" font-style="italic" lengthAdjust="spacingAndGlyphs" textLength="116" x="1220" y="79.9526">+visit(Car *car):void</text><text fill="#000000" font-family="sans-serif" font-size="11" font-style="italic" lengthAdjust="spacingAndGlyphs" textLength="154" x="1220" y="92.7573">+visit(Engine *engine):void</text><text fill="#000000" font-family="sans-serif" font-size="11" font-style="italic" lengthAdjust="spacingAndGlyphs" textLength="146" x="1220" y="105.562">+visit(Wheel *wheel):void</text><!--MD5=[63ed6a0a2dfd613875880437a5e2b06e]
class Wheel--><rect codeLine="16" fill="#FEFECE" filter="url(#f156lma1ciloh4)" height="124.8281" id="Wheel" style="stroke: #A80036; stroke-width: 1.5;" width="240" x="7" y="237"/><ellipse cx="103.75" cy="253" fill="#ADD1B2" rx="11" ry="11" style="stroke: #A80036; stroke-width: 1.0;"/><path d="M106.0938,248.6719 C105.1563,248.2344 104.5625,248.0938 103.6875,248.0938 C101.0625,248.0938 99.0625,250.1719 99.0625,252.8906 L99.0625,254.0156 C99.0625,256.5938 101.1719,258.4844 104.0625,258.4844 C105.2813,258.4844 106.4375,258.1875 107.1875,257.6406 C107.7656,257.2344 108.0938,256.7813 108.0938,256.3906 C108.0938,255.9375 107.7031,255.5469 107.2344,255.5469 C107.0156,255.5469 106.8125,255.625 106.625,255.8125 C106.1719,256.2969 106.1719,256.2969 105.9844,256.3906 C105.5625,256.6563 104.875,256.7813 104.1094,256.7813 C102.0625,256.7813 100.7656,255.6875 100.7656,253.9844 L100.7656,252.8906 C100.7656,251.1094 102.0156,249.7969 103.75,249.7969 C104.3281,249.7969 104.9375,249.9531 105.4063,250.2031 C105.8906,250.4844 106.0625,250.7031 106.1563,251.1094 C106.2188,251.5156 106.25,251.6406 106.3906,251.7656 C106.5313,251.9063 106.7656,252.0156 106.9844,252.0156 C107.25,252.0156 107.5156,251.875 107.6875,251.6563 C107.7969,251.5 107.8281,251.3125 107.8281,250.8906 L107.8281,249.4688 C107.8281,249.0313 107.8125,248.9063 107.7188,248.75 C107.5625,248.4844 107.2813,248.3438 106.9844,248.3438 C106.6875,248.3438 106.4844,248.4375 106.2656,248.75 L106.0938,248.6719 Z "/><text fill="#000000" font-family="sans-serif" font-size="12" lengthAdjust="spacingAndGlyphs" textLength="38" x="124.25" y="257.1543">Wheel</text><line style="stroke: #A80036; stroke-width: 1.5;" x1="8" x2="246" y1="269" y2="269"/><text fill="#000000" font-family="sans-serif" font-size="11" lengthAdjust="spacingAndGlyphs" textLength="43" x="13" y="283.2104">private:</text><text fill="#000000" font-family="sans-serif" font-size="11" lengthAdjust="spacingAndGlyphs" textLength="71" x="13" y="296.0151">string name;</text><text fill="#000000" font-family="sans-serif" font-size="11" lengthAdjust="spacingAndGlyphs" textLength="36" x="13" y="308.8198">public:</text><line style="stroke: #A80036; stroke-width: 1.5;" x1="8" x2="246" y1="315.4141" y2="315.4141"/><text fill="#000000" font-family="sans-serif" font-size="11" lengthAdjust="spacingAndGlyphs" textLength="149" x="13" y="329.6245">+Wheel(string name):void</text><text fill="#000000" font-family="sans-serif" font-size="11" lengthAdjust="spacingAndGlyphs" textLength="104" x="13" y="342.4292">+getName():string</text><text fill="#000000" font-family="sans-serif" font-size="11" lengthAdjust="spacingAndGlyphs" textLength="228" x="13" y="355.2339">+accept(CarElementVisitor *visitor):void</text><path d="M58,509 L58,534.1328 A0,0 0 0 0 58,534.1328 L196,534.1328 A0,0 0 0 0 196,534.1328 L196,519 L186,509 L145.299,509 L248,351 L137.299,509 L58,509 A0,0 0 0 0 58,509 " fill="#FBFB77" filter="url(#f156lma1ciloh4)" style="stroke: #A80036; stroke-width: 1.0;"/><path d="M186,509 L186,519 L196,519 L186,509 " fill="#FBFB77" style="stroke: #A80036; stroke-width: 1.0;"/><text fill="#000000" font-family="sans-serif" font-size="13" lengthAdjust="spacingAndGlyphs" textLength="113" x="68" y="526.0669">visitor-&gt;visit(this)</text><!--MD5=[aebfb5ed06bf0acd9902aeebb8224243]
class Body--><rect codeLine="32" fill="#FEFECE" filter="url(#f156lma1ciloh4)" height="60.8047" id="Body" style="stroke: #A80036; stroke-width: 1.5;" width="213" x="290.5" y="268.5"/><ellipse cx="377.25" cy="284.5" fill="#ADD1B2" rx="11" ry="11" style="stroke: #A80036; stroke-width: 1.0;"/><path d="M379.5938,280.1719 C378.6563,279.7344 378.0625,279.5938 377.1875,279.5938 C374.5625,279.5938 372.5625,281.6719 372.5625,284.3906 L372.5625,285.5156 C372.5625,288.0938 374.6719,289.9844 377.5625,289.9844 C378.7813,289.9844 379.9375,289.6875 380.6875,289.1406 C381.2656,288.7344 381.5938,288.2813 381.5938,287.8906 C381.5938,287.4375 381.2031,287.0469 380.7344,287.0469 C380.5156,287.0469 380.3125,287.125 380.125,287.3125 C379.6719,287.7969 379.6719,287.7969 379.4844,287.8906 C379.0625,288.1563 378.375,288.2813 377.6094,288.2813 C375.5625,288.2813 374.2656,287.1875 374.2656,285.4844 L374.2656,284.3906 C374.2656,282.6094 375.5156,281.2969 377.25,281.2969 C377.8281,281.2969 378.4375,281.4531 378.9063,281.7031 C379.3906,281.9844 379.5625,282.2031 379.6563,282.6094 C379.7188,283.0156 379.75,283.1406 379.8906,283.2656 C380.0313,283.4063 380.2656,283.5156 380.4844,283.5156 C380.75,283.5156 381.0156,283.375 381.1875,283.1563 C381.2969,283 381.3281,282.8125 381.3281,282.3906 L381.3281,280.9688 C381.3281,280.5313 381.3125,280.4063 381.2188,280.25 C381.0625,279.9844 380.7813,279.8438 380.4844,279.8438 C380.1875,279.8438 379.9844,279.9375 379.7656,280.25 L379.5938,280.1719 Z "/><text fill="#000000" font-family="sans-serif" font-size="12" lengthAdjust="spacingAndGlyphs" textLength="31" x="397.75" y="288.6543">Body</text><line style="stroke: #A80036; stroke-width: 1.5;" x1="291.5" x2="502.5" y1="300.5" y2="300.5"/><line style="stroke: #A80036; stroke-width: 1.5;" x1="291.5" x2="502.5" y1="308.5" y2="308.5"/><text fill="#000000" font-family="sans-serif" font-size="11" lengthAdjust="spacingAndGlyphs" textLength="201" x="296.5" y="322.7104">+accept(CarElementVisitor *visitor)</text><!--MD5=[c86ce95fe6226f2d2796c0513d8e83fe]
class Engine--><rect codeLine="39" fill="#FEFECE" filter="url(#f156lma1ciloh4)" height="60.8047" id="Engine" style="stroke: #A80036; stroke-width: 1.5;" width="231" x="538.5" y="268.5"/><ellipse cx="629.75" cy="284.5" fill="#ADD1B2" rx="11" ry="11" style="stroke: #A80036; stroke-width: 1.0;"/><path d="M632.0938,280.1719 C631.1563,279.7344 630.5625,279.5938 629.6875,279.5938 C627.0625,279.5938 625.0625,281.6719 625.0625,284.3906 L625.0625,285.5156 C625.0625,288.0938 627.1719,289.9844 630.0625,289.9844 C631.2813,289.9844 632.4375,289.6875 633.1875,289.1406 C633.7656,288.7344 634.0938,288.2813 634.0938,287.8906 C634.0938,287.4375 633.7031,287.0469 633.2344,287.0469 C633.0156,287.0469 632.8125,287.125 632.625,287.3125 C632.1719,287.7969 632.1719,287.7969 631.9844,287.8906 C631.5625,288.1563 630.875,288.2813 630.1094,288.2813 C628.0625,288.2813 626.7656,287.1875 626.7656,285.4844 L626.7656,284.3906 C626.7656,282.6094 628.0156,281.2969 629.75,281.2969 C630.3281,281.2969 630.9375,281.4531 631.4063,281.7031 C631.8906,281.9844 632.0625,282.2031 632.1563,282.6094 C632.2188,283.0156 632.25,283.1406 632.3906,283.2656 C632.5313,283.4063 632.7656,283.5156 632.9844,283.5156 C633.25,283.5156 633.5156,283.375 633.6875,283.1563 C633.7969,283 633.8281,282.8125 633.8281,282.3906 L633.8281,280.9688 C633.8281,280.5313 633.8125,280.4063 633.7188,280.25 C633.5625,279.9844 633.2813,279.8438 632.9844,279.8438 C632.6875,279.8438 632.4844,279.9375 632.2656,280.25 L632.0938,280.1719 Z "/><text fill="#000000" font-family="sans-serif" font-size="12" lengthAdjust="spacingAndGlyphs" textLength="40" x="650.25" y="288.6543">Engine</text><line style="stroke: #A80036; stroke-width: 1.5;" x1="539.5" x2="768.5" y1="300.5" y2="300.5"/><line style="stroke: #A80036; stroke-width: 1.5;" x1="539.5" x2="768.5" y1="308.5" y2="308.5"/><text fill="#000000" font-family="sans-serif" font-size="11" lengthAdjust="spacingAndGlyphs" textLength="219" x="544.5" y="322.7104">accept(CarElementVisitor *visitor):void</text><!--MD5=[3f0ef310aaa84a542276992c5216544d]
class Car--><rect codeLine="47" fill="#FEFECE" filter="url(#f156lma1ciloh4)" height="86.4141" id="Car" style="stroke: #A80036; stroke-width: 1.5;" width="240" x="813" y="256.5"/><ellipse cx="918.75" cy="272.5" fill="#ADD1B2" rx="11" ry="11" style="stroke: #A80036; stroke-width: 1.0;"/><path d="M921.0938,268.1719 C920.1563,267.7344 919.5625,267.5938 918.6875,267.5938 C916.0625,267.5938 914.0625,269.6719 914.0625,272.3906 L914.0625,273.5156 C914.0625,276.0938 916.1719,277.9844 919.0625,277.9844 C920.2813,277.9844 921.4375,277.6875 922.1875,277.1406 C922.7656,276.7344 923.0938,276.2813 923.0938,275.8906 C923.0938,275.4375 922.7031,275.0469 922.2344,275.0469 C922.0156,275.0469 921.8125,275.125 921.625,275.3125 C921.1719,275.7969 921.1719,275.7969 920.9844,275.8906 C920.5625,276.1563 919.875,276.2813 919.1094,276.2813 C917.0625,276.2813 915.7656,275.1875 915.7656,273.4844 L915.7656,272.3906 C915.7656,270.6094 917.0156,269.2969 918.75,269.2969 C919.3281,269.2969 919.9375,269.4531 920.4063,269.7031 C920.8906,269.9844 921.0625,270.2031 921.1563,270.6094 C921.2188,271.0156 921.25,271.1406 921.3906,271.2656 C921.5313,271.4063 921.7656,271.5156 921.9844,271.5156 C922.25,271.5156 922.5156,271.375 922.6875,271.1563 C922.7969,271 922.8281,270.8125 922.8281,270.3906 L922.8281,268.9688 C922.8281,268.5313 922.8125,268.4063 922.7188,268.25 C922.5625,267.9844 922.2813,267.8438 921.9844,267.8438 C921.6875,267.8438 921.4844,267.9375 921.2656,268.25 L921.0938,268.1719 Z "/><text fill="#000000" font-family="sans-serif" font-size="12" lengthAdjust="spacingAndGlyphs" textLength="20" x="939.25" y="276.6543">Car</text><line style="stroke: #A80036; stroke-width: 1.5;" x1="814" x2="1052" y1="288.5" y2="288.5"/><text fill="#000000" font-family="sans-serif" font-size="11" lengthAdjust="spacingAndGlyphs" textLength="193" x="819" y="302.7104">-vector&lt;CarElement*&gt; elements;</text><line style="stroke: #A80036; stroke-width: 1.5;" x1="814" x2="1052" y1="309.3047" y2="309.3047"/><text fill="#000000" font-family="sans-serif" font-size="11" lengthAdjust="spacingAndGlyphs" textLength="36" x="819" y="323.5151">+Car()</text><text fill="#000000" font-family="sans-serif" font-size="11" lengthAdjust="spacingAndGlyphs" textLength="228" x="819" y="336.3198">+accept(CarElementVisitor *visitor):void</text><path d="M767.5,24 L767.5,94.5313 A0,0 0 0 0 767.5,94.5313 L954.412,94.5313 L1054,299 L962.412,94.5313 L1098.5,94.5313 A0,0 0 0 0 1098.5,94.5313 L1098.5,34 L1088.5,24 L767.5,24 A0,0 0 0 0 767.5,24 " fill="#FBFB77" filter="url(#f156lma1ciloh4)" style="stroke: #A80036; stroke-width: 1.0;"/><path d="M1088.5,24 L1088.5,34 L1098.5,34 L1088.5,24 " fill="#FBFB77" style="stroke: #A80036; stroke-width: 1.0;"/><text fill="#000000" font-family="sans-serif" font-size="13" lengthAdjust="spacingAndGlyphs" textLength="298" x="773.5" y="41.0669">this-&gt;elements = std::vector&lt;CarElement*&gt;{</text><text fill="#000000" font-family="sans-serif" font-size="13" lengthAdjust="spacingAndGlyphs" textLength="306" x="777.5" y="56.1997">new Wheel('front left'), new Wheel('front right'),</text><text fill="#000000" font-family="sans-serif" font-size="13" lengthAdjust="spacingAndGlyphs" textLength="304" x="777.5" y="71.3325">new Wheel('back left'), new Wheel('back right'),</text><text fill="#000000" font-family="sans-serif" font-size="13" lengthAdjust="spacingAndGlyphs" textLength="174" x="777.5" y="86.4653">new Body(), new Engine()}</text><path d="M800.5,486 L800.5,556.5313 A0,0 0 0 0 800.5,556.5313 L1065.5,556.5313 A0,0 0 0 0 1065.5,556.5313 L1065.5,496 L1055.5,486 L937,486 L933,345.688 L929,486 L800.5,486 A0,0 0 0 0 800.5,486 " fill="#FBFB77" filter="url(#f156lma1ciloh4)" style="stroke: #A80036; stroke-width: 1.0;"/><path d="M1055.5,486 L1055.5,496 L1065.5,496 L1055.5,486 " fill="#FBFB77" style="stroke: #A80036; stroke-width: 1.0;"/><text fill="#000000" font-family="sans-serif" font-size="13" lengthAdjust="spacingAndGlyphs" textLength="244" x="806.5" y="503.0669">for (CarElement* element : elements)</text><text fill="#000000" font-family="sans-serif" font-size="13" lengthAdjust="spacingAndGlyphs" textLength="174" x="810.5" y="518.1997">{element-&gt;accept(visitor);</text><text fill="#000000" font-family="sans-serif" font-size="13" lengthAdjust="spacingAndGlyphs" textLength="9" x="814.5" y="533.3325">}</text><text fill="#000000" font-family="sans-serif" font-size="13" lengthAdjust="spacingAndGlyphs" textLength="118" x="842.5" y="548.4653">visitor-&gt;visit(this);</text><!--MD5=[6d638fd8b19642a0728bf946cfadbd99]
class CarElementDoVisitor--><rect codeLine="66" fill="#FEFECE" filter="url(#f156lma1ciloh4)" height="99.2188" id="CarElementDoVisitor" style="stroke: #A80036; stroke-width: 1.5;" width="161" x="1096.5" y="249.5"/><ellipse cx="1114.2" cy="265.5" fill="#ADD1B2" rx="11" ry="11" style="stroke: #A80036; stroke-width: 1.0;"/><path d="M1116.5438,261.1719 C1115.6063,260.7344 1115.0125,260.5938 1114.1375,260.5938 C1111.5125,260.5938 1109.5125,262.6719 1109.5125,265.3906 L1109.5125,266.5156 C1109.5125,269.0938 1111.6219,270.9844 1114.5125,270.9844 C1115.7313,270.9844 1116.8875,270.6875 1117.6375,270.1406 C1118.2156,269.7344 1118.5438,269.2813 1118.5438,268.8906 C1118.5438,268.4375 1118.1531,268.0469 1117.6844,268.0469 C1117.4656,268.0469 1117.2625,268.125 1117.075,268.3125 C1116.6219,268.7969 1116.6219,268.7969 1116.4344,268.8906 C1116.0125,269.1563 1115.325,269.2813 1114.5594,269.2813 C1112.5125,269.2813 1111.2156,268.1875 1111.2156,266.4844 L1111.2156,265.3906 C1111.2156,263.6094 1112.4656,262.2969 1114.2,262.2969 C1114.7781,262.2969 1115.3875,262.4531 1115.8563,262.7031 C1116.3406,262.9844 1116.5125,263.2031 1116.6063,263.6094 C1116.6688,264.0156 1116.7,264.1406 1116.8406,264.2656 C1116.9813,264.4063 1117.2156,264.5156 1117.4344,264.5156 C1117.7,264.5156 1117.9656,264.375 1118.1375,264.1563 C1118.2469,264 1118.2781,263.8125 1118.2781,263.3906 L1118.2781,261.9688 C1118.2781,261.5313 1118.2625,261.4063 1118.1688,261.25 C1118.0125,260.9844 1117.7313,260.8438 1117.4344,260.8438 C1117.1375,260.8438 1116.9344,260.9375 1116.7156,261.25 L1116.5438,261.1719 Z "/><text fill="#000000" font-family="sans-serif" font-size="12" lengthAdjust="spacingAndGlyphs" textLength="123" x="1128.8" y="269.6543">CarElementDoVisitor</text><line style="stroke: #A80036; stroke-width: 1.5;" x1="1097.5" x2="1256.5" y1="281.5" y2="281.5"/><line style="stroke: #A80036; stroke-width: 1.5;" x1="1097.5" x2="1256.5" y1="289.5" y2="289.5"/><text fill="#000000" font-family="sans-serif" font-size="11" lengthAdjust="spacingAndGlyphs" textLength="134" x="1102.5" y="303.7104">+visit(Body *body):void</text><text fill="#000000" font-family="sans-serif" font-size="11" lengthAdjust="spacingAndGlyphs" textLength="113" x="1102.5" y="316.5151">+visit(Car *car):void</text><text fill="#000000" font-family="sans-serif" font-size="11" lengthAdjust="spacingAndGlyphs" textLength="149" x="1102.5" y="329.3198">+visit(Wheel *wheel):void</text><text fill="#000000" font-family="sans-serif" font-size="11" lengthAdjust="spacingAndGlyphs" textLength="133" x="1102.5" y="342.1245">+(Engine *engine):void</text><!--MD5=[6643699334b6935a3769d05f904b7585]
class CarElementPrintVisitor--><rect codeLine="77" fill="#FEFECE" filter="url(#f156lma1ciloh4)" height="99.2188" id="CarElementPrintVisitor" style="stroke: #A80036; stroke-width: 1.5;" width="168" x="1293" y="249.5"/><ellipse cx="1310.25" cy="265.5" fill="#ADD1B2" rx="11" ry="11" style="stroke: #A80036; stroke-width: 1.0;"/><path d="M1312.5938,261.1719 C1311.6563,260.7344 1311.0625,260.5938 1310.1875,260.5938 C1307.5625,260.5938 1305.5625,262.6719 1305.5625,265.3906 L1305.5625,266.5156 C1305.5625,269.0938 1307.6719,270.9844 1310.5625,270.9844 C1311.7813,270.9844 1312.9375,270.6875 1313.6875,270.1406 C1314.2656,269.7344 1314.5938,269.2813 1314.5938,268.8906 C1314.5938,268.4375 1314.2031,268.0469 1313.7344,268.0469 C1313.5156,268.0469 1313.3125,268.125 1313.125,268.3125 C1312.6719,268.7969 1312.6719,268.7969 1312.4844,268.8906 C1312.0625,269.1563 1311.375,269.2813 1310.6094,269.2813 C1308.5625,269.2813 1307.2656,268.1875 1307.2656,266.4844 L1307.2656,265.3906 C1307.2656,263.6094 1308.5156,262.2969 1310.25,262.2969 C1310.8281,262.2969 1311.4375,262.4531 1311.9063,262.7031 C1312.3906,262.9844 1312.5625,263.2031 1312.6563,263.6094 C1312.7188,264.0156 1312.75,264.1406 1312.8906,264.2656 C1313.0313,264.4063 1313.2656,264.5156 1313.4844,264.5156 C1313.75,264.5156 1314.0156,264.375 1314.1875,264.1563 C1314.2969,264 1314.3281,263.8125 1314.3281,263.3906 L1314.3281,261.9688 C1314.3281,261.5313 1314.3125,261.4063 1314.2188,261.25 C1314.0625,260.9844 1313.7813,260.8438 1313.4844,260.8438 C1313.1875,260.8438 1312.9844,260.9375 1312.7656,261.25 L1312.5938,261.1719 Z "/><text fill="#000000" font-family="sans-serif" font-size="12" lengthAdjust="spacingAndGlyphs" textLength="131" x="1324.75" y="269.6543">CarElementPrintVisitor</text><line style="stroke: #A80036; stroke-width: 1.5;" x1="1294" x2="1460" y1="281.5" y2="281.5"/><line style="stroke: #A80036; stroke-width: 1.5;" x1="1294" x2="1460" y1="289.5" y2="289.5"/><text fill="#000000" font-family="sans-serif" font-size="11" lengthAdjust="spacingAndGlyphs" textLength="134" x="1299" y="303.7104">+visit(Body *body):void</text><text fill="#000000" font-family="sans-serif" font-size="11" lengthAdjust="spacingAndGlyphs" textLength="113" x="1299" y="316.5151">+visit(Car *car):void</text><text fill="#000000" font-family="sans-serif" font-size="11" lengthAdjust="spacingAndGlyphs" textLength="156" x="1299" y="329.3198">+visit(Engine *engine):void</text><text fill="#000000" font-family="sans-serif" font-size="11" lengthAdjust="spacingAndGlyphs" textLength="149" x="1299" y="342.1245">+visit(Wheel *wheel):void</text><!--MD5=[87e41088705b3a6fb91ea0289e817773]
reverse link CarElement to Body--><path codeLine="88" d="M481.065,111.407 C459.506,159.26 427.982,229.23 410.299,268.48 " fill="none" id="CarElement-backto-Body" style="stroke: #A80036; stroke-width: 1.0; stroke-dasharray: 7.0,7.0;"/><polygon fill="none" points="474.749,108.385,489.346,93.025,487.513,114.136,474.749,108.385" style="stroke: #A80036; stroke-width: 1.0;"/><!--MD5=[6d46f46dcb2ee8193fed3dcdeaa18447]
reverse link CarElement to Wheel--><path codeLine="89" d="M435.102,103.904 C377.906,139.936 295.681,191.735 230.558,232.761 " fill="none" id="CarElement-backto-Wheel" style="stroke: #A80036; stroke-width: 1.0; stroke-dasharray: 7.0,7.0;"/><polygon fill="none" points="431.717,97.763,452.37,93.025,439.179,109.609,431.717,97.763" style="stroke: #A80036; stroke-width: 1.0;"/><!--MD5=[53911cb1939e1be5152aa2646f3c5e84]
reverse link CarElement to Engine--><path codeLine="90" d="M535.349,110.136 C565.587,158.013 610.346,228.882 635.356,268.48 " fill="none" id="CarElement-backto-Engine" style="stroke: #A80036; stroke-width: 1.0; stroke-dasharray: 7.0,7.0;"/><polygon fill="none" points="529.304,113.673,524.542,93.025,541.141,106.197,529.304,113.673" style="stroke: #A80036; stroke-width: 1.0;"/><!--MD5=[501aaec6a4457421cc6cb0a7be878ef6]
reverse link CarElement to Car--><path codeLine="93" d="M580.699,102.961 C656.736,145.057 772.837,209.332 850.754,252.468 " fill="none" id="CarElement-backto-Car" style="stroke: #A80036; stroke-width: 1.0; stroke-dasharray: 7.0,7.0;"/><polygon fill="none" points="576.858,108.836,562.751,93.025,583.639,96.588,576.858,108.836" style="stroke: #A80036; stroke-width: 1.0;"/><!--MD5=[0812876adf50a1da5d59692be82a1d26]
reverse link CarElementVisitor to CarElementDoVisitor--><path codeLine="96" d="M1261.84,130.089 C1242.48,168.408 1218.93,215.021 1201.55,249.403 " fill="none" id="CarElementVisitor-backto-CarElementDoVisitor" style="stroke: #A80036; stroke-width: 1.0; stroke-dasharray: 7.0,7.0;"/><polygon fill="none" points="1255.69,126.728,1270.96,112.034,1268.19,133.042,1255.69,126.728" style="stroke: #A80036; stroke-width: 1.0;"/><!--MD5=[ced28e11b606578f65bf94892bb82fb8]
reverse link CarElementVisitor to CarElementPrintVisitor--><path codeLine="97" d="M1320.79,131.136 C1333.63,169.255 1349.15,215.334 1360.63,249.403 " fill="none" id="CarElementVisitor-backto-CarElementPrintVisitor" style="stroke: #A80036; stroke-width: 1.0; stroke-dasharray: 7.0,7.0;"/><polygon fill="none" points="1314.11,133.222,1314.36,112.034,1327.38,128.753,1314.11,133.222" style="stroke: #A80036; stroke-width: 1.0;"/><!--MD5=[a780c4b5cbf87ae8af5368844e803226]
@startuml
skinparam classAttributeIconSize 0

interface "Interface \n CarElement" as CarElement
{
+{abstract} accept(CarElementVisitor *visitor):void
}

interface "Interface \n CarElementVisitor" as CarElementVisitor
{
    +{abstract} visit(Body *body):void
    +{abstract} visit(Car *car):void
    +{abstract} visit(Engine *engine):void
    +{abstract} visit(Wheel *wheel):void
}

class Wheel
{
private:
    string name;
public:
    + Wheel(string name):void
    + getName():string
    + accept(CarElementVisitor *visitor):void
}

note " visitor->visit(this)" as Wheelaccept





class Body 
{
   + accept(CarElementVisitor *visitor)
}



class Engine 
{
    accept(CarElementVisitor *visitor):void
 
}



class Car
{
-   vector<CarElement*> elements;
+   Car()
+    accept(CarElementVisitor *visitor):void
}



note "this->elements = std::vector<CarElement*>{\n new Wheel('front left'), new Wheel('front right'),\n new Wheel('back left'), new Wheel('back right'),\n new Body(), new Engine()}" as CarConstruct


note "for (CarElement* element : elements)\n {element->accept(visitor);\n  }\n         visitor->visit(this);" as CarAccept






class CarElementDoVisitor 
{

    + visit(Body *body):void
    + visit(Car *car):void
    + visit(Wheel *wheel):void
    + (Engine *engine):void
}



class CarElementPrintVisitor
{
    +visit(Body *body):void 
    + visit(Car *car):void 
    + visit(Engine *engine):void 
    + visit(Wheel *wheel):void 
}




Body -up..|>  CarElement
Wheel -up..|>  CarElement
Engine -up..|> CarElement
Wheelaccept -up..Wheel::accept

Car -up..|> CarElement


CarElementDoVisitor -up..|>  CarElementVisitor
CarElementPrintVisitor -up..|>  CarElementVisitor


CarConstruct -down..Car::Car
CarAccept -up..Car::acecept
@enduml

PlantUML version 1.2020.17beta5(Unknown compile time)
(GPL source distribution)
Java Runtime: Java(TM) SE Runtime Environment
JVM: Java HotSpot(TM) 64-Bit Server VM
Default Encoding: UTF-8
Language: en
Country: US
--></g></svg>