<?xml version="1.0" encoding="UTF-8" standalone="no"?><svg xmlns="http://www.w3.org/2000/svg" xmlns:xlink="http://www.w3.org/1999/xlink" contentScriptType="application/ecmascript" contentStyleType="text/css" height="658px" preserveAspectRatio="none" style="width:835px;height:658px;" version="1.1" viewBox="0 0 835 658" width="835px" zoomAndPan="magnify"><defs><filter height="300%" id="fc0e62f5zd0lp" width="300%" x="-1" y="-1"><feGaussianBlur result="blurOut" stdDeviation="2.0"/><feColorMatrix in="blurOut" result="blurOut2" type="matrix" values="0 0 0 0 0 0 0 0 0 0 0 0 0 0 0 0 0 0 .4 0"/><feOffset dx="4.0" dy="4.0" in="blurOut2" result="blurOut3"/><feBlend in="SourceGraphic" in2="blurOut3" mode="normal"/></filter></defs><g><!--MD5=[a805b40f8193e3b705560a3818c5c109]
class Photo--><rect codeLine="3" fill="#FEFECE" filter="url(#fc0e62f5zd0lp)" height="48" id="Photo" style="stroke: #A80036; stroke-width: 1.5;" width="65" x="371.5" y="7"/><ellipse cx="386.5" cy="23" fill="#ADD1B2" rx="11" ry="11" style="stroke: #A80036; stroke-width: 1.0;"/><path d="M388.8438,18.6719 C387.9063,18.2344 387.3125,18.0938 386.4375,18.0938 C383.8125,18.0938 381.8125,20.1719 381.8125,22.8906 L381.8125,24.0156 C381.8125,26.5938 383.9219,28.4844 386.8125,28.4844 C388.0313,28.4844 389.1875,28.1875 389.9375,27.6406 C390.5156,27.2344 390.8438,26.7813 390.8438,26.3906 C390.8438,25.9375 390.4531,25.5469 389.9844,25.5469 C389.7656,25.5469 389.5625,25.625 389.375,25.8125 C388.9219,26.2969 388.9219,26.2969 388.7344,26.3906 C388.3125,26.6563 387.625,26.7813 386.8594,26.7813 C384.8125,26.7813 383.5156,25.6875 383.5156,23.9844 L383.5156,22.8906 C383.5156,21.1094 384.7656,19.7969 386.5,19.7969 C387.0781,19.7969 387.6875,19.9531 388.1563,20.2031 C388.6406,20.4844 388.8125,20.7031 388.9063,21.1094 C388.9688,21.5156 389,21.6406 389.1406,21.7656 C389.2813,21.9063 389.5156,22.0156 389.7344,22.0156 C390,22.0156 390.2656,21.875 390.4375,21.6563 C390.5469,21.5 390.5781,21.3125 390.5781,20.8906 L390.5781,19.4688 C390.5781,19.0313 390.5625,18.9063 390.4688,18.75 C390.3125,18.4844 390.0313,18.3438 389.7344,18.3438 C389.4375,18.3438 389.2344,18.4375 389.0156,18.75 L388.8438,18.6719 Z "/><text fill="#000000" font-family="sans-serif" font-size="12" lengthAdjust="spacingAndGlyphs" textLength="33" x="400.5" y="27.1543">Photo</text><line style="stroke: #A80036; stroke-width: 1.5;" x1="372.5" x2="435.5" y1="39" y2="39"/><line style="stroke: #A80036; stroke-width: 1.5;" x1="372.5" x2="435.5" y1="47" y2="47"/><!--MD5=[ebea7729df20993873066baca46d42d6]
class PhotoProcessor--><rect codeLine="5" fill="#FEFECE" filter="url(#fc0e62f5zd0lp)" height="112.0234" id="PhotoProcessor" style="stroke: #A80036; stroke-width: 1.5;" width="307" x="250.5" y="182"/><ellipse cx="352.75" cy="198" fill="#ADD1B2" rx="11" ry="11" style="stroke: #A80036; stroke-width: 1.0;"/><path d="M355.0938,193.6719 C354.1563,193.2344 353.5625,193.0938 352.6875,193.0938 C350.0625,193.0938 348.0625,195.1719 348.0625,197.8906 L348.0625,199.0156 C348.0625,201.5938 350.1719,203.4844 353.0625,203.4844 C354.2813,203.4844 355.4375,203.1875 356.1875,202.6406 C356.7656,202.2344 357.0938,201.7813 357.0938,201.3906 C357.0938,200.9375 356.7031,200.5469 356.2344,200.5469 C356.0156,200.5469 355.8125,200.625 355.625,200.8125 C355.1719,201.2969 355.1719,201.2969 354.9844,201.3906 C354.5625,201.6563 353.875,201.7813 353.1094,201.7813 C351.0625,201.7813 349.7656,200.6875 349.7656,198.9844 L349.7656,197.8906 C349.7656,196.1094 351.0156,194.7969 352.75,194.7969 C353.3281,194.7969 353.9375,194.9531 354.4063,195.2031 C354.8906,195.4844 355.0625,195.7031 355.1563,196.1094 C355.2188,196.5156 355.25,196.6406 355.3906,196.7656 C355.5313,196.9063 355.7656,197.0156 355.9844,197.0156 C356.25,197.0156 356.5156,196.875 356.6875,196.6563 C356.7969,196.5 356.8281,196.3125 356.8281,195.8906 L356.8281,194.4688 C356.8281,194.0313 356.8125,193.9063 356.7188,193.75 C356.5625,193.4844 356.2813,193.3438 355.9844,193.3438 C355.6875,193.3438 355.4844,193.4375 355.2656,193.75 L355.0938,193.6719 Z "/><text fill="#000000" font-family="sans-serif" font-size="12" lengthAdjust="spacingAndGlyphs" textLength="94" x="373.25" y="202.1543">PhotoProcessor</text><line style="stroke: #A80036; stroke-width: 1.5;" x1="251.5" x2="556.5" y1="214" y2="214"/><text fill="#000000" font-family="sans-serif" font-size="11" lengthAdjust="spacingAndGlyphs" textLength="128" x="256.5" y="228.2104">-next: PhotoProcessor*</text><line style="stroke: #A80036; stroke-width: 1.5;" x1="251.5" x2="556.5" y1="234.8047" y2="234.8047"/><text fill="#000000" font-family="sans-serif" font-size="11" lengthAdjust="spacingAndGlyphs" textLength="295" x="256.5" y="249.0151">+setNext(PhotoProcessor* nextPhotoProcessor):void</text><text fill="#000000" font-family="sans-serif" font-size="11" lengthAdjust="spacingAndGlyphs" textLength="161" x="256.5" y="261.8198">+process(Photo* photo):void</text><text fill="#000000" font-family="sans-serif" font-size="11" font-style="italic" lengthAdjust="spacingAndGlyphs" textLength="251" x="256.5" y="274.6245">+processImplementation(Photo *photo):void</text><text fill="#000000" font-family="sans-serif" font-size="11" lengthAdjust="spacingAndGlyphs" textLength="102" x="256.5" y="287.4292">+PhotoProcessor()</text><path d="M600.5,210.5 L600.5,234 L565.52,238 L600.5,242 L600.5,265.8984 A0,0 0 0 0 600.5,265.8984 L823.5,265.8984 A0,0 0 0 0 823.5,265.8984 L823.5,220.5 L813.5,210.5 L600.5,210.5 A0,0 0 0 0 600.5,210.5 " fill="#FBFB77" filter="url(#fc0e62f5zd0lp)" style="stroke: #A80036; stroke-width: 1.0;"/><path d="M813.5,210.5 L813.5,220.5 L823.5,220.5 L813.5,210.5 " fill="#FBFB77" style="stroke: #A80036; stroke-width: 1.0;"/><text fill="#000000" font-family="sans-serif" font-size="13" lengthAdjust="spacingAndGlyphs" textLength="198" x="606.5" y="227.5669">processImplementation(photo)</text><text fill="#000000" font-family="sans-serif" font-size="13" lengthAdjust="spacingAndGlyphs" textLength="102" x="610.5" y="242.6997">if(next!=nullptr)</text><text fill="#000000" font-family="sans-serif" font-size="13" lengthAdjust="spacingAndGlyphs" textLength="141" x="610.5" y="257.8325">next-&gt;process(photo)</text><path d="M89,225.5 L89,250.6328 A0,0 0 0 0 89,250.6328 L207,250.6328 A0,0 0 0 0 207,250.6328 L207,243.5 L242.219,238 L207,235.5 L207,235.5 L197,225.5 L89,225.5 A0,0 0 0 0 89,225.5 " fill="#FBFB77" filter="url(#fc0e62f5zd0lp)" style="stroke: #A80036; stroke-width: 1.0;"/><path d="M197,225.5 L197,235.5 L207,235.5 L197,225.5 " fill="#FBFB77" style="stroke: #A80036; stroke-width: 1.0;"/><text fill="#000000" font-family="sans-serif" font-size="13" lengthAdjust="spacingAndGlyphs" textLength="97" x="95" y="242.5669">next(nullptr){}</text><!--MD5=[b1ae24e9c7f41a33010a3738ad4e42af]
class redEye--><rect codeLine="24" fill="#FEFECE" filter="url(#fc0e62f5zd0lp)" height="60.8047" id="redEye" style="stroke: #A80036; stroke-width: 1.5;" width="236" x="286" y="421"/><ellipse cx="378.25" cy="437" fill="#ADD1B2" rx="11" ry="11" style="stroke: #A80036; stroke-width: 1.0;"/><path d="M380.5938,432.6719 C379.6563,432.2344 379.0625,432.0938 378.1875,432.0938 C375.5625,432.0938 373.5625,434.1719 373.5625,436.8906 L373.5625,438.0156 C373.5625,440.5938 375.6719,442.4844 378.5625,442.4844 C379.7813,442.4844 380.9375,442.1875 381.6875,441.6406 C382.2656,441.2344 382.5938,440.7813 382.5938,440.3906 C382.5938,439.9375 382.2031,439.5469 381.7344,439.5469 C381.5156,439.5469 381.3125,439.625 381.125,439.8125 C380.6719,440.2969 380.6719,440.2969 380.4844,440.3906 C380.0625,440.6563 379.375,440.7813 378.6094,440.7813 C376.5625,440.7813 375.2656,439.6875 375.2656,437.9844 L375.2656,436.8906 C375.2656,435.1094 376.5156,433.7969 378.25,433.7969 C378.8281,433.7969 379.4375,433.9531 379.9063,434.2031 C380.3906,434.4844 380.5625,434.7031 380.6563,435.1094 C380.7188,435.5156 380.75,435.6406 380.8906,435.7656 C381.0313,435.9063 381.2656,436.0156 381.4844,436.0156 C381.75,436.0156 382.0156,435.875 382.1875,435.6563 C382.2969,435.5 382.3281,435.3125 382.3281,434.8906 L382.3281,433.4688 C382.3281,433.0313 382.3125,432.9063 382.2188,432.75 C382.0625,432.4844 381.7813,432.3438 381.4844,432.3438 C381.1875,432.3438 380.9844,432.4375 380.7656,432.75 L380.5938,432.6719 Z "/><text fill="#000000" font-family="sans-serif" font-size="12" lengthAdjust="spacingAndGlyphs" textLength="43" x="398.75" y="441.1543">redEye</text><line style="stroke: #A80036; stroke-width: 1.5;" x1="287" x2="521" y1="453" y2="453"/><line style="stroke: #A80036; stroke-width: 1.5;" x1="287" x2="521" y1="461" y2="461"/><text fill="#000000" font-family="sans-serif" font-size="11" lengthAdjust="spacingAndGlyphs" textLength="224" x="292" y="475.2104">+processImplementation(Photo *photo)</text><!--MD5=[0696babcb0acaf570512d3311b80ff85]
class scaling--><rect codeLine="28" fill="#FEFECE" filter="url(#fc0e62f5zd0lp)" height="60.8047" id="scaling" style="stroke: #A80036; stroke-width: 1.5;" width="236" x="557" y="421"/><ellipse cx="649.75" cy="437" fill="#ADD1B2" rx="11" ry="11" style="stroke: #A80036; stroke-width: 1.0;"/><path d="M652.0938,432.6719 C651.1563,432.2344 650.5625,432.0938 649.6875,432.0938 C647.0625,432.0938 645.0625,434.1719 645.0625,436.8906 L645.0625,438.0156 C645.0625,440.5938 647.1719,442.4844 650.0625,442.4844 C651.2813,442.4844 652.4375,442.1875 653.1875,441.6406 C653.7656,441.2344 654.0938,440.7813 654.0938,440.3906 C654.0938,439.9375 653.7031,439.5469 653.2344,439.5469 C653.0156,439.5469 652.8125,439.625 652.625,439.8125 C652.1719,440.2969 652.1719,440.2969 651.9844,440.3906 C651.5625,440.6563 650.875,440.7813 650.1094,440.7813 C648.0625,440.7813 646.7656,439.6875 646.7656,437.9844 L646.7656,436.8906 C646.7656,435.1094 648.0156,433.7969 649.75,433.7969 C650.3281,433.7969 650.9375,433.9531 651.4063,434.2031 C651.8906,434.4844 652.0625,434.7031 652.1563,435.1094 C652.2188,435.5156 652.25,435.6406 652.3906,435.7656 C652.5313,435.9063 652.7656,436.0156 652.9844,436.0156 C653.25,436.0156 653.5156,435.875 653.6875,435.6563 C653.7969,435.5 653.8281,435.3125 653.8281,434.8906 L653.8281,433.4688 C653.8281,433.0313 653.8125,432.9063 653.7188,432.75 C653.5625,432.4844 653.2813,432.3438 652.9844,432.3438 C652.6875,432.3438 652.4844,432.4375 652.2656,432.75 L652.0938,432.6719 Z "/><text fill="#000000" font-family="sans-serif" font-size="12" lengthAdjust="spacingAndGlyphs" textLength="42" x="670.25" y="441.1543">scaling</text><line style="stroke: #A80036; stroke-width: 1.5;" x1="558" x2="792" y1="453" y2="453"/><line style="stroke: #A80036; stroke-width: 1.5;" x1="558" x2="792" y1="461" y2="461"/><text fill="#000000" font-family="sans-serif" font-size="11" lengthAdjust="spacingAndGlyphs" textLength="224" x="563" y="475.2104">+processImplementation(Photo *photo)</text><!--MD5=[d7126c8d042189ea05cd35b27016934a]
class meanFilter--><rect codeLine="32" fill="#FEFECE" filter="url(#fc0e62f5zd0lp)" height="60.8047" id="meanFilter" style="stroke: #A80036; stroke-width: 1.5;" width="236" x="15" y="421"/><ellipse cx="97.25" cy="437" fill="#ADD1B2" rx="11" ry="11" style="stroke: #A80036; stroke-width: 1.0;"/><path d="M99.5938,432.6719 C98.6563,432.2344 98.0625,432.0938 97.1875,432.0938 C94.5625,432.0938 92.5625,434.1719 92.5625,436.8906 L92.5625,438.0156 C92.5625,440.5938 94.6719,442.4844 97.5625,442.4844 C98.7813,442.4844 99.9375,442.1875 100.6875,441.6406 C101.2656,441.2344 101.5938,440.7813 101.5938,440.3906 C101.5938,439.9375 101.2031,439.5469 100.7344,439.5469 C100.5156,439.5469 100.3125,439.625 100.125,439.8125 C99.6719,440.2969 99.6719,440.2969 99.4844,440.3906 C99.0625,440.6563 98.375,440.7813 97.6094,440.7813 C95.5625,440.7813 94.2656,439.6875 94.2656,437.9844 L94.2656,436.8906 C94.2656,435.1094 95.5156,433.7969 97.25,433.7969 C97.8281,433.7969 98.4375,433.9531 98.9063,434.2031 C99.3906,434.4844 99.5625,434.7031 99.6563,435.1094 C99.7188,435.5156 99.75,435.6406 99.8906,435.7656 C100.0313,435.9063 100.2656,436.0156 100.4844,436.0156 C100.75,436.0156 101.0156,435.875 101.1875,435.6563 C101.2969,435.5 101.3281,435.3125 101.3281,434.8906 L101.3281,433.4688 C101.3281,433.0313 101.3125,432.9063 101.2188,432.75 C101.0625,432.4844 100.7813,432.3438 100.4844,432.3438 C100.1875,432.3438 99.9844,432.4375 99.7656,432.75 L99.5938,432.6719 Z "/><text fill="#000000" font-family="sans-serif" font-size="12" lengthAdjust="spacingAndGlyphs" textLength="63" x="117.75" y="441.1543">meanFilter</text><line style="stroke: #A80036; stroke-width: 1.5;" x1="16" x2="250" y1="453" y2="453"/><line style="stroke: #A80036; stroke-width: 1.5;" x1="16" x2="250" y1="461" y2="461"/><text fill="#000000" font-family="sans-serif" font-size="11" lengthAdjust="spacingAndGlyphs" textLength="224" x="21" y="475.2104">+processImplementation(Photo *photo)</text><path d="M6,621 L6,646.1328 A0,0 0 0 0 6,646.1328 L260,646.1328 A0,0 0 0 0 260,646.1328 L260,631 L250,621 L137,621 L133,482.223 L129,621 L6,621 A0,0 0 0 0 6,621 " fill="#FBFB77" filter="url(#fc0e62f5zd0lp)" style="stroke: #A80036; stroke-width: 1.0;"/><path d="M250,621 L250,631 L260,631 L250,621 " fill="#FBFB77" style="stroke: #A80036; stroke-width: 1.0;"/><text fill="#000000" font-family="sans-serif" font-size="13" lengthAdjust="spacingAndGlyphs" textLength="229" x="12" y="638.0669">cout&lt;&lt;'applying mean filter'&lt;&lt;endl</text><!--MD5=[3232c540cdaf3f6fc290858ddb507f1c]
reverse link Photo to PhotoProcessor--><path codeLine="18" d="M404,60.16 C404,90.32 404,139.061 404,177.742 " fill="none" id="Photo-backto-PhotoProcessor" style="stroke: #A80036; stroke-width: 1.0; stroke-dasharray: 7.0,7.0;"/><polygon fill="#A80036" points="404,55.118,400,64.118,404,60.118,408,64.118,404,55.118" style="stroke: #A80036; stroke-width: 1.0;"/><!--MD5=[7d3c8094dea364770f47b159f3859e86]
reverse link PhotoProcessor to redEye--><path codeLine="37" d="M404,318.374 C404,354.197 404,394.333 404,420.868 " fill="none" id="PhotoProcessor-backto-redEye" style="stroke: #A80036; stroke-width: 1.0;"/><polygon fill="none" points="397,318.196,404,298.196,411,318.196,397,318.196" style="stroke: #A80036; stroke-width: 1.0;"/><!--MD5=[7c07b985eed32393e98e3a564a579af9]
reverse link PhotoProcessor to scaling--><path codeLine="38" d="M495.848,310.682 C544.081,348.325 600.575,392.415 637.032,420.868 " fill="none" id="PhotoProcessor-backto-scaling" style="stroke: #A80036; stroke-width: 1.0;"/><polygon fill="none" points="491.309,316.019,479.849,298.196,499.922,304.982,491.309,316.019" style="stroke: #A80036; stroke-width: 1.0;"/><!--MD5=[fc692406270f570f6de506e78309ab63]
reverse link PhotoProcessor to meanFilter--><path codeLine="39" d="M312.152,310.682 C263.919,348.325 207.425,392.415 170.968,420.868 " fill="none" id="PhotoProcessor-backto-meanFilter" style="stroke: #A80036; stroke-width: 1.0;"/><polygon fill="none" points="308.078,304.982,328.151,298.196,316.691,316.019,308.078,304.982" style="stroke: #A80036; stroke-width: 1.0;"/><!--MD5=[07a15a901ca001c6b3a3adb8129e1e82]
@startuml
skinparam classAttributeIconSize 0

class Photo{}

class PhotoProcessor
{
-   next: PhotoProcessor*
+   setNext(PhotoProcessor* nextPhotoProcessor):void
+   process(Photo* photo):void
+   {abstract} processImplementation(Photo *photo):void
+   PhotoProcessor()
}

note "processImplementation(photo) \n if(next!=nullptr) \n next->process(photo)" as PhotoProcessorProcess

note "next(nullptr){}" as PhotoProcessorConstructor

PhotoProcessor -up..>Photo

PhotoProcessor::PhotoProcessor - -left..PhotoProcessorConstructor
PhotoProcessor::process - -right..PhotoProcessorProcess


class redEye
{
+processImplementation(Photo *photo)
}
class scaling
{
+processImplementation(Photo *photo)
}
class meanFilter
{
+processImplementation(Photo *photo)
}

redEye -up- -|> PhotoProcessor
scaling -up- -|> PhotoProcessor
meanFilter -up- -|> PhotoProcessor


note "cout<<'applying mean filter'<<endl " as meanFilterprocessImplementation
meanFilterprocessImplementation -up..meanFilter::processImplementation(Photo *photo)
@enduml

PlantUML version 1.2020.17beta5(Unknown compile time)
(GPL source distribution)
Java Runtime: Java(TM) SE Runtime Environment
JVM: Java HotSpot(TM) 64-Bit Server VM
Default Encoding: UTF-8
Language: en
Country: US
--></g></svg>