<?xml version="1.0" encoding="UTF-8" standalone="no"?><svg xmlns="http://www.w3.org/2000/svg" xmlns:xlink="http://www.w3.org/1999/xlink" contentScriptType="application/ecmascript" contentStyleType="text/css" height="456px" preserveAspectRatio="none" style="width:781px;height:456px;" version="1.1" viewBox="0 0 781 456" width="781px" zoomAndPan="magnify"><defs><filter height="300%" id="fldl8qu9hngi" width="300%" x="-1" y="-1"><feGaussianBlur result="blurOut" stdDeviation="2.0"/><feColorMatrix in="blurOut" result="blurOut2" type="matrix" values="0 0 0 0 0 0 0 0 0 0 0 0 0 0 0 0 0 0 .4 0"/><feOffset dx="4.0" dy="4.0" in="blurOut2" result="blurOut3"/><feBlend in="SourceGraphic" in2="blurOut3" mode="normal"/></filter></defs><g><!--MD5=[377953f0e8c8c0131a700fca43c84158]
class Strategy--><rect codeLine="3" fill="#FEFECE" filter="url(#fldl8qu9hngi)" height="66.7422" id="Strategy" style="stroke: #A80036; stroke-width: 1.5;" width="90" x="300.5" y="22.5"/><ellipse cx="315.5" cy="41.4688" fill="#B4A7E5" rx="11" ry="11" style="stroke: #A80036; stroke-width: 1.0;"/><path d="M316.4531,38.25 L318.1719,38.25 C318.5625,38.25 318.75,38.2188 318.875,38.1406 C319.1406,37.9844 319.2813,37.7031 319.2813,37.4063 C319.2813,37.1406 319.1719,36.875 318.9375,36.7031 C318.7656,36.5938 318.625,36.5625 318.1719,36.5625 L313.0313,36.5625 C312.5938,36.5625 312.4688,36.5781 312.3125,36.6719 C312.0625,36.8281 311.9063,37.125 311.9063,37.4063 C311.9063,37.6875 312.0469,37.9375 312.2656,38.1094 C312.4219,38.2188 312.6094,38.25 313.0313,38.25 L314.75,38.25 L314.75,44.7656 L313.0313,44.7656 C312.5938,44.7656 312.4688,44.7813 312.3125,44.8906 C312.0625,45.0469 311.9063,45.3281 311.9063,45.625 C311.9063,45.875 312.0469,46.1406 312.2656,46.2969 C312.4219,46.4219 312.625,46.4688 313.0313,46.4688 L318.1719,46.4688 C318.9219,46.4688 319.2813,46.1875 319.2813,45.625 C319.2813,45.3438 319.1719,45.0938 318.9375,44.9219 C318.7656,44.7969 318.625,44.7656 318.1719,44.7656 L316.4531,44.7656 L316.4531,38.25 Z "/><text fill="#000000" font-family="sans-serif" font-size="12" font-style="italic" lengthAdjust="spacingAndGlyphs" textLength="54" x="329.5" y="38.6387">Interface</text><text fill="#000000" font-family="sans-serif" font-size="12" font-style="italic" lengthAdjust="spacingAndGlyphs" textLength="52" x="334.5" y="52.6074">Strategy</text><line style="stroke: #A80036; stroke-width: 1.5;" x1="301.5" x2="389.5" y1="60.4375" y2="60.4375"/><line style="stroke: #A80036; stroke-width: 1.5;" x1="301.5" x2="389.5" y1="68.4375" y2="68.4375"/><text fill="#000000" font-family="sans-serif" font-size="11" font-style="italic" lengthAdjust="spacingAndGlyphs" textLength="75" x="306.5" y="82.6479">+solve():void</text><!--MD5=[55b5e8dd8343bfd553a8310bb0738e44]
class ConcreteStrategy1--><rect codeLine="8" fill="#FEFECE" filter="url(#fldl8qu9hngi)" height="60.8047" id="ConcreteStrategy1" style="stroke: #A80036; stroke-width: 1.5;" width="145" x="142" y="234"/><ellipse cx="157" cy="250" fill="#ADD1B2" rx="11" ry="11" style="stroke: #A80036; stroke-width: 1.0;"/><path d="M159.3438,245.6719 C158.4063,245.2344 157.8125,245.0938 156.9375,245.0938 C154.3125,245.0938 152.3125,247.1719 152.3125,249.8906 L152.3125,251.0156 C152.3125,253.5938 154.4219,255.4844 157.3125,255.4844 C158.5313,255.4844 159.6875,255.1875 160.4375,254.6406 C161.0156,254.2344 161.3438,253.7813 161.3438,253.3906 C161.3438,252.9375 160.9531,252.5469 160.4844,252.5469 C160.2656,252.5469 160.0625,252.625 159.875,252.8125 C159.4219,253.2969 159.4219,253.2969 159.2344,253.3906 C158.8125,253.6563 158.125,253.7813 157.3594,253.7813 C155.3125,253.7813 154.0156,252.6875 154.0156,250.9844 L154.0156,249.8906 C154.0156,248.1094 155.2656,246.7969 157,246.7969 C157.5781,246.7969 158.1875,246.9531 158.6563,247.2031 C159.1406,247.4844 159.3125,247.7031 159.4063,248.1094 C159.4688,248.5156 159.5,248.6406 159.6406,248.7656 C159.7813,248.9063 160.0156,249.0156 160.2344,249.0156 C160.5,249.0156 160.7656,248.875 160.9375,248.6563 C161.0469,248.5 161.0781,248.3125 161.0781,247.8906 L161.0781,246.4688 C161.0781,246.0313 161.0625,245.9063 160.9688,245.75 C160.8125,245.4844 160.5313,245.3438 160.2344,245.3438 C159.9375,245.3438 159.7344,245.4375 159.5156,245.75 L159.3438,245.6719 Z "/><text fill="#000000" font-family="sans-serif" font-size="12" lengthAdjust="spacingAndGlyphs" textLength="113" x="171" y="254.1543">ConcreteStrategy1</text><line style="stroke: #A80036; stroke-width: 1.5;" x1="143" x2="286" y1="266" y2="266"/><line style="stroke: #A80036; stroke-width: 1.5;" x1="143" x2="286" y1="274" y2="274"/><text fill="#000000" font-family="sans-serif" font-size="11" lengthAdjust="spacingAndGlyphs" textLength="75" x="148" y="288.2104">+solve():void</text><!--MD5=[b7cf00b8eaa1e65aaf5319fece1d13e5]
class ConcreteStrategy2--><rect codeLine="13" fill="#FEFECE" filter="url(#fldl8qu9hngi)" height="60.8047" id="ConcreteStrategy2" style="stroke: #A80036; stroke-width: 1.5;" width="146" x="379.5" y="234"/><ellipse cx="394.5" cy="250" fill="#ADD1B2" rx="11" ry="11" style="stroke: #A80036; stroke-width: 1.0;"/><path d="M396.8438,245.6719 C395.9063,245.2344 395.3125,245.0938 394.4375,245.0938 C391.8125,245.0938 389.8125,247.1719 389.8125,249.8906 L389.8125,251.0156 C389.8125,253.5938 391.9219,255.4844 394.8125,255.4844 C396.0313,255.4844 397.1875,255.1875 397.9375,254.6406 C398.5156,254.2344 398.8438,253.7813 398.8438,253.3906 C398.8438,252.9375 398.4531,252.5469 397.9844,252.5469 C397.7656,252.5469 397.5625,252.625 397.375,252.8125 C396.9219,253.2969 396.9219,253.2969 396.7344,253.3906 C396.3125,253.6563 395.625,253.7813 394.8594,253.7813 C392.8125,253.7813 391.5156,252.6875 391.5156,250.9844 L391.5156,249.8906 C391.5156,248.1094 392.7656,246.7969 394.5,246.7969 C395.0781,246.7969 395.6875,246.9531 396.1563,247.2031 C396.6406,247.4844 396.8125,247.7031 396.9063,248.1094 C396.9688,248.5156 397,248.6406 397.1406,248.7656 C397.2813,248.9063 397.5156,249.0156 397.7344,249.0156 C398,249.0156 398.2656,248.875 398.4375,248.6563 C398.5469,248.5 398.5781,248.3125 398.5781,247.8906 L398.5781,246.4688 C398.5781,246.0313 398.5625,245.9063 398.4688,245.75 C398.3125,245.4844 398.0313,245.3438 397.7344,245.3438 C397.4375,245.3438 397.2344,245.4375 397.0156,245.75 L396.8438,245.6719 Z "/><text fill="#000000" font-family="sans-serif" font-size="12" lengthAdjust="spacingAndGlyphs" textLength="114" x="408.5" y="254.1543">ConcreteStrategy2</text><line style="stroke: #A80036; stroke-width: 1.5;" x1="380.5" x2="524.5" y1="266" y2="266"/><line style="stroke: #A80036; stroke-width: 1.5;" x1="380.5" x2="524.5" y1="274" y2="274"/><text fill="#000000" font-family="sans-serif" font-size="11" lengthAdjust="spacingAndGlyphs" textLength="75" x="385.5" y="288.2104">+solve():void</text><!--MD5=[6754354365917abf8f1a56af1b7e344c]
class Context--><rect codeLine="22" fill="#FEFECE" filter="url(#fldl8qu9hngi)" height="99.2188" id="Context" style="stroke: #A80036; stroke-width: 1.5;" width="229" x="533" y="7"/><ellipse cx="620.25" cy="23" fill="#ADD1B2" rx="11" ry="11" style="stroke: #A80036; stroke-width: 1.0;"/><path d="M622.5938,18.6719 C621.6563,18.2344 621.0625,18.0938 620.1875,18.0938 C617.5625,18.0938 615.5625,20.1719 615.5625,22.8906 L615.5625,24.0156 C615.5625,26.5938 617.6719,28.4844 620.5625,28.4844 C621.7813,28.4844 622.9375,28.1875 623.6875,27.6406 C624.2656,27.2344 624.5938,26.7813 624.5938,26.3906 C624.5938,25.9375 624.2031,25.5469 623.7344,25.5469 C623.5156,25.5469 623.3125,25.625 623.125,25.8125 C622.6719,26.2969 622.6719,26.2969 622.4844,26.3906 C622.0625,26.6563 621.375,26.7813 620.6094,26.7813 C618.5625,26.7813 617.2656,25.6875 617.2656,23.9844 L617.2656,22.8906 C617.2656,21.1094 618.5156,19.7969 620.25,19.7969 C620.8281,19.7969 621.4375,19.9531 621.9063,20.2031 C622.3906,20.4844 622.5625,20.7031 622.6563,21.1094 C622.7188,21.5156 622.75,21.6406 622.8906,21.7656 C623.0313,21.9063 623.2656,22.0156 623.4844,22.0156 C623.75,22.0156 624.0156,21.875 624.1875,21.6563 C624.2969,21.5 624.3281,21.3125 624.3281,20.8906 L624.3281,19.4688 C624.3281,19.0313 624.3125,18.9063 624.2188,18.75 C624.0625,18.4844 623.7813,18.3438 623.4844,18.3438 C623.1875,18.3438 622.9844,18.4375 622.7656,18.75 L622.5938,18.6719 Z "/><text fill="#000000" font-family="sans-serif" font-size="12" lengthAdjust="spacingAndGlyphs" textLength="46" x="640.75" y="27.1543">Context</text><line style="stroke: #A80036; stroke-width: 1.5;" x1="534" x2="761" y1="39" y2="39"/><text fill="#000000" font-family="sans-serif" font-size="11" lengthAdjust="spacingAndGlyphs" textLength="130" x="539" y="53.2104">-Strategy *m_strategy;</text><line style="stroke: #A80036; stroke-width: 1.5;" x1="534" x2="761" y1="59.8047" y2="59.8047"/><text fill="#000000" font-family="sans-serif" font-size="11" lengthAdjust="spacingAndGlyphs" textLength="216" x="539" y="74.0151">+Context(Strategy *strategy= nullptr)</text><text fill="#000000" font-family="sans-serif" font-size="11" lengthAdjust="spacingAndGlyphs" textLength="217" x="539" y="86.8198">+setStrategy(Strategy *strategy):void</text><text fill="#000000" font-family="sans-serif" font-size="11" lengthAdjust="spacingAndGlyphs" textLength="92" x="539" y="99.6245">+execute():void</text><path d="M571.5,251.5 L571.5,276.6328 A0,0 0 0 0 571.5,276.6328 L725.5,276.6328 A0,0 0 0 0 725.5,276.6328 L725.5,261.5 L715.5,251.5 L666.252,251.5 L763.5,95 L658.252,251.5 L571.5,251.5 A0,0 0 0 0 571.5,251.5 " fill="#FBFB77" filter="url(#fldl8qu9hngi)" style="stroke: #A80036; stroke-width: 1.0;"/><path d="M715.5,251.5 L715.5,261.5 L725.5,261.5 L715.5,251.5 " fill="#FBFB77" style="stroke: #A80036; stroke-width: 1.0;"/><text fill="#000000" font-family="sans-serif" font-size="13" lengthAdjust="spacingAndGlyphs" textLength="133" x="577.5" y="268.5669">m_strategy-&gt;solve()</text><path d="M336,419 L336,444.1328 A0,0 0 0 0 336,444.1328 L631,444.1328 A0,0 0 0 0 631,444.1328 L631,429 L621,419 L496.028,419 L526.5,284 L488.028,419 L336,419 A0,0 0 0 0 336,419 " fill="#FBFB77" filter="url(#fldl8qu9hngi)" style="stroke: #A80036; stroke-width: 1.0;"/><path d="M621,419 L621,429 L631,429 L621,419 " fill="#FBFB77" style="stroke: #A80036; stroke-width: 1.0;"/><text fill="#000000" font-family="sans-serif" font-size="13" lengthAdjust="spacingAndGlyphs" textLength="274" x="342" y="436.0669">cout&lt;&lt;ConcreteStrategy2 solution &lt;&lt;endl</text><path d="M6,419 L6,444.1328 A0,0 0 0 0 6,444.1328 L301,444.1328 A0,0 0 0 0 301,444.1328 L301,429 L291,419 L151.646,419 L141.5,284 L143.646,419 L6,419 A0,0 0 0 0 6,419 " fill="#FBFB77" filter="url(#fldl8qu9hngi)" style="stroke: #A80036; stroke-width: 1.0;"/><path d="M291,419 L291,429 L301,429 L291,419 " fill="#FBFB77" style="stroke: #A80036; stroke-width: 1.0;"/><text fill="#000000" font-family="sans-serif" font-size="13" lengthAdjust="spacingAndGlyphs" textLength="274" x="12" y="436.0669">cout&lt;&lt;ConcreteStrategy1 solution &lt;&lt;endl</text><!--MD5=[edf7274a677f2882cbfec7bcd075095e]
reverse link Strategy to ConcreteStrategy1--><path codeLine="18" d="M313.933,106.64 C289.65,144.826 256.77,196.529 235.594,229.829 " fill="none" id="Strategy-backto-ConcreteStrategy1" style="stroke: #A80036; stroke-width: 1.0; stroke-dasharray: 7.0,7.0;"/><polygon fill="none" points="308.104,102.762,324.743,89.641,319.917,110.274,308.104,102.762" style="stroke: #A80036; stroke-width: 1.0;"/><!--MD5=[de7023c18663a7f3f34950a95db3680f]
reverse link Strategy to ConcreteStrategy2--><path codeLine="19" d="M371.689,107.419 C391.482,145.527 418.091,196.755 435.271,229.829 " fill="none" id="Strategy-backto-ConcreteStrategy2" style="stroke: #A80036; stroke-width: 1.0; stroke-dasharray: 7.0,7.0;"/><polygon fill="none" points="365.461,110.617,362.454,89.641,377.885,104.163,365.461,110.617" style="stroke: #A80036; stroke-width: 1.0;"/><!--MD5=[18cfa91ea5ecbbf3f5e868427ead4eaf]
@startuml
skinparam classAttributeIconSize 0

interface "Interface \n Strategy" as Strategy
{
+{abstract}solve():void
}

class ConcreteStrategy1
{
    +solve():void
}

class ConcreteStrategy2
{
    +solve():void
}

ConcreteStrategy1 -up..|> Strategy
ConcreteStrategy2 -up..|> Strategy


class Context
{
    -Strategy *m_strategy;
    +Context(Strategy *strategy= nullptr)
    +setStrategy(Strategy *strategy):void
    +execute():void
}

note "m_strategy->solve()"  as ContextExecute
ContextExecute -up..Context::execute


note "cout<<ConcreteStrategy2 solution <<endl" as ConcreteStrategy2Solve
ConcreteStrategy2Solve -up..ConcreteStrategy2::solve


note "cout<<ConcreteStrategy1 solution <<endl" as ConcreteStrategy1Solve


ConcreteStrategy1Solve -up..ConcreteStrategy1::solve
@enduml

PlantUML version 1.2020.17beta5(Unknown compile time)
(GPL source distribution)
Java Runtime: Java(TM) SE Runtime Environment
JVM: Java HotSpot(TM) 64-Bit Server VM
Default Encoding: UTF-8
Language: en
Country: US
--></g></svg>