<?xml version="1.0" encoding="UTF-8" standalone="no"?><svg xmlns="http://www.w3.org/2000/svg" xmlns:xlink="http://www.w3.org/1999/xlink" contentScriptType="application/ecmascript" contentStyleType="text/css" height="555px" preserveAspectRatio="none" style="width:712px;height:555px;" version="1.1" viewBox="0 0 712 555" width="712px" zoomAndPan="magnify"><defs><filter height="300%" id="feu3w7594dyj3" width="300%" x="-1" y="-1"><feGaussianBlur result="blurOut" stdDeviation="2.0"/><feColorMatrix in="blurOut" result="blurOut2" type="matrix" values="0 0 0 0 0 0 0 0 0 0 0 0 0 0 0 0 0 0 .4 0"/><feOffset dx="4.0" dy="4.0" in="blurOut2" result="blurOut3"/><feBlend in="SourceGraphic" in2="blurOut3" mode="normal"/></filter></defs><g><!--MD5=[d40932010816485ec57b44b6eea2392a]
class Observer--><rect codeLine="3" fill="#FEFECE" filter="url(#feu3w7594dyj3)" height="105.1563" id="Observer" style="stroke: #A80036; stroke-width: 1.5;" width="400" x="97.5" y="250"/><ellipse cx="264.25" cy="268.9688" fill="#B4A7E5" rx="11" ry="11" style="stroke: #A80036; stroke-width: 1.0;"/><path d="M265.2031,265.75 L266.9219,265.75 C267.3125,265.75 267.5,265.7188 267.625,265.6406 C267.8906,265.4844 268.0313,265.2031 268.0313,264.9063 C268.0313,264.6406 267.9219,264.375 267.6875,264.2031 C267.5156,264.0938 267.375,264.0625 266.9219,264.0625 L261.7813,264.0625 C261.3438,264.0625 261.2188,264.0781 261.0625,264.1719 C260.8125,264.3281 260.6563,264.625 260.6563,264.9063 C260.6563,265.1875 260.7969,265.4375 261.0156,265.6094 C261.1719,265.7188 261.3594,265.75 261.7813,265.75 L263.5,265.75 L263.5,272.2656 L261.7813,272.2656 C261.3438,272.2656 261.2188,272.2813 261.0625,272.3906 C260.8125,272.5469 260.6563,272.8281 260.6563,273.125 C260.6563,273.375 260.7969,273.6406 261.0156,273.7969 C261.1719,273.9219 261.375,273.9688 261.7813,273.9688 L266.9219,273.9688 C267.6719,273.9688 268.0313,273.6875 268.0313,273.125 C268.0313,272.8438 267.9219,272.5938 267.6875,272.4219 C267.5156,272.2969 267.375,272.2656 266.9219,272.2656 L265.2031,272.2656 L265.2031,265.75 Z "/><text fill="#000000" font-family="sans-serif" font-size="12" font-style="italic" lengthAdjust="spacingAndGlyphs" textLength="54" x="284.75" y="266.1387">Interface</text><text fill="#000000" font-family="sans-serif" font-size="12" font-style="italic" lengthAdjust="spacingAndGlyphs" textLength="54" x="288.75" y="280.1074">Observer</text><line style="stroke: #A80036; stroke-width: 1.5;" x1="98.5" x2="496.5" y1="287.9375" y2="287.9375"/><text fill="#000000" font-family="sans-serif" font-size="11" lengthAdjust="spacingAndGlyphs" textLength="92" x="103.5" y="302.1479">-string m_name;</text><text fill="#000000" font-family="sans-serif" font-size="11" lengthAdjust="spacingAndGlyphs" textLength="79" x="103.5" y="314.9526">#Car * m_car;</text><line style="stroke: #A80036; stroke-width: 1.5;" x1="98.5" x2="496.5" y1="321.5469" y2="321.5469"/><text fill="#000000" font-family="sans-serif" font-size="11" lengthAdjust="spacingAndGlyphs" textLength="388" x="103.5" y="335.7573">+Observer(Car * car, std::string name):m_car(car),m_name(name){}</text><text fill="#000000" font-family="sans-serif" font-size="11" font-style="italic" lengthAdjust="spacingAndGlyphs" textLength="84" x="103.5" y="348.562">+update():void</text><!--MD5=[3f0ef310aaa84a542276992c5216544d]
class Car--><rect codeLine="11" fill="#FEFECE" filter="url(#feu3w7594dyj3)" height="181.9844" id="Car" style="stroke: #A80036; stroke-width: 1.5;" width="239" x="178" y="7"/><ellipse cx="253.25" cy="25.9688" fill="#B4A7E5" rx="11" ry="11" style="stroke: #A80036; stroke-width: 1.0;"/><path d="M254.2031,22.75 L255.9219,22.75 C256.3125,22.75 256.5,22.7188 256.625,22.6406 C256.8906,22.4844 257.0313,22.2031 257.0313,21.9063 C257.0313,21.6406 256.9219,21.375 256.6875,21.2031 C256.5156,21.0938 256.375,21.0625 255.9219,21.0625 L250.7813,21.0625 C250.3438,21.0625 250.2188,21.0781 250.0625,21.1719 C249.8125,21.3281 249.6563,21.625 249.6563,21.9063 C249.6563,22.1875 249.7969,22.4375 250.0156,22.6094 C250.1719,22.7188 250.3594,22.75 250.7813,22.75 L252.5,22.75 L252.5,29.2656 L250.7813,29.2656 C250.3438,29.2656 250.2188,29.2813 250.0625,29.3906 C249.8125,29.5469 249.6563,29.8281 249.6563,30.125 C249.6563,30.375 249.7969,30.6406 250.0156,30.7969 C250.1719,30.9219 250.375,30.9688 250.7813,30.9688 L255.9219,30.9688 C256.6719,30.9688 257.0313,30.6875 257.0313,30.125 C257.0313,29.8438 256.9219,29.5938 256.6875,29.4219 C256.5156,29.2969 256.375,29.2656 255.9219,29.2656 L254.2031,29.2656 L254.2031,22.75 Z "/><text fill="#000000" font-family="sans-serif" font-size="12" font-style="italic" lengthAdjust="spacingAndGlyphs" textLength="54" x="284.75" y="23.1387">Interface</text><text fill="#000000" font-family="sans-serif" font-size="12" font-style="italic" lengthAdjust="spacingAndGlyphs" textLength="76" x="277.75" y="37.1074">Car(Subject)</text><line style="stroke: #A80036; stroke-width: 1.5;" x1="179" x2="416" y1="44.9375" y2="44.9375"/><text fill="#000000" font-family="sans-serif" font-size="11" lengthAdjust="spacingAndGlyphs" textLength="108" x="184" y="59.1479">+double m_speed;</text><text fill="#000000" font-family="sans-serif" font-size="11" lengthAdjust="spacingAndGlyphs" textLength="119" x="184" y="71.9526">+int m_temperature;</text><text fill="#000000" font-family="sans-serif" font-size="11" lengthAdjust="spacingAndGlyphs" textLength="222" x="184" y="84.7573">+vector&lt;Observer *&gt; m_ObserverList;</text><line style="stroke: #A80036; stroke-width: 1.5;" x1="179" x2="416" y1="91.3516" y2="91.3516"/><text fill="#000000" font-family="sans-serif" font-size="11" lengthAdjust="spacingAndGlyphs" textLength="76" x="184" y="105.562">+notify():void</text><text fill="#000000" font-family="sans-serif" font-size="11" lengthAdjust="spacingAndGlyphs" textLength="162" x="184" y="118.3667">+attach(Observer *obs):void</text><text fill="#000000" font-family="sans-serif" font-size="11" lengthAdjust="spacingAndGlyphs" textLength="166" x="184" y="131.1714">+detach(Observer *obs):void</text><text fill="#000000" font-family="sans-serif" font-size="11" lengthAdjust="spacingAndGlyphs" textLength="116" x="184" y="143.9761">+getSpeed():double</text><text fill="#000000" font-family="sans-serif" font-size="11" lengthAdjust="spacingAndGlyphs" textLength="179" x="184" y="156.7808">+setSpeed(double speed):void</text><text fill="#000000" font-family="sans-serif" font-size="11" lengthAdjust="spacingAndGlyphs" textLength="128" x="184" y="169.5854">+getTemperature():int</text><text fill="#000000" font-family="sans-serif" font-size="11" lengthAdjust="spacingAndGlyphs" textLength="227" x="184" y="182.3901">+setTemperature(int temperature):void</text><!--MD5=[20db3890acf1cbb3fd89635cb2672840]
class TemperatureObserver--><rect codeLine="25" fill="#FEFECE" filter="url(#feu3w7594dyj3)" height="60.8047" id="TemperatureObserver" style="stroke: #A80036; stroke-width: 1.5;" width="168" x="121.5" y="476"/><ellipse cx="136.5" cy="492" fill="#ADD1B2" rx="11" ry="11" style="stroke: #A80036; stroke-width: 1.0;"/><path d="M138.8438,487.6719 C137.9063,487.2344 137.3125,487.0938 136.4375,487.0938 C133.8125,487.0938 131.8125,489.1719 131.8125,491.8906 L131.8125,493.0156 C131.8125,495.5938 133.9219,497.4844 136.8125,497.4844 C138.0313,497.4844 139.1875,497.1875 139.9375,496.6406 C140.5156,496.2344 140.8438,495.7813 140.8438,495.3906 C140.8438,494.9375 140.4531,494.5469 139.9844,494.5469 C139.7656,494.5469 139.5625,494.625 139.375,494.8125 C138.9219,495.2969 138.9219,495.2969 138.7344,495.3906 C138.3125,495.6563 137.625,495.7813 136.8594,495.7813 C134.8125,495.7813 133.5156,494.6875 133.5156,492.9844 L133.5156,491.8906 C133.5156,490.1094 134.7656,488.7969 136.5,488.7969 C137.0781,488.7969 137.6875,488.9531 138.1563,489.2031 C138.6406,489.4844 138.8125,489.7031 138.9063,490.1094 C138.9688,490.5156 139,490.6406 139.1406,490.7656 C139.2813,490.9063 139.5156,491.0156 139.7344,491.0156 C140,491.0156 140.2656,490.875 140.4375,490.6563 C140.5469,490.5 140.5781,490.3125 140.5781,489.8906 L140.5781,488.4688 C140.5781,488.0313 140.5625,487.9063 140.4688,487.75 C140.3125,487.4844 140.0313,487.3438 139.7344,487.3438 C139.4375,487.3438 139.2344,487.4375 139.0156,487.75 L138.8438,487.6719 Z "/><text fill="#000000" font-family="sans-serif" font-size="12" lengthAdjust="spacingAndGlyphs" textLength="136" x="150.5" y="496.1543">TemperatureObserver</text><line style="stroke: #A80036; stroke-width: 1.5;" x1="122.5" x2="288.5" y1="508" y2="508"/><line style="stroke: #A80036; stroke-width: 1.5;" x1="122.5" x2="288.5" y1="516" y2="516"/><text fill="#000000" font-family="sans-serif" font-size="11" lengthAdjust="spacingAndGlyphs" textLength="84" x="127.5" y="530.2104">+update():void</text><!--MD5=[5c42a04905794e34b628a385666ea456]
class SpeedObserver--><rect codeLine="29" fill="#FEFECE" filter="url(#feu3w7594dyj3)" height="60.8047" id="SpeedObserver" style="stroke: #A80036; stroke-width: 1.5;" width="130" x="324.5" y="476"/><ellipse cx="339.5" cy="492" fill="#ADD1B2" rx="11" ry="11" style="stroke: #A80036; stroke-width: 1.0;"/><path d="M341.8438,487.6719 C340.9063,487.2344 340.3125,487.0938 339.4375,487.0938 C336.8125,487.0938 334.8125,489.1719 334.8125,491.8906 L334.8125,493.0156 C334.8125,495.5938 336.9219,497.4844 339.8125,497.4844 C341.0313,497.4844 342.1875,497.1875 342.9375,496.6406 C343.5156,496.2344 343.8438,495.7813 343.8438,495.3906 C343.8438,494.9375 343.4531,494.5469 342.9844,494.5469 C342.7656,494.5469 342.5625,494.625 342.375,494.8125 C341.9219,495.2969 341.9219,495.2969 341.7344,495.3906 C341.3125,495.6563 340.625,495.7813 339.8594,495.7813 C337.8125,495.7813 336.5156,494.6875 336.5156,492.9844 L336.5156,491.8906 C336.5156,490.1094 337.7656,488.7969 339.5,488.7969 C340.0781,488.7969 340.6875,488.9531 341.1563,489.2031 C341.6406,489.4844 341.8125,489.7031 341.9063,490.1094 C341.9688,490.5156 342,490.6406 342.1406,490.7656 C342.2813,490.9063 342.5156,491.0156 342.7344,491.0156 C343,491.0156 343.2656,490.875 343.4375,490.6563 C343.5469,490.5 343.5781,490.3125 343.5781,489.8906 L343.5781,488.4688 C343.5781,488.0313 343.5625,487.9063 343.4688,487.75 C343.3125,487.4844 343.0313,487.3438 342.7344,487.3438 C342.4375,487.3438 342.2344,487.4375 342.0156,487.75 L341.8438,487.6719 Z "/><text fill="#000000" font-family="sans-serif" font-size="12" lengthAdjust="spacingAndGlyphs" textLength="98" x="353.5" y="496.1543">SpeedObserver</text><line style="stroke: #A80036; stroke-width: 1.5;" x1="325.5" x2="453.5" y1="508" y2="508"/><line style="stroke: #A80036; stroke-width: 1.5;" x1="325.5" x2="453.5" y1="516" y2="516"/><text fill="#000000" font-family="sans-serif" font-size="11" lengthAdjust="spacingAndGlyphs" textLength="84" x="330.5" y="530.2104">+update():void</text><path d="M460.5,76.5 L460.5,97.22 L418.5,101.5 L460.5,105.22 L460.5,116.7656 A0,0 0 0 0 460.5,116.7656 L700.5,116.7656 A0,0 0 0 0 700.5,116.7656 L700.5,86.5 L690.5,76.5 L460.5,76.5 A0,0 0 0 0 460.5,76.5 " fill="#FBFB77" filter="url(#feu3w7594dyj3)" style="stroke: #A80036; stroke-width: 1.0;"/><path d="M690.5,76.5 L690.5,86.5 L700.5,86.5 L690.5,76.5 " fill="#FBFB77" style="stroke: #A80036; stroke-width: 1.0;"/><text fill="#000000" font-family="sans-serif" font-size="13" lengthAdjust="spacingAndGlyphs" textLength="219" x="466.5" y="93.5669">for all Observer in m_ObserverList</text><text fill="#000000" font-family="sans-serif" font-size="13" lengthAdjust="spacingAndGlyphs" textLength="118" x="470.5" y="108.6997">Observer.update()</text><path d="M6,76.5 L6,116.7656 A0,0 0 0 0 6,116.7656 L90.5689,116.7656 L167.244,150.843 L98.5689,116.7656 L135,116.7656 A0,0 0 0 0 135,116.7656 L135,86.5 L125,76.5 L6,76.5 A0,0 0 0 0 6,76.5 " fill="#FBFB77" filter="url(#feu3w7594dyj3)" style="stroke: #A80036; stroke-width: 1.0;"/><path d="M125,76.5 L125,86.5 L135,86.5 L125,76.5 " fill="#FBFB77" style="stroke: #A80036; stroke-width: 1.0;"/><text fill="#000000" font-family="sans-serif" font-size="13" lengthAdjust="spacingAndGlyphs" textLength="108" x="12" y="93.5669">m_speed=speed</text><text fill="#000000" font-family="sans-serif" font-size="13" lengthAdjust="spacingAndGlyphs" textLength="47" x="16" y="108.6997">notify()</text><!--MD5=[803cb3295e9f79f76b454771cbde06ea]
reverse link Observer to TemperatureObserver--><path codeLine="41" d="M265.626,373.483 C249.686,408.482 231.24,448.9844 219.026,475.8006 " fill="none" id="Observer-backto-TemperatureObserver" style="stroke: #A80036; stroke-width: 1.0;"/><polygon fill="none" points="259.267,370.557,273.927,355.258,272.008,376.36,259.267,370.557" style="stroke: #A80036; stroke-width: 1.0;"/><!--MD5=[8239658a370907958c2504a30ad90706]
reverse link Observer to SpeedObserver--><path codeLine="42" d="M329.374,373.483 C345.314,408.482 363.76,448.9844 375.974,475.8006 " fill="none" id="Observer-backto-SpeedObserver" style="stroke: #A80036; stroke-width: 1.0;"/><polygon fill="none" points="322.992,376.36,321.073,355.258,335.733,370.557,322.992,376.36" style="stroke: #A80036; stroke-width: 1.0;"/><!--MD5=[4d5a21625731fbc6282c807f0a2a8868]
reverse link Car to Observer--><path codeLine="43" d="M297.5,203.271 C297.5,219.516 297.5,235.633 297.5,249.971 " fill="none" id="Car-backto-Observer" style="stroke: #A80036; stroke-width: 1.0;"/><polygon fill="#A80036" points="297.5,190.248,293.5,196.248,297.5,202.248,301.5,196.248,297.5,190.248" style="stroke: #A80036; stroke-width: 1.0;"/><!--MD5=[b3b1f63423edb1332560936503be49b2]
@startuml
skinparam classAttributeIconSize 0

interface "Interface \n Observer" as Observer{
- string m_name;
# Car * m_car;
+ Observer(Car * car, std::string name):m_car(car),m_name(name){}
+{abstract} update():void
}


interface "Interface \n Car(Subject)" as Car{
    +double m_speed;
    +int m_temperature;
    +vector<Observer *> m_ObserverList;
    +notify():void 
    +attach(Observer *obs):void
    +detach(Observer *obs):void
    +getSpeed():double
    +setSpeed(double speed):void
    +getTemperature():int
    +setTemperature(int temperature):void 
}


class TemperatureObserver{
  +update():void
}

class SpeedObserver{
   +update():void
}


note "for all Observer in m_ObserverList\n Observer.update() " as CarNotify
note "m_speed=speed\n notify()" as CarSetSpeed

CarNotify -left.. Car::notify
CarSetSpeed -right.. Car::setSpeed


TemperatureObserver -up- -|> Observer
SpeedObserver -up- -|>  Observer
Car *- -Observer
@enduml

PlantUML version 1.2020.17beta5(Unknown compile time)
(GPL source distribution)
Java Runtime: Java(TM) SE Runtime Environment
JVM: Java HotSpot(TM) 64-Bit Server VM
Default Encoding: UTF-8
Language: en
Country: US
--></g></svg>