<?xml version="1.0" encoding="UTF-8" standalone="no"?><svg xmlns="http://www.w3.org/2000/svg" xmlns:xlink="http://www.w3.org/1999/xlink" contentScriptType="application/ecmascript" contentStyleType="text/css" height="192px" preserveAspectRatio="none" style="width:111px;height:192px;" version="1.1" viewBox="0 0 111 192" width="111px" zoomAndPan="magnify"><defs><filter height="300%" id="f1gzaxodmch18z" width="300%" x="-1" y="-1"><feGaussianBlur result="blurOut" stdDeviation="2.0"/><feColorMatrix in="blurOut" result="blurOut2" type="matrix" values="0 0 0 0 0 0 0 0 0 0 0 0 0 0 0 0 0 0 .4 0"/><feOffset dx="4.0" dy="4.0" in="blurOut2" result="blurOut3"/><feBlend in="SourceGraphic" in2="blurOut3" mode="normal"/></filter></defs><g><!--MD5=[d1dcc9c41ef051a777528f9336a950e3]
class Folder--><rect fill="#FEFECE" filter="url(#f1gzaxodmch18z)" height="48" id="Folder" style="stroke: #A80036; stroke-width: 1.5;" width="71" x="8.5" y="8"/><ellipse cx="23.5" cy="24" fill="#ADD1B2" rx="11" ry="11" style="stroke: #A80036; stroke-width: 1.0;"/><path d="M26.4688,29.6406 Q25.8906,29.9375 25.25,30.0781 Q24.6094,30.2344 23.9063,30.2344 Q21.4063,30.2344 20.0781,28.5938 Q18.7656,26.9375 18.7656,23.8125 Q18.7656,20.6875 20.0781,19.0313 Q21.4063,17.375 23.9063,17.375 Q24.6094,17.375 25.25,17.5313 Q25.9063,17.6875 26.4688,17.9844 L26.4688,20.7031 Q25.8438,20.125 25.25,19.8594 Q24.6563,19.5781 24.0313,19.5781 Q22.6875,19.5781 22,20.6563 Q21.3125,21.7188 21.3125,23.8125 Q21.3125,25.9063 22,26.9844 Q22.6875,28.0469 24.0313,28.0469 Q24.6563,28.0469 25.25,27.7813 Q25.8438,27.5 26.4688,26.9219 L26.4688,29.6406 Z "/><text fill="#000000" font-family="sans-serif" font-size="12" lengthAdjust="spacingAndGlyphs" textLength="39" x="37.5" y="28.1543">Folder</text><line style="stroke: #A80036; stroke-width: 1.5;" x1="9.5" x2="78.5" y1="40" y2="40"/><line style="stroke: #A80036; stroke-width: 1.5;" x1="9.5" x2="78.5" y1="48" y2="48"/><!--MD5=[63dd87716ef75a5caca5dce59428e94a]
class File--><rect fill="#FEFECE" filter="url(#f1gzaxodmch18z)" height="48" id="File" style="stroke: #A80036; stroke-width: 1.5;" width="53" x="17.5" y="133"/><ellipse cx="32.5" cy="149" fill="#ADD1B2" rx="11" ry="11" style="stroke: #A80036; stroke-width: 1.0;"/><path d="M35.4688,154.6406 Q34.8906,154.9375 34.25,155.0781 Q33.6094,155.2344 32.9063,155.2344 Q30.4063,155.2344 29.0781,153.5938 Q27.7656,151.9375 27.7656,148.8125 Q27.7656,145.6875 29.0781,144.0313 Q30.4063,142.375 32.9063,142.375 Q33.6094,142.375 34.25,142.5313 Q34.9063,142.6875 35.4688,142.9844 L35.4688,145.7031 Q34.8438,145.125 34.25,144.8594 Q33.6563,144.5781 33.0313,144.5781 Q31.6875,144.5781 31,145.6563 Q30.3125,146.7188 30.3125,148.8125 Q30.3125,150.9063 31,151.9844 Q31.6875,153.0469 33.0313,153.0469 Q33.6563,153.0469 34.25,152.7813 Q34.8438,152.5 35.4688,151.9219 L35.4688,154.6406 Z "/><text fill="#000000" font-family="sans-serif" font-size="12" lengthAdjust="spacingAndGlyphs" textLength="21" x="46.5" y="153.1543">File</text><line style="stroke: #A80036; stroke-width: 1.5;" x1="18.5" x2="69.5" y1="165" y2="165"/><line style="stroke: #A80036; stroke-width: 1.5;" x1="18.5" x2="69.5" y1="173" y2="173"/><!--MD5=[982650921ae870dc70f313cd92631acb]
reverse link Folder to File--><path d="M44,69.21 C44,89.83 44,115.04 44,132.97 " fill="none" id="Folder&lt;-File" style="stroke: #A80036; stroke-width: 1.0;"/><polygon fill="#A80036" points="44,56.14,40,62.14,44,68.14,48,62.14,44,56.14" style="stroke: #A80036; stroke-width: 1.0;"/><text fill="#000000" font-family="sans-serif" font-size="13" lengthAdjust="spacingAndGlyphs" textLength="54" x="45" y="99.0669">contains</text><text fill="#000000" font-family="sans-serif" font-size="13" lengthAdjust="spacingAndGlyphs" textLength="8" x="35.025" y="75.9353">1</text><text fill="#000000" font-family="sans-serif" font-size="13" lengthAdjust="spacingAndGlyphs" textLength="23" x="18.0531" y="121.9743">0..*</text><!--MD5=[d7e23f2073b928c1199ffdeaaa947be5]
@startuml
class Folder
class File
Folder "1" *- - "0..*" File : contains
@enduml

PlantUML version 1.2020.02(Sun Mar 01 11:22:07 CET 2020)
(GPL source distribution)
Java Runtime: OpenJDK Runtime Environment
JVM: OpenJDK 64-Bit Server VM
Java Version: 11.0.26+4-post-Ubuntu-1ubuntu122.04
Operating System: Linux
Default Encoding: UTF-8
Language: en
Country: US
--></g></svg>