<?xml version="1.0" encoding="UTF-8" standalone="no"?><svg xmlns="http://www.w3.org/2000/svg" xmlns:xlink="http://www.w3.org/1999/xlink" contentScriptType="application/ecmascript" contentStyleType="text/css" height="182px" preserveAspectRatio="none" style="width:129px;height:182px;" version="1.1" viewBox="0 0 129 182" width="129px" zoomAndPan="magnify"><defs><filter height="300%" id="f1nrdn9v71ujzr" width="300%" x="-1" y="-1"><feGaussianBlur result="blurOut" stdDeviation="2.0"/><feColorMatrix in="blurOut" result="blurOut2" type="matrix" values="0 0 0 0 0 0 0 0 0 0 0 0 0 0 0 0 0 0 .4 0"/><feOffset dx="4.0" dy="4.0" in="blurOut2" result="blurOut3"/><feBlend in="SourceGraphic" in2="blurOut3" mode="normal"/></filter></defs><g><!--MD5=[4273bc46a385d6c4791fabb0cd064a50]
class Hospital--><rect codeLine="1" fill="#FEFECE" filter="url(#f1nrdn9v71ujzr)" height="48" id="Hospital" style="stroke: #A80036; stroke-width: 1.5;" width="81" x="18" y="7"/><ellipse cx="33" cy="23" fill="#ADD1B2" rx="11" ry="11" style="stroke: #A80036; stroke-width: 1.0;"/><path d="M35.3438,18.6719 C34.4063,18.2344 33.8125,18.0938 32.9375,18.0938 C30.3125,18.0938 28.3125,20.1719 28.3125,22.8906 L28.3125,24.0156 C28.3125,26.5938 30.4219,28.4844 33.3125,28.4844 C34.5313,28.4844 35.6875,28.1875 36.4375,27.6406 C37.0156,27.2344 37.3438,26.7813 37.3438,26.3906 C37.3438,25.9375 36.9531,25.5469 36.4844,25.5469 C36.2656,25.5469 36.0625,25.625 35.875,25.8125 C35.4219,26.2969 35.4219,26.2969 35.2344,26.3906 C34.8125,26.6563 34.125,26.7813 33.3594,26.7813 C31.3125,26.7813 30.0156,25.6875 30.0156,23.9844 L30.0156,22.8906 C30.0156,21.1094 31.2656,19.7969 33,19.7969 C33.5781,19.7969 34.1875,19.9531 34.6563,20.2031 C35.1406,20.4844 35.3125,20.7031 35.4063,21.1094 C35.4688,21.5156 35.5,21.6406 35.6406,21.7656 C35.7813,21.9063 36.0156,22.0156 36.2344,22.0156 C36.5,22.0156 36.7656,21.875 36.9375,21.6563 C37.0469,21.5 37.0781,21.3125 37.0781,20.8906 L37.0781,19.4688 C37.0781,19.0313 37.0625,18.9063 36.9688,18.75 C36.8125,18.4844 36.5313,18.3438 36.2344,18.3438 C35.9375,18.3438 35.7344,18.4375 35.5156,18.75 L35.3438,18.6719 Z "/><text fill="#000000" font-family="sans-serif" font-size="12" lengthAdjust="spacingAndGlyphs" textLength="49" x="47" y="27.1543">Hospital</text><line style="stroke: #A80036; stroke-width: 1.5;" x1="19" x2="98" y1="39" y2="39"/><line style="stroke: #A80036; stroke-width: 1.5;" x1="19" x2="98" y1="47" y2="47"/><!--MD5=[c50d89439a12e948b363c4efab1c487c]
class Department--><rect codeLine="2" fill="#FEFECE" filter="url(#f1nrdn9v71ujzr)" height="48" id="Department" style="stroke: #A80036; stroke-width: 1.5;" width="103" x="7" y="115"/><ellipse cx="22" cy="131" fill="#ADD1B2" rx="11" ry="11" style="stroke: #A80036; stroke-width: 1.0;"/><path d="M24.3438,126.6719 C23.4063,126.2344 22.8125,126.0938 21.9375,126.0938 C19.3125,126.0938 17.3125,128.1719 17.3125,130.8906 L17.3125,132.0156 C17.3125,134.5938 19.4219,136.4844 22.3125,136.4844 C23.5313,136.4844 24.6875,136.1875 25.4375,135.6406 C26.0156,135.2344 26.3438,134.7813 26.3438,134.3906 C26.3438,133.9375 25.9531,133.5469 25.4844,133.5469 C25.2656,133.5469 25.0625,133.625 24.875,133.8125 C24.4219,134.2969 24.4219,134.2969 24.2344,134.3906 C23.8125,134.6563 23.125,134.7813 22.3594,134.7813 C20.3125,134.7813 19.0156,133.6875 19.0156,131.9844 L19.0156,130.8906 C19.0156,129.1094 20.2656,127.7969 22,127.7969 C22.5781,127.7969 23.1875,127.9531 23.6563,128.2031 C24.1406,128.4844 24.3125,128.7031 24.4063,129.1094 C24.4688,129.5156 24.5,129.6406 24.6406,129.7656 C24.7813,129.9063 25.0156,130.0156 25.2344,130.0156 C25.5,130.0156 25.7656,129.875 25.9375,129.6563 C26.0469,129.5 26.0781,129.3125 26.0781,128.8906 L26.0781,127.4688 C26.0781,127.0313 26.0625,126.9063 25.9688,126.75 C25.8125,126.4844 25.5313,126.3438 25.2344,126.3438 C24.9375,126.3438 24.7344,126.4375 24.5156,126.75 L24.3438,126.6719 Z "/><text fill="#000000" font-family="sans-serif" font-size="12" lengthAdjust="spacingAndGlyphs" textLength="71" x="36" y="135.1543">Department</text><line style="stroke: #A80036; stroke-width: 1.5;" x1="8" x2="109" y1="147" y2="147"/><line style="stroke: #A80036; stroke-width: 1.5;" x1="8" x2="109" y1="155" y2="155"/><!--MD5=[4b3e62402e42246dc984c41aa3e1742c]
reverse link Hospital to Department--><path codeLine="3" d="M58.5,68.3383 C58.5,83.6813 58.5,101.098 58.5,114.6784 " fill="none" id="Hospital&lt;-Department" style="stroke: #A80036; stroke-width: 1.0;"/><polygon fill="#A80036" points="58.5,55,54.5,61,58.5,67,62.5,61,58.5,55" style="stroke: #A80036; stroke-width: 1.0;"/><text fill="#000000" font-family="sans-serif" font-size="13" lengthAdjust="spacingAndGlyphs" textLength="8" x="49.475" y="75.1558">1</text><text fill="#000000" font-family="sans-serif" font-size="13" lengthAdjust="spacingAndGlyphs" textLength="23" x="32.6969" y="104.005">1..*</text><!--MD5=[fd8fd52b1115d33b5a5c8162b3753eb0]
@startuml
class Hospital
class Department
Hospital "1" *- - "1..*" Department
@enduml

PlantUML version 1.2020.16beta7(Unknown compile time)
(GPL source distribution)
Java Runtime: Java(TM) SE Runtime Environment
JVM: Java HotSpot(TM) 64-Bit Server VM
Default Encoding: UTF-8
Language: en
Country: US
--></g></svg>