<?xml version="1.0" encoding="UTF-8" standalone="no"?><svg xmlns="http://www.w3.org/2000/svg" xmlns:xlink="http://www.w3.org/1999/xlink" contentScriptType="application/ecmascript" contentStyleType="text/css" height="131px" preserveAspectRatio="none" style="width:151px;height:131px;" version="1.1" viewBox="0 0 151 131" width="151px" zoomAndPan="magnify"><defs><filter height="300%" id="f50m4lah57zey" width="300%" x="-1" y="-1"><feGaussianBlur result="blurOut" stdDeviation="2.0"/><feColorMatrix in="blurOut" result="blurOut2" type="matrix" values="0 0 0 0 0 0 0 0 0 0 0 0 0 0 0 0 0 0 .4 0"/><feOffset dx="4.0" dy="4.0" in="blurOut2" result="blurOut3"/><feBlend in="SourceGraphic" in2="blurOut3" mode="normal"/></filter></defs><g><!--MD5=[2cb47ba637a0d19583e6199456f6ad0b]
class Player--><rect codeLine="2" fill="#FEFECE" filter="url(#f50m4lah57zey)" height="105.1563" id="Player" style="stroke: #A80036; stroke-width: 1.5;" width="125" x="7" y="7"/><ellipse cx="22" cy="25.9688" fill="#B4A7E5" rx="11" ry="11" style="stroke: #A80036; stroke-width: 1.0;"/><path d="M22.9531,22.75 L24.6719,22.75 C25.0625,22.75 25.25,22.7188 25.375,22.6406 C25.6406,22.4844 25.7813,22.2031 25.7813,21.9063 C25.7813,21.6406 25.6719,21.375 25.4375,21.2031 C25.2656,21.0938 25.125,21.0625 24.6719,21.0625 L19.5313,21.0625 C19.0938,21.0625 18.9688,21.0781 18.8125,21.1719 C18.5625,21.3281 18.4063,21.625 18.4063,21.9063 C18.4063,22.1875 18.5469,22.4375 18.7656,22.6094 C18.9219,22.7188 19.1094,22.75 19.5313,22.75 L21.25,22.75 L21.25,29.2656 L19.5313,29.2656 C19.0938,29.2656 18.9688,29.2813 18.8125,29.3906 C18.5625,29.5469 18.4063,29.8281 18.4063,30.125 C18.4063,30.375 18.5469,30.6406 18.7656,30.7969 C18.9219,30.9219 19.125,30.9688 19.5313,30.9688 L24.6719,30.9688 C25.4219,30.9688 25.7813,30.6875 25.7813,30.125 C25.7813,29.8438 25.6719,29.5938 25.4375,29.4219 C25.2656,29.2969 25.125,29.2656 24.6719,29.2656 L22.9531,29.2656 L22.9531,22.75 Z "/><text fill="#000000" font-family="sans-serif" font-size="12" font-style="italic" lengthAdjust="spacingAndGlyphs" textLength="93" x="36" y="23.1387">&lt;&lt;interface&gt;&gt;</text><text fill="#000000" font-family="sans-serif" font-size="12" font-style="italic" lengthAdjust="spacingAndGlyphs" textLength="36" x="66.5" y="37.1074">Player</text><line style="stroke: #A80036; stroke-width: 1.5;" x1="8" x2="131" y1="44.9375" y2="44.9375"/><line style="stroke: #A80036; stroke-width: 1.5;" x1="8" x2="131" y1="52.9375" y2="52.9375"/><text fill="#000000" font-family="sans-serif" font-size="11" font-style="italic" lengthAdjust="spacingAndGlyphs" textLength="69" x="13" y="67.1479">+play():void</text><text fill="#000000" font-family="sans-serif" font-size="11" font-style="italic" lengthAdjust="spacingAndGlyphs" textLength="73" x="13" y="79.9526">+stop() :void</text><text fill="#000000" font-family="sans-serif" font-size="11" font-style="italic" lengthAdjust="spacingAndGlyphs" textLength="83" x="13" y="92.7573">+pause() :void</text><text fill="#000000" font-family="sans-serif" font-size="11" font-style="italic" lengthAdjust="spacingAndGlyphs" textLength="93" x="13" y="105.562">+reverse() :void</text><!--MD5=[fdac23934f07b6fa6d9e1ae6bcce80e8]
@startuml
skinparam classAttributeIconSize 0
interface "<<interface>>\n Player" as Player
{
+   {abstract}  play():void
+   {abstract}  stop() :void
+   {abstract}  pause() :void
+   {abstract}  reverse() :void
}
@enduml

PlantUML version 1.2020.16beta10(Unknown compile time)
(GPL source distribution)
Java Runtime: Java(TM) SE Runtime Environment
JVM: Java HotSpot(TM) 64-Bit Server VM
Default Encoding: UTF-8
Language: en
Country: US
--></g></svg>