<?xml version="1.0" encoding="UTF-8" standalone="no"?><svg xmlns="http://www.w3.org/2000/svg" xmlns:xlink="http://www.w3.org/1999/xlink" contentScriptType="application/ecmascript" contentStyleType="text/css" height="74px" preserveAspectRatio="none" style="width:233px;height:74px;" version="1.1" viewBox="0 0 233 74" width="233px" zoomAndPan="magnify"><defs><filter height="300%" id="fzyphx1xix2ph" width="300%" x="-1" y="-1"><feGaussianBlur result="blurOut" stdDeviation="2.0"/><feColorMatrix in="blurOut" result="blurOut2" type="matrix" values="0 0 0 0 0 0 0 0 0 0 0 0 0 0 0 0 0 0 .4 0"/><feOffset dx="4.0" dy="4.0" in="blurOut2" result="blurOut3"/><feBlend in="SourceGraphic" in2="blurOut3" mode="normal"/></filter></defs><g><!--MD5=[2ce409087c256806e794369f9639a134]
class Playlist--><rect codeLine="2" fill="#FEFECE" filter="url(#fzyphx1xix2ph)" height="48" id="Playlist" style="stroke: #A80036; stroke-width: 1.5;" width="72" x="7" y="7"/><ellipse cx="22" cy="23" fill="#ADD1B2" rx="11" ry="11" style="stroke: #A80036; stroke-width: 1.0;"/><path d="M24.3438,18.6719 C23.4063,18.2344 22.8125,18.0938 21.9375,18.0938 C19.3125,18.0938 17.3125,20.1719 17.3125,22.8906 L17.3125,24.0156 C17.3125,26.5938 19.4219,28.4844 22.3125,28.4844 C23.5313,28.4844 24.6875,28.1875 25.4375,27.6406 C26.0156,27.2344 26.3438,26.7813 26.3438,26.3906 C26.3438,25.9375 25.9531,25.5469 25.4844,25.5469 C25.2656,25.5469 25.0625,25.625 24.875,25.8125 C24.4219,26.2969 24.4219,26.2969 24.2344,26.3906 C23.8125,26.6563 23.125,26.7813 22.3594,26.7813 C20.3125,26.7813 19.0156,25.6875 19.0156,23.9844 L19.0156,22.8906 C19.0156,21.1094 20.2656,19.7969 22,19.7969 C22.5781,19.7969 23.1875,19.9531 23.6563,20.2031 C24.1406,20.4844 24.3125,20.7031 24.4063,21.1094 C24.4688,21.5156 24.5,21.6406 24.6406,21.7656 C24.7813,21.9063 25.0156,22.0156 25.2344,22.0156 C25.5,22.0156 25.7656,21.875 25.9375,21.6563 C26.0469,21.5 26.0781,21.3125 26.0781,20.8906 L26.0781,19.4688 C26.0781,19.0313 26.0625,18.9063 25.9688,18.75 C25.8125,18.4844 25.5313,18.3438 25.2344,18.3438 C24.9375,18.3438 24.7344,18.4375 24.5156,18.75 L24.3438,18.6719 Z "/><text fill="#000000" font-family="sans-serif" font-size="12" lengthAdjust="spacingAndGlyphs" textLength="40" x="36" y="27.1543">Playlist</text><line style="stroke: #A80036; stroke-width: 1.5;" x1="8" x2="78" y1="39" y2="39"/><line style="stroke: #A80036; stroke-width: 1.5;" x1="8" x2="78" y1="47" y2="47"/><!--MD5=[c7d0fc1c8129251b8f01df6a3ca5adee]
entity TrackData--><ellipse cx="184" cy="31" fill="#FEFECE" filter="url(#fzyphx1xix2ph)" rx="8" ry="8" style="stroke: #A80036; stroke-width: 2.0;"/><text fill="#000000" font-family="sans-serif" font-size="14" lengthAdjust="spacingAndGlyphs" textLength="74" x="147" y="60.9951">TrackData</text><!--MD5=[56ee474cb4e072edf77770810d299388]
link Playlist to TrackData--><path codeLine="4" d="M79.0756,31 C106.3447,31 143.073,31 164.773,31 " fill="none" id="Playlist-to-TrackData" style="stroke: #A80036; stroke-width: 1.0;"/><path d="M171.7968,22.5428 A9,9 0 0 0 171.7968 39.4572" fill="none" style="stroke: #A80036; stroke-width: 1.5;"/><!--MD5=[1213cf9d7a33ac5d56bee53cd0d254f9]
@startuml
left to right direction
class Playlist
circle TrackData 
Playlist - -( TrackData
@enduml

PlantUML version 1.2020.16beta10(Unknown compile time)
(GPL source distribution)
Java Runtime: Java(TM) SE Runtime Environment
JVM: Java HotSpot(TM) 64-Bit Server VM
Default Encoding: UTF-8
Language: en
Country: US
--></g></svg>