<?xml version="1.0" encoding="UTF-8" standalone="no"?><svg xmlns="http://www.w3.org/2000/svg" xmlns:xlink="http://www.w3.org/1999/xlink" contentScriptType="application/ecmascript" contentStyleType="text/css" height="245px" preserveAspectRatio="none" style="width:295px;height:245px;" version="1.1" viewBox="0 0 295 245" width="295px" zoomAndPan="magnify"><defs><filter height="300%" id="f1s80qel88s6dd" width="300%" x="-1" y="-1"><feGaussianBlur result="blurOut" stdDeviation="2.0"/><feColorMatrix in="blurOut" result="blurOut2" type="matrix" values="0 0 0 0 0 0 0 0 0 0 0 0 0 0 0 0 0 0 .4 0"/><feOffset dx="4.0" dy="4.0" in="blurOut2" result="blurOut3"/><feBlend in="SourceGraphic" in2="blurOut3" mode="normal"/></filter></defs><g><!--MD5=[426e75666daf533f17226ff4c87e20fd]
class Shape--><rect codeLine="2" fill="#FEFECE" filter="url(#f1s80qel88s6dd)" height="86.4141" id="Shape" style="stroke: #A80036; stroke-width: 1.5;" width="116" x="83.5" y="7"/><ellipse cx="119.2" cy="23" fill="#ADD1B2" rx="11" ry="11" style="stroke: #A80036; stroke-width: 1.0;"/><path d="M121.5438,18.6719 C120.6063,18.2344 120.0125,18.0938 119.1375,18.0938 C116.5125,18.0938 114.5125,20.1719 114.5125,22.8906 L114.5125,24.0156 C114.5125,26.5938 116.6219,28.4844 119.5125,28.4844 C120.7313,28.4844 121.8875,28.1875 122.6375,27.6406 C123.2156,27.2344 123.5438,26.7813 123.5438,26.3906 C123.5438,25.9375 123.1531,25.5469 122.6844,25.5469 C122.4656,25.5469 122.2625,25.625 122.075,25.8125 C121.6219,26.2969 121.6219,26.2969 121.4344,26.3906 C121.0125,26.6563 120.325,26.7813 119.5594,26.7813 C117.5125,26.7813 116.2156,25.6875 116.2156,23.9844 L116.2156,22.8906 C116.2156,21.1094 117.4656,19.7969 119.2,19.7969 C119.7781,19.7969 120.3875,19.9531 120.8563,20.2031 C121.3406,20.4844 121.5125,20.7031 121.6063,21.1094 C121.6688,21.5156 121.7,21.6406 121.8406,21.7656 C121.9813,21.9063 122.2156,22.0156 122.4344,22.0156 C122.7,22.0156 122.9656,21.875 123.1375,21.6563 C123.2469,21.5 123.2781,21.3125 123.2781,20.8906 L123.2781,19.4688 C123.2781,19.0313 123.2625,18.9063 123.1688,18.75 C123.0125,18.4844 122.7313,18.3438 122.4344,18.3438 C122.1375,18.3438 121.9344,18.4375 121.7156,18.75 L121.5438,18.6719 Z "/><text fill="#000000" font-family="sans-serif" font-size="12" lengthAdjust="spacingAndGlyphs" textLength="38" x="137.8" y="27.1543">Shape</text><line style="stroke: #A80036; stroke-width: 1.5;" x1="84.5" x2="198.5" y1="39" y2="39"/><line style="stroke: #A80036; stroke-width: 1.5;" x1="84.5" x2="198.5" y1="47" y2="47"/><text fill="#000000" font-family="sans-serif" font-size="11" font-style="italic" lengthAdjust="spacingAndGlyphs" textLength="73" x="89.5" y="61.2104">+draw():void</text><text fill="#000000" font-family="sans-serif" font-size="11" font-style="italic" lengthAdjust="spacingAndGlyphs" textLength="104" x="89.5" y="74.0151">+getArea():double</text><text fill="#000000" font-family="sans-serif" font-size="11" lengthAdjust="spacingAndGlyphs" textLength="77" x="89.5" y="86.8198">+erase():void</text><!--MD5=[a7f9118cae7621dd25d25149752faef0]
class Circle--><rect codeLine="8" fill="#FEFECE" filter="url(#f1s80qel88s6dd)" height="73.6094" id="Circle" style="stroke: #A80036; stroke-width: 1.5;" width="117" x="7" y="153"/><ellipse cx="44.95" cy="169" fill="#ADD1B2" rx="11" ry="11" style="stroke: #A80036; stroke-width: 1.0;"/><path d="M47.2938,164.6719 C46.3563,164.2344 45.7625,164.0938 44.8875,164.0938 C42.2625,164.0938 40.2625,166.1719 40.2625,168.8906 L40.2625,170.0156 C40.2625,172.5938 42.3719,174.4844 45.2625,174.4844 C46.4813,174.4844 47.6375,174.1875 48.3875,173.6406 C48.9656,173.2344 49.2938,172.7813 49.2938,172.3906 C49.2938,171.9375 48.9031,171.5469 48.4344,171.5469 C48.2156,171.5469 48.0125,171.625 47.825,171.8125 C47.3719,172.2969 47.3719,172.2969 47.1844,172.3906 C46.7625,172.6563 46.075,172.7813 45.3094,172.7813 C43.2625,172.7813 41.9656,171.6875 41.9656,169.9844 L41.9656,168.8906 C41.9656,167.1094 43.2156,165.7969 44.95,165.7969 C45.5281,165.7969 46.1375,165.9531 46.6063,166.2031 C47.0906,166.4844 47.2625,166.7031 47.3563,167.1094 C47.4188,167.5156 47.45,167.6406 47.5906,167.7656 C47.7313,167.9063 47.9656,168.0156 48.1844,168.0156 C48.45,168.0156 48.7156,167.875 48.8875,167.6563 C48.9969,167.5 49.0281,167.3125 49.0281,166.8906 L49.0281,165.4688 C49.0281,165.0313 49.0125,164.9063 48.9188,164.75 C48.7625,164.4844 48.4813,164.3438 48.1844,164.3438 C47.8875,164.3438 47.6844,164.4375 47.4656,164.75 L47.2938,164.6719 Z "/><text fill="#000000" font-family="sans-serif" font-size="12" lengthAdjust="spacingAndGlyphs" textLength="34" x="64.05" y="173.1543">Circle</text><line style="stroke: #A80036; stroke-width: 1.5;" x1="8" x2="123" y1="185" y2="185"/><line style="stroke: #A80036; stroke-width: 1.5;" x1="8" x2="123" y1="193" y2="193"/><text fill="#000000" font-family="sans-serif" font-size="11" lengthAdjust="spacingAndGlyphs" textLength="71" x="13" y="207.2104">+draw():void</text><text fill="#000000" font-family="sans-serif" font-size="11" lengthAdjust="spacingAndGlyphs" textLength="105" x="13" y="220.0151">+getArea():double</text><!--MD5=[22fb4e6350dbcc13f4be459709017985]
class Ellipse--><rect codeLine="14" fill="#FEFECE" filter="url(#f1s80qel88s6dd)" height="73.6094" id="Ellipse" style="stroke: #A80036; stroke-width: 1.5;" width="117" x="159" y="153"/><ellipse cx="194.7" cy="169" fill="#ADD1B2" rx="11" ry="11" style="stroke: #A80036; stroke-width: 1.0;"/><path d="M197.0438,164.6719 C196.1063,164.2344 195.5125,164.0938 194.6375,164.0938 C192.0125,164.0938 190.0125,166.1719 190.0125,168.8906 L190.0125,170.0156 C190.0125,172.5938 192.1219,174.4844 195.0125,174.4844 C196.2313,174.4844 197.3875,174.1875 198.1375,173.6406 C198.7156,173.2344 199.0438,172.7813 199.0438,172.3906 C199.0438,171.9375 198.6531,171.5469 198.1844,171.5469 C197.9656,171.5469 197.7625,171.625 197.575,171.8125 C197.1219,172.2969 197.1219,172.2969 196.9344,172.3906 C196.5125,172.6563 195.825,172.7813 195.0594,172.7813 C193.0125,172.7813 191.7156,171.6875 191.7156,169.9844 L191.7156,168.8906 C191.7156,167.1094 192.9656,165.7969 194.7,165.7969 C195.2781,165.7969 195.8875,165.9531 196.3563,166.2031 C196.8406,166.4844 197.0125,166.7031 197.1063,167.1094 C197.1688,167.5156 197.2,167.6406 197.3406,167.7656 C197.4813,167.9063 197.7156,168.0156 197.9344,168.0156 C198.2,168.0156 198.4656,167.875 198.6375,167.6563 C198.7469,167.5 198.7781,167.3125 198.7781,166.8906 L198.7781,165.4688 C198.7781,165.0313 198.7625,164.9063 198.6688,164.75 C198.5125,164.4844 198.2313,164.3438 197.9344,164.3438 C197.6375,164.3438 197.4344,164.4375 197.2156,164.75 L197.0438,164.6719 Z "/><text fill="#000000" font-family="sans-serif" font-size="12" lengthAdjust="spacingAndGlyphs" textLength="39" x="213.3" y="173.1543">Ellipse</text><line style="stroke: #A80036; stroke-width: 1.5;" x1="160" x2="275" y1="185" y2="185"/><line style="stroke: #A80036; stroke-width: 1.5;" x1="160" x2="275" y1="193" y2="193"/><text fill="#000000" font-family="sans-serif" font-size="11" lengthAdjust="spacingAndGlyphs" textLength="71" x="165" y="207.2104">+draw():void</text><text fill="#000000" font-family="sans-serif" font-size="11" lengthAdjust="spacingAndGlyphs" textLength="105" x="165" y="220.0151">+getArea():double</text><!--MD5=[d637a7d0c5b779627461b5a6979d5756]
reverse link Shape to Circle--><path codeLine="19" d="M108.588,110.761 C100.7258,125.037 92.5678,139.8506 85.4929,152.697 " fill="none" id="Shape-backto-Circle" style="stroke: #A80036; stroke-width: 1.0;"/><polygon fill="none" points="102.5047,107.297,118.285,93.154,114.768,114.05,102.5047,107.297" style="stroke: #A80036; stroke-width: 1.0;"/><!--MD5=[7b63840e970408882182f3cca4a60e5e]
reverse link Shape to Ellipse--><path codeLine="20" d="M174.412,110.761 C182.274,125.037 190.432,139.8506 197.507,152.697 " fill="none" id="Shape-backto-Ellipse" style="stroke: #A80036; stroke-width: 1.0;"/><polygon fill="none" points="168.232,114.05,164.715,93.154,180.495,107.297,168.232,114.05" style="stroke: #A80036; stroke-width: 1.0;"/><!--MD5=[09af391e7bdfdc134c3757537d0375c3]
@startuml
skinparam classAttributeIconSize 0
class Shape
{
+     {abstract} draw():void
+     {abstract} getArea():double
+     erase():void
}
class Circle
{
+     draw():void
+     getArea():double
}

class Ellipse
{
+     draw():void
+     getArea():double
}
Shape <|- - Circle 
Shape <|- - Ellipse
@enduml

PlantUML version 1.2020.16beta10(Unknown compile time)
(GPL source distribution)
Java Runtime: Java(TM) SE Runtime Environment
JVM: Java HotSpot(TM) 64-Bit Server VM
Default Encoding: UTF-8
Language: en
Country: US
--></g></svg>