<?xml version="1.0" encoding="UTF-8" standalone="no"?><svg xmlns="http://www.w3.org/2000/svg" xmlns:xlink="http://www.w3.org/1999/xlink" contentScriptType="application/ecmascript" contentStyleType="text/css" height="182px" preserveAspectRatio="none" style="width:107px;height:182px;" version="1.1" viewBox="0 0 107 182" width="107px" zoomAndPan="magnify"><defs><filter height="300%" id="f200ml2mf8gf5" width="300%" x="-1" y="-1"><feGaussianBlur result="blurOut" stdDeviation="2.0"/><feColorMatrix in="blurOut" result="blurOut2" type="matrix" values="0 0 0 0 0 0 0 0 0 0 0 0 0 0 0 0 0 0 .4 0"/><feOffset dx="4.0" dy="4.0" in="blurOut2" result="blurOut3"/><feBlend in="SourceGraphic" in2="blurOut3" mode="normal"/></filter></defs><g><!--MD5=[d6181cb537bdc20c0a3007a98a56832d]
class Student--><rect codeLine="1" fill="#FEFECE" filter="url(#f200ml2mf8gf5)" height="48" id="Student" style="stroke: #A80036; stroke-width: 1.5;" width="78" x="8.5" y="7"/><ellipse cx="23.5" cy="23" fill="#ADD1B2" rx="11" ry="11" style="stroke: #A80036; stroke-width: 1.0;"/><path d="M25.8438,18.6719 C24.9063,18.2344 24.3125,18.0938 23.4375,18.0938 C20.8125,18.0938 18.8125,20.1719 18.8125,22.8906 L18.8125,24.0156 C18.8125,26.5938 20.9219,28.4844 23.8125,28.4844 C25.0313,28.4844 26.1875,28.1875 26.9375,27.6406 C27.5156,27.2344 27.8438,26.7813 27.8438,26.3906 C27.8438,25.9375 27.4531,25.5469 26.9844,25.5469 C26.7656,25.5469 26.5625,25.625 26.375,25.8125 C25.9219,26.2969 25.9219,26.2969 25.7344,26.3906 C25.3125,26.6563 24.625,26.7813 23.8594,26.7813 C21.8125,26.7813 20.5156,25.6875 20.5156,23.9844 L20.5156,22.8906 C20.5156,21.1094 21.7656,19.7969 23.5,19.7969 C24.0781,19.7969 24.6875,19.9531 25.1563,20.2031 C25.6406,20.4844 25.8125,20.7031 25.9063,21.1094 C25.9688,21.5156 26,21.6406 26.1406,21.7656 C26.2813,21.9063 26.5156,22.0156 26.7344,22.0156 C27,22.0156 27.2656,21.875 27.4375,21.6563 C27.5469,21.5 27.5781,21.3125 27.5781,20.8906 L27.5781,19.4688 C27.5781,19.0313 27.5625,18.9063 27.4688,18.75 C27.3125,18.4844 27.0313,18.3438 26.7344,18.3438 C26.4375,18.3438 26.2344,18.4375 26.0156,18.75 L25.8438,18.6719 Z "/><text fill="#000000" font-family="sans-serif" font-size="12" lengthAdjust="spacingAndGlyphs" textLength="46" x="37.5" y="27.1543">Student</text><line style="stroke: #A80036; stroke-width: 1.5;" x1="9.5" x2="85.5" y1="39" y2="39"/><line style="stroke: #A80036; stroke-width: 1.5;" x1="9.5" x2="85.5" y1="47" y2="47"/><!--MD5=[61a83f88cb8b7d3a80bc8c481f3736bf]
class Teacher--><rect codeLine="2" fill="#FEFECE" filter="url(#f200ml2mf8gf5)" height="48" id="Teacher" style="stroke: #A80036; stroke-width: 1.5;" width="81" x="7" y="115"/><ellipse cx="22" cy="131" fill="#ADD1B2" rx="11" ry="11" style="stroke: #A80036; stroke-width: 1.0;"/><path d="M24.3438,126.6719 C23.4063,126.2344 22.8125,126.0938 21.9375,126.0938 C19.3125,126.0938 17.3125,128.1719 17.3125,130.8906 L17.3125,132.0156 C17.3125,134.5938 19.4219,136.4844 22.3125,136.4844 C23.5313,136.4844 24.6875,136.1875 25.4375,135.6406 C26.0156,135.2344 26.3438,134.7813 26.3438,134.3906 C26.3438,133.9375 25.9531,133.5469 25.4844,133.5469 C25.2656,133.5469 25.0625,133.625 24.875,133.8125 C24.4219,134.2969 24.4219,134.2969 24.2344,134.3906 C23.8125,134.6563 23.125,134.7813 22.3594,134.7813 C20.3125,134.7813 19.0156,133.6875 19.0156,131.9844 L19.0156,130.8906 C19.0156,129.1094 20.2656,127.7969 22,127.7969 C22.5781,127.7969 23.1875,127.9531 23.6563,128.2031 C24.1406,128.4844 24.3125,128.7031 24.4063,129.1094 C24.4688,129.5156 24.5,129.6406 24.6406,129.7656 C24.7813,129.9063 25.0156,130.0156 25.2344,130.0156 C25.5,130.0156 25.7656,129.875 25.9375,129.6563 C26.0469,129.5 26.0781,129.3125 26.0781,128.8906 L26.0781,127.4688 C26.0781,127.0313 26.0625,126.9063 25.9688,126.75 C25.8125,126.4844 25.5313,126.3438 25.2344,126.3438 C24.9375,126.3438 24.7344,126.4375 24.5156,126.75 L24.3438,126.6719 Z "/><text fill="#000000" font-family="sans-serif" font-size="12" lengthAdjust="spacingAndGlyphs" textLength="49" x="36" y="135.1543">Teacher</text><line style="stroke: #A80036; stroke-width: 1.5;" x1="8" x2="87" y1="147" y2="147"/><line style="stroke: #A80036; stroke-width: 1.5;" x1="8" x2="87" y1="155" y2="155"/><!--MD5=[d2a4fcf44cbc1ce610344e7a055796bd]
link Student to Teacher--><path codeLine="3" d="M47.5,55 C47.5,72.6584 47.5,96.9408 47.5,114.6784 " fill="none" id="Student-Teacher" style="stroke: #A80036; stroke-width: 1.0;"/><text fill="#000000" font-family="sans-serif" font-size="13" lengthAdjust="spacingAndGlyphs" textLength="23" x="21.5531" y="75.1558">0..*</text><text fill="#000000" font-family="sans-serif" font-size="13" lengthAdjust="spacingAndGlyphs" textLength="23" x="21.6969" y="104.005">0..*</text><!--MD5=[b6d72c71e16541a468e843d320417b74]
@startuml
class Student
class Teacher
Student  "0..*" - - "0..*" Teacher
@enduml

PlantUML version 1.2020.16beta7(Unknown compile time)
(GPL source distribution)
Java Runtime: Java(TM) SE Runtime Environment
JVM: Java HotSpot(TM) 64-Bit Server VM
Default Encoding: UTF-8
Language: en
Country: US
--></g></svg>