<?xml version="1.0" encoding="UTF-8" standalone="no"?><svg xmlns="http://www.w3.org/2000/svg" xmlns:xlink="http://www.w3.org/1999/xlink" contentScriptType="application/ecmascript" contentStyleType="text/css" height="252px" preserveAspectRatio="none" style="width:1404px;height:252px;" version="1.1" viewBox="0 0 1404 252" width="1404px" zoomAndPan="magnify"><defs><filter height="300%" id="f1sdetijhuext7" width="300%" x="-1" y="-1"><feGaussianBlur result="blurOut" stdDeviation="2.0"/><feColorMatrix in="blurOut" result="blurOut2" type="matrix" values="0 0 0 0 0 0 0 0 0 0 0 0 0 0 0 0 0 0 .4 0"/><feOffset dx="4.0" dy="4.0" in="blurOut2" result="blurOut3"/><feBlend in="SourceGraphic" in2="blurOut3" mode="normal"/></filter></defs><g><!--MD5=[dbb060a2e2607355b4071e4d6b39ea62]
class CashDispenser--><rect fill="#FEFECE" filter="url(#f1sdetijhuext7)" height="112.0234" id="CashDispenser" style="stroke: #A80036; stroke-width: 1.5;" width="268" x="565" y="8"/><ellipse cx="647.75" cy="24" fill="#ADD1B2" rx="11" ry="11" style="stroke: #A80036; stroke-width: 1.0;"/><path d="M650.7188,29.6406 Q650.1406,29.9375 649.5,30.0781 Q648.8594,30.2344 648.1563,30.2344 Q645.6563,30.2344 644.3281,28.5938 Q643.0156,26.9375 643.0156,23.8125 Q643.0156,20.6875 644.3281,19.0313 Q645.6563,17.375 648.1563,17.375 Q648.8594,17.375 649.5,17.5313 Q650.1563,17.6875 650.7188,17.9844 L650.7188,20.7031 Q650.0938,20.125 649.5,19.8594 Q648.9063,19.5781 648.2813,19.5781 Q646.9375,19.5781 646.25,20.6563 Q645.5625,21.7188 645.5625,23.8125 Q645.5625,25.9063 646.25,26.9844 Q646.9375,28.0469 648.2813,28.0469 Q648.9063,28.0469 649.5,27.7813 Q650.0938,27.5 650.7188,26.9219 L650.7188,29.6406 Z "/><text fill="#000000" font-family="sans-serif" font-size="12" lengthAdjust="spacingAndGlyphs" textLength="94" x="668.25" y="28.1543">CashDispenser</text><line style="stroke: #A80036; stroke-width: 1.5;" x1="566" x2="832" y1="40" y2="40"/><text fill="#000000" font-family="sans-serif" font-size="11" lengthAdjust="spacingAndGlyphs" textLength="129" x="571" y="54.2104">-next: CashDispenser*</text><line style="stroke: #A80036; stroke-width: 1.5;" x1="566" x2="832" y1="60.8047" y2="60.8047"/><text fill="#000000" font-family="sans-serif" font-size="11" lengthAdjust="spacingAndGlyphs" textLength="256" x="571" y="75.0151">+setNext(CashDispenser* nextHandler): void</text><text fill="#000000" font-family="sans-serif" font-size="11" lengthAdjust="spacingAndGlyphs" textLength="161" x="571" y="87.8198">+dispense(int amount): void</text><text fill="#000000" font-family="sans-serif" font-size="11" font-style="italic" lengthAdjust="spacingAndGlyphs" textLength="188" x="571" y="100.6245">+dispenseCash(int amount): void</text><text fill="#000000" font-family="sans-serif" font-size="11" lengthAdjust="spacingAndGlyphs" textLength="104" x="571" y="113.4292">+CashDispenser()</text><!--MD5=[4d8acb88159871a99ff79b1e659b34b5]
class HundredDispenser--><rect fill="#FEFECE" filter="url(#f1sdetijhuext7)" height="60.8047" id="HundredDispenser" style="stroke: #A80036; stroke-width: 1.5;" width="202" x="6" y="181"/><ellipse cx="44.85" cy="197" fill="#ADD1B2" rx="11" ry="11" style="stroke: #A80036; stroke-width: 1.0;"/><path d="M47.8188,202.6406 Q47.2406,202.9375 46.6,203.0781 Q45.9594,203.2344 45.2563,203.2344 Q42.7563,203.2344 41.4281,201.5938 Q40.1156,199.9375 40.1156,196.8125 Q40.1156,193.6875 41.4281,192.0313 Q42.7563,190.375 45.2563,190.375 Q45.9594,190.375 46.6,190.5313 Q47.2563,190.6875 47.8188,190.9844 L47.8188,193.7031 Q47.1938,193.125 46.6,192.8594 Q46.0063,192.5781 45.3813,192.5781 Q44.0375,192.5781 43.35,193.6563 Q42.6625,194.7188 42.6625,196.8125 Q42.6625,198.9063 43.35,199.9844 Q44.0375,201.0469 45.3813,201.0469 Q46.0063,201.0469 46.6,200.7813 Q47.1938,200.5 47.8188,199.9219 L47.8188,202.6406 Z "/><text fill="#000000" font-family="sans-serif" font-size="12" lengthAdjust="spacingAndGlyphs" textLength="117" x="64.15" y="201.1543">HundredDispenser</text><line style="stroke: #A80036; stroke-width: 1.5;" x1="7" x2="207" y1="213" y2="213"/><line style="stroke: #A80036; stroke-width: 1.5;" x1="7" x2="207" y1="221" y2="221"/><text fill="#000000" font-family="sans-serif" font-size="11" lengthAdjust="spacingAndGlyphs" textLength="190" x="12" y="235.2104">+dispenseCash(int amount): void</text><!--MD5=[25a921ed4f53d71540922feb2da60697]
class FiftyDispenser--><rect fill="#FEFECE" filter="url(#f1sdetijhuext7)" height="60.8047" id="FiftyDispenser" style="stroke: #A80036; stroke-width: 1.5;" width="202" x="243" y="181"/><ellipse cx="295.75" cy="197" fill="#ADD1B2" rx="11" ry="11" style="stroke: #A80036; stroke-width: 1.0;"/><path d="M298.7188,202.6406 Q298.1406,202.9375 297.5,203.0781 Q296.8594,203.2344 296.1563,203.2344 Q293.6563,203.2344 292.3281,201.5938 Q291.0156,199.9375 291.0156,196.8125 Q291.0156,193.6875 292.3281,192.0313 Q293.6563,190.375 296.1563,190.375 Q296.8594,190.375 297.5,190.5313 Q298.1563,190.6875 298.7188,190.9844 L298.7188,193.7031 Q298.0938,193.125 297.5,192.8594 Q296.9063,192.5781 296.2813,192.5781 Q294.9375,192.5781 294.25,193.6563 Q293.5625,194.7188 293.5625,196.8125 Q293.5625,198.9063 294.25,199.9844 Q294.9375,201.0469 296.2813,201.0469 Q296.9063,201.0469 297.5,200.7813 Q298.0938,200.5 298.7188,199.9219 L298.7188,202.6406 Z "/><text fill="#000000" font-family="sans-serif" font-size="12" lengthAdjust="spacingAndGlyphs" textLength="88" x="316.25" y="201.1543">FiftyDispenser</text><line style="stroke: #A80036; stroke-width: 1.5;" x1="244" x2="444" y1="213" y2="213"/><line style="stroke: #A80036; stroke-width: 1.5;" x1="244" x2="444" y1="221" y2="221"/><text fill="#000000" font-family="sans-serif" font-size="11" lengthAdjust="spacingAndGlyphs" textLength="190" x="249" y="235.2104">+dispenseCash(int amount): void</text><!--MD5=[70259ddd9522fb660af6a61f0a2867a8]
class TwentyDispenser--><rect fill="#FEFECE" filter="url(#f1sdetijhuext7)" height="60.8047" id="TwentyDispenser" style="stroke: #A80036; stroke-width: 1.5;" width="202" x="480" y="181"/><ellipse cx="523.8" cy="197" fill="#ADD1B2" rx="11" ry="11" style="stroke: #A80036; stroke-width: 1.0;"/><path d="M526.7688,202.6406 Q526.1906,202.9375 525.55,203.0781 Q524.9094,203.2344 524.2063,203.2344 Q521.7063,203.2344 520.3781,201.5938 Q519.0656,199.9375 519.0656,196.8125 Q519.0656,193.6875 520.3781,192.0313 Q521.7063,190.375 524.2063,190.375 Q524.9094,190.375 525.55,190.5313 Q526.2063,190.6875 526.7688,190.9844 L526.7688,193.7031 Q526.1438,193.125 525.55,192.8594 Q524.9563,192.5781 524.3313,192.5781 Q522.9875,192.5781 522.3,193.6563 Q521.6125,194.7188 521.6125,196.8125 Q521.6125,198.9063 522.3,199.9844 Q522.9875,201.0469 524.3313,201.0469 Q524.9563,201.0469 525.55,200.7813 Q526.1438,200.5 526.7688,199.9219 L526.7688,202.6406 Z "/><text fill="#000000" font-family="sans-serif" font-size="12" lengthAdjust="spacingAndGlyphs" textLength="106" x="544.2" y="201.1543">TwentyDispenser</text><line style="stroke: #A80036; stroke-width: 1.5;" x1="481" x2="681" y1="213" y2="213"/><line style="stroke: #A80036; stroke-width: 1.5;" x1="481" x2="681" y1="221" y2="221"/><text fill="#000000" font-family="sans-serif" font-size="11" lengthAdjust="spacingAndGlyphs" textLength="190" x="486" y="235.2104">+dispenseCash(int amount): void</text><!--MD5=[05d604f17654c233efcf810b6dacbc2d]
class TenDispenser--><rect fill="#FEFECE" filter="url(#f1sdetijhuext7)" height="60.8047" id="TenDispenser" style="stroke: #A80036; stroke-width: 1.5;" width="202" x="717" y="181"/><ellipse cx="770.75" cy="197" fill="#ADD1B2" rx="11" ry="11" style="stroke: #A80036; stroke-width: 1.0;"/><path d="M773.7188,202.6406 Q773.1406,202.9375 772.5,203.0781 Q771.8594,203.2344 771.1563,203.2344 Q768.6563,203.2344 767.3281,201.5938 Q766.0156,199.9375 766.0156,196.8125 Q766.0156,193.6875 767.3281,192.0313 Q768.6563,190.375 771.1563,190.375 Q771.8594,190.375 772.5,190.5313 Q773.1563,190.6875 773.7188,190.9844 L773.7188,193.7031 Q773.0938,193.125 772.5,192.8594 Q771.9063,192.5781 771.2813,192.5781 Q769.9375,192.5781 769.25,193.6563 Q768.5625,194.7188 768.5625,196.8125 Q768.5625,198.9063 769.25,199.9844 Q769.9375,201.0469 771.2813,201.0469 Q771.9063,201.0469 772.5,200.7813 Q773.0938,200.5 773.7188,199.9219 L773.7188,202.6406 Z "/><text fill="#000000" font-family="sans-serif" font-size="12" lengthAdjust="spacingAndGlyphs" textLength="86" x="791.25" y="201.1543">TenDispenser</text><line style="stroke: #A80036; stroke-width: 1.5;" x1="718" x2="918" y1="213" y2="213"/><line style="stroke: #A80036; stroke-width: 1.5;" x1="718" x2="918" y1="221" y2="221"/><text fill="#000000" font-family="sans-serif" font-size="11" lengthAdjust="spacingAndGlyphs" textLength="190" x="723" y="235.2104">+dispenseCash(int amount): void</text><!--MD5=[6af463e28e87ae1d7e3f5f2a522733c2]
class FiveDispenser--><rect fill="#FEFECE" filter="url(#f1sdetijhuext7)" height="60.8047" id="FiveDispenser" style="stroke: #A80036; stroke-width: 1.5;" width="202" x="954" y="181"/><ellipse cx="1007.25" cy="197" fill="#ADD1B2" rx="11" ry="11" style="stroke: #A80036; stroke-width: 1.0;"/><path d="M1010.2188,202.6406 Q1009.6406,202.9375 1009,203.0781 Q1008.3594,203.2344 1007.6563,203.2344 Q1005.1563,203.2344 1003.8281,201.5938 Q1002.5156,199.9375 1002.5156,196.8125 Q1002.5156,193.6875 1003.8281,192.0313 Q1005.1563,190.375 1007.6563,190.375 Q1008.3594,190.375 1009,190.5313 Q1009.6563,190.6875 1010.2188,190.9844 L1010.2188,193.7031 Q1009.5938,193.125 1009,192.8594 Q1008.4063,192.5781 1007.7813,192.5781 Q1006.4375,192.5781 1005.75,193.6563 Q1005.0625,194.7188 1005.0625,196.8125 Q1005.0625,198.9063 1005.75,199.9844 Q1006.4375,201.0469 1007.7813,201.0469 Q1008.4063,201.0469 1009,200.7813 Q1009.5938,200.5 1010.2188,199.9219 L1010.2188,202.6406 Z "/><text fill="#000000" font-family="sans-serif" font-size="12" lengthAdjust="spacingAndGlyphs" textLength="87" x="1027.75" y="201.1543">FiveDispenser</text><line style="stroke: #A80036; stroke-width: 1.5;" x1="955" x2="1155" y1="213" y2="213"/><line style="stroke: #A80036; stroke-width: 1.5;" x1="955" x2="1155" y1="221" y2="221"/><text fill="#000000" font-family="sans-serif" font-size="11" lengthAdjust="spacingAndGlyphs" textLength="190" x="960" y="235.2104">+dispenseCash(int amount): void</text><!--MD5=[bfda6c27ec9506d78faa0986f7b59ae2]
class OneDispenser--><rect fill="#FEFECE" filter="url(#f1sdetijhuext7)" height="60.8047" id="OneDispenser" style="stroke: #A80036; stroke-width: 1.5;" width="202" x="1191" y="181"/><ellipse cx="1243.75" cy="197" fill="#ADD1B2" rx="11" ry="11" style="stroke: #A80036; stroke-width: 1.0;"/><path d="M1246.7188,202.6406 Q1246.1406,202.9375 1245.5,203.0781 Q1244.8594,203.2344 1244.1563,203.2344 Q1241.6563,203.2344 1240.3281,201.5938 Q1239.0156,199.9375 1239.0156,196.8125 Q1239.0156,193.6875 1240.3281,192.0313 Q1241.6563,190.375 1244.1563,190.375 Q1244.8594,190.375 1245.5,190.5313 Q1246.1563,190.6875 1246.7188,190.9844 L1246.7188,193.7031 Q1246.0938,193.125 1245.5,192.8594 Q1244.9063,192.5781 1244.2813,192.5781 Q1242.9375,192.5781 1242.25,193.6563 Q1241.5625,194.7188 1241.5625,196.8125 Q1241.5625,198.9063 1242.25,199.9844 Q1242.9375,201.0469 1244.2813,201.0469 Q1244.9063,201.0469 1245.5,200.7813 Q1246.0938,200.5 1246.7188,199.9219 L1246.7188,202.6406 Z "/><text fill="#000000" font-family="sans-serif" font-size="12" lengthAdjust="spacingAndGlyphs" textLength="88" x="1264.25" y="201.1543">OneDispenser</text><line style="stroke: #A80036; stroke-width: 1.5;" x1="1192" x2="1392" y1="213" y2="213"/><line style="stroke: #A80036; stroke-width: 1.5;" x1="1192" x2="1392" y1="221" y2="221"/><text fill="#000000" font-family="sans-serif" font-size="11" lengthAdjust="spacingAndGlyphs" textLength="190" x="1197" y="235.2104">+dispenseCash(int amount): void</text><!--MD5=[4f3d898d73df01b2e16cb29bbe5eaf3c]
link CashDispenser to CashDispenser--><path d="M833.23,49.26 C853.92,51.49 868,56.4 868,64 C868,70.95 856.24,75.65 838.41,78.11 " fill="none" id="CashDispenser-&gt;CashDispenser" style="stroke: #A80036; stroke-width: 1.0;"/><polygon fill="#A80036" points="833.23,78.74,842.6454,81.6296,838.1938,78.1392,841.6841,73.6875,833.23,78.74" style="stroke: #A80036; stroke-width: 1.0;"/><text fill="#000000" font-family="sans-serif" font-size="13" lengthAdjust="spacingAndGlyphs" textLength="28" x="874" y="68.5669">next</text><!--MD5=[90a1feae56aa80d1856664fc1d88c0c4]
reverse link CashDispenser to HundredDispenser--><path d="M545.22,102.43 C452.44,125.06 331.9,154.56 225,181 C219.47,182.37 213.79,183.78 208.05,185.2 " fill="none" id="CashDispenser&lt;-HundredDispenser" style="stroke: #A80036; stroke-width: 1.0;"/><polygon fill="none" points="543.79,95.57,564.88,97.64,547.1,109.17,543.79,95.57" style="stroke: #A80036; stroke-width: 1.0;"/><!--MD5=[5fbf76fdb997dc5ef4ad23e6c55786ad]
reverse link CashDispenser to FiftyDispenser--><path d="M546.27,127.6 C501.09,146.12 453.73,165.53 416.2,180.91 " fill="none" id="CashDispenser&lt;-FiftyDispenser" style="stroke: #A80036; stroke-width: 1.0;"/><polygon fill="none" points="543.63,121.12,564.79,120.01,548.94,134.07,543.63,121.12" style="stroke: #A80036; stroke-width: 1.0;"/><!--MD5=[cf14e051d1942a7a70737b98d73cd69e]
reverse link CashDispenser to TwentyDispenser--><path d="M641.64,135.73 C628.77,151.6 615.79,167.6 605.16,180.7 " fill="none" id="CashDispenser&lt;-TwentyDispenser" style="stroke: #A80036; stroke-width: 1.0;"/><polygon fill="none" points="636.35,131.13,654.39,120.01,647.23,139.95,636.35,131.13" style="stroke: #A80036; stroke-width: 1.0;"/><!--MD5=[54cbc7e3e3b7f3a03dbe0ee284d8ac5c]
reverse link CashDispenser to TenDispenser--><path d="M756.84,135.73 C769.83,151.6 782.91,167.6 793.63,180.7 " fill="none" id="CashDispenser&lt;-TenDispenser" style="stroke: #A80036; stroke-width: 1.0;"/><polygon fill="none" points="751.23,139.92,743.99,120.01,762.07,131.06,751.23,139.92" style="stroke: #A80036; stroke-width: 1.0;"/><!--MD5=[f6120ab3705e1f069230f4824c2f0bf3]
reverse link CashDispenser to FiveDispenser--><path d="M851.71,127.41 C897.17,145.99 944.87,165.49 982.64,180.92 " fill="none" id="CashDispenser&lt;-FiveDispenser" style="stroke: #A80036; stroke-width: 1.0;"/><polygon fill="none" points="848.95,133.85,833.08,119.8,854.24,120.89,848.95,133.85" style="stroke: #A80036; stroke-width: 1.0;"/><!--MD5=[69f05e4d89fc9f9eea85ec5099fe68ba]
reverse link CashDispenser to OneDispenser--><path d="M852.86,102.35 C945.86,124.98 1066.78,154.51 1174,181 C1179.54,182.37 1185.22,183.78 1190.95,185.2 " fill="none" id="CashDispenser&lt;-OneDispenser" style="stroke: #A80036; stroke-width: 1.0;"/><polygon fill="none" points="850.93,109.08,833.15,97.56,854.24,95.48,850.93,109.08" style="stroke: #A80036; stroke-width: 1.0;"/><!--MD5=[d540b2a5f928cbb095f1db6974ddb975]
@startuml
skinparam classAttributeIconSize 0

class CashDispenser {
    - next: CashDispenser*
    + setNext(CashDispenser* nextHandler): void
    + dispense(int amount): void
    {abstract} + dispenseCash(int amount): void
    + CashDispenser()
}

CashDispenser -down-> CashDispenser: "next"

class HundredDispenser {
    + dispenseCash(int amount): void
}

class FiftyDispenser {
    + dispenseCash(int amount): void
}

class TwentyDispenser {
    + dispenseCash(int amount): void
}

class TenDispenser {
    + dispenseCash(int amount): void
}

class FiveDispenser {
    + dispenseCash(int amount): void
}

class OneDispenser {
    + dispenseCash(int amount): void
}

HundredDispenser -up-|> CashDispenser
FiftyDispenser -up-|> CashDispenser
TwentyDispenser -up-|> CashDispenser
TenDispenser -up-|> CashDispenser
FiveDispenser -up-|> CashDispenser
OneDispenser -up-|> CashDispenser

@enduml

PlantUML version 1.2020.02(Sun Mar 01 11:22:07 CET 2020)
(GPL source distribution)
Java Runtime: OpenJDK Runtime Environment
JVM: OpenJDK 64-Bit Server VM
Java Version: 11.0.26+4-post-Ubuntu-1ubuntu122.04
Operating System: Linux
Default Encoding: UTF-8
Language: en
Country: US
--></g></svg>