<svg xmlns="http://www.w3.org/2000/svg" xmlns:xlink="http://www.w3.org/1999/xlink" contentStyleType="text/css" height="591px" preserveAspectRatio="none" style="width:943px;height:591px;background:#FFFFFF;" version="1.1" viewBox="0 0 943 591" width="943px" zoomAndPan="magnify"><defs><filter height="300%" id="f1xszos9krlk8b" width="300%" x="-1" y="-1"><feGaussianBlur result="blurOut" stdDeviation="2"/><feColorMatrix in="blurOut" result="blurOut2" type="matrix" values="0 0 0 0 0 0 0 0 0 0 0 0 0 0 0 0 0 0 .4 0"/><feOffset dx="4" dy="4" in="blurOut2" result="blurOut3"/><feBlend in="SourceGraphic" in2="blurOut3" mode="normal"/></filter></defs><g><!--class IExpressionVisitor--><g id="elem_IExpressionVisitor"><rect codeLine="2" fill="#FEFECE" filter="url(#f1xszos9krlk8b)" height="80.5938" id="IExpressionVisitor" style="stroke:#A80036;stroke-width:1;" width="273.9941" x="281.5" y="322"/><ellipse cx="351.8008" cy="338" fill="#B4A7E5" rx="11" ry="11" style="stroke:#A80036;stroke-width:1;"/><path d="M347.7227,333.7656 L347.7227,331.6094 L355.1133,331.6094 L355.1133,333.7656 L352.6445,333.7656 L352.6445,341.8438 L355.1133,341.8438 L355.1133,344 L347.7227,344 L347.7227,341.8438 L350.1914,341.8438 L350.1914,333.7656 L347.7227,333.7656 Z " fill="#000000"/><text fill="#000000" font-family="sans-serif" font-size="14" font-style="italic" lengthAdjust="spacing" textLength="124.8926" x="372.3008" y="342.8467">IExpressionVisitor</text><line style="stroke:#A80036;stroke-width:1;" x1="282.5" x2="554.4941" y1="354" y2="354"/><line style="stroke:#A80036;stroke-width:1;" x1="282.5" x2="554.4941" y1="362" y2="362"/><ellipse cx="292.5" cy="375.6484" fill="#84BE84" rx="3" ry="3" style="stroke:#038048;stroke-width:1;"/><text fill="#000000" font-family="sans-serif" font-size="14" font-style="italic" lengthAdjust="spacing" textLength="217" x="301.5" y="378.9951">void Visit(const Literal &amp;literal)</text><ellipse cx="292.5" cy="391.9453" fill="#84BE84" rx="3" ry="3" style="stroke:#038048;stroke-width:1;"/><text fill="#000000" font-family="sans-serif" font-size="14" font-style="italic" lengthAdjust="spacing" textLength="247.9941" x="301.5" y="395.292">void Visit(const Addition &amp;addition)</text></g><!--class IExpression--><g id="elem_IExpression"><rect codeLine="7" fill="#FEFECE" filter="url(#f1xszos9krlk8b)" height="64.2969" id="IExpression" style="stroke:#A80036;stroke-width:1;" width="344.7598" x="246" y="7"/><ellipse cx="373.9141" cy="23" fill="#B4A7E5" rx="11" ry="11" style="stroke:#A80036;stroke-width:1;"/><path d="M369.8359,18.7656 L369.8359,16.6094 L377.2266,16.6094 L377.2266,18.7656 L374.7578,18.7656 L374.7578,26.8438 L377.2266,26.8438 L377.2266,29 L369.8359,29 L369.8359,26.8438 L372.3047,26.8438 L372.3047,18.7656 L369.8359,18.7656 Z " fill="#000000"/><text fill="#000000" font-family="sans-serif" font-size="14" font-style="italic" lengthAdjust="spacing" textLength="80.4316" x="394.4141" y="27.8467">IExpression</text><line style="stroke:#A80036;stroke-width:1;" x1="247" x2="589.7598" y1="39" y2="39"/><line style="stroke:#A80036;stroke-width:1;" x1="247" x2="589.7598" y1="47" y2="47"/><ellipse cx="257" cy="60.6484" fill="#84BE84" rx="3" ry="3" style="stroke:#038048;stroke-width:1;"/><text fill="#000000" font-family="sans-serif" font-size="14" font-style="italic" lengthAdjust="spacing" textLength="318.7598" x="266" y="63.9951">void Accept(IExpressionVisitor &amp;visitor) const</text></g><!--class Literal--><g id="elem_Literal"><rect codeLine="11" fill="#FEFECE" filter="url(#f1xszos9krlk8b)" height="96.8906" id="Literal" style="stroke:#A80036;stroke-width:1;" width="344.7598" x="7" y="140"/><ellipse cx="153.1216" cy="156" fill="#ADD1B2" rx="11" ry="11" style="stroke:#A80036;stroke-width:1;"/><path d="M156.0903,161.6406 Q155.5122,161.9375 154.8716,162.0781 Q154.231,162.2344 153.5278,162.2344 Q151.0278,162.2344 149.6997,160.5938 Q148.3872,158.9375 148.3872,155.8125 Q148.3872,152.6875 149.6997,151.0313 Q151.0278,149.375 153.5278,149.375 Q154.231,149.375 154.8716,149.5313 Q155.5278,149.6875 156.0903,149.9844 L156.0903,152.7031 Q155.4653,152.125 154.8716,151.8594 Q154.2778,151.5781 153.6528,151.5781 Q152.3091,151.5781 151.6216,152.6563 Q150.9341,153.7188 150.9341,155.8125 Q150.9341,157.9063 151.6216,158.9844 Q152.3091,160.0469 153.6528,160.0469 Q154.2778,160.0469 154.8716,159.7813 Q155.4653,159.5 156.0903,158.9219 L156.0903,161.6406 Z " fill="#000000"/><text fill="#000000" font-family="sans-serif" font-size="14" lengthAdjust="spacing" textLength="44.0166" x="173.6216" y="160.8467">Literal</text><line style="stroke:#A80036;stroke-width:1;" x1="8" x2="350.7598" y1="172" y2="172"/><ellipse cx="18" cy="185.6484" fill="none" rx="3" ry="3" style="stroke:#038048;stroke-width:1;"/><text fill="#000000" font-family="sans-serif" font-size="14" lengthAdjust="spacing" textLength="90.4053" x="27" y="188.9951">double value</text><line style="stroke:#A80036;stroke-width:1;" x1="8" x2="350.7598" y1="196.2969" y2="196.2969"/><ellipse cx="18" cy="209.9453" fill="#84BE84" rx="3" ry="3" style="stroke:#038048;stroke-width:1;"/><text fill="#000000" font-family="sans-serif" font-size="14" lengthAdjust="spacing" textLength="182.9502" x="27" y="213.292">explicit Literal(double val)</text><ellipse cx="18" cy="226.2422" fill="#84BE84" rx="3" ry="3" style="stroke:#038048;stroke-width:1;"/><text fill="#000000" font-family="sans-serif" font-size="14" lengthAdjust="spacing" textLength="318.7598" x="27" y="229.5889">void Accept(IExpressionVisitor &amp;visitor) const</text></g><!--class Addition--><g id="elem_Addition"><rect codeLine="17" fill="#FEFECE" filter="url(#f1xszos9krlk8b)" height="113.1875" id="Addition" style="stroke:#A80036;stroke-width:1;" width="542.7012" x="387" y="132"/><ellipse cx="625.0718" cy="148" fill="#ADD1B2" rx="11" ry="11" style="stroke:#A80036;stroke-width:1;"/><path d="M628.0405,153.6406 Q627.4624,153.9375 626.8218,154.0781 Q626.1812,154.2344 625.478,154.2344 Q622.978,154.2344 621.6499,152.5938 Q620.3374,150.9375 620.3374,147.8125 Q620.3374,144.6875 621.6499,143.0313 Q622.978,141.375 625.478,141.375 Q626.1812,141.375 626.8218,141.5313 Q627.478,141.6875 628.0405,141.9844 L628.0405,144.7031 Q627.4155,144.125 626.8218,143.8594 Q626.228,143.5781 625.603,143.5781 Q624.2593,143.5781 623.5718,144.6563 Q622.8843,145.7188 622.8843,147.8125 Q622.8843,149.9063 623.5718,150.9844 Q624.2593,152.0469 625.603,152.0469 Q626.228,152.0469 626.8218,151.7813 Q627.4155,151.5 628.0405,150.9219 L628.0405,153.6406 Z " fill="#000000"/><text fill="#000000" font-family="sans-serif" font-size="14" lengthAdjust="spacing" textLength="58.0576" x="645.5718" y="152.8467">Addition</text><line style="stroke:#A80036;stroke-width:1;" x1="388" x2="928.7012" y1="164" y2="164"/><ellipse cx="398" cy="177.6484" fill="none" rx="3" ry="3" style="stroke:#038048;stroke-width:1;"/><text fill="#000000" font-family="sans-serif" font-size="14" lengthAdjust="spacing" textLength="237.5078" x="407" y="180.9951">std::unique_ptr&lt;IExpression&gt; left</text><ellipse cx="398" cy="193.9453" fill="none" rx="3" ry="3" style="stroke:#038048;stroke-width:1;"/><text fill="#000000" font-family="sans-serif" font-size="14" lengthAdjust="spacing" textLength="247.4814" x="407" y="197.292">std::unique_ptr&lt;IExpression&gt; right</text><line style="stroke:#A80036;stroke-width:1;" x1="388" x2="928.7012" y1="204.5938" y2="204.5938"/><ellipse cx="398" cy="218.2422" fill="#84BE84" rx="3" ry="3" style="stroke:#038048;stroke-width:1;"/><text fill="#000000" font-family="sans-serif" font-size="14" lengthAdjust="spacing" textLength="516.7012" x="407" y="221.5889">Addition(std::unique_ptr&lt;IExpression&gt; l, std::unique_ptr&lt;IExpression&gt; r)</text><ellipse cx="398" cy="234.5391" fill="#84BE84" rx="3" ry="3" style="stroke:#038048;stroke-width:1;"/><text fill="#000000" font-family="sans-serif" font-size="14" lengthAdjust="spacing" textLength="318.7598" x="407" y="237.8857">void Accept(IExpressionVisitor &amp;visitor) const</text></g><!--class ExpressionPrinter--><g id="elem_ExpressionPrinter"><rect codeLine="24" fill="#FEFECE" filter="url(#f1xszos9krlk8b)" height="113.1875" id="ExpressionPrinter" style="stroke:#A80036;stroke-width:1;" width="273.9941" x="281.5" y="464"/><ellipse cx="352.686" cy="480" fill="#ADD1B2" rx="11" ry="11" style="stroke:#A80036;stroke-width:1;"/><path d="M355.6548,485.6406 Q355.0767,485.9375 354.436,486.0781 Q353.7954,486.2344 353.0923,486.2344 Q350.5923,486.2344 349.2642,484.5938 Q347.9517,482.9375 347.9517,479.8125 Q347.9517,476.6875 349.2642,475.0313 Q350.5923,473.375 353.0923,473.375 Q353.7954,473.375 354.436,473.5313 Q355.0923,473.6875 355.6548,473.9844 L355.6548,476.7031 Q355.0298,476.125 354.436,475.8594 Q353.8423,475.5781 353.2173,475.5781 Q351.8735,475.5781 351.186,476.6563 Q350.4985,477.7188 350.4985,479.8125 Q350.4985,481.9063 351.186,482.9844 Q351.8735,484.0469 353.2173,484.0469 Q353.8423,484.0469 354.436,483.7813 Q355.0298,483.5 355.6548,482.9219 L355.6548,485.6406 Z " fill="#000000"/><text fill="#000000" font-family="sans-serif" font-size="14" lengthAdjust="spacing" textLength="123.1221" x="373.186" y="484.8467">ExpressionPrinter</text><line style="stroke:#A80036;stroke-width:1;" x1="282.5" x2="554.4941" y1="496" y2="496"/><rect fill="none" height="6" style="stroke:#C82930;stroke-width:1;" width="6" x="289.5" y="506.6484"/><text fill="#000000" font-family="sans-serif" font-size="14" lengthAdjust="spacing" textLength="115.6572" x="301.5" y="512.9951">std::string result</text><line style="stroke:#A80036;stroke-width:1;" x1="282.5" x2="554.4941" y1="520.2969" y2="520.2969"/><ellipse cx="292.5" cy="533.9453" fill="#84BE84" rx="3" ry="3" style="stroke:#038048;stroke-width:1;"/><text fill="#000000" font-family="sans-serif" font-size="14" lengthAdjust="spacing" textLength="217" x="301.5" y="537.292">void Visit(const Literal &amp;literal)</text><ellipse cx="292.5" cy="550.2422" fill="#84BE84" rx="3" ry="3" style="stroke:#038048;stroke-width:1;"/><text fill="#000000" font-family="sans-serif" font-size="14" lengthAdjust="spacing" textLength="247.9941" x="301.5" y="553.5889">void Visit(const Addition &amp;addition)</text><ellipse cx="292.5" cy="566.5391" fill="#84BE84" rx="3" ry="3" style="stroke:#038048;stroke-width:1;"/><text fill="#000000" font-family="sans-serif" font-size="14" lengthAdjust="spacing" textLength="197.873" x="301.5" y="569.8857">std::string GetResult() const</text></g><!--reverse link IExpressionVisitor to ExpressionPrinter--><g id="link_IExpressionVisitor_ExpressionPrinter"><path codeLine="31" d="M418.5,421.27 C418.5,439.68 418.5,443.88 418.5,463.91 " fill="none" id="IExpressionVisitor-backto-ExpressionPrinter" style="stroke:#A80036;stroke-width:1;stroke-dasharray:7.0,7.0;"/><polygon fill="none" points="418.5,403.27,412.5,421.27,424.5,421.27,418.5,403.27" style="stroke:#A80036;stroke-width:1;"/></g><!--reverse link IExpression to Literal--><g id="link_IExpression_Literal"><path codeLine="32" d="M352.793,80.5546 C320.473,100.5046 293.19,117.34 256.66,139.88 " fill="none" id="IExpression-backto-Literal" style="stroke:#A80036;stroke-width:1;stroke-dasharray:7.0,7.0;"/><polygon fill="none" points="368.11,71.1,349.6415,75.449,355.9446,85.6603,368.11,71.1" style="stroke:#A80036;stroke-width:1;"/></g><!--reverse link IExpression to Addition--><g id="link_IExpression_Addition"><path codeLine="33" d="M484.4361,80.5236 C513.0461,98.1036 534.33,111.19 567.73,131.72 " fill="none" id="IExpression-backto-Addition" style="stroke:#A80036;stroke-width:1;stroke-dasharray:7.0,7.0;"/><polygon fill="none" points="469.1,71.1,481.2949,85.6356,487.5773,75.4115,469.1,71.1" style="stroke:#A80036;stroke-width:1;"/></g><!--link Literal to IExpressionVisitor--><g id="link_Literal_IExpressionVisitor"><path codeLine="35" d="M245.76,237.18 C282.78,263.83 323.4997,293.1356 358.5497,318.3556 " fill="none" id="Literal-to-IExpressionVisitor" style="stroke:#A80036;stroke-width:1;"/><polygon fill="#A80036" points="363.42,321.86,358.4509,313.3566,359.3614,318.9397,353.7784,319.8503,363.42,321.86" style="stroke:#A80036;stroke-width:1;"/><text fill="#000000" font-family="sans-serif" font-size="13" lengthAdjust="spacing" textLength="109.897" x="321.5" y="288.0669">Accept calls Visit</text></g><!--link Addition to IExpressionVisitor--><g id="link_Addition_IExpressionVisitor"><path codeLine="36" d="M580.91,245.11 C545.99,270.13 510.4471,295.6052 478.6571,318.3852 " fill="none" id="Addition-to-IExpressionVisitor" style="stroke:#A80036;stroke-width:1;"/><polygon fill="#A80036" points="473.78,321.88,483.4255,319.8892,477.8443,318.9676,478.7658,313.3864,473.78,321.88" style="stroke:#A80036;stroke-width:1;"/><text fill="#000000" font-family="sans-serif" font-size="13" lengthAdjust="spacing" textLength="109.897" x="539.5" y="288.0669">Accept calls Visit</text></g><!--SRC=[fLEzJiCm4Dxz53T5YI1zWAYgr04X98Qg0ojodMivOTd1laILIj-TaDXff0O8uEbaV_v-V6V_IWQSzIZ8CBgzL0WFTyVAeVTapHDvOklW9A1TDt2IEyzEAZv3Owc4xZnLrdY6Hse9f8P4zqKsuywwB8bR7KXag39n5jDUlZInLWehJYTi9qrVPD39VL8hBRqVl4RAqjOxZT18NMFOmcEbIT6GAxrWOhA_gW-fexpdiYXgGsyrFbVibYEo5MZSynoSeyDB14Q5z7lcsnyO_nlq0jsuhgSXSTxhjbqaSu0MKciUIyqPgrcpD7gs87QFlEtqqf7RYKpBzyNYslyOsKE2lUk3Q4U8c23FLrD_gmWl2qfgxVj8OWZpYqiV]--></g></svg>