<?xml version="1.0" encoding="UTF-8" standalone="no"?><svg xmlns="http://www.w3.org/2000/svg" xmlns:xlink="http://www.w3.org/1999/xlink" contentScriptType="application/ecmascript" contentStyleType="text/css" height="720px" preserveAspectRatio="none" style="width:1339px;height:720px;" version="1.1" viewBox="0 0 1339 720" width="1339px" zoomAndPan="magnify"><defs><filter height="300%" id="f1i4lok8xxf9hk" width="300%" x="-1" y="-1"><feGaussianBlur result="blurOut" stdDeviation="2.0"/><feColorMatrix in="blurOut" result="blurOut2" type="matrix" values="0 0 0 0 0 0 0 0 0 0 0 0 0 0 0 0 0 0 .4 0"/><feOffset dx="4.0" dy="4.0" in="blurOut2" result="blurOut3"/><feBlend in="SourceGraphic" in2="blurOut3" mode="normal"/></filter></defs><g><!--MD5=[d2258248519fa17253ad8957974a86d2]
class CarElement--><rect fill="#FEFECE" filter="url(#f1i4lok8xxf9hk)" height="66.7422" id="CarElement" style="stroke: #A80036; stroke-width: 1.5;" width="241" x="386" y="484"/><ellipse cx="464.25" cy="502.9688" fill="#B4A7E5" rx="11" ry="11" style="stroke: #A80036; stroke-width: 1.0;"/><path d="M460.1719,498.7344 L460.1719,496.5781 L467.5625,496.5781 L467.5625,498.7344 L465.0938,498.7344 L465.0938,506.8125 L467.5625,506.8125 L467.5625,508.9688 L460.1719,508.9688 L460.1719,506.8125 L462.6406,506.8125 L462.6406,498.7344 L460.1719,498.7344 Z "/><text fill="#000000" font-family="sans-serif" font-size="12" font-style="italic" lengthAdjust="spacingAndGlyphs" textLength="57" x="492.25" y="500.1387">Interface</text><text fill="#000000" font-family="sans-serif" font-size="12" font-style="italic" lengthAdjust="spacingAndGlyphs" textLength="72" x="488.75" y="514.1074">CarElement</text><line style="stroke: #A80036; stroke-width: 1.5;" x1="387" x2="626" y1="521.9375" y2="521.9375"/><line style="stroke: #A80036; stroke-width: 1.5;" x1="387" x2="626" y1="529.9375" y2="529.9375"/><text fill="#000000" font-family="sans-serif" font-size="11" font-style="italic" lengthAdjust="spacingAndGlyphs" textLength="229" x="392" y="544.1479">+accept(CarElementVisitor *visitor):void</text><!--MD5=[f7bd4d911997281c06922bd436687551]
class CarElementVisitor--><rect fill="#FEFECE" filter="url(#f1i4lok8xxf9hk)" height="105.1563" id="CarElementVisitor" style="stroke: #A80036; stroke-width: 1.5;" width="166" x="83" y="129"/><ellipse cx="107" cy="147.9688" fill="#B4A7E5" rx="11" ry="11" style="stroke: #A80036; stroke-width: 1.0;"/><path d="M102.9219,143.7344 L102.9219,141.5781 L110.3125,141.5781 L110.3125,143.7344 L107.8438,143.7344 L107.8438,151.8125 L110.3125,151.8125 L110.3125,153.9688 L102.9219,153.9688 L102.9219,151.8125 L105.3906,151.8125 L105.3906,143.7344 L102.9219,143.7344 Z "/><text fill="#000000" font-family="sans-serif" font-size="12" font-style="italic" lengthAdjust="spacingAndGlyphs" textLength="57" x="149.5" y="145.1387">Interface</text><text fill="#000000" font-family="sans-serif" font-size="12" font-style="italic" lengthAdjust="spacingAndGlyphs" textLength="110" x="127" y="159.1074">CarElementVisitor</text><line style="stroke: #A80036; stroke-width: 1.5;" x1="84" x2="248" y1="166.9375" y2="166.9375"/><line style="stroke: #A80036; stroke-width: 1.5;" x1="84" x2="248" y1="174.9375" y2="174.9375"/><text fill="#000000" font-family="sans-serif" font-size="11" font-style="italic" lengthAdjust="spacingAndGlyphs" textLength="135" x="89" y="189.1479">+visit(Body *body):void</text><text fill="#000000" font-family="sans-serif" font-size="11" font-style="italic" lengthAdjust="spacingAndGlyphs" textLength="116" x="89" y="201.9526">+visit(Car *car):void</text><text fill="#000000" font-family="sans-serif" font-size="11" font-style="italic" lengthAdjust="spacingAndGlyphs" textLength="154" x="89" y="214.7573">+visit(Engine *engine):void</text><text fill="#000000" font-family="sans-serif" font-size="11" font-style="italic" lengthAdjust="spacingAndGlyphs" textLength="146" x="89" y="227.562">+visit(Wheel *wheel):void</text><!--MD5=[aebfb5ed06bf0acd9902aeebb8224243]
class Body--><rect fill="#FEFECE" filter="url(#f1i4lok8xxf9hk)" height="60.8047" id="Body" style="stroke: #A80036; stroke-width: 1.5;" width="213" x="708.5" y="553"/><ellipse cx="795.75" cy="569" fill="#ADD1B2" rx="11" ry="11" style="stroke: #A80036; stroke-width: 1.0;"/><path d="M798.7188,574.6406 Q798.1406,574.9375 797.5,575.0781 Q796.8594,575.2344 796.1563,575.2344 Q793.6563,575.2344 792.3281,573.5938 Q791.0156,571.9375 791.0156,568.8125 Q791.0156,565.6875 792.3281,564.0313 Q793.6563,562.375 796.1563,562.375 Q796.8594,562.375 797.5,562.5313 Q798.1563,562.6875 798.7188,562.9844 L798.7188,565.7031 Q798.0938,565.125 797.5,564.8594 Q796.9063,564.5781 796.2813,564.5781 Q794.9375,564.5781 794.25,565.6563 Q793.5625,566.7188 793.5625,568.8125 Q793.5625,570.9063 794.25,571.9844 Q794.9375,573.0469 796.2813,573.0469 Q796.9063,573.0469 797.5,572.7813 Q798.0938,572.5 798.7188,571.9219 L798.7188,574.6406 Z "/><text fill="#000000" font-family="sans-serif" font-size="12" lengthAdjust="spacingAndGlyphs" textLength="30" x="816.25" y="573.1543">Body</text><line style="stroke: #A80036; stroke-width: 1.5;" x1="709.5" x2="920.5" y1="585" y2="585"/><line style="stroke: #A80036; stroke-width: 1.5;" x1="709.5" x2="920.5" y1="593" y2="593"/><text fill="#000000" font-family="sans-serif" font-size="11" lengthAdjust="spacingAndGlyphs" textLength="201" x="714.5" y="607.2104">+accept(CarElementVisitor *visitor)</text><!--MD5=[63ed6a0a2dfd613875880437a5e2b06e]
class Wheel--><rect fill="#FEFECE" filter="url(#f1i4lok8xxf9hk)" height="124.8281" id="Wheel" style="stroke: #A80036; stroke-width: 1.5;" width="240" x="695" y="389.5"/><ellipse cx="791.75" cy="405.5" fill="#ADD1B2" rx="11" ry="11" style="stroke: #A80036; stroke-width: 1.0;"/><path d="M794.7188,411.1406 Q794.1406,411.4375 793.5,411.5781 Q792.8594,411.7344 792.1563,411.7344 Q789.6563,411.7344 788.3281,410.0938 Q787.0156,408.4375 787.0156,405.3125 Q787.0156,402.1875 788.3281,400.5313 Q789.6563,398.875 792.1563,398.875 Q792.8594,398.875 793.5,399.0313 Q794.1563,399.1875 794.7188,399.4844 L794.7188,402.2031 Q794.0938,401.625 793.5,401.3594 Q792.9063,401.0781 792.2813,401.0781 Q790.9375,401.0781 790.25,402.1563 Q789.5625,403.2188 789.5625,405.3125 Q789.5625,407.4063 790.25,408.4844 Q790.9375,409.5469 792.2813,409.5469 Q792.9063,409.5469 793.5,409.2813 Q794.0938,409 794.7188,408.4219 L794.7188,411.1406 Z "/><text fill="#000000" font-family="sans-serif" font-size="12" lengthAdjust="spacingAndGlyphs" textLength="38" x="812.25" y="409.6543">Wheel</text><line style="stroke: #A80036; stroke-width: 1.5;" x1="696" x2="934" y1="421.5" y2="421.5"/><text fill="#000000" font-family="sans-serif" font-size="11" lengthAdjust="spacingAndGlyphs" textLength="43" x="701" y="435.7104">private:</text><text fill="#000000" font-family="sans-serif" font-size="11" lengthAdjust="spacingAndGlyphs" textLength="73" x="701" y="448.5151">string name;</text><text fill="#000000" font-family="sans-serif" font-size="11" lengthAdjust="spacingAndGlyphs" textLength="37" x="701" y="461.3198">public:</text><line style="stroke: #A80036; stroke-width: 1.5;" x1="696" x2="934" y1="467.9141" y2="467.9141"/><text fill="#000000" font-family="sans-serif" font-size="11" lengthAdjust="spacingAndGlyphs" textLength="146" x="701" y="482.1245">+Wheel(string name):void</text><text fill="#000000" font-family="sans-serif" font-size="11" lengthAdjust="spacingAndGlyphs" textLength="105" x="701" y="494.9292">+getName():string</text><text fill="#000000" font-family="sans-serif" font-size="11" lengthAdjust="spacingAndGlyphs" textLength="228" x="701" y="507.7339">+accept(CarElementVisitor *visitor):void</text><!--MD5=[c86ce95fe6226f2d2796c0513d8e83fe]
class Engine--><rect fill="#FEFECE" filter="url(#f1i4lok8xxf9hk)" height="60.8047" id="Engine" style="stroke: #A80036; stroke-width: 1.5;" width="231" x="699.5" y="649"/><ellipse cx="789.25" cy="665" fill="#ADD1B2" rx="11" ry="11" style="stroke: #A80036; stroke-width: 1.0;"/><path d="M792.2188,670.6406 Q791.6406,670.9375 791,671.0781 Q790.3594,671.2344 789.6563,671.2344 Q787.1563,671.2344 785.8281,669.5938 Q784.5156,667.9375 784.5156,664.8125 Q784.5156,661.6875 785.8281,660.0313 Q787.1563,658.375 789.6563,658.375 Q790.3594,658.375 791,658.5313 Q791.6563,658.6875 792.2188,658.9844 L792.2188,661.7031 Q791.5938,661.125 791,660.8594 Q790.4063,660.5781 789.7813,660.5781 Q788.4375,660.5781 787.75,661.6563 Q787.0625,662.7188 787.0625,664.8125 Q787.0625,666.9063 787.75,667.9844 Q788.4375,669.0469 789.7813,669.0469 Q790.4063,669.0469 791,668.7813 Q791.5938,668.5 792.2188,667.9219 L792.2188,670.6406 Z "/><text fill="#000000" font-family="sans-serif" font-size="12" lengthAdjust="spacingAndGlyphs" textLength="43" x="809.75" y="669.1543">Engine</text><line style="stroke: #A80036; stroke-width: 1.5;" x1="700.5" x2="929.5" y1="681" y2="681"/><line style="stroke: #A80036; stroke-width: 1.5;" x1="700.5" x2="929.5" y1="689" y2="689"/><text fill="#000000" font-family="sans-serif" font-size="11" lengthAdjust="spacingAndGlyphs" textLength="219" x="705.5" y="703.2104">accept(CarElementVisitor *visitor):void</text><!--MD5=[3f0ef310aaa84a542276992c5216544d]
class Car--><rect fill="#FEFECE" filter="url(#f1i4lok8xxf9hk)" height="86.4141" id="Car" style="stroke: #A80036; stroke-width: 1.5;" width="240" x="695" y="262.5"/><ellipse cx="800.25" cy="278.5" fill="#ADD1B2" rx="11" ry="11" style="stroke: #A80036; stroke-width: 1.0;"/><path d="M803.2188,284.1406 Q802.6406,284.4375 802,284.5781 Q801.3594,284.7344 800.6563,284.7344 Q798.1563,284.7344 796.8281,283.0938 Q795.5156,281.4375 795.5156,278.3125 Q795.5156,275.1875 796.8281,273.5313 Q798.1563,271.875 800.6563,271.875 Q801.3594,271.875 802,272.0313 Q802.6563,272.1875 803.2188,272.4844 L803.2188,275.2031 Q802.5938,274.625 802,274.3594 Q801.4063,274.0781 800.7813,274.0781 Q799.4375,274.0781 798.75,275.1563 Q798.0625,276.2188 798.0625,278.3125 Q798.0625,280.4063 798.75,281.4844 Q799.4375,282.5469 800.7813,282.5469 Q801.4063,282.5469 802,282.2813 Q802.5938,282 803.2188,281.4219 L803.2188,284.1406 Z "/><text fill="#000000" font-family="sans-serif" font-size="12" lengthAdjust="spacingAndGlyphs" textLength="21" x="820.75" y="282.6543">Car</text><line style="stroke: #A80036; stroke-width: 1.5;" x1="696" x2="934" y1="294.5" y2="294.5"/><text fill="#000000" font-family="sans-serif" font-size="11" lengthAdjust="spacingAndGlyphs" textLength="190" x="701" y="308.7104">-vector&lt;CarElement*&gt; elements;</text><line style="stroke: #A80036; stroke-width: 1.5;" x1="696" x2="934" y1="315.3047" y2="315.3047"/><text fill="#000000" font-family="sans-serif" font-size="11" lengthAdjust="spacingAndGlyphs" textLength="37" x="701" y="329.5151">+Car()</text><text fill="#000000" font-family="sans-serif" font-size="11" lengthAdjust="spacingAndGlyphs" textLength="228" x="701" y="342.3198">+accept(CarElementVisitor *visitor):void</text><!--MD5=[6d638fd8b19642a0728bf946cfadbd99]
class CarElementDoVisitor--><rect fill="#FEFECE" filter="url(#f1i4lok8xxf9hk)" height="99.2188" id="CarElementDoVisitor" style="stroke: #A80036; stroke-width: 1.5;" width="165" x="424" y="8"/><ellipse cx="441.25" cy="24" fill="#ADD1B2" rx="11" ry="11" style="stroke: #A80036; stroke-width: 1.0;"/><path d="M444.2188,29.6406 Q443.6406,29.9375 443,30.0781 Q442.3594,30.2344 441.6563,30.2344 Q439.1563,30.2344 437.8281,28.5938 Q436.5156,26.9375 436.5156,23.8125 Q436.5156,20.6875 437.8281,19.0313 Q439.1563,17.375 441.6563,17.375 Q442.3594,17.375 443,17.5313 Q443.6563,17.6875 444.2188,17.9844 L444.2188,20.7031 Q443.5938,20.125 443,19.8594 Q442.4063,19.5781 441.7813,19.5781 Q440.4375,19.5781 439.75,20.6563 Q439.0625,21.7188 439.0625,23.8125 Q439.0625,25.9063 439.75,26.9844 Q440.4375,28.0469 441.7813,28.0469 Q442.4063,28.0469 443,27.7813 Q443.5938,27.5 444.2188,26.9219 L444.2188,29.6406 Z "/><text fill="#000000" font-family="sans-serif" font-size="12" lengthAdjust="spacingAndGlyphs" textLength="128" x="455.75" y="28.1543">CarElementDoVisitor</text><line style="stroke: #A80036; stroke-width: 1.5;" x1="425" x2="588" y1="40" y2="40"/><line style="stroke: #A80036; stroke-width: 1.5;" x1="425" x2="588" y1="48" y2="48"/><text fill="#000000" font-family="sans-serif" font-size="11" lengthAdjust="spacingAndGlyphs" textLength="132" x="430" y="62.2104">+visit(Body *body):void</text><text fill="#000000" font-family="sans-serif" font-size="11" lengthAdjust="spacingAndGlyphs" textLength="115" x="430" y="75.0151">+visit(Car *car):void</text><text fill="#000000" font-family="sans-serif" font-size="11" lengthAdjust="spacingAndGlyphs" textLength="143" x="430" y="87.8198">+visit(Wheel *wheel):void</text><text fill="#000000" font-family="sans-serif" font-size="11" lengthAdjust="spacingAndGlyphs" textLength="153" x="430" y="100.6245">+visit(Engine *engine):void</text><!--MD5=[6643699334b6935a3769d05f904b7585]
class CarElementPrintVisitor--><rect fill="#FEFECE" filter="url(#f1i4lok8xxf9hk)" height="99.2188" id="CarElementPrintVisitor" style="stroke: #A80036; stroke-width: 1.5;" width="172" x="420.5" y="142"/><ellipse cx="435.5" cy="158" fill="#ADD1B2" rx="11" ry="11" style="stroke: #A80036; stroke-width: 1.0;"/><path d="M438.4688,163.6406 Q437.8906,163.9375 437.25,164.0781 Q436.6094,164.2344 435.9063,164.2344 Q433.4063,164.2344 432.0781,162.5938 Q430.7656,160.9375 430.7656,157.8125 Q430.7656,154.6875 432.0781,153.0313 Q433.4063,151.375 435.9063,151.375 Q436.6094,151.375 437.25,151.5313 Q437.9063,151.6875 438.4688,151.9844 L438.4688,154.7031 Q437.8438,154.125 437.25,153.8594 Q436.6563,153.5781 436.0313,153.5781 Q434.6875,153.5781 434,154.6563 Q433.3125,155.7188 433.3125,157.8125 Q433.3125,159.9063 434,160.9844 Q434.6875,162.0469 436.0313,162.0469 Q436.6563,162.0469 437.25,161.7813 Q437.8438,161.5 438.4688,160.9219 L438.4688,163.6406 Z "/><text fill="#000000" font-family="sans-serif" font-size="12" lengthAdjust="spacingAndGlyphs" textLength="140" x="449.5" y="162.1543">CarElementPrintVisitor</text><line style="stroke: #A80036; stroke-width: 1.5;" x1="421.5" x2="591.5" y1="174" y2="174"/><line style="stroke: #A80036; stroke-width: 1.5;" x1="421.5" x2="591.5" y1="182" y2="182"/><text fill="#000000" font-family="sans-serif" font-size="11" lengthAdjust="spacingAndGlyphs" textLength="132" x="426.5" y="196.2104">+visit(Body *body):void</text><text fill="#000000" font-family="sans-serif" font-size="11" lengthAdjust="spacingAndGlyphs" textLength="115" x="426.5" y="209.0151">+visit(Car *car):void</text><text fill="#000000" font-family="sans-serif" font-size="11" lengthAdjust="spacingAndGlyphs" textLength="153" x="426.5" y="221.8198">+visit(Engine *engine):void</text><text fill="#000000" font-family="sans-serif" font-size="11" lengthAdjust="spacingAndGlyphs" textLength="143" x="426.5" y="234.6245">+visit(Wheel *wheel):void</text><path d="M1127,491 L1127,499.5 L936,503.5 L1127,507.5 L1127,516.1328 A0,0 0 0 0 1127,516.1328 L1264,516.1328 A0,0 0 0 0 1264,516.1328 L1264,501 L1254,491 L1127,491 A0,0 0 0 0 1127,491 " fill="#FBFB77" filter="url(#f1i4lok8xxf9hk)" style="stroke: #A80036; stroke-width: 1.0;"/><path d="M1254,491 L1254,501 L1264,501 L1254,491 " fill="#FBFB77" style="stroke: #A80036; stroke-width: 1.0;"/><text fill="#000000" font-family="sans-serif" font-size="13" lengthAdjust="spacingAndGlyphs" textLength="112" x="1137" y="508.0669">visitor-&gt;visit(this)</text><path d="M6,269 L6,339.5313 A0,0 0 0 0 6,339.5313 L326,339.5313 A0,0 0 0 0 326,339.5313 L326,308.5 L694,304.5 L326,300.5 L326,279 L316,269 L6,269 A0,0 0 0 0 6,269 " fill="#FBFB77" filter="url(#f1i4lok8xxf9hk)" style="stroke: #A80036; stroke-width: 1.0;"/><path d="M316,269 L316,279 L326,279 L316,269 " fill="#FBFB77" style="stroke: #A80036; stroke-width: 1.0;"/><text fill="#000000" font-family="sans-serif" font-size="13" lengthAdjust="spacingAndGlyphs" textLength="298" x="12" y="286.0669">this-&gt;elements = std::vector&lt;CarElement*&gt;{</text><text fill="#000000" font-family="sans-serif" font-size="13" lengthAdjust="spacingAndGlyphs" textLength="295" x="16" y="301.1997">new Wheel('front left'), new Wheel('front right'),</text><text fill="#000000" font-family="sans-serif" font-size="13" lengthAdjust="spacingAndGlyphs" textLength="295" x="16" y="316.3325">new Wheel('back left'), new Wheel('back right'),</text><text fill="#000000" font-family="sans-serif" font-size="13" lengthAdjust="spacingAndGlyphs" textLength="169" x="16" y="331.4653">new Body(), new Engine()}</text><path d="M1064,301 L1064,332.5 L936,336.5 L1064,340.5 L1064,371.5313 A0,0 0 0 0 1064,371.5313 L1327,371.5313 A0,0 0 0 0 1327,371.5313 L1327,311 L1317,301 L1064,301 A0,0 0 0 0 1064,301 " fill="#FBFB77" filter="url(#f1i4lok8xxf9hk)" style="stroke: #A80036; stroke-width: 1.0;"/><path d="M1317,301 L1317,311 L1327,311 L1317,301 " fill="#FBFB77" style="stroke: #A80036; stroke-width: 1.0;"/><text fill="#000000" font-family="sans-serif" font-size="13" lengthAdjust="spacingAndGlyphs" textLength="242" x="1070" y="318.0669">for (CarElement* element : elements)</text><text fill="#000000" font-family="sans-serif" font-size="13" lengthAdjust="spacingAndGlyphs" textLength="172" x="1074" y="333.1997">{element-&gt;accept(visitor);</text><text fill="#000000" font-family="sans-serif" font-size="13" lengthAdjust="spacingAndGlyphs" textLength="8" x="1078" y="348.3325">}</text><text fill="#000000" font-family="sans-serif" font-size="13" lengthAdjust="spacingAndGlyphs" textLength="116" x="1106" y="363.4653">visitor-&gt;visit(this);</text><!--MD5=[87e41088705b3a6fb91ea0289e817773]
reverse link CarElement to Body--><path d="M646.92,547.52 C667.51,551.96 688.45,556.46 708.22,560.72 " fill="none" id="CarElement&lt;-Body" style="stroke: #A80036; stroke-width: 1.0;"/><polygon fill="none" points="645.4,554.35,627.32,543.3,648.34,540.67,645.4,554.35" style="stroke: #A80036; stroke-width: 1.0;"/><!--MD5=[6d46f46dcb2ee8193fed3dcdeaa18447]
reverse link CarElement to Wheel--><path d="M647.24,487.41 C660.47,484.56 673.83,481.68 686.93,478.86 " fill="none" id="CarElement&lt;-Wheel" style="stroke: #A80036; stroke-width: 1.0;"/><polygon fill="none" points="648.34,494.33,627.32,491.7,645.4,480.65,648.34,494.33" style="stroke: #A80036; stroke-width: 1.0;"/><!--MD5=[53911cb1939e1be5152aa2646f3c5e84]
reverse link CarElement to Engine--><path d="M571.34,562.55 C604.81,585 647.07,611.54 687,631.5 C699.33,637.67 712.66,643.52 725.89,648.88 " fill="none" id="CarElement&lt;-Engine" style="stroke: #A80036; stroke-width: 1.0;"/><polygon fill="none" points="567.3,568.27,554.69,551.24,575.17,556.69,567.3,568.27" style="stroke: #A80036; stroke-width: 1.0;"/><!--MD5=[501aaec6a4457421cc6cb0a7be878ef6]
reverse link CarElement to Car--><path d="M558.03,470.26 C592.73,439.19 640.72,398.81 687,368.5 C696.4,362.35 706.47,356.36 716.67,350.67 " fill="none" id="CarElement&lt;-Car" style="stroke: #A80036; stroke-width: 1.0;"/><polygon fill="none" points="562.59,475.58,543.07,483.82,553.19,465.2,562.59,475.58" style="stroke: #A80036; stroke-width: 1.0;"/><!--MD5=[0812876adf50a1da5d59692be82a1d26]
reverse link CarElementVisitor to CarElementDoVisitor--><path d="M268.28,144.4 C318.02,126.18 377.15,104.52 423.93,87.38 " fill="none" id="CarElementVisitor&lt;-CarElementDoVisitor" style="stroke: #A80036; stroke-width: 1.0;"/><polygon fill="none" points="270.56,151.02,249.37,151.32,265.75,137.87,270.56,151.02" style="stroke: #A80036; stroke-width: 1.0;"/><!--MD5=[ced28e11b606578f65bf94892bb82fb8]
reverse link CarElementVisitor to CarElementPrintVisitor--><path d="M269.46,184.53 C317.71,185.95 374.57,187.63 420.4,188.99 " fill="none" id="CarElementVisitor&lt;-CarElementPrintVisitor" style="stroke: #A80036; stroke-width: 1.0;"/><polygon fill="none" points="269.16,191.52,249.37,183.93,269.57,177.53,269.16,191.52" style="stroke: #A80036; stroke-width: 1.0;"/><!--MD5=[75d6c8174e0cd990b076d2d467e7ca74]
@startuml
skinparam classAttributeIconSize 0

left to right direction

interface "Interface \n CarElement" as CarElement
{
+{abstract} accept(CarElementVisitor *visitor):void
}

interface "Interface \n CarElementVisitor" as CarElementVisitor
{
    +{abstract} visit(Body *body):void
    +{abstract} visit(Car *car):void
    +{abstract} visit(Engine *engine):void
    +{abstract} visit(Wheel *wheel):void
}

CarElement <|- - Body
CarElement <|- - Wheel
CarElement <|- - Engine
CarElement <|- - Car

CarElementVisitor <|- - CarElementDoVisitor
CarElementVisitor <|- - CarElementPrintVisitor

class Wheel
{
private:
    string name;
public:
    + Wheel(string name):void
    + getName():string
    + accept(CarElementVisitor *visitor):void
}

note " visitor->visit(this)" as Wheelaccept

class Body 
{
   + accept(CarElementVisitor *visitor)
}

class Engine 
{
    accept(CarElementVisitor *visitor):void
}

class Car
{
-   vector<CarElement*> elements;
+   Car()
+    accept(CarElementVisitor *visitor):void
}

note "this->elements = std::vector<CarElement*>{\n new Wheel('front left'), new Wheel('front right'),\n new Wheel('back left'), new Wheel('back right'),\n new Body(), new Engine()}" as CarConstruct

note "for (CarElement* element : elements)\n {element->accept(visitor);\n  }\n         visitor->visit(this);" as CarAccept

class CarElementDoVisitor 
{
    + visit(Body *body):void
    + visit(Car *car):void
    + visit(Wheel *wheel):void
    + visit(Engine *engine):void
}

class CarElementPrintVisitor
{
    +visit(Body *body):void 
    + visit(Car *car):void 
    + visit(Engine *engine):void 
    + visit(Wheel *wheel):void 
}

Wheelaccept -up..Wheel::accept

CarConstruct -down..Car::Car
CarAccept -up..Car::accept
@enduml

PlantUML version 1.2020.02(Sun Mar 01 11:22:07 CET 2020)
(GPL source distribution)
Java Runtime: OpenJDK Runtime Environment
JVM: OpenJDK 64-Bit Server VM
Java Version: 11.0.26+4-post-Ubuntu-1ubuntu122.04
Operating System: Linux
Default Encoding: UTF-8
Language: en
Country: US
--></g></svg>