<?xml version="1.0" encoding="UTF-8" standalone="no"?><svg xmlns="http://www.w3.org/2000/svg" xmlns:xlink="http://www.w3.org/1999/xlink" contentScriptType="application/ecmascript" contentStyleType="text/css" height="508px" preserveAspectRatio="none" style="width:791px;height:508px;" version="1.1" viewBox="0 0 791 508" width="791px" zoomAndPan="magnify"><defs><filter height="300%" id="f122g8ecdkksre" width="300%" x="-1" y="-1"><feGaussianBlur result="blurOut" stdDeviation="2.0"/><feColorMatrix in="blurOut" result="blurOut2" type="matrix" values="0 0 0 0 0 0 0 0 0 0 0 0 0 0 0 0 0 0 .4 0"/><feOffset dx="4.0" dy="4.0" in="blurOut2" result="blurOut3"/><feBlend in="SourceGraphic" in2="blurOut3" mode="normal"/></filter></defs><g><!--MD5=[9193a5ff604c0c0750a3dc71df1044e7]
class MediatorInterface--><rect codeLine="3" fill="#FEFECE" filter="url(#f122g8ecdkksre)" height="105.1563" id="MediatorInterface" style="stroke: #A80036; stroke-width: 1.5;" width="417" x="7" y="13.5"/><ellipse cx="156.25" cy="32.4688" fill="#B4A7E5" rx="11" ry="11" style="stroke: #A80036; stroke-width: 1.0;"/><path d="M157.2031,29.25 L158.9219,29.25 C159.3125,29.25 159.5,29.2188 159.625,29.1406 C159.8906,28.9844 160.0313,28.7031 160.0313,28.4063 C160.0313,28.1406 159.9219,27.875 159.6875,27.7031 C159.5156,27.5938 159.375,27.5625 158.9219,27.5625 L153.7813,27.5625 C153.3438,27.5625 153.2188,27.5781 153.0625,27.6719 C152.8125,27.8281 152.6563,28.125 152.6563,28.4063 C152.6563,28.6875 152.7969,28.9375 153.0156,29.1094 C153.1719,29.2188 153.3594,29.25 153.7813,29.25 L155.5,29.25 L155.5,35.7656 L153.7813,35.7656 C153.3438,35.7656 153.2188,35.7813 153.0625,35.8906 C152.8125,36.0469 152.6563,36.3281 152.6563,36.625 C152.6563,36.875 152.7969,37.1406 153.0156,37.2969 C153.1719,37.4219 153.375,37.4688 153.7813,37.4688 L158.9219,37.4688 C159.6719,37.4688 160.0313,37.1875 160.0313,36.625 C160.0313,36.3438 159.9219,36.0938 159.6875,35.9219 C159.5156,35.7969 159.375,35.7656 158.9219,35.7656 L157.2031,35.7656 L157.2031,29.25 Z "/><text fill="#000000" font-family="sans-serif" font-size="12" font-style="italic" lengthAdjust="spacingAndGlyphs" textLength="54" x="202.75" y="29.6387">Interface</text><text fill="#000000" font-family="sans-serif" font-size="12" font-style="italic" lengthAdjust="spacingAndGlyphs" textLength="106" x="180.75" y="43.6074">MediatorInterface</text><line style="stroke: #A80036; stroke-width: 1.5;" x1="8" x2="423" y1="51.4375" y2="51.4375"/><text fill="#000000" font-family="sans-serif" font-size="11" lengthAdjust="spacingAndGlyphs" textLength="235" x="13" y="65.6479">-list&lt;ColleagueInterface*&gt; colleagueList;</text><line style="stroke: #A80036; stroke-width: 1.5;" x1="8" x2="423" y1="72.2422" y2="72.2422"/><text fill="#000000" font-family="sans-serif" font-size="11" lengthAdjust="spacingAndGlyphs" textLength="274" x="13" y="86.4526">+getColleagueList():list&lt;ColleagueInterface*&gt;&amp;</text><text fill="#000000" font-family="sans-serif" font-size="11" font-style="italic" lengthAdjust="spacingAndGlyphs" textLength="405" x="13" y="99.2573">+distributeMessage (const ColleagueInterface*, const std::string&amp;):void</text><text fill="#000000" font-family="sans-serif" font-size="11" font-style="italic" lengthAdjust="spacingAndGlyphs" textLength="319" x="13" y="112.062">+registerColleague (ColleagueInterface* colleague):void</text><!--MD5=[a7354cf04ada4d3d7fa5e68255bb5d04]
class ColleagueInterface--><rect codeLine="11" fill="#FEFECE" filter="url(#f122g8ecdkksre)" height="117.9609" id="ColleagueInterface" style="stroke: #A80036; stroke-width: 1.5;" width="313" x="459" y="7"/><ellipse cx="553.25" cy="25.9688" fill="#B4A7E5" rx="11" ry="11" style="stroke: #A80036; stroke-width: 1.0;"/><path d="M554.2031,22.75 L555.9219,22.75 C556.3125,22.75 556.5,22.7188 556.625,22.6406 C556.8906,22.4844 557.0313,22.2031 557.0313,21.9063 C557.0313,21.6406 556.9219,21.375 556.6875,21.2031 C556.5156,21.0938 556.375,21.0625 555.9219,21.0625 L550.7813,21.0625 C550.3438,21.0625 550.2188,21.0781 550.0625,21.1719 C549.8125,21.3281 549.6563,21.625 549.6563,21.9063 C549.6563,22.1875 549.7969,22.4375 550.0156,22.6094 C550.1719,22.7188 550.3594,22.75 550.7813,22.75 L552.5,22.75 L552.5,29.2656 L550.7813,29.2656 C550.3438,29.2656 550.2188,29.2813 550.0625,29.3906 C549.8125,29.5469 549.6563,29.8281 549.6563,30.125 C549.6563,30.375 549.7969,30.6406 550.0156,30.7969 C550.1719,30.9219 550.375,30.9688 550.7813,30.9688 L555.9219,30.9688 C556.6719,30.9688 557.0313,30.6875 557.0313,30.125 C557.0313,29.8438 556.9219,29.5938 556.6875,29.4219 C556.5156,29.2969 556.375,29.2656 555.9219,29.2656 L554.2031,29.2656 L554.2031,22.75 Z "/><text fill="#000000" font-family="sans-serif" font-size="12" font-style="italic" lengthAdjust="spacingAndGlyphs" textLength="54" x="602.75" y="23.1387">Interface</text><text fill="#000000" font-family="sans-serif" font-size="12" font-style="italic" lengthAdjust="spacingAndGlyphs" textLength="112" x="577.75" y="37.1074">ColleagueInterface</text><line style="stroke: #A80036; stroke-width: 1.5;" x1="460" x2="771" y1="44.9375" y2="44.9375"/><text fill="#000000" font-family="sans-serif" font-size="11" lengthAdjust="spacingAndGlyphs" textLength="75" x="465" y="59.1479">-string name;</text><line style="stroke: #A80036; stroke-width: 1.5;" x1="460" x2="771" y1="65.7422" y2="65.7422"/><text fill="#000000" font-family="sans-serif" font-size="11" lengthAdjust="spacingAndGlyphs" textLength="232" x="465" y="79.9526">+ColleagueInterface (string&amp; newName)</text><text fill="#000000" font-family="sans-serif" font-size="11" lengthAdjust="spacingAndGlyphs" textLength="95" x="465" y="92.7573">getName():string</text><text fill="#000000" font-family="sans-serif" font-size="11" font-style="italic" lengthAdjust="spacingAndGlyphs" textLength="282" x="465" y="105.562">+sendMessage (MediatorInterface&amp;, string&amp;):void</text><text fill="#000000" font-family="sans-serif" font-size="11" font-style="italic" lengthAdjust="spacingAndGlyphs" textLength="301" x="465" y="118.3667">+receiveMessage (ColleagueInterface*, string&amp;):void</text><!--MD5=[dce1c4a99d6d78320dbd9395e5caa416]
class Colleague--><rect codeLine="22" fill="#FEFECE" filter="url(#f122g8ecdkksre)" height="73.6094" id="Colleague" style="stroke: #A80036; stroke-width: 1.5;" width="308" x="449.5" y="246"/><ellipse cx="569.25" cy="262" fill="#ADD1B2" rx="11" ry="11" style="stroke: #A80036; stroke-width: 1.0;"/><path d="M571.5938,257.6719 C570.6563,257.2344 570.0625,257.0938 569.1875,257.0938 C566.5625,257.0938 564.5625,259.1719 564.5625,261.8906 L564.5625,263.0156 C564.5625,265.5938 566.6719,267.4844 569.5625,267.4844 C570.7813,267.4844 571.9375,267.1875 572.6875,266.6406 C573.2656,266.2344 573.5938,265.7813 573.5938,265.3906 C573.5938,264.9375 573.2031,264.5469 572.7344,264.5469 C572.5156,264.5469 572.3125,264.625 572.125,264.8125 C571.6719,265.2969 571.6719,265.2969 571.4844,265.3906 C571.0625,265.6563 570.375,265.7813 569.6094,265.7813 C567.5625,265.7813 566.2656,264.6875 566.2656,262.9844 L566.2656,261.8906 C566.2656,260.1094 567.5156,258.7969 569.25,258.7969 C569.8281,258.7969 570.4375,258.9531 570.9063,259.2031 C571.3906,259.4844 571.5625,259.7031 571.6563,260.1094 C571.7188,260.5156 571.75,260.6406 571.8906,260.7656 C572.0313,260.9063 572.2656,261.0156 572.4844,261.0156 C572.75,261.0156 573.0156,260.875 573.1875,260.6563 C573.2969,260.5 573.3281,260.3125 573.3281,259.8906 L573.3281,258.4688 C573.3281,258.0313 573.3125,257.9063 573.2188,257.75 C573.0625,257.4844 572.7813,257.3438 572.4844,257.3438 C572.1875,257.3438 571.9844,257.4375 571.7656,257.75 L571.5938,257.6719 Z "/><text fill="#000000" font-family="sans-serif" font-size="12" lengthAdjust="spacingAndGlyphs" textLength="60" x="589.75" y="266.1543">Colleague</text><line style="stroke: #A80036; stroke-width: 1.5;" x1="450.5" x2="756.5" y1="278" y2="278"/><line style="stroke: #A80036; stroke-width: 1.5;" x1="450.5" x2="756.5" y1="286" y2="286"/><text fill="#000000" font-family="sans-serif" font-size="11" font-style="italic" lengthAdjust="spacingAndGlyphs" textLength="282" x="455.5" y="300.2104">+sendMessage (MediatorInterface&amp;, string&amp;):void</text><text fill="#000000" font-family="sans-serif" font-size="11" font-style="italic" lengthAdjust="spacingAndGlyphs" textLength="296" x="455.5" y="313.0151">-receiveMessage (ColleagueInterface*, string&amp;):void</text><!--MD5=[7bc5716ff34e8b57d97376709b158217]
class Mediator--><rect codeLine="28" fill="#FEFECE" filter="url(#f122g8ecdkksre)" height="60.8047" id="Mediator" style="stroke: #A80036; stroke-width: 1.5;" width="324" x="66.5" y="252.5"/><ellipse cx="197.75" cy="268.5" fill="#ADD1B2" rx="11" ry="11" style="stroke: #A80036; stroke-width: 1.0;"/><path d="M200.0938,264.1719 C199.1563,263.7344 198.5625,263.5938 197.6875,263.5938 C195.0625,263.5938 193.0625,265.6719 193.0625,268.3906 L193.0625,269.5156 C193.0625,272.0938 195.1719,273.9844 198.0625,273.9844 C199.2813,273.9844 200.4375,273.6875 201.1875,273.1406 C201.7656,272.7344 202.0938,272.2813 202.0938,271.8906 C202.0938,271.4375 201.7031,271.0469 201.2344,271.0469 C201.0156,271.0469 200.8125,271.125 200.625,271.3125 C200.1719,271.7969 200.1719,271.7969 199.9844,271.8906 C199.5625,272.1563 198.875,272.2813 198.1094,272.2813 C196.0625,272.2813 194.7656,271.1875 194.7656,269.4844 L194.7656,268.3906 C194.7656,266.6094 196.0156,265.2969 197.75,265.2969 C198.3281,265.2969 198.9375,265.4531 199.4063,265.7031 C199.8906,265.9844 200.0625,266.2031 200.1563,266.6094 C200.2188,267.0156 200.25,267.1406 200.3906,267.2656 C200.5313,267.4063 200.7656,267.5156 200.9844,267.5156 C201.25,267.5156 201.5156,267.375 201.6875,267.1563 C201.7969,267 201.8281,266.8125 201.8281,266.3906 L201.8281,264.9688 C201.8281,264.5313 201.8125,264.4063 201.7188,264.25 C201.5625,263.9844 201.2813,263.8438 200.9844,263.8438 C200.6875,263.8438 200.4844,263.9375 200.2656,264.25 L200.0938,264.1719 Z "/><text fill="#000000" font-family="sans-serif" font-size="12" lengthAdjust="spacingAndGlyphs" textLength="53" x="218.25" y="272.6543">Mediator</text><line style="stroke: #A80036; stroke-width: 1.5;" x1="67.5" x2="389.5" y1="284.5" y2="284.5"/><line style="stroke: #A80036; stroke-width: 1.5;" x1="67.5" x2="389.5" y1="292.5" y2="292.5"/><text fill="#000000" font-family="sans-serif" font-size="11" font-style="italic" lengthAdjust="spacingAndGlyphs" textLength="312" x="72.5" y="306.7104">+distributeMessage (ColleagueInterface*, string&amp;):void</text><!--MD5=[ed6624c6556d5e7b1bd23032162d20b7]
class Client--><rect codeLine="35" fill="#FEFECE" filter="url(#f122g8ecdkksre)" height="48" id="Client" style="stroke: #A80036; stroke-width: 1.5;" width="65" x="421" y="441"/><ellipse cx="436" cy="457" fill="#ADD1B2" rx="11" ry="11" style="stroke: #A80036; stroke-width: 1.0;"/><path d="M438.3438,452.6719 C437.4063,452.2344 436.8125,452.0938 435.9375,452.0938 C433.3125,452.0938 431.3125,454.1719 431.3125,456.8906 L431.3125,458.0156 C431.3125,460.5938 433.4219,462.4844 436.3125,462.4844 C437.5313,462.4844 438.6875,462.1875 439.4375,461.6406 C440.0156,461.2344 440.3438,460.7813 440.3438,460.3906 C440.3438,459.9375 439.9531,459.5469 439.4844,459.5469 C439.2656,459.5469 439.0625,459.625 438.875,459.8125 C438.4219,460.2969 438.4219,460.2969 438.2344,460.3906 C437.8125,460.6563 437.125,460.7813 436.3594,460.7813 C434.3125,460.7813 433.0156,459.6875 433.0156,457.9844 L433.0156,456.8906 C433.0156,455.1094 434.2656,453.7969 436,453.7969 C436.5781,453.7969 437.1875,453.9531 437.6563,454.2031 C438.1406,454.4844 438.3125,454.7031 438.4063,455.1094 C438.4688,455.5156 438.5,455.6406 438.6406,455.7656 C438.7813,455.9063 439.0156,456.0156 439.2344,456.0156 C439.5,456.0156 439.7656,455.875 439.9375,455.6563 C440.0469,455.5 440.0781,455.3125 440.0781,454.8906 L440.0781,453.4688 C440.0781,453.0313 440.0625,452.9063 439.9688,452.75 C439.8125,452.4844 439.5313,452.3438 439.2344,452.3438 C438.9375,452.3438 438.7344,452.4375 438.5156,452.75 L438.3438,452.6719 Z "/><text fill="#000000" font-family="sans-serif" font-size="12" lengthAdjust="spacingAndGlyphs" textLength="33" x="450" y="461.1543">Client</text><line style="stroke: #A80036; stroke-width: 1.5;" x1="422" x2="485" y1="473" y2="473"/><line style="stroke: #A80036; stroke-width: 1.5;" x1="422" x2="485" y1="481" y2="481"/><!--MD5=[de3305220c37ec4d81e800d429923ec2]
reverse link ColleagueInterface to Colleague--><path codeLine="32" d="M611.128,145.327 C609.212,179.668 607.055,218.305 605.525,245.715 " fill="none" id="ColleagueInterface-backto-Colleague" style="stroke: #A80036; stroke-width: 1.0;"/><polygon fill="none" points="604.149,144.761,612.253,125.182,618.127,145.541,604.149,144.761" style="stroke: #A80036; stroke-width: 1.0;"/><!--MD5=[4817a3422aab551cc49d2a633afdda83]
reverse link MediatorInterface to Mediator--><path codeLine="33" d="M219.841,138.796 C222.177,177.435 224.933,223.015 226.698,252.197 " fill="none" id="MediatorInterface-backto-Mediator" style="stroke: #A80036; stroke-width: 1.0;"/><polygon fill="none" points="212.85,139.158,218.63,118.771,226.825,138.312,212.85,139.158" style="stroke: #A80036; stroke-width: 1.0;"/><!--MD5=[60b8c889ffdf664a9374dd7d67546331]
link Colleague to Client--><path codeLine="37" d="M573.145,320.426 C546.343,352.588 507.581,399.1026 481.508,430.3902 " fill="none" id="Colleague-to-Client" style="stroke: #A80036; stroke-width: 1.0;"/><polygon fill="#A80036" points="472.855,440.7735,479.769,438.7248,480.5371,431.5548,473.6231,433.6034,472.855,440.7735" style="stroke: #A80036; stroke-width: 1.0;"/><!--MD5=[ed1595b2772d1650aa5ef48cb9dd47a1]
link Mediator to Client--><path codeLine="38" d="M265.402,313.522 C306.346,346.277 372.154,398.9233 414.084,432.4668 " fill="none" id="Mediator-to-Client" style="stroke: #A80036; stroke-width: 1.0;"/><polygon fill="#A80036" points="424.458,440.7666,422.2711,433.8951,415.0871,433.2708,417.274,440.1423,424.458,440.7666" style="stroke: #A80036; stroke-width: 1.0;"/><!--MD5=[0ab15d215b7cc3867e8bc1b99a4b5d48]
@startuml
skinparam classAttributeIconSize 0

interface "Interface \n MediatorInterface" as MediatorInterface{
   -list<ColleagueInterface*> colleagueList;
   + getColleagueList():list<ColleagueInterface*>&
   +{abstract}distributeMessage (const ColleagueInterface*, const std::string&):void
   +{abstract}registerColleague (ColleagueInterface* colleague):void 
}


interface "Interface \n ColleagueInterface" as ColleagueInterface{
     -string name;
     +ColleagueInterface (string& newName)
     getName():string
     +{abstract} sendMessage (MediatorInterface&, string&):void
     +{abstract} receiveMessage (ColleagueInterface*, string&):void
}




class Colleague {
   +{abstract} sendMessage (MediatorInterface&, string&):void
   -{abstract} receiveMessage (ColleagueInterface*, string&):void
}


class Mediator{
    +{abstract}distributeMessage (ColleagueInterface*, string&):void 
}

Colleague -up- -|> ColleagueInterface
Mediator  -up- -|> MediatorInterface

class Client

Colleague -up- -* Client
Mediator -up- -* Client
@enduml

PlantUML version 1.2020.17beta5(Unknown compile time)
(GPL source distribution)
Java Runtime: Java(TM) SE Runtime Environment
JVM: Java HotSpot(TM) 64-Bit Server VM
Default Encoding: UTF-8
Language: en
Country: US
--></g></svg>