<?xml version="1.0" encoding="UTF-8" standalone="no"?><svg xmlns="http://www.w3.org/2000/svg" xmlns:xlink="http://www.w3.org/1999/xlink" contentScriptType="application/ecmascript" contentStyleType="text/css" height="738px" preserveAspectRatio="none" style="width:1150px;height:738px;" version="1.1" viewBox="0 0 1150 738" width="1150px" zoomAndPan="magnify"><defs><filter height="300%" id="fmd18g1f0f5ip" width="300%" x="-1" y="-1"><feGaussianBlur result="blurOut" stdDeviation="2.0"/><feColorMatrix in="blurOut" result="blurOut2" type="matrix" values="0 0 0 0 0 0 0 0 0 0 0 0 0 0 0 0 0 0 .4 0"/><feOffset dx="4.0" dy="4.0" in="blurOut2" result="blurOut3"/><feBlend in="SourceGraphic" in2="blurOut3" mode="normal"/></filter></defs><g><!--MD5=[521817ab83e81da341a3f4b5e91bae41]
class Command--><rect codeLine="3" fill="#FEFECE" filter="url(#fmd18g1f0f5ip)" height="66.7422" id="Command" style="stroke: #A80036; stroke-width: 1.5;" width="102" x="633.5" y="244"/><ellipse cx="650.3" cy="262.9688" fill="#B4A7E5" rx="11" ry="11" style="stroke: #A80036; stroke-width: 1.0;"/><path d="M651.2531,259.75 L652.9719,259.75 C653.3625,259.75 653.55,259.7188 653.675,259.6406 C653.9406,259.4844 654.0813,259.2031 654.0813,258.9063 C654.0813,258.6406 653.9719,258.375 653.7375,258.2031 C653.5656,258.0938 653.425,258.0625 652.9719,258.0625 L647.8313,258.0625 C647.3938,258.0625 647.2688,258.0781 647.1125,258.1719 C646.8625,258.3281 646.7063,258.625 646.7063,258.9063 C646.7063,259.1875 646.8469,259.4375 647.0656,259.6094 C647.2219,259.7188 647.4094,259.75 647.8313,259.75 L649.55,259.75 L649.55,266.2656 L647.8313,266.2656 C647.3938,266.2656 647.2688,266.2813 647.1125,266.3906 C646.8625,266.5469 646.7063,266.8281 646.7063,267.125 C646.7063,267.375 646.8469,267.6406 647.0656,267.7969 C647.2219,267.9219 647.425,267.9688 647.8313,267.9688 L652.9719,267.9688 C653.7219,267.9688 654.0813,267.6875 654.0813,267.125 C654.0813,266.8438 653.9719,266.5938 653.7375,266.4219 C653.5656,266.2969 653.425,266.2656 652.9719,266.2656 L651.2531,266.2656 L651.2531,259.75 Z "/><text fill="#000000" font-family="sans-serif" font-size="12" font-style="italic" lengthAdjust="spacingAndGlyphs" textLength="54" x="668.7" y="260.1387">Interface</text><text fill="#000000" font-family="sans-serif" font-size="12" font-style="italic" lengthAdjust="spacingAndGlyphs" textLength="62" x="668.7" y="274.1074">Command</text><line style="stroke: #A80036; stroke-width: 1.5;" x1="634.5" x2="734.5" y1="281.9375" y2="281.9375"/><line style="stroke: #A80036; stroke-width: 1.5;" x1="634.5" x2="734.5" y1="289.9375" y2="289.9375"/><text fill="#000000" font-family="sans-serif" font-size="11" font-style="italic" lengthAdjust="spacingAndGlyphs" textLength="90" x="639.5" y="304.1479">+execute():void</text><path d="M591,490.5 L591,499 L556.109,503 L591,507 L591,515.6328 A0,0 0 0 0 591,515.6328 L706,515.6328 A0,0 0 0 0 706,515.6328 L706,500.5 L696,490.5 L591,490.5 A0,0 0 0 0 591,490.5 " fill="#FBFB77" filter="url(#fmd18g1f0f5ip)" style="stroke: #A80036; stroke-width: 1.0;"/><path d="M696,490.5 L696,500.5 L706,500.5 L696,490.5 " fill="#FBFB77" style="stroke: #A80036; stroke-width: 1.0;"/><text fill="#000000" font-family="sans-serif" font-size="13" lengthAdjust="spacingAndGlyphs" textLength="94" x="597" y="507.5669">Receiver Class</text><!--MD5=[7c1a0278dec21c72584b17e1785fd623]
class Light--><rect codeLine="9" fill="#FEFECE" filter="url(#fmd18g1f0f5ip)" height="73.6094" id="Light" style="stroke: #A80036; stroke-width: 1.5;" width="107" x="449" y="466"/><ellipse cx="485.15" cy="482" fill="#ADD1B2" rx="11" ry="11" style="stroke: #A80036; stroke-width: 1.0;"/><path d="M487.4938,477.6719 C486.5563,477.2344 485.9625,477.0938 485.0875,477.0938 C482.4625,477.0938 480.4625,479.1719 480.4625,481.8906 L480.4625,483.0156 C480.4625,485.5938 482.5719,487.4844 485.4625,487.4844 C486.6813,487.4844 487.8375,487.1875 488.5875,486.6406 C489.1656,486.2344 489.4938,485.7813 489.4938,485.3906 C489.4938,484.9375 489.1031,484.5469 488.6344,484.5469 C488.4156,484.5469 488.2125,484.625 488.025,484.8125 C487.5719,485.2969 487.5719,485.2969 487.3844,485.3906 C486.9625,485.6563 486.275,485.7813 485.5094,485.7813 C483.4625,485.7813 482.1656,484.6875 482.1656,482.9844 L482.1656,481.8906 C482.1656,480.1094 483.4156,478.7969 485.15,478.7969 C485.7281,478.7969 486.3375,478.9531 486.8063,479.2031 C487.2906,479.4844 487.4625,479.7031 487.5563,480.1094 C487.6188,480.5156 487.65,480.6406 487.7906,480.7656 C487.9313,480.9063 488.1656,481.0156 488.3844,481.0156 C488.65,481.0156 488.9156,480.875 489.0875,480.6563 C489.1969,480.5 489.2281,480.3125 489.2281,479.8906 L489.2281,478.4688 C489.2281,478.0313 489.2125,477.9063 489.1188,477.75 C488.9625,477.4844 488.6813,477.3438 488.3844,477.3438 C488.0875,477.3438 487.8844,477.4375 487.6656,477.75 L487.4938,477.6719 Z "/><text fill="#000000" font-family="sans-serif" font-size="12" lengthAdjust="spacingAndGlyphs" textLength="28" x="503.85" y="486.1543">Light</text><line style="stroke: #A80036; stroke-width: 1.5;" x1="450" x2="555" y1="498" y2="498"/><line style="stroke: #A80036; stroke-width: 1.5;" x1="450" x2="555" y1="506" y2="506"/><text fill="#000000" font-family="sans-serif" font-size="11" lengthAdjust="spacingAndGlyphs" textLength="94" x="455" y="520.2104">+actionOn():void</text><text fill="#000000" font-family="sans-serif" font-size="11" lengthAdjust="spacingAndGlyphs" textLength="95" x="455" y="533.0151">+actionOff():void</text><!--MD5=[ed666ecf008a7ca9d91cdeef9efaee9c]
class LightOnCommand--><rect codeLine="18" fill="#FEFECE" filter="url(#fmd18g1f0f5ip)" height="86.4141" id="LightOnCommand" style="stroke: #A80036; stroke-width: 1.5;" width="198" x="749.5" y="460"/><ellipse cx="791.95" cy="476" fill="#ADD1B2" rx="11" ry="11" style="stroke: #A80036; stroke-width: 1.0;"/><path d="M794.2938,471.6719 C793.3563,471.2344 792.7625,471.0938 791.8875,471.0938 C789.2625,471.0938 787.2625,473.1719 787.2625,475.8906 L787.2625,477.0156 C787.2625,479.5938 789.3719,481.4844 792.2625,481.4844 C793.4813,481.4844 794.6375,481.1875 795.3875,480.6406 C795.9656,480.2344 796.2938,479.7813 796.2938,479.3906 C796.2938,478.9375 795.9031,478.5469 795.4344,478.5469 C795.2156,478.5469 795.0125,478.625 794.825,478.8125 C794.3719,479.2969 794.3719,479.2969 794.1844,479.3906 C793.7625,479.6563 793.075,479.7813 792.3094,479.7813 C790.2625,479.7813 788.9656,478.6875 788.9656,476.9844 L788.9656,475.8906 C788.9656,474.1094 790.2156,472.7969 791.95,472.7969 C792.5281,472.7969 793.1375,472.9531 793.6063,473.2031 C794.0906,473.4844 794.2625,473.7031 794.3563,474.1094 C794.4188,474.5156 794.45,474.6406 794.5906,474.7656 C794.7313,474.9063 794.9656,475.0156 795.1844,475.0156 C795.45,475.0156 795.7156,474.875 795.8875,474.6563 C795.9969,474.5 796.0281,474.3125 796.0281,473.8906 L796.0281,472.4688 C796.0281,472.0313 796.0125,471.9063 795.9188,471.75 C795.7625,471.4844 795.4813,471.3438 795.1844,471.3438 C794.8875,471.3438 794.6844,471.4375 794.4656,471.75 L794.2938,471.6719 Z "/><text fill="#000000" font-family="sans-serif" font-size="12" lengthAdjust="spacingAndGlyphs" textLength="105" x="812.05" y="480.1543">LightOnCommand</text><line style="stroke: #A80036; stroke-width: 1.5;" x1="750.5" x2="946.5" y1="492" y2="492"/><text fill="#000000" font-family="sans-serif" font-size="11" lengthAdjust="spacingAndGlyphs" textLength="82" x="755.5" y="506.2104">-mLight:Light *</text><line style="stroke: #A80036; stroke-width: 1.5;" x1="750.5" x2="946.5" y1="512.8047" y2="512.8047"/><text fill="#000000" font-family="sans-serif" font-size="11" lengthAdjust="spacingAndGlyphs" textLength="186" x="755.5" y="527.0151">+LightOnCommand(Light *light) :</text><text fill="#000000" font-family="sans-serif" font-size="11" lengthAdjust="spacingAndGlyphs" textLength="92" x="755.5" y="539.8198">+execute():void</text><path d="M991,490.5 L991,499 L955.656,503 L991,507 L991,515.6328 A0,0 0 0 0 991,515.6328 L1138,515.6328 A0,0 0 0 0 1138,515.6328 L1138,500.5 L1128,490.5 L991,490.5 A0,0 0 0 0 991,490.5 " fill="#FBFB77" filter="url(#fmd18g1f0f5ip)" style="stroke: #A80036; stroke-width: 1.0;"/><path d="M1128,490.5 L1128,500.5 L1138,500.5 L1128,490.5 " fill="#FBFB77" style="stroke: #A80036; stroke-width: 1.0;"/><text fill="#000000" font-family="sans-serif" font-size="13" lengthAdjust="spacingAndGlyphs" textLength="126" x="997" y="507.5669">mLight-&gt;actionOn()</text><path d="M731,682.5 L731,707.6328 A0,0 0 0 0 731,707.6328 L966,707.6328 A0,0 0 0 0 966,707.6328 L966,692.5 L956,682.5 L852.5,682.5 L848.5,550.479 L844.5,682.5 L731,682.5 A0,0 0 0 0 731,682.5 " fill="#FBFB77" filter="url(#fmd18g1f0f5ip)" style="stroke: #A80036; stroke-width: 1.0;"/><path d="M956,682.5 L956,692.5 L966,692.5 L956,682.5 " fill="#FBFB77" style="stroke: #A80036; stroke-width: 1.0;"/><text fill="#000000" font-family="sans-serif" font-size="13" lengthAdjust="spacingAndGlyphs" textLength="214" x="737" y="699.5669">Command for turning on the light</text><!--MD5=[1b8424fc98b69c2914dc6275a363a028]
class LightOffCommand--><rect codeLine="37" fill="#FEFECE" filter="url(#fmd18g1f0f5ip)" height="86.4141" id="LightOffCommand" style="stroke: #A80036; stroke-width: 1.5;" width="199" x="25" y="460"/><ellipse cx="67.45" cy="476" fill="#ADD1B2" rx="11" ry="11" style="stroke: #A80036; stroke-width: 1.0;"/><path d="M69.7938,471.6719 C68.8563,471.2344 68.2625,471.0938 67.3875,471.0938 C64.7625,471.0938 62.7625,473.1719 62.7625,475.8906 L62.7625,477.0156 C62.7625,479.5938 64.8719,481.4844 67.7625,481.4844 C68.9813,481.4844 70.1375,481.1875 70.8875,480.6406 C71.4656,480.2344 71.7938,479.7813 71.7938,479.3906 C71.7938,478.9375 71.4031,478.5469 70.9344,478.5469 C70.7156,478.5469 70.5125,478.625 70.325,478.8125 C69.8719,479.2969 69.8719,479.2969 69.6844,479.3906 C69.2625,479.6563 68.575,479.7813 67.8094,479.7813 C65.7625,479.7813 64.4656,478.6875 64.4656,476.9844 L64.4656,475.8906 C64.4656,474.1094 65.7156,472.7969 67.45,472.7969 C68.0281,472.7969 68.6375,472.9531 69.1063,473.2031 C69.5906,473.4844 69.7625,473.7031 69.8563,474.1094 C69.9188,474.5156 69.95,474.6406 70.0906,474.7656 C70.2313,474.9063 70.4656,475.0156 70.6844,475.0156 C70.95,475.0156 71.2156,474.875 71.3875,474.6563 C71.4969,474.5 71.5281,474.3125 71.5281,473.8906 L71.5281,472.4688 C71.5281,472.0313 71.5125,471.9063 71.4188,471.75 C71.2625,471.4844 70.9813,471.3438 70.6844,471.3438 C70.3875,471.3438 70.1844,471.4375 69.9656,471.75 L69.7938,471.6719 Z "/><text fill="#000000" font-family="sans-serif" font-size="12" lengthAdjust="spacingAndGlyphs" textLength="106" x="87.55" y="480.1543">LightOffCommand</text><line style="stroke: #A80036; stroke-width: 1.5;" x1="26" x2="223" y1="492" y2="492"/><text fill="#000000" font-family="sans-serif" font-size="11" lengthAdjust="spacingAndGlyphs" textLength="82" x="31" y="506.2104">-mLight:Light *</text><line style="stroke: #A80036; stroke-width: 1.5;" x1="26" x2="223" y1="512.8047" y2="512.8047"/><text fill="#000000" font-family="sans-serif" font-size="11" lengthAdjust="spacingAndGlyphs" textLength="187" x="31" y="527.0151">+LightOffCommand(Light *light) :</text><text fill="#000000" font-family="sans-serif" font-size="11" lengthAdjust="spacingAndGlyphs" textLength="92" x="31" y="539.8198">+execute():void</text><path d="M267,490.5 L267,499 L232.078,503 L267,507 L267,515.6328 A0,0 0 0 0 267,515.6328 L414,515.6328 A0,0 0 0 0 414,515.6328 L414,500.5 L404,490.5 L267,490.5 A0,0 0 0 0 267,490.5 " fill="#FBFB77" filter="url(#fmd18g1f0f5ip)" style="stroke: #A80036; stroke-width: 1.0;"/><path d="M404,490.5 L404,500.5 L414,500.5 L404,490.5 " fill="#FBFB77" style="stroke: #A80036; stroke-width: 1.0;"/><text fill="#000000" font-family="sans-serif" font-size="13" lengthAdjust="spacingAndGlyphs" textLength="126" x="273" y="507.5669">mLight-&gt;actionOn()</text><path d="M6,682.5 L6,707.6328 A0,0 0 0 0 6,707.6328 L243,707.6328 A0,0 0 0 0 243,707.6328 L243,692.5 L233,682.5 L128.5,682.5 L124.5,550.479 L120.5,682.5 L6,682.5 A0,0 0 0 0 6,682.5 " fill="#FBFB77" filter="url(#fmd18g1f0f5ip)" style="stroke: #A80036; stroke-width: 1.0;"/><path d="M233,682.5 L233,692.5 L243,692.5 L233,682.5 " fill="#FBFB77" style="stroke: #A80036; stroke-width: 1.0;"/><text fill="#000000" font-family="sans-serif" font-size="13" lengthAdjust="spacingAndGlyphs" textLength="216" x="12" y="699.5669">Command for turning off the light</text><path d="M737.5,371 L737.5,396.1328 A0,0 0 0 0 737.5,396.1328 L1051.5,396.1328 A0,0 0 0 0 1051.5,396.1328 L1051.5,381 L1041.5,371 L893.433,371 L809.127,184.108 L885.433,371 L737.5,371 A0,0 0 0 0 737.5,371 " fill="#FBFB77" filter="url(#fmd18g1f0f5ip)" style="stroke: #A80036; stroke-width: 1.0;"/><path d="M1041.5,371 L1041.5,381 L1051.5,381 L1041.5,371 " fill="#FBFB77" style="stroke: #A80036; stroke-width: 1.0;"/><text fill="#000000" font-family="sans-serif" font-size="13" lengthAdjust="spacingAndGlyphs" textLength="293" x="743.5" y="388.0669">Invoker, Stores the ConcreteCommand object</text><!--MD5=[569f59574bf0e5fd31dacd68e6fd9e20]
class RemoteControl--><rect codeLine="60" fill="#FEFECE" filter="url(#fmd18g1f0f5ip)" height="86.4141" id="RemoteControl" style="stroke: #A80036; stroke-width: 1.5;" width="224" x="677.5" y="95"/><ellipse cx="740.75" cy="111" fill="#ADD1B2" rx="11" ry="11" style="stroke: #A80036; stroke-width: 1.0;"/><path d="M743.0938,106.6719 C742.1563,106.2344 741.5625,106.0938 740.6875,106.0938 C738.0625,106.0938 736.0625,108.1719 736.0625,110.8906 L736.0625,112.0156 C736.0625,114.5938 738.1719,116.4844 741.0625,116.4844 C742.2813,116.4844 743.4375,116.1875 744.1875,115.6406 C744.7656,115.2344 745.0938,114.7813 745.0938,114.3906 C745.0938,113.9375 744.7031,113.5469 744.2344,113.5469 C744.0156,113.5469 743.8125,113.625 743.625,113.8125 C743.1719,114.2969 743.1719,114.2969 742.9844,114.3906 C742.5625,114.6563 741.875,114.7813 741.1094,114.7813 C739.0625,114.7813 737.7656,113.6875 737.7656,111.9844 L737.7656,110.8906 C737.7656,109.1094 739.0156,107.7969 740.75,107.7969 C741.3281,107.7969 741.9375,107.9531 742.4063,108.2031 C742.8906,108.4844 743.0625,108.7031 743.1563,109.1094 C743.2188,109.5156 743.25,109.6406 743.3906,109.7656 C743.5313,109.9063 743.7656,110.0156 743.9844,110.0156 C744.25,110.0156 744.5156,109.875 744.6875,109.6563 C744.7969,109.5 744.8281,109.3125 744.8281,108.8906 L744.8281,107.4688 C744.8281,107.0313 744.8125,106.9063 744.7188,106.75 C744.5625,106.4844 744.2813,106.3438 743.9844,106.3438 C743.6875,106.3438 743.4844,106.4375 743.2656,106.75 L743.0938,106.6719 Z "/><text fill="#000000" font-family="sans-serif" font-size="12" lengthAdjust="spacingAndGlyphs" textLength="89" x="761.25" y="115.1543">RemoteControl</text><line style="stroke: #A80036; stroke-width: 1.5;" x1="678.5" x2="900.5" y1="127" y2="127"/><text fill="#000000" font-family="sans-serif" font-size="11" lengthAdjust="spacingAndGlyphs" textLength="112" x="683.5" y="141.2104">-Command *mCmd;</text><line style="stroke: #A80036; stroke-width: 1.5;" x1="678.5" x2="900.5" y1="147.8047" y2="147.8047"/><text fill="#000000" font-family="sans-serif" font-size="11" lengthAdjust="spacingAndGlyphs" textLength="212" x="683.5" y="162.0151">+setCommand(Command *cmd):void</text><text fill="#000000" font-family="sans-serif" font-size="11" lengthAdjust="spacingAndGlyphs" textLength="125" x="683.5" y="174.8198">+buttonPressed():void</text><path d="M719,6 L719,31.1328 L860,31.1328 L860,16 L850,6 L719,6 " fill="#FBFB77" filter="url(#fmd18g1f0f5ip)" style="stroke: #A80036; stroke-width: 1.0;"/><path d="M850,6 L850,16 L860,16 L850,6 " fill="#FBFB77" style="stroke: #A80036; stroke-width: 1.0;"/><text fill="#000000" font-family="sans-serif" font-size="13" lengthAdjust="spacingAndGlyphs" textLength="120" x="725" y="23.0669">mCmd-&gt;execute()</text><!--MD5=[ed6624c6556d5e7b1bd23032162d20b7]
class Client--><rect codeLine="74" fill="#FEFECE" filter="url(#fmd18g1f0f5ip)" height="48" id="Client" style="stroke: #A80036; stroke-width: 1.5;" width="65" x="470" y="671"/><ellipse cx="485" cy="687" fill="#ADD1B2" rx="11" ry="11" style="stroke: #A80036; stroke-width: 1.0;"/><path d="M487.3438,682.6719 C486.4063,682.2344 485.8125,682.0938 484.9375,682.0938 C482.3125,682.0938 480.3125,684.1719 480.3125,686.8906 L480.3125,688.0156 C480.3125,690.5938 482.4219,692.4844 485.3125,692.4844 C486.5313,692.4844 487.6875,692.1875 488.4375,691.6406 C489.0156,691.2344 489.3438,690.7813 489.3438,690.3906 C489.3438,689.9375 488.9531,689.5469 488.4844,689.5469 C488.2656,689.5469 488.0625,689.625 487.875,689.8125 C487.4219,690.2969 487.4219,690.2969 487.2344,690.3906 C486.8125,690.6563 486.125,690.7813 485.3594,690.7813 C483.3125,690.7813 482.0156,689.6875 482.0156,687.9844 L482.0156,686.8906 C482.0156,685.1094 483.2656,683.7969 485,683.7969 C485.5781,683.7969 486.1875,683.9531 486.6563,684.2031 C487.1406,684.4844 487.3125,684.7031 487.4063,685.1094 C487.4688,685.5156 487.5,685.6406 487.6406,685.7656 C487.7813,685.9063 488.0156,686.0156 488.2344,686.0156 C488.5,686.0156 488.7656,685.875 488.9375,685.6563 C489.0469,685.5 489.0781,685.3125 489.0781,684.8906 L489.0781,683.4688 C489.0781,683.0313 489.0625,682.9063 488.9688,682.75 C488.8125,682.4844 488.5313,682.3438 488.2344,682.3438 C487.9375,682.3438 487.7344,682.4375 487.5156,682.75 L487.3438,682.6719 Z "/><text fill="#000000" font-family="sans-serif" font-size="12" lengthAdjust="spacingAndGlyphs" textLength="33" x="499" y="691.1543">Client</text><line style="stroke: #A80036; stroke-width: 1.5;" x1="471" x2="534" y1="703" y2="703"/><line style="stroke: #A80036; stroke-width: 1.5;" x1="471" x2="534" y1="711" y2="711"/><!--MD5=[86c27f5620ea5f4305a1ed73ed7018d8]
reverse link Command to LightOnCommand--><path codeLine="28" d="M693.667,330.911 C699.105,352.339 707.559,376.597 720.5,396 C735.629,418.683 757.031,439.064 778.012,455.751 " fill="none" id="Command-backto-LightOnCommand" style="stroke: #A80036; stroke-width: 1.0; stroke-dasharray: 7.0,7.0;"/><polygon fill="none" points="686.769,332.142,689.253,311.099,700.434,329.098,686.769,332.142" style="stroke: #A80036; stroke-width: 1.0;"/><!--MD5=[002bb283488b8a3f0888e4c6ec833fe8]
reverse link Command to LightOffCommand--><path codeLine="47" d="M614.62,306.389 C518.58,344.72 344.904,414.035 232.185,459.022 " fill="none" id="Command-backto-LightOffCommand" style="stroke: #A80036; stroke-width: 1.0; stroke-dasharray: 7.0,7.0;"/><polygon fill="none" points="612.149,299.839,633.319,298.927,617.339,312.842,612.149,299.839" style="stroke: #A80036; stroke-width: 1.0;"/><!--MD5=[a974a03cec35b5020eda95d22710626f]
link RemoteControlbuttonPressed to RemoteControl--><path codeLine="70" d="M823.621,31.008 C850.064,41.928 884.904,61.163 901.5,91 C918.676,121.881 937.836,170.5 902.5,170.5 " fill="none" id="RemoteControlbuttonPressed-RemoteControl" style="stroke: #A80036; stroke-width: 1.0; stroke-dasharray: 7.0,7.0;"/><!--MD5=[fa5a97045008ec07198856a95d481fea]
link Light to Client--><path codeLine="76" d="M502.5,540.185 C502.5,578.623 502.5,638.2396 502.5,670.8129 " fill="none" id="Light-Client" style="stroke: #A80036; stroke-width: 1.0;"/><!--MD5=[2f7fb9fe46b028499b79389d55189b20]
link LightOffCommand to Client--><path codeLine="77" d="M216.486,550.236 C298.436,591.428 413.772,649.4012 469.627,677.4766 " fill="none" id="LightOffCommand-Client" style="stroke: #A80036; stroke-width: 1.0;"/><!--MD5=[6d69939a8dec98f1587025b23bbad62d]
link LightOnCommand to Client--><path codeLine="78" d="M764.301,550.236 C690.489,590.769 587.087,647.5503 535.086,676.1062 " fill="none" id="LightOnCommand-Client" style="stroke: #A80036; stroke-width: 1.0;"/><!--MD5=[49e369021d427faeae55d1e3273faa3a]
reverse link RemoteControl to Command--><path codeLine="80" d="M746.666,194.796 C734.028,211.406 720.615,229.035 709.496,243.648 " fill="none" id="RemoteControl-backto-Command" style="stroke: #A80036; stroke-width: 1.0;"/><polygon fill="#A80036" points="754.828,184.069,748.0114,186.4214,747.5611,193.6184,754.3777,191.266,754.828,184.069" style="stroke: #A80036; stroke-width: 1.0;"/><!--MD5=[20fcd93ba830c37c9eb22954f60058a9]
@startuml
skinparam classAttributeIconSize 0

interface "Interface \n Command" as Command
{
+{abstract} execute():void
}
note "Receiver Class" as ReceiverClassNote

class Light
{
    +actionOn():void 
    +actionOff():void
}

ReceiverClassNote -left..Light


class LightOnCommand 
{
    - mLight:Light *
    + LightOnCommand(Light *light) : 
    + execute():void
}

note "mLight->actionOn()" as mLight_actionOn

mLight_actionOn -left.. LightOnCommand::LightOnCommand
LightOnCommand -up..|>  Command

note "Command for turning on the light" as LightOnCommandNote
LightOnCommandNote -up.. LightOnCommand





class LightOffCommand 
{
    - mLight:Light *
    + LightOffCommand(Light *light) : 
    + execute():void
}

note "mLight->actionOn()" as mLight_actionOff

mLight_actionOff -left.. LightOffCommand::LightOffCommand
LightOffCommand -up..|>  Command

note "Command for turning off the light" as LightOffCommandNote
LightOffCommandNote -up.. LightOffCommand







note  "Invoker, Stores the ConcreteCommand object" as RemoteControlNote

class RemoteControl
{
-    Command *mCmd;
+    setCommand(Command *cmd):void 
+    buttonPressed():void 

}

note "mCmd->execute()" as  RemoteControlbuttonPressed   

RemoteControlbuttonPressed .. RemoteControl::buttonPressed
RemoteControlNote -up.. RemoteControl


class Client{}

Client -up- - Light
Client -up- - LightOffCommand
Client -up- - LightOnCommand

RemoteControl *- -Command
@enduml

PlantUML version 1.2020.17beta5(Unknown compile time)
(GPL source distribution)
Java Runtime: Java(TM) SE Runtime Environment
JVM: Java HotSpot(TM) 64-Bit Server VM
Default Encoding: UTF-8
Language: en
Country: US
--></g></svg>