<?xml version="1.0" encoding="UTF-8" standalone="no"?><svg xmlns="http://www.w3.org/2000/svg" xmlns:xlink="http://www.w3.org/1999/xlink" contentScriptType="application/ecmascript" contentStyleType="text/css" height="579px" preserveAspectRatio="none" style="width:533px;height:579px;" version="1.1" viewBox="0 0 533 579" width="533px" zoomAndPan="magnify"><defs><filter height="300%" id="f1kxy34jrd0b1c" width="300%" x="-1" y="-1"><feGaussianBlur result="blurOut" stdDeviation="2.0"/><feColorMatrix in="blurOut" result="blurOut2" type="matrix" values="0 0 0 0 0 0 0 0 0 0 0 0 0 0 0 0 0 0 .4 0"/><feOffset dx="4.0" dy="4.0" in="blurOut2" result="blurOut3"/><feBlend in="SourceGraphic" in2="blurOut3" mode="normal"/></filter></defs><g><!--MD5=[bb72a8bd35529e3b3f31362a110a0a08]
class SensorData--><rect fill="#FEFECE" filter="url(#f1kxy34jrd0b1c)" height="86.4141" id="SensorData" style="stroke: #A80036; stroke-width: 1.5;" width="277" x="245" y="309"/><ellipse cx="342.25" cy="325" fill="#ADD1B2" rx="11" ry="11" style="stroke: #A80036; stroke-width: 1.0;"/><path d="M345.2188,330.6406 Q344.6406,330.9375 344,331.0781 Q343.3594,331.2344 342.6563,331.2344 Q340.1563,331.2344 338.8281,329.5938 Q337.5156,327.9375 337.5156,324.8125 Q337.5156,321.6875 338.8281,320.0313 Q340.1563,318.375 342.6563,318.375 Q343.3594,318.375 344,318.5313 Q344.6563,318.6875 345.2188,318.9844 L345.2188,321.7031 Q344.5938,321.125 344,320.8594 Q343.4063,320.5781 342.7813,320.5781 Q341.4375,320.5781 340.75,321.6563 Q340.0625,322.7188 340.0625,324.8125 Q340.0625,326.9063 340.75,327.9844 Q341.4375,329.0469 342.7813,329.0469 Q343.4063,329.0469 344,328.7813 Q344.5938,328.5 345.2188,327.9219 L345.2188,330.6406 Z "/><text fill="#000000" font-family="sans-serif" font-size="12" lengthAdjust="spacingAndGlyphs" textLength="74" x="362.75" y="329.1543">SensorData</text><line style="stroke: #A80036; stroke-width: 1.5;" x1="246" x2="521" y1="341" y2="341"/><ellipse cx="256" cy="352" fill="none" rx="3" ry="3" style="stroke: #038048; stroke-width: 1.0;"/><text fill="#000000" font-family="sans-serif" font-size="11" lengthAdjust="spacingAndGlyphs" textLength="103" x="265" y="355.2104">double timestamp</text><ellipse cx="256" cy="364.8047" fill="none" rx="3" ry="3" style="stroke: #038048; stroke-width: 1.0;"/><text fill="#000000" font-family="sans-serif" font-size="11" lengthAdjust="spacingAndGlyphs" textLength="75" x="265" y="368.0151">double x, y, z</text><line style="stroke: #A80036; stroke-width: 1.5;" x1="246" x2="521" y1="374.6094" y2="374.6094"/><ellipse cx="256" cy="385.6094" fill="#84BE84" rx="3" ry="3" style="stroke: #038048; stroke-width: 1.0;"/><text fill="#000000" font-family="sans-serif" font-size="11" lengthAdjust="spacingAndGlyphs" textLength="251" x="265" y="388.8198">SensorData(double, double, double, double)</text><!--MD5=[023ecf6702e3ca2ce47ae747eafb20f1]
class Iterator--><rect fill="#FEFECE" filter="url(#f1kxy34jrd0b1c)" height="73.6094" id="Iterator" style="stroke: #A80036; stroke-width: 1.5;" width="135" x="75" y="315"/><ellipse cx="114.75" cy="331" fill="#B4A7E5" rx="11" ry="11" style="stroke: #A80036; stroke-width: 1.0;"/><path d="M110.6719,326.7656 L110.6719,324.6094 L118.0625,324.6094 L118.0625,326.7656 L115.5938,326.7656 L115.5938,334.8438 L118.0625,334.8438 L118.0625,337 L110.6719,337 L110.6719,334.8438 L113.1406,334.8438 L113.1406,326.7656 L110.6719,326.7656 Z "/><text fill="#000000" font-family="sans-serif" font-size="12" font-style="italic" lengthAdjust="spacingAndGlyphs" textLength="48" x="134.25" y="335.1543">Iterator</text><line style="stroke: #A80036; stroke-width: 1.5;" x1="76" x2="209" y1="347" y2="347"/><line style="stroke: #A80036; stroke-width: 1.5;" x1="76" x2="209" y1="355" y2="355"/><ellipse cx="86" cy="366" fill="#84BE84" rx="3" ry="3" style="stroke: #038048; stroke-width: 1.0;"/><text fill="#000000" font-family="sans-serif" font-size="11" lengthAdjust="spacingAndGlyphs" textLength="82" x="95" y="369.2104">bool hasNext()</text><ellipse cx="86" cy="378.8047" fill="#84BE84" rx="3" ry="3" style="stroke: #038048; stroke-width: 1.0;"/><text fill="#000000" font-family="sans-serif" font-size="11" lengthAdjust="spacingAndGlyphs" textLength="109" x="95" y="382.0151">SensorData* next()</text><!--MD5=[9f41cba155ffb3b63c130a89eea6aa16]
class SensorDataIterator--><rect fill="#FEFECE" filter="url(#f1kxy34jrd0b1c)" height="112.0234" id="SensorDataIterator" style="stroke: #A80036; stroke-width: 1.5;" width="273" x="6" y="456"/><ellipse cx="77.75" cy="472" fill="#ADD1B2" rx="11" ry="11" style="stroke: #A80036; stroke-width: 1.0;"/><path d="M80.7188,477.6406 Q80.1406,477.9375 79.5,478.0781 Q78.8594,478.2344 78.1563,478.2344 Q75.6563,478.2344 74.3281,476.5938 Q73.0156,474.9375 73.0156,471.8125 Q73.0156,468.6875 74.3281,467.0313 Q75.6563,465.375 78.1563,465.375 Q78.8594,465.375 79.5,465.5313 Q80.1563,465.6875 80.7188,465.9844 L80.7188,468.7031 Q80.0938,468.125 79.5,467.8594 Q78.9063,467.5781 78.2813,467.5781 Q76.9375,467.5781 76.25,468.6563 Q75.5625,469.7188 75.5625,471.8125 Q75.5625,473.9063 76.25,474.9844 Q76.9375,476.0469 78.2813,476.0469 Q78.9063,476.0469 79.5,475.7813 Q80.0938,475.5 80.7188,474.9219 L80.7188,477.6406 Z "/><text fill="#000000" font-family="sans-serif" font-size="12" lengthAdjust="spacingAndGlyphs" textLength="121" x="98.25" y="476.1543">SensorDataIterator</text><line style="stroke: #A80036; stroke-width: 1.5;" x1="7" x2="278" y1="488" y2="488"/><rect fill="none" height="6" style="stroke: #C82930; stroke-width: 1.0;" width="6" x="14" y="496"/><text fill="#000000" font-family="sans-serif" font-size="11" lengthAdjust="spacingAndGlyphs" textLength="159" x="26" y="502.2104">vector&lt;SensorData&gt;&amp; data</text><rect fill="none" height="6" style="stroke: #C82930; stroke-width: 1.0;" width="6" x="14" y="508.8047"/><text fill="#000000" font-family="sans-serif" font-size="11" lengthAdjust="spacingAndGlyphs" textLength="66" x="26" y="515.0151">size_t index</text><line style="stroke: #A80036; stroke-width: 1.5;" x1="7" x2="278" y1="521.6094" y2="521.6094"/><ellipse cx="17" cy="532.6094" fill="#84BE84" rx="3" ry="3" style="stroke: #038048; stroke-width: 1.0;"/><text fill="#000000" font-family="sans-serif" font-size="11" lengthAdjust="spacingAndGlyphs" textLength="247" x="26" y="535.8198">SensorDataIterator(vector&lt;SensorData&gt;&amp;)</text><ellipse cx="17" cy="545.4141" fill="#84BE84" rx="3" ry="3" style="stroke: #038048; stroke-width: 1.0;"/><text fill="#000000" font-family="sans-serif" font-size="11" lengthAdjust="spacingAndGlyphs" textLength="82" x="26" y="548.6245">bool hasNext()</text><ellipse cx="17" cy="558.2188" fill="#84BE84" rx="3" ry="3" style="stroke: #038048; stroke-width: 1.0;"/><text fill="#000000" font-family="sans-serif" font-size="11" lengthAdjust="spacingAndGlyphs" textLength="109" x="26" y="561.4292">SensorData* next()</text><!--MD5=[dc84e16fde92d927d8a2067d06ae9079]
class SensorDataCollection--><rect fill="#FEFECE" filter="url(#f1kxy34jrd0b1c)" height="86.4141" id="SensorDataCollection" style="stroke: #A80036; stroke-width: 1.5;" width="284" x="209.5" y="146"/><ellipse cx="279.75" cy="162" fill="#ADD1B2" rx="11" ry="11" style="stroke: #A80036; stroke-width: 1.0;"/><path d="M282.7188,167.6406 Q282.1406,167.9375 281.5,168.0781 Q280.8594,168.2344 280.1563,168.2344 Q277.6563,168.2344 276.3281,166.5938 Q275.0156,164.9375 275.0156,161.8125 Q275.0156,158.6875 276.3281,157.0313 Q277.6563,155.375 280.1563,155.375 Q280.8594,155.375 281.5,155.5313 Q282.1563,155.6875 282.7188,155.9844 L282.7188,158.7031 Q282.0938,158.125 281.5,157.8594 Q280.9063,157.5781 280.2813,157.5781 Q278.9375,157.5781 278.25,158.6563 Q277.5625,159.7188 277.5625,161.8125 Q277.5625,163.9063 278.25,164.9844 Q278.9375,166.0469 280.2813,166.0469 Q280.9063,166.0469 281.5,165.7813 Q282.0938,165.5 282.7188,164.9219 L282.7188,167.6406 Z "/><text fill="#000000" font-family="sans-serif" font-size="12" lengthAdjust="spacingAndGlyphs" textLength="135" x="300.25" y="166.1543">SensorDataCollection</text><line style="stroke: #A80036; stroke-width: 1.5;" x1="210.5" x2="492.5" y1="178" y2="178"/><rect fill="none" height="6" style="stroke: #C82930; stroke-width: 1.0;" width="6" x="217.5" y="186"/><text fill="#000000" font-family="sans-serif" font-size="11" lengthAdjust="spacingAndGlyphs" textLength="149" x="229.5" y="192.2104">vector&lt;SensorData&gt; data</text><line style="stroke: #A80036; stroke-width: 1.5;" x1="210.5" x2="492.5" y1="198.8047" y2="198.8047"/><ellipse cx="220.5" cy="209.8047" fill="#84BE84" rx="3" ry="3" style="stroke: #038048; stroke-width: 1.0;"/><text fill="#000000" font-family="sans-serif" font-size="11" lengthAdjust="spacingAndGlyphs" textLength="258" x="229.5" y="213.0151">void addData(double, double, double, double)</text><ellipse cx="220.5" cy="222.6094" fill="#84BE84" rx="3" ry="3" style="stroke: #038048; stroke-width: 1.0;"/><text fill="#000000" font-family="sans-serif" font-size="11" lengthAdjust="spacingAndGlyphs" textLength="138" x="229.5" y="225.8198">Iterator* createIterator()</text><!--MD5=[ed6624c6556d5e7b1bd23032162d20b7]
class Client--><rect fill="#FEFECE" filter="url(#f1kxy34jrd0b1c)" height="60.8047" id="Client" style="stroke: #A80036; stroke-width: 1.5;" width="67" x="175" y="8"/><ellipse cx="190" cy="24" fill="#ADD1B2" rx="11" ry="11" style="stroke: #A80036; stroke-width: 1.0;"/><path d="M192.9688,29.6406 Q192.3906,29.9375 191.75,30.0781 Q191.1094,30.2344 190.4063,30.2344 Q187.9063,30.2344 186.5781,28.5938 Q185.2656,26.9375 185.2656,23.8125 Q185.2656,20.6875 186.5781,19.0313 Q187.9063,17.375 190.4063,17.375 Q191.1094,17.375 191.75,17.5313 Q192.4063,17.6875 192.9688,17.9844 L192.9688,20.7031 Q192.3438,20.125 191.75,19.8594 Q191.1563,19.5781 190.5313,19.5781 Q189.1875,19.5781 188.5,20.6563 Q187.8125,21.7188 187.8125,23.8125 Q187.8125,25.9063 188.5,26.9844 Q189.1875,28.0469 190.5313,28.0469 Q191.1563,28.0469 191.75,27.7813 Q192.3438,27.5 192.9688,26.9219 L192.9688,29.6406 Z "/><text fill="#000000" font-family="sans-serif" font-size="12" lengthAdjust="spacingAndGlyphs" textLength="35" x="204" y="28.1543">Client</text><line style="stroke: #A80036; stroke-width: 1.5;" x1="176" x2="241" y1="40" y2="40"/><line style="stroke: #A80036; stroke-width: 1.5;" x1="176" x2="241" y1="48" y2="48"/><ellipse cx="186" cy="59" fill="#84BE84" rx="3" ry="3" style="stroke: #038048; stroke-width: 1.0;"/><text fill="#000000" font-family="sans-serif" font-size="11" lengthAdjust="spacingAndGlyphs" textLength="36" x="195" y="62.2104">main()</text><!--MD5=[739bef6050c001b25af8220067349bb6]
reverse link Iterator to SensorDataIterator--><path d="M142.5,409.46 C142.5,424.5 142.5,440.73 142.5,455.7 " fill="none" id="Iterator&lt;-SensorDataIterator" style="stroke: #A80036; stroke-width: 1.0; stroke-dasharray: 7.0,7.0;"/><polygon fill="none" points="135.5,409.25,142.5,389.25,149.5,409.25,135.5,409.25" style="stroke: #A80036; stroke-width: 1.0;"/><!--MD5=[f2a799fa7db3d0cac850b7d4a692e776]
link SensorDataCollection to Iterator--><path d="M296.86,232.09 C264.91,256.7 224.85,287.57 193.54,311.68 " fill="none" id="SensorDataCollection-&gt;Iterator" style="stroke: #A80036; stroke-width: 1.0;"/><polygon fill="#A80036" points="189.38,314.89,198.9476,312.5531,193.3367,311.8332,194.0567,306.2223,189.38,314.89" style="stroke: #A80036; stroke-width: 1.0;"/><text fill="#000000" font-family="sans-serif" font-size="13" lengthAdjust="spacingAndGlyphs" textLength="48" x="253.5" y="275.0669">creates</text><!--MD5=[6761d3de750f7f3deca5b4a0664ab3e4]
reverse link SensorDataCollection to SensorData--><path d="M362.48,245.25 C366.63,266.12 371.28,289.51 375.15,308.98 " fill="none" id="SensorDataCollection&lt;-SensorData" style="stroke: #A80036; stroke-width: 1.0;"/><polygon fill="#A80036" points="359.91,232.3,357.1615,238.9668,362.2583,244.068,365.0068,237.4012,359.91,232.3" style="stroke: #A80036; stroke-width: 1.0;"/><!--MD5=[3173be8e8eb8f4750eff185108c0129a]
link Client to SensorDataCollection--><path d="M237.09,69.19 C257.21,90.08 284.51,118.44 307.4,142.21 " fill="none" id="Client-&gt;SensorDataCollection" style="stroke: #A80036; stroke-width: 1.0; stroke-dasharray: 7.0,7.0;"/><polygon fill="#A80036" points="311.04,145.98,307.6912,136.7179,307.5767,142.3736,301.921,142.2591,311.04,145.98" style="stroke: #A80036; stroke-width: 1.0;"/><text fill="#000000" font-family="sans-serif" font-size="13" lengthAdjust="spacingAndGlyphs" textLength="30" x="280.5" y="112.0669">uses</text><!--MD5=[cdf31114c0a9b73670b48f28c83c0040]
link Client to Iterator--><path d="M191.42,69.21 C180.32,90.01 166.64,118.84 159.5,146 C144.96,201.32 141.96,267.65 141.75,309.57 " fill="none" id="Client-&gt;Iterator" style="stroke: #A80036; stroke-width: 1.0; stroke-dasharray: 7.0,7.0;"/><polygon fill="#A80036" points="141.74,314.81,145.7657,305.8215,141.7543,309.81,137.7657,305.7986,141.74,314.81" style="stroke: #A80036; stroke-width: 1.0;"/><text fill="#000000" font-family="sans-serif" font-size="13" lengthAdjust="spacingAndGlyphs" textLength="30" x="160.5" y="193.5669">uses</text><!--MD5=[dd306c93ffecef36a3dc257d01bd9f21]
@startuml
class SensorData {
  +double timestamp
  +double x, y, z
  +SensorData(double, double, double, double)
}

interface Iterator {
  +bool hasNext()
  +SensorData* next()
}

class SensorDataIterator {
  -vector<SensorData>& data
  -size_t index
  +SensorDataIterator(vector<SensorData>&)
  +bool hasNext()
  +SensorData* next()
}

class SensorDataCollection {
  -vector<SensorData> data
  +void addData(double, double, double, double)
  +Iterator* createIterator()
}

class Client {
  +main()
}

Iterator <|.. SensorDataIterator
SensorDataCollection - -> Iterator : "creates"
SensorDataCollection *- - SensorData
Client ..> SensorDataCollection : "uses"
Client ..> Iterator : "uses"
@enduml

PlantUML version 1.2020.02(Sun Mar 01 11:22:07 CET 2020)
(GPL source distribution)
Java Runtime: OpenJDK Runtime Environment
JVM: OpenJDK 64-Bit Server VM
Java Version: 11.0.26+4-post-Ubuntu-1ubuntu122.04
Operating System: Linux
Default Encoding: UTF-8
Language: en
Country: US
--></g></svg>