<?xml version="1.0" encoding="UTF-8" standalone="no"?><svg xmlns="http://www.w3.org/2000/svg" xmlns:xlink="http://www.w3.org/1999/xlink" contentScriptType="application/ecmascript" contentStyleType="text/css" height="239px" preserveAspectRatio="none" style="width:378px;height:239px;" version="1.1" viewBox="0 0 378 239" width="378px" zoomAndPan="magnify"><defs><filter height="300%" id="fgszapu9qjh90" width="300%" x="-1" y="-1"><feGaussianBlur result="blurOut" stdDeviation="2.0"/><feColorMatrix in="blurOut" result="blurOut2" type="matrix" values="0 0 0 0 0 0 0 0 0 0 0 0 0 0 0 0 0 0 .4 0"/><feOffset dx="4.0" dy="4.0" in="blurOut2" result="blurOut3"/><feBlend in="SourceGraphic" in2="blurOut3" mode="normal"/></filter></defs><g><!--MD5=[3637e2e3ff64f8c7ec072f5df5e3a1dc]
class Expression--><rect fill="#FEFECE" filter="url(#fgszapu9qjh90)" height="60.8047" id="Expression" style="stroke: #A80036; stroke-width: 1.5;" width="101" x="105" y="8"/><ellipse cx="120.9" cy="24" fill="#B4A7E5" rx="11" ry="11" style="stroke: #A80036; stroke-width: 1.0;"/><path d="M116.8219,19.7656 L116.8219,17.6094 L124.2125,17.6094 L124.2125,19.7656 L121.7438,19.7656 L121.7438,27.8438 L124.2125,27.8438 L124.2125,30 L116.8219,30 L116.8219,27.8438 L119.2906,27.8438 L119.2906,19.7656 L116.8219,19.7656 Z "/><text fill="#000000" font-family="sans-serif" font-size="12" font-style="italic" lengthAdjust="spacingAndGlyphs" textLength="67" x="135.1" y="28.1543">Expression</text><line style="stroke: #A80036; stroke-width: 1.5;" x1="106" x2="205" y1="40" y2="40"/><line style="stroke: #A80036; stroke-width: 1.5;" x1="106" x2="205" y1="48" y2="48"/><ellipse cx="116" cy="59" fill="#84BE84" rx="3" ry="3" style="stroke: #038048; stroke-width: 1.0;"/><text fill="#000000" font-family="sans-serif" font-size="11" lengthAdjust="spacingAndGlyphs" textLength="75" x="125" y="62.2104">int interpret()</text><!--MD5=[435987a092acd998883c72f97c5c9408]
class Number--><rect fill="#FEFECE" filter="url(#fgszapu9qjh90)" height="86.4141" id="Number" style="stroke: #A80036; stroke-width: 1.5;" width="101" x="6" y="135.5"/><ellipse cx="30" cy="151.5" fill="#ADD1B2" rx="11" ry="11" style="stroke: #A80036; stroke-width: 1.0;"/><path d="M32.9688,157.1406 Q32.3906,157.4375 31.75,157.5781 Q31.1094,157.7344 30.4063,157.7344 Q27.9063,157.7344 26.5781,156.0938 Q25.2656,154.4375 25.2656,151.3125 Q25.2656,148.1875 26.5781,146.5313 Q27.9063,144.875 30.4063,144.875 Q31.1094,144.875 31.75,145.0313 Q32.4063,145.1875 32.9688,145.4844 L32.9688,148.2031 Q32.3438,147.625 31.75,147.3594 Q31.1563,147.0781 30.5313,147.0781 Q29.1875,147.0781 28.5,148.1563 Q27.8125,149.2188 27.8125,151.3125 Q27.8125,153.4063 28.5,154.4844 Q29.1875,155.5469 30.5313,155.5469 Q31.1563,155.5469 31.75,155.2813 Q32.3438,155 32.9688,154.4219 L32.9688,157.1406 Z "/><text fill="#000000" font-family="sans-serif" font-size="12" lengthAdjust="spacingAndGlyphs" textLength="49" x="46" y="155.6543">Number</text><line style="stroke: #A80036; stroke-width: 1.5;" x1="7" x2="106" y1="167.5" y2="167.5"/><rect fill="none" height="6" style="stroke: #C82930; stroke-width: 1.0;" width="6" x="14" y="175.5"/><text fill="#000000" font-family="sans-serif" font-size="11" lengthAdjust="spacingAndGlyphs" textLength="48" x="26" y="181.7104">int value</text><line style="stroke: #A80036; stroke-width: 1.5;" x1="7" x2="106" y1="188.3047" y2="188.3047"/><ellipse cx="17" cy="199.3047" fill="#84BE84" rx="3" ry="3" style="stroke: #038048; stroke-width: 1.0;"/><text fill="#000000" font-family="sans-serif" font-size="11" lengthAdjust="spacingAndGlyphs" textLength="67" x="26" y="202.5151">Number(int)</text><ellipse cx="17" cy="212.1094" fill="#84BE84" rx="3" ry="3" style="stroke: #038048; stroke-width: 1.0;"/><text fill="#000000" font-family="sans-serif" font-size="11" lengthAdjust="spacingAndGlyphs" textLength="75" x="26" y="215.3198">int interpret()</text><!--MD5=[4e916b5516e51ac6308a192ab863475a]
class Addition--><rect fill="#FEFECE" filter="url(#fgszapu9qjh90)" height="99.2188" id="Addition" style="stroke: #A80036; stroke-width: 1.5;" width="225" x="142" y="129"/><ellipse cx="224.75" cy="145" fill="#ADD1B2" rx="11" ry="11" style="stroke: #A80036; stroke-width: 1.0;"/><path d="M227.7188,150.6406 Q227.1406,150.9375 226.5,151.0781 Q225.8594,151.2344 225.1563,151.2344 Q222.6563,151.2344 221.3281,149.5938 Q220.0156,147.9375 220.0156,144.8125 Q220.0156,141.6875 221.3281,140.0313 Q222.6563,138.375 225.1563,138.375 Q225.8594,138.375 226.5,138.5313 Q227.1563,138.6875 227.7188,138.9844 L227.7188,141.7031 Q227.0938,141.125 226.5,140.8594 Q225.9063,140.5781 225.2813,140.5781 Q223.9375,140.5781 223.25,141.6563 Q222.5625,142.7188 222.5625,144.8125 Q222.5625,146.9063 223.25,147.9844 Q223.9375,149.0469 225.2813,149.0469 Q225.9063,149.0469 226.5,148.7813 Q227.0938,148.5 227.7188,147.9219 L227.7188,150.6406 Z "/><text fill="#000000" font-family="sans-serif" font-size="12" lengthAdjust="spacingAndGlyphs" textLength="51" x="245.25" y="149.1543">Addition</text><line style="stroke: #A80036; stroke-width: 1.5;" x1="143" x2="366" y1="161" y2="161"/><rect fill="none" height="6" style="stroke: #C82930; stroke-width: 1.0;" width="6" x="150" y="169"/><text fill="#000000" font-family="sans-serif" font-size="11" lengthAdjust="spacingAndGlyphs" textLength="91" x="162" y="175.2104">Expression* left</text><rect fill="none" height="6" style="stroke: #C82930; stroke-width: 1.0;" width="6" x="150" y="181.8047"/><text fill="#000000" font-family="sans-serif" font-size="11" lengthAdjust="spacingAndGlyphs" textLength="99" x="162" y="188.0151">Expression* right</text><line style="stroke: #A80036; stroke-width: 1.5;" x1="143" x2="366" y1="194.6094" y2="194.6094"/><ellipse cx="153" cy="205.6094" fill="#84BE84" rx="3" ry="3" style="stroke: #038048; stroke-width: 1.0;"/><text fill="#000000" font-family="sans-serif" font-size="11" lengthAdjust="spacingAndGlyphs" textLength="199" x="162" y="208.8198">Addition(Expression*, Expression*)</text><ellipse cx="153" cy="218.4141" fill="#84BE84" rx="3" ry="3" style="stroke: #038048; stroke-width: 1.0;"/><text fill="#000000" font-family="sans-serif" font-size="11" lengthAdjust="spacingAndGlyphs" textLength="75" x="162" y="221.6245">int interpret()</text><!--MD5=[ffe6774f329a765f8cc5077f795d481a]
reverse link Expression to Number--><path d="M110.9,84.85 C98.24,101.13 85.21,119.39 74.87,135.38 " fill="none" id="Expression&lt;-Number" style="stroke: #A80036; stroke-width: 1.0; stroke-dasharray: 7.0,7.0;"/><polygon fill="none" points="105.58,80.3,123.58,69.1,116.49,89.07,105.58,80.3" style="stroke: #A80036; stroke-width: 1.0;"/><!--MD5=[ffe6774f329a765f8cc5077f795d481a]
reverse link Expression to Number--><path d="M134.89,86.14 C124.41,102.08 111.59,119.81 99.26,135.38 " fill="none" id="Expression&lt;-Number-1" style="stroke: #A80036; stroke-width: 1.0; stroke-dasharray: 7.0,7.0;"/><polygon fill="none" points="129.02,82.33,145.58,69.1,140.88,89.77,129.02,82.33" style="stroke: #A80036; stroke-width: 1.0;"/><!--MD5=[345e47141b068175f89006910964ebf2]
reverse link Expression to Addition--><path d="M176.88,86.22 C185.97,99.98 196.76,115.07 207.43,128.95 " fill="none" id="Expression&lt;-Addition" style="stroke: #A80036; stroke-width: 1.0; stroke-dasharray: 7.0,7.0;"/><polygon fill="none" points="170.83,89.75,166.05,69.1,182.66,82.27,170.83,89.75" style="stroke: #A80036; stroke-width: 1.0;"/><!--MD5=[345e47141b068175f89006910964ebf2]
reverse link Expression to Addition--><path d="M200.79,84.83 C211.84,98.97 223.12,114.6 232.63,128.95 " fill="none" id="Expression&lt;-Addition-1" style="stroke: #A80036; stroke-width: 1.0; stroke-dasharray: 7.0,7.0;"/><polygon fill="none" points="195.2,89.05,188.05,69.1,206.08,80.24,195.2,89.05" style="stroke: #A80036; stroke-width: 1.0;"/><!--MD5=[0f145665b4e12530011f1ce3e27967cd]
@startuml
interface Expression {
    +int interpret()
}

class Number implements Expression {
    -int value
    +Number(int)
    +int interpret()
}

class Addition implements Expression {
    -Expression* left
    -Expression* right
    +Addition(Expression*, Expression*)
    +int interpret()
}

Expression <|.. Number
Expression <|.. Addition
@enduml

PlantUML version 1.2020.02(Sun Mar 01 11:22:07 CET 2020)
(GPL source distribution)
Java Runtime: OpenJDK Runtime Environment
JVM: OpenJDK 64-Bit Server VM
Java Version: 11.0.26+4-post-Ubuntu-1ubuntu122.04
Operating System: Linux
Default Encoding: UTF-8
Language: en
Country: US
--></g></svg>