<?xml version="1.0" encoding="UTF-8" standalone="no"?><svg xmlns="http://www.w3.org/2000/svg" xmlns:xlink="http://www.w3.org/1999/xlink" contentScriptType="application/ecmascript" contentStyleType="text/css" height="408px" preserveAspectRatio="none" style="width:667px;height:408px;" version="1.1" viewBox="0 0 667 408" width="667px" zoomAndPan="magnify"><defs><filter height="300%" id="f4uswjop4d570" width="300%" x="-1" y="-1"><feGaussianBlur result="blurOut" stdDeviation="2.0"/><feColorMatrix in="blurOut" result="blurOut2" type="matrix" values="0 0 0 0 0 0 0 0 0 0 0 0 0 0 0 0 0 0 .4 0"/><feOffset dx="4.0" dy="4.0" in="blurOut2" result="blurOut3"/><feBlend in="SourceGraphic" in2="blurOut3" mode="normal"/></filter></defs><g><!--MD5=[1fd6873bee530ac33de26c8d1f865d91]
class OrderProcessTemplate--><rect codeLine="4" fill="#FEFECE" filter="url(#f4uswjop4d570)" height="130.7656" id="OrderProcessTemplate" style="stroke: #A80036; stroke-width: 1.5;" width="180" x="68.1693" y="7"/><ellipse cx="87.2193" cy="25.9688" fill="#B4A7E5" rx="11" ry="11" style="stroke: #A80036; stroke-width: 1.0;"/><path d="M88.1724,22.75 L89.8911,22.75 C90.2818,22.75 90.4693,22.7188 90.5943,22.6406 C90.8599,22.4844 91.0005,22.2031 91.0005,21.9063 C91.0005,21.6406 90.8911,21.375 90.6568,21.2031 C90.4849,21.0938 90.3443,21.0625 89.8911,21.0625 L84.7505,21.0625 C84.313,21.0625 84.188,21.0781 84.0318,21.1719 C83.7818,21.3281 83.6255,21.625 83.6255,21.9063 C83.6255,22.1875 83.7661,22.4375 83.9849,22.6094 C84.1411,22.7188 84.3286,22.75 84.7505,22.75 L86.4693,22.75 L86.4693,29.2656 L84.7505,29.2656 C84.313,29.2656 84.188,29.2813 84.0318,29.3906 C83.7818,29.5469 83.6255,29.8281 83.6255,30.125 C83.6255,30.375 83.7661,30.6406 83.9849,30.7969 C84.1411,30.9219 84.3443,30.9688 84.7505,30.9688 L89.8911,30.9688 C90.6411,30.9688 91.0005,30.6875 91.0005,30.125 C91.0005,29.8438 90.8911,29.5938 90.6568,29.4219 C90.4849,29.2969 90.3443,29.2656 89.8911,29.2656 L88.1724,29.2656 L88.1724,22.75 Z "/><text fill="#000000" font-family="sans-serif" font-size="12" font-style="italic" lengthAdjust="spacingAndGlyphs" textLength="54" x="142.6193" y="23.1387">Interface</text><text fill="#000000" font-family="sans-serif" font-size="12" font-style="italic" lengthAdjust="spacingAndGlyphs" textLength="135" x="106.1193" y="37.1074">OrderProcessTemplate</text><line style="stroke: #A80036; stroke-width: 1.5;" x1="69.1693" x2="247.1693" y1="44.9375" y2="44.9375"/><text fill="#000000" font-family="sans-serif" font-size="11" lengthAdjust="spacingAndGlyphs" textLength="60" x="74.1693" y="59.1479">bool isGift;</text><line style="stroke: #A80036; stroke-width: 1.5;" x1="69.1693" x2="247.1693" y1="65.7422" y2="65.7422"/><text fill="#000000" font-family="sans-serif" font-size="11" font-style="italic" lengthAdjust="spacingAndGlyphs" textLength="93" x="74.1693" y="79.9526">+doSelect():void</text><text fill="#000000" font-family="sans-serif" font-size="11" font-style="italic" lengthAdjust="spacingAndGlyphs" textLength="109" x="74.1693" y="92.7573">+doPayment():void</text><text fill="#000000" font-family="sans-serif" font-size="11" font-style="italic" lengthAdjust="spacingAndGlyphs" textLength="106" x="74.1693" y="105.562">+doDelivery():void</text><text fill="#000000" font-family="sans-serif" font-size="11" lengthAdjust="spacingAndGlyphs" textLength="82" x="74.1693" y="118.3667">giftWrap():void</text><text fill="#000000" font-family="sans-serif" font-size="11" lengthAdjust="spacingAndGlyphs" textLength="168" x="74.1693" y="131.1714">processOrder(bool isGift):void</text><path d="M291.6693,21.5 L291.6693,68 L256.2163,72 L291.6693,76 L291.6693,122.2969 A0,0 0 0 0 291.6693,122.2969 L424.6693,122.2969 A0,0 0 0 0 424.6693,122.2969 L424.6693,31.5 L414.6693,21.5 L291.6693,21.5 A0,0 0 0 0 291.6693,21.5 " fill="#FBFB77" filter="url(#f4uswjop4d570)" style="stroke: #A80036; stroke-width: 1.0;"/><path d="M414.6693,21.5 L414.6693,31.5 L424.6693,31.5 L414.6693,21.5 " fill="#FBFB77" style="stroke: #A80036; stroke-width: 1.0;"/><text fill="#000000" font-family="sans-serif" font-size="13" lengthAdjust="spacingAndGlyphs" textLength="70" x="301.6693" y="38.5669">doSelect();</text><text fill="#000000" font-family="sans-serif" font-size="13" lengthAdjust="spacingAndGlyphs" textLength="89" x="301.6693" y="53.6997">doPayment();</text><text fill="#000000" font-family="sans-serif" font-size="13" lengthAdjust="spacingAndGlyphs" textLength="68" x="301.6693" y="68.8325">if (isGift) {</text><text fill="#000000" font-family="sans-serif" font-size="13" lengthAdjust="spacingAndGlyphs" textLength="70" x="301.6693" y="83.9653">giftWrap();</text><text fill="#000000" font-family="sans-serif" font-size="13" lengthAdjust="spacingAndGlyphs" textLength="9" x="301.6693" y="99.0981">}</text><text fill="#000000" font-family="sans-serif" font-size="13" lengthAdjust="spacingAndGlyphs" textLength="84" x="325.6693" y="114.231">doDelivery();</text><!--MD5=[1f80733827062a272ca7de1eaa1978c7]
class NetOrder--><rect codeLine="18" fill="#FEFECE" filter="url(#f4uswjop4d570)" height="99.2188" id="NetOrder" style="stroke: #A80036; stroke-width: 1.5;" width="114" x="13.1693" y="290"/><ellipse cx="39.8693" cy="306" fill="#ADD1B2" rx="11" ry="11" style="stroke: #A80036; stroke-width: 1.0;"/><path d="M42.213,301.6719 C41.2755,301.2344 40.6818,301.0938 39.8068,301.0938 C37.1818,301.0938 35.1818,303.1719 35.1818,305.8906 L35.1818,307.0156 C35.1818,309.5938 37.2911,311.4844 40.1818,311.4844 C41.4005,311.4844 42.5568,311.1875 43.3068,310.6406 C43.8849,310.2344 44.213,309.7813 44.213,309.3906 C44.213,308.9375 43.8224,308.5469 43.3536,308.5469 C43.1349,308.5469 42.9318,308.625 42.7443,308.8125 C42.2911,309.2969 42.2911,309.2969 42.1036,309.3906 C41.6818,309.6563 40.9943,309.7813 40.2286,309.7813 C38.1818,309.7813 36.8849,308.6875 36.8849,306.9844 L36.8849,305.8906 C36.8849,304.1094 38.1349,302.7969 39.8693,302.7969 C40.4474,302.7969 41.0568,302.9531 41.5255,303.2031 C42.0099,303.4844 42.1818,303.7031 42.2755,304.1094 C42.338,304.5156 42.3693,304.6406 42.5099,304.7656 C42.6505,304.9063 42.8849,305.0156 43.1036,305.0156 C43.3693,305.0156 43.6349,304.875 43.8068,304.6563 C43.9161,304.5 43.9474,304.3125 43.9474,303.8906 L43.9474,302.4688 C43.9474,302.0313 43.9318,301.9063 43.838,301.75 C43.6818,301.4844 43.4005,301.3438 43.1036,301.3438 C42.8068,301.3438 42.6036,301.4375 42.3849,301.75 L42.213,301.6719 Z "/><text fill="#000000" font-family="sans-serif" font-size="12" lengthAdjust="spacingAndGlyphs" textLength="56" x="56.4693" y="310.1543">NetOrder</text><line style="stroke: #A80036; stroke-width: 1.5;" x1="14.1693" x2="126.1693" y1="322" y2="322"/><text fill="#000000" font-family="sans-serif" font-size="11" lengthAdjust="spacingAndGlyphs" textLength="36" x="19.1693" y="336.2104">public:</text><line style="stroke: #A80036; stroke-width: 1.5;" x1="14.1693" x2="126.1693" y1="342.8047" y2="342.8047"/><text fill="#000000" font-family="sans-serif" font-size="11" lengthAdjust="spacingAndGlyphs" textLength="86" x="19.1693" y="357.0151">doSelect():void</text><text fill="#000000" font-family="sans-serif" font-size="11" lengthAdjust="spacingAndGlyphs" textLength="99" x="19.1693" y="369.8198">doPayment():void</text><text fill="#000000" font-family="sans-serif" font-size="11" lengthAdjust="spacingAndGlyphs" textLength="102" x="19.1693" y="382.6245">doDelivery() :void</text><!--MD5=[449036a064604f5c17f998a1b2c0f313]
class StoreOrder--><rect codeLine="26" fill="#FEFECE" filter="url(#f4uswjop4d570)" height="86.4141" id="StoreOrder" style="stroke: #A80036; stroke-width: 1.5;" width="111" x="370.6693" y="296"/><ellipse cx="390.1693" cy="312" fill="#ADD1B2" rx="11" ry="11" style="stroke: #A80036; stroke-width: 1.0;"/><path d="M392.513,307.6719 C391.5755,307.2344 390.9818,307.0938 390.1068,307.0938 C387.4818,307.0938 385.4818,309.1719 385.4818,311.8906 L385.4818,313.0156 C385.4818,315.5938 387.5911,317.4844 390.4818,317.4844 C391.7005,317.4844 392.8568,317.1875 393.6068,316.6406 C394.1849,316.2344 394.513,315.7813 394.513,315.3906 C394.513,314.9375 394.1224,314.5469 393.6536,314.5469 C393.4349,314.5469 393.2318,314.625 393.0443,314.8125 C392.5911,315.2969 392.5911,315.2969 392.4036,315.3906 C391.9818,315.6563 391.2943,315.7813 390.5286,315.7813 C388.4818,315.7813 387.1849,314.6875 387.1849,312.9844 L387.1849,311.8906 C387.1849,310.1094 388.4349,308.7969 390.1693,308.7969 C390.7474,308.7969 391.3568,308.9531 391.8255,309.2031 C392.3099,309.4844 392.4818,309.7031 392.5755,310.1094 C392.638,310.5156 392.6693,310.6406 392.8099,310.7656 C392.9505,310.9063 393.1849,311.0156 393.4036,311.0156 C393.6693,311.0156 393.9349,310.875 394.1068,310.6563 C394.2161,310.5 394.2474,310.3125 394.2474,309.8906 L394.2474,308.4688 C394.2474,308.0313 394.2318,307.9063 394.138,307.75 C393.9818,307.4844 393.7005,307.3438 393.4036,307.3438 C393.1068,307.3438 392.9036,307.4375 392.6849,307.75 L392.513,307.6719 Z "/><text fill="#000000" font-family="sans-serif" font-size="12" lengthAdjust="spacingAndGlyphs" textLength="69" x="405.1693" y="316.1543">StoreOrder</text><line style="stroke: #A80036; stroke-width: 1.5;" x1="371.6693" x2="480.6693" y1="328" y2="328"/><line style="stroke: #A80036; stroke-width: 1.5;" x1="371.6693" x2="480.6693" y1="336" y2="336"/><text fill="#000000" font-family="sans-serif" font-size="11" lengthAdjust="spacingAndGlyphs" textLength="86" x="376.6693" y="350.2104">doSelect():void</text><text fill="#000000" font-family="sans-serif" font-size="11" lengthAdjust="spacingAndGlyphs" textLength="99" x="376.6693" y="363.0151">doPayment():void</text><text fill="#000000" font-family="sans-serif" font-size="11" lengthAdjust="spacingAndGlyphs" textLength="98" x="376.6693" y="375.8198">doDelivery():void</text><path d="M386.6693,201 L386.6693,226.1328 A0,0 0 0 0 386.6693,226.1328 L518.8373,226.1328 L483.1693,346.5 L526.8373,226.1328 L655.6693,226.1328 A0,0 0 0 0 655.6693,226.1328 L655.6693,211 L645.6693,201 L386.6693,201 A0,0 0 0 0 386.6693,201 " fill="#FBFB77" filter="url(#f4uswjop4d570)" style="stroke: #A80036; stroke-width: 1.0;"/><path d="M645.6693,201 L645.6693,211 L655.6693,211 L645.6693,201 " fill="#FBFB77" style="stroke: #A80036; stroke-width: 1.0;"/><text fill="#000000" font-family="sans-serif" font-size="13" lengthAdjust="spacingAndGlyphs" textLength="248" x="392.6693" y="218.0669">Customer chooses the item from shelf</text><path d="M36.1693,201 L36.1693,226.1328 A0,0 0 0 0 36.1693,226.1328 L156.5983,226.1328 L128.1693,352.5 L164.5983,226.1328 L280.1693,226.1328 A0,0 0 0 0 280.1693,226.1328 L280.1693,211 L270.1693,201 L36.1693,201 A0,0 0 0 0 36.1693,201 " fill="#FBFB77" filter="url(#f4uswjop4d570)" style="stroke: #A80036; stroke-width: 1.0;"/><path d="M270.1693,201 L270.1693,211 L280.1693,211 L270.1693,201 " fill="#FBFB77" style="stroke: #A80036; stroke-width: 1.0;"/><text fill="#000000" font-family="sans-serif" font-size="13" lengthAdjust="spacingAndGlyphs" textLength="223" x="42.1693" y="218.0669">Item added to online shopping cart</text><!--MD5=[8cc1e60a5b061706db918cb553122d69]
reverse link OrderProcessTemplate to NetOrder--><path codeLine="44" d="M47.4694,156.098 C35.626,169.754 25.3096,184.797 18.1693,201 C6,228.615 16.3805,260.052 30.9761,285.79 " fill="none" id="OrderProcessTemplate-backto-NetOrder" style="stroke: #A80036; stroke-width: 1.0; stroke-dasharray: 7.0,7.0;"/><polygon fill="none" points="42.6013,151.057,61.4019,141.282,52.8002,160.647,42.6013,151.057" style="stroke: #A80036; stroke-width: 1.0;"/><!--MD5=[88b93d0c52693563744de83262e1a012]
reverse link OrderProcessTemplate to StoreOrder--><path codeLine="45" d="M248.8693,154.835 C265.1373,169.989 281.7973,185.825 297.1693,201 C327.1033,230.549 359.6253,264.979 384.5263,291.8669 " fill="none" id="OrderProcessTemplate-backto-StoreOrder" style="stroke: #A80036; stroke-width: 1.0; stroke-dasharray: 7.0,7.0;"/><polygon fill="none" points="244.0073,159.873,234.0873,141.149,253.5183,149.6,244.0073,159.873" style="stroke: #A80036; stroke-width: 1.0;"/><!--MD5=[b652f2be29caa0250718d39bc096d666]
@startuml
skinparam classAttributeIconSize 0


interface "Interface \n OrderProcessTemplate" as OrderProcessTemplate{
     bool isGift;
    +{abstract} doSelect():void
    +{abstract} doPayment():void
    +{abstract} doDelivery():void
     giftWrap():void
     processOrder(bool isGift):void
}

note " doSelect(); \n doPayment(); \n if (isGift) {\n giftWrap();\n }\n       doDelivery();" as OrderProcessTemplateProcessOrder

OrderProcessTemplate::processOrder -right..OrderProcessTemplateProcessOrder


class NetOrder
{
public:
    doSelect():void
    doPayment():void
    doDelivery() :void
}

class StoreOrder
{

    doSelect():void
    doPayment():void
    doDelivery():void
}

note "Customer chooses the item from shelf" as StoreOrderDoSelect
note "Item added to online shopping cart" as NetOrderDoSelect

NetOrderDoSelect .. NetOrder::doSelect
StoreOrderDoSelect .. StoreOrder::doSelect





NetOrder -up..|>   OrderProcessTemplate
StoreOrder -up..|>  OrderProcessTemplate
@enduml

PlantUML version 1.2020.17beta5(Unknown compile time)
(GPL source distribution)
Java Runtime: Java(TM) SE Runtime Environment
JVM: Java HotSpot(TM) 64-Bit Server VM
Default Encoding: UTF-8
Language: en
Country: US
--></g></svg>