<?xml version="1.0" encoding="UTF-8" standalone="no"?><svg xmlns="http://www.w3.org/2000/svg" xmlns:xlink="http://www.w3.org/1999/xlink" contentScriptType="application/ecmascript" contentStyleType="text/css" height="378px" preserveAspectRatio="none" style="width:401px;height:378px;" version="1.1" viewBox="0 0 401 378" width="401px" zoomAndPan="magnify"><defs><filter height="300%" id="f1jv0c1revabw9" width="300%" x="-1" y="-1"><feGaussianBlur result="blurOut" stdDeviation="2.0"/><feColorMatrix in="blurOut" result="blurOut2" type="matrix" values="0 0 0 0 0 0 0 0 0 0 0 0 0 0 0 0 0 0 .4 0"/><feOffset dx="4.0" dy="4.0" in="blurOut2" result="blurOut3"/><feBlend in="SourceGraphic" in2="blurOut3" mode="normal"/></filter></defs><g><!--MD5=[521817ab83e81da341a3f4b5e91bae41]
class Command--><rect fill="#FEFECE" filter="url(#f1jv0c1revabw9)" height="60.8047" id="Command" style="stroke: #A80036; stroke-width: 1.5;" width="110" x="144" y="146"/><ellipse cx="166.2" cy="162" fill="#B4A7E5" rx="11" ry="11" style="stroke: #A80036; stroke-width: 1.0;"/><path d="M162.1219,157.7656 L162.1219,155.6094 L169.5125,155.6094 L169.5125,157.7656 L167.0438,157.7656 L167.0438,165.8438 L169.5125,165.8438 L169.5125,168 L162.1219,168 L162.1219,165.8438 L164.5906,165.8438 L164.5906,157.7656 L162.1219,157.7656 Z "/><text fill="#000000" font-family="sans-serif" font-size="12" font-style="italic" lengthAdjust="spacingAndGlyphs" textLength="62" x="181.8" y="166.1543">Command</text><line style="stroke: #A80036; stroke-width: 1.5;" x1="145" x2="253" y1="178" y2="178"/><line style="stroke: #A80036; stroke-width: 1.5;" x1="145" x2="253" y1="186" y2="186"/><ellipse cx="155" cy="197" fill="#84BE84" rx="3" ry="3" style="stroke: #038048; stroke-width: 1.0;"/><text fill="#000000" font-family="sans-serif" font-size="11" lengthAdjust="spacingAndGlyphs" textLength="84" x="164" y="200.2104">void interpret()</text><!--MD5=[8b2d29e63c4cb10acfe18e03da81e21a]
class MoveCommand--><rect fill="#FEFECE" filter="url(#f1jv0c1revabw9)" height="99.2188" id="MoveCommand" style="stroke: #A80036; stroke-width: 1.5;" width="176" x="6" y="268"/><ellipse cx="43.5" cy="284" fill="#ADD1B2" rx="11" ry="11" style="stroke: #A80036; stroke-width: 1.0;"/><path d="M46.4688,289.6406 Q45.8906,289.9375 45.25,290.0781 Q44.6094,290.2344 43.9063,290.2344 Q41.4063,290.2344 40.0781,288.5938 Q38.7656,286.9375 38.7656,283.8125 Q38.7656,280.6875 40.0781,279.0313 Q41.4063,277.375 43.9063,277.375 Q44.6094,277.375 45.25,277.5313 Q45.9063,277.6875 46.4688,277.9844 L46.4688,280.7031 Q45.8438,280.125 45.25,279.8594 Q44.6563,279.5781 44.0313,279.5781 Q42.6875,279.5781 42,280.6563 Q41.3125,281.7188 41.3125,283.8125 Q41.3125,285.9063 42,286.9844 Q42.6875,288.0469 44.0313,288.0469 Q44.6563,288.0469 45.25,287.7813 Q45.8438,287.5 46.4688,286.9219 L46.4688,289.6406 Z "/><text fill="#000000" font-family="sans-serif" font-size="12" lengthAdjust="spacingAndGlyphs" textLength="94" x="62.5" y="288.1543">MoveCommand</text><line style="stroke: #A80036; stroke-width: 1.5;" x1="7" x2="181" y1="300" y2="300"/><rect fill="none" height="6" style="stroke: #C82930; stroke-width: 1.0;" width="6" x="14" y="308"/><text fill="#000000" font-family="sans-serif" font-size="11" lengthAdjust="spacingAndGlyphs" textLength="86" x="26" y="314.2104">string direction</text><rect fill="none" height="6" style="stroke: #C82930; stroke-width: 1.0;" width="6" x="14" y="320.8047"/><text fill="#000000" font-family="sans-serif" font-size="11" lengthAdjust="spacingAndGlyphs" textLength="66" x="26" y="327.0151">int distance</text><line style="stroke: #A80036; stroke-width: 1.5;" x1="7" x2="181" y1="333.6094" y2="333.6094"/><ellipse cx="17" cy="344.6094" fill="#84BE84" rx="3" ry="3" style="stroke: #038048; stroke-width: 1.0;"/><text fill="#000000" font-family="sans-serif" font-size="11" lengthAdjust="spacingAndGlyphs" textLength="150" x="26" y="347.8198">MoveCommand(string, int)</text><ellipse cx="17" cy="357.4141" fill="#84BE84" rx="3" ry="3" style="stroke: #038048; stroke-width: 1.0;"/><text fill="#000000" font-family="sans-serif" font-size="11" lengthAdjust="spacingAndGlyphs" textLength="84" x="26" y="360.6245">void interpret()</text><!--MD5=[fb78ca3b09f50a29fe5ec9ae5c6e61c5]
class TurnCommand--><rect fill="#FEFECE" filter="url(#f1jv0c1revabw9)" height="99.2188" id="TurnCommand" style="stroke: #A80036; stroke-width: 1.5;" width="173" x="217.5" y="268"/><ellipse cx="255.45" cy="284" fill="#ADD1B2" rx="11" ry="11" style="stroke: #A80036; stroke-width: 1.0;"/><path d="M258.4188,289.6406 Q257.8406,289.9375 257.2,290.0781 Q256.5594,290.2344 255.8563,290.2344 Q253.3563,290.2344 252.0281,288.5938 Q250.7156,286.9375 250.7156,283.8125 Q250.7156,280.6875 252.0281,279.0313 Q253.3563,277.375 255.8563,277.375 Q256.5594,277.375 257.2,277.5313 Q257.8563,277.6875 258.4188,277.9844 L258.4188,280.7031 Q257.7938,280.125 257.2,279.8594 Q256.6063,279.5781 255.9813,279.5781 Q254.6375,279.5781 253.95,280.6563 Q253.2625,281.7188 253.2625,283.8125 Q253.2625,285.9063 253.95,286.9844 Q254.6375,288.0469 255.9813,288.0469 Q256.6063,288.0469 257.2,287.7813 Q257.7938,287.5 258.4188,286.9219 L258.4188,289.6406 Z "/><text fill="#000000" font-family="sans-serif" font-size="12" lengthAdjust="spacingAndGlyphs" textLength="90" x="274.55" y="288.1543">TurnCommand</text><line style="stroke: #A80036; stroke-width: 1.5;" x1="218.5" x2="389.5" y1="300" y2="300"/><rect fill="none" height="6" style="stroke: #C82930; stroke-width: 1.0;" width="6" x="225.5" y="308"/><text fill="#000000" font-family="sans-serif" font-size="11" lengthAdjust="spacingAndGlyphs" textLength="86" x="237.5" y="314.2104">string direction</text><rect fill="none" height="6" style="stroke: #C82930; stroke-width: 1.0;" width="6" x="225.5" y="320.8047"/><text fill="#000000" font-family="sans-serif" font-size="11" lengthAdjust="spacingAndGlyphs" textLength="49" x="237.5" y="327.0151">int angle</text><line style="stroke: #A80036; stroke-width: 1.5;" x1="218.5" x2="389.5" y1="333.6094" y2="333.6094"/><ellipse cx="228.5" cy="344.6094" fill="#84BE84" rx="3" ry="3" style="stroke: #038048; stroke-width: 1.0;"/><text fill="#000000" font-family="sans-serif" font-size="11" lengthAdjust="spacingAndGlyphs" textLength="147" x="237.5" y="347.8198">TurnCommand(string, int)</text><ellipse cx="228.5" cy="357.4141" fill="#84BE84" rx="3" ry="3" style="stroke: #038048; stroke-width: 1.0;"/><text fill="#000000" font-family="sans-serif" font-size="11" lengthAdjust="spacingAndGlyphs" textLength="84" x="237.5" y="360.6245">void interpret()</text><!--MD5=[ed26f6b12c6467a8f3040c59fc5b4465]
class CommandParser--><rect fill="#FEFECE" filter="url(#f1jv0c1revabw9)" height="60.8047" id="CommandParser" style="stroke: #A80036; stroke-width: 1.5;" width="203" x="97.5" y="8"/><ellipse cx="143.25" cy="24" fill="#ADD1B2" rx="11" ry="11" style="stroke: #A80036; stroke-width: 1.0;"/><path d="M146.2188,29.6406 Q145.6406,29.9375 145,30.0781 Q144.3594,30.2344 143.6563,30.2344 Q141.1563,30.2344 139.8281,28.5938 Q138.5156,26.9375 138.5156,23.8125 Q138.5156,20.6875 139.8281,19.0313 Q141.1563,17.375 143.6563,17.375 Q144.3594,17.375 145,17.5313 Q145.6563,17.6875 146.2188,17.9844 L146.2188,20.7031 Q145.5938,20.125 145,19.8594 Q144.4063,19.5781 143.7813,19.5781 Q142.4375,19.5781 141.75,20.6563 Q141.0625,21.7188 141.0625,23.8125 Q141.0625,25.9063 141.75,26.9844 Q142.4375,28.0469 143.7813,28.0469 Q144.4063,28.0469 145,27.7813 Q145.5938,27.5 146.2188,26.9219 L146.2188,29.6406 Z "/><text fill="#000000" font-family="sans-serif" font-size="12" lengthAdjust="spacingAndGlyphs" textLength="103" x="163.75" y="28.1543">CommandParser</text><line style="stroke: #A80036; stroke-width: 1.5;" x1="98.5" x2="299.5" y1="40" y2="40"/><line style="stroke: #A80036; stroke-width: 1.5;" x1="98.5" x2="299.5" y1="48" y2="48"/><ellipse cx="108.5" cy="59" fill="#84BE84" rx="3" ry="3" style="stroke: #038048; stroke-width: 1.0;"/><text fill="#000000" font-family="sans-serif" font-size="11" lengthAdjust="spacingAndGlyphs" textLength="177" x="117.5" y="62.2104">static Command* parse(string)</text><!--MD5=[93591ac5574234e55a09794fae331a08]
reverse link Command to MoveCommand--><path d="M164.1,223.7 C153.38,237.89 141.57,253.53 130.74,267.87 " fill="none" id="Command&lt;-MoveCommand" style="stroke: #A80036; stroke-width: 1.0; stroke-dasharray: 7.0,7.0;"/><polygon fill="none" points="158.83,219.06,176.47,207.32,170.01,227.5,158.83,219.06" style="stroke: #A80036; stroke-width: 1.0;"/><!--MD5=[2b22aa50a202244b6f5c86d26de3ed36]
reverse link Command to TurnCommand--><path d="M233.9,223.7 C244.62,237.89 256.43,253.53 267.26,267.87 " fill="none" id="Command&lt;-TurnCommand" style="stroke: #A80036; stroke-width: 1.0; stroke-dasharray: 7.0,7.0;"/><polygon fill="none" points="227.99,227.5,221.53,207.32,239.17,219.06,227.99,227.5" style="stroke: #A80036; stroke-width: 1.0;"/><!--MD5=[8f76454e1502f47db1a1549788c51cf4]
link CommandParser to Command--><path d="M199,69.01 C199,89.98 199,118.24 199,140.38 " fill="none" id="CommandParser-&gt;Command" style="stroke: #A80036; stroke-width: 1.0; stroke-dasharray: 7.0,7.0;"/><polygon fill="#A80036" points="199,145.58,203,136.58,199,140.58,195,136.58,199,145.58" style="stroke: #A80036; stroke-width: 1.0;"/><text fill="#000000" font-family="sans-serif" font-size="13" lengthAdjust="spacingAndGlyphs" textLength="43" x="200" y="112.0669">parses</text><!--MD5=[6ff3596655de7933c2c9cbc3ff163b84]
@startuml
interface Command {
    +void interpret()
}

class MoveCommand {
    -string direction
    -int distance
    +MoveCommand(string, int)
    +void interpret()
}

class TurnCommand {
    -string direction
    -int angle
    +TurnCommand(string, int)
    +void interpret()
}

class CommandParser {
    +static Command* parse(string)
}

Command <|.. MoveCommand
Command <|.. TurnCommand
CommandParser ..> Command : parses

@enduml

PlantUML version 1.2020.02(Sun Mar 01 11:22:07 CET 2020)
(GPL source distribution)
Java Runtime: OpenJDK Runtime Environment
JVM: OpenJDK 64-Bit Server VM
Java Version: 11.0.26+4-post-Ubuntu-1ubuntu122.04
Operating System: Linux
Default Encoding: UTF-8
Language: en
Country: US
--></g></svg>