<?xml version="1.0" encoding="UTF-8" standalone="no"?><svg xmlns="http://www.w3.org/2000/svg" xmlns:xlink="http://www.w3.org/1999/xlink" contentScriptType="application/ecmascript" contentStyleType="text/css" height="359px" preserveAspectRatio="none" style="width:541px;height:359px;" version="1.1" viewBox="0 0 541 359" width="541px" zoomAndPan="magnify"><defs><filter height="300%" id="f7jkj98yp7orb" width="300%" x="-1" y="-1"><feGaussianBlur result="blurOut" stdDeviation="2.0"/><feColorMatrix in="blurOut" result="blurOut2" type="matrix" values="0 0 0 0 0 0 0 0 0 0 0 0 0 0 0 0 0 0 .4 0"/><feOffset dx="4.0" dy="4.0" in="blurOut2" result="blurOut3"/><feBlend in="SourceGraphic" in2="blurOut3" mode="normal"/></filter></defs><g><!--MD5=[426e75666daf533f17226ff4c87e20fd]
class Shape--><rect codeLine="2" fill="#FEFECE" filter="url(#f7jkj98yp7orb)" height="66.7422" id="Shape" style="stroke: #A80036; stroke-width: 1.5;" width="248" x="21" y="7"/><ellipse cx="93.75" cy="25.9688" fill="#B4A7E5" rx="11" ry="11" style="stroke: #A80036; stroke-width: 1.0;"/><path d="M94.7031,22.75 L96.4219,22.75 C96.8125,22.75 97,22.7188 97.125,22.6406 C97.3906,22.4844 97.5313,22.2031 97.5313,21.9063 C97.5313,21.6406 97.4219,21.375 97.1875,21.2031 C97.0156,21.0938 96.875,21.0625 96.4219,21.0625 L91.2813,21.0625 C90.8438,21.0625 90.7188,21.0781 90.5625,21.1719 C90.3125,21.3281 90.1563,21.625 90.1563,21.9063 C90.1563,22.1875 90.2969,22.4375 90.5156,22.6094 C90.6719,22.7188 90.8594,22.75 91.2813,22.75 L93,22.75 L93,29.2656 L91.2813,29.2656 C90.8438,29.2656 90.7188,29.2813 90.5625,29.3906 C90.3125,29.5469 90.1563,29.8281 90.1563,30.125 C90.1563,30.375 90.2969,30.6406 90.5156,30.7969 C90.6719,30.9219 90.875,30.9688 91.2813,30.9688 L96.4219,30.9688 C97.1719,30.9688 97.5313,30.6875 97.5313,30.125 C97.5313,29.8438 97.4219,29.5938 97.1875,29.4219 C97.0156,29.2969 96.875,29.2656 96.4219,29.2656 L94.7031,29.2656 L94.7031,22.75 Z "/><text fill="#000000" font-family="sans-serif" font-size="12" font-style="italic" lengthAdjust="spacingAndGlyphs" textLength="94" x="114.25" y="23.1387">&lt;&lt;Interface&gt;&gt;</text><text fill="#000000" font-family="sans-serif" font-size="12" font-style="italic" lengthAdjust="spacingAndGlyphs" textLength="38" x="144.25" y="37.1074">Shape</text><line style="stroke: #A80036; stroke-width: 1.5;" x1="22" x2="268" y1="44.9375" y2="44.9375"/><line style="stroke: #A80036; stroke-width: 1.5;" x1="22" x2="268" y1="52.9375" y2="52.9375"/><text fill="#000000" font-family="sans-serif" font-size="11" lengthAdjust="spacingAndGlyphs" textLength="236" x="27" y="67.1479">+display(int x1, int y1, int width, int hight)</text><!--MD5=[b5313cd49da22b0744b541f414f8445e]
class Rectangle--><rect codeLine="6" fill="#FEFECE" filter="url(#f7jkj98yp7orb)" height="60.8047" id="Rectangle" style="stroke: #A80036; stroke-width: 1.5;" width="248" x="21" y="198"/><ellipse cx="111.25" cy="214" fill="#ADD1B2" rx="11" ry="11" style="stroke: #A80036; stroke-width: 1.0;"/><path d="M113.5938,209.6719 C112.6563,209.2344 112.0625,209.0938 111.1875,209.0938 C108.5625,209.0938 106.5625,211.1719 106.5625,213.8906 L106.5625,215.0156 C106.5625,217.5938 108.6719,219.4844 111.5625,219.4844 C112.7813,219.4844 113.9375,219.1875 114.6875,218.6406 C115.2656,218.2344 115.5938,217.7813 115.5938,217.3906 C115.5938,216.9375 115.2031,216.5469 114.7344,216.5469 C114.5156,216.5469 114.3125,216.625 114.125,216.8125 C113.6719,217.2969 113.6719,217.2969 113.4844,217.3906 C113.0625,217.6563 112.375,217.7813 111.6094,217.7813 C109.5625,217.7813 108.2656,216.6875 108.2656,214.9844 L108.2656,213.8906 C108.2656,212.1094 109.5156,210.7969 111.25,210.7969 C111.8281,210.7969 112.4375,210.9531 112.9063,211.2031 C113.3906,211.4844 113.5625,211.7031 113.6563,212.1094 C113.7188,212.5156 113.75,212.6406 113.8906,212.7656 C114.0313,212.9063 114.2656,213.0156 114.4844,213.0156 C114.75,213.0156 115.0156,212.875 115.1875,212.6563 C115.2969,212.5 115.3281,212.3125 115.3281,211.8906 L115.3281,210.4688 C115.3281,210.0313 115.3125,209.9063 115.2188,209.75 C115.0625,209.4844 114.7813,209.3438 114.4844,209.3438 C114.1875,209.3438 113.9844,209.4375 113.7656,209.75 L113.5938,209.6719 Z "/><text fill="#000000" font-family="sans-serif" font-size="12" lengthAdjust="spacingAndGlyphs" textLength="59" x="131.75" y="218.1543">Rectangle</text><line style="stroke: #A80036; stroke-width: 1.5;" x1="22" x2="268" y1="230" y2="230"/><line style="stroke: #A80036; stroke-width: 1.5;" x1="22" x2="268" y1="238" y2="238"/><text fill="#000000" font-family="sans-serif" font-size="11" lengthAdjust="spacingAndGlyphs" textLength="236" x="27" y="252.2104">+display(int x1, int y1, int width, int hight)</text><!--MD5=[e070e0b2ea0f9ec9aab2b21514f1c5d5]
class LegecyRectangle--><rect codeLine="10" fill="#FEFECE" filter="url(#f7jkj98yp7orb)" height="66.7422" id="LegecyRectangle" style="stroke: #A80036; stroke-width: 1.5;" width="218" x="304" y="195"/><ellipse cx="355.25" cy="213.9688" fill="#ADD1B2" rx="11" ry="11" style="stroke: #A80036; stroke-width: 1.0;"/><path d="M357.5938,209.6406 C356.6563,209.2031 356.0625,209.0625 355.1875,209.0625 C352.5625,209.0625 350.5625,211.1406 350.5625,213.8594 L350.5625,214.9844 C350.5625,217.5625 352.6719,219.4531 355.5625,219.4531 C356.7813,219.4531 357.9375,219.1563 358.6875,218.6094 C359.2656,218.2031 359.5938,217.75 359.5938,217.3594 C359.5938,216.9063 359.2031,216.5156 358.7344,216.5156 C358.5156,216.5156 358.3125,216.5938 358.125,216.7813 C357.6719,217.2656 357.6719,217.2656 357.4844,217.3594 C357.0625,217.625 356.375,217.75 355.6094,217.75 C353.5625,217.75 352.2656,216.6563 352.2656,214.9531 L352.2656,213.8594 C352.2656,212.0781 353.5156,210.7656 355.25,210.7656 C355.8281,210.7656 356.4375,210.9219 356.9063,211.1719 C357.3906,211.4531 357.5625,211.6719 357.6563,212.0781 C357.7188,212.4844 357.75,212.6094 357.8906,212.7344 C358.0313,212.875 358.2656,212.9844 358.4844,212.9844 C358.75,212.9844 359.0156,212.8438 359.1875,212.625 C359.2969,212.4688 359.3281,212.2813 359.3281,211.8594 L359.3281,210.4375 C359.3281,210 359.3125,209.875 359.2188,209.7188 C359.0625,209.4531 358.7813,209.3125 358.4844,209.3125 C358.1875,209.3125 357.9844,209.4063 357.7656,209.7188 L357.5938,209.6406 Z "/><text fill="#000000" font-family="sans-serif" font-size="12" lengthAdjust="spacingAndGlyphs" textLength="91" x="383.75" y="211.1387">&lt;&lt;Adaptee&gt;&gt;</text><text fill="#000000" font-family="sans-serif" font-size="12" lengthAdjust="spacingAndGlyphs" textLength="103" x="379.75" y="225.1074">LegecyRectangle</text><line style="stroke: #A80036; stroke-width: 1.5;" x1="305" x2="521" y1="232.9375" y2="232.9375"/><line style="stroke: #A80036; stroke-width: 1.5;" x1="305" x2="521" y1="240.9375" y2="240.9375"/><text fill="#000000" font-family="sans-serif" font-size="11" lengthAdjust="spacingAndGlyphs" textLength="206" x="310" y="255.1479">+display(int x1, int y1, int x2, int y2)</text><path d="M6,322 L6,347.1328 A0,0 0 0 0 6,347.1328 L284,347.1328 A0,0 0 0 0 284,347.1328 L284,332 L274,322 L149,322 L145,259.024 L141,322 L6,322 A0,0 0 0 0 6,322 " fill="#FBFB77" filter="url(#f7jkj98yp7orb)" style="stroke: #A80036; stroke-width: 1.0;"/><path d="M274,322 L274,332 L284,332 L274,322 " fill="#FBFB77" style="stroke: #A80036; stroke-width: 1.0;"/><text fill="#000000" font-family="sans-serif" font-size="13" lengthAdjust="spacingAndGlyphs" textLength="257" x="12" y="339.0669">this will call draw from LegecyRectangle</text><!--MD5=[793668fe740f4b06a80dd095381d024c]
reverse link Shape to Rectangle--><path codeLine="14" d="M145,94.367 C145,127.874 145,169.981 145,197.765 " fill="none" id="Shape-backto-Rectangle" style="stroke: #A80036; stroke-width: 1.0; stroke-dasharray: 7.0,7.0;"/><polygon fill="none" points="138,94.325,145,74.325,152,94.325,138,94.325" style="stroke: #A80036; stroke-width: 1.0;"/><!--MD5=[c6cb1644617d924710f714268d0ea2c9]
link Rectangle to LegecyRectangle--><path codeLine="15" d="M269.055,228.5 C278.95,228.5 288.846,228.5 298.742,228.5 " fill="none" id="Rectangle-to-LegecyRectangle" style="stroke: #A80036; stroke-width: 1.0;"/><polygon fill="#A80036" points="303.916,228.5,294.916,224.5,298.916,228.5,294.916,232.5,303.916,228.5" style="stroke: #A80036; stroke-width: 1.0;"/><!--MD5=[2fa0e32a87500846adddec2247a0f081]
@startuml
skinparam classAttributeIconSize 0
interface "<<Interface>>\n Shape" as Shape
{
+display(int x1, int y1, int width, int hight)
}
class Rectangle
{
+display(int x1, int y1, int width, int hight)
}
class "<<Adaptee>>\n LegecyRectangle" as LegecyRectangle
{
+display(int x1, int y1, int x2, int y2)
}
Rectangle -up..|> Shape
Rectangle -right-> LegecyRectangle
note bottom of Rectangle: this will call draw from LegecyRectangle
@enduml

PlantUML version 1.2020.17beta5(Unknown compile time)
(GPL source distribution)
Java Runtime: Java(TM) SE Runtime Environment
JVM: Java HotSpot(TM) 64-Bit Server VM
Default Encoding: UTF-8
Language: en
Country: US
--></g></svg>