<?xml version="1.0" encoding="UTF-8" standalone="no"?><svg xmlns="http://www.w3.org/2000/svg" xmlns:xlink="http://www.w3.org/1999/xlink" contentScriptType="application/ecmascript" contentStyleType="text/css" height="287px" preserveAspectRatio="none" style="width:569px;height:287px;" version="1.1" viewBox="0 0 569 287" width="569px" zoomAndPan="magnify"><defs><filter height="300%" id="f1sh9ltnhesdva" width="300%" x="-1" y="-1"><feGaussianBlur result="blurOut" stdDeviation="2.0"/><feColorMatrix in="blurOut" result="blurOut2" type="matrix" values="0 0 0 0 0 0 0 0 0 0 0 0 0 0 0 0 0 0 .4 0"/><feOffset dx="4.0" dy="4.0" in="blurOut2" result="blurOut3"/><feBlend in="SourceGraphic" in2="blurOut3" mode="normal"/></filter></defs><g><!--MD5=[426e75666daf533f17226ff4c87e20fd]
class Shape--><rect codeLine="2" fill="#FEFECE" filter="url(#f1sh9ltnhesdva)" height="79.5469" id="Shape" style="stroke: #A80036; stroke-width: 1.5;" width="126" x="207" y="7"/><ellipse cx="222" cy="25.9688" fill="#B4A7E5" rx="11" ry="11" style="stroke: #A80036; stroke-width: 1.0;"/><path d="M222.9531,22.75 L224.6719,22.75 C225.0625,22.75 225.25,22.7188 225.375,22.6406 C225.6406,22.4844 225.7813,22.2031 225.7813,21.9063 C225.7813,21.6406 225.6719,21.375 225.4375,21.2031 C225.2656,21.0938 225.125,21.0625 224.6719,21.0625 L219.5313,21.0625 C219.0938,21.0625 218.9688,21.0781 218.8125,21.1719 C218.5625,21.3281 218.4063,21.625 218.4063,21.9063 C218.4063,22.1875 218.5469,22.4375 218.7656,22.6094 C218.9219,22.7188 219.1094,22.75 219.5313,22.75 L221.25,22.75 L221.25,29.2656 L219.5313,29.2656 C219.0938,29.2656 218.9688,29.2813 218.8125,29.3906 C218.5625,29.5469 218.4063,29.8281 218.4063,30.125 C218.4063,30.375 218.5469,30.6406 218.7656,30.7969 C218.9219,30.9219 219.125,30.9688 219.5313,30.9688 L224.6719,30.9688 C225.4219,30.9688 225.7813,30.6875 225.7813,30.125 C225.7813,29.8438 225.6719,29.5938 225.4375,29.4219 C225.2656,29.2969 225.125,29.2656 224.6719,29.2656 L222.9531,29.2656 L222.9531,22.75 Z "/><text fill="#000000" font-family="sans-serif" font-size="12" font-style="italic" lengthAdjust="spacingAndGlyphs" textLength="94" x="236" y="23.1387">&lt;&lt;Interface&gt;&gt;</text><text fill="#000000" font-family="sans-serif" font-size="12" font-style="italic" lengthAdjust="spacingAndGlyphs" textLength="38" x="266" y="37.1074">Shape</text><line style="stroke: #A80036; stroke-width: 1.5;" x1="208" x2="332" y1="44.9375" y2="44.9375"/><text fill="#000000" font-family="sans-serif" font-size="11" lengthAdjust="spacingAndGlyphs" textLength="94" x="213" y="59.1479">-impl:DrawingAPI</text><line style="stroke: #A80036; stroke-width: 1.5;" x1="208" x2="332" y1="65.7422" y2="65.7422"/><text fill="#000000" font-family="sans-serif" font-size="11" lengthAdjust="spacingAndGlyphs" textLength="45" x="213" y="79.9526">+paint()</text><path d="M368.5,34.5 L368.5,59.6328 L557.5,59.6328 L557.5,44.5 L547.5,34.5 L368.5,34.5 " fill="#FBFB77" filter="url(#f1sh9ltnhesdva)" style="stroke: #A80036; stroke-width: 1.0;"/><path d="M547.5,34.5 L547.5,44.5 L557.5,44.5 L547.5,34.5 " fill="#FBFB77" style="stroke: #A80036; stroke-width: 1.0;"/><text fill="#000000" font-family="sans-serif" font-size="13" lengthAdjust="spacingAndGlyphs" textLength="168" x="374.5" y="51.5669">paint() will call impl.draw()</text><!--MD5=[1141e6d6e9d7c76919b090abe536abd6]
class DrawingAPI--><rect codeLine="8" fill="#FEFECE" filter="url(#f1sh9ltnhesdva)" height="66.7422" id="DrawingAPI" style="stroke: #A80036; stroke-width: 1.5;" width="126" x="46" y="13.5"/><ellipse cx="61" cy="32.4688" fill="#B4A7E5" rx="11" ry="11" style="stroke: #A80036; stroke-width: 1.0;"/><path d="M61.9531,29.25 L63.6719,29.25 C64.0625,29.25 64.25,29.2188 64.375,29.1406 C64.6406,28.9844 64.7813,28.7031 64.7813,28.4063 C64.7813,28.1406 64.6719,27.875 64.4375,27.7031 C64.2656,27.5938 64.125,27.5625 63.6719,27.5625 L58.5313,27.5625 C58.0938,27.5625 57.9688,27.5781 57.8125,27.6719 C57.5625,27.8281 57.4063,28.125 57.4063,28.4063 C57.4063,28.6875 57.5469,28.9375 57.7656,29.1094 C57.9219,29.2188 58.1094,29.25 58.5313,29.25 L60.25,29.25 L60.25,35.7656 L58.5313,35.7656 C58.0938,35.7656 57.9688,35.7813 57.8125,35.8906 C57.5625,36.0469 57.4063,36.3281 57.4063,36.625 C57.4063,36.875 57.5469,37.1406 57.7656,37.2969 C57.9219,37.4219 58.125,37.4688 58.5313,37.4688 L63.6719,37.4688 C64.4219,37.4688 64.7813,37.1875 64.7813,36.625 C64.7813,36.3438 64.6719,36.0938 64.4375,35.9219 C64.2656,35.7969 64.125,35.7656 63.6719,35.7656 L61.9531,35.7656 L61.9531,29.25 Z "/><text fill="#000000" font-family="sans-serif" font-size="12" font-style="italic" lengthAdjust="spacingAndGlyphs" textLength="94" x="75" y="29.6387">&lt;&lt;Interface&gt;&gt;</text><text fill="#000000" font-family="sans-serif" font-size="12" font-style="italic" lengthAdjust="spacingAndGlyphs" textLength="69" x="89.5" y="43.6074">DrawingAPI</text><line style="stroke: #A80036; stroke-width: 1.5;" x1="47" x2="171" y1="51.4375" y2="51.4375"/><line style="stroke: #A80036; stroke-width: 1.5;" x1="47" x2="171" y1="59.4375" y2="59.4375"/><text fill="#000000" font-family="sans-serif" font-size="11" lengthAdjust="spacingAndGlyphs" textLength="44" x="52" y="73.6479">+draw()</text><!--MD5=[a7f9118cae7621dd25d25149752faef0]
class Circle--><rect codeLine="12" fill="#FEFECE" filter="url(#f1sh9ltnhesdva)" height="60.8047" id="Circle" style="stroke: #A80036; stroke-width: 1.5;" width="69" x="235.5" y="208"/><ellipse cx="251.85" cy="224" fill="#ADD1B2" rx="11" ry="11" style="stroke: #A80036; stroke-width: 1.0;"/><path d="M254.1938,219.6719 C253.2563,219.2344 252.6625,219.0938 251.7875,219.0938 C249.1625,219.0938 247.1625,221.1719 247.1625,223.8906 L247.1625,225.0156 C247.1625,227.5938 249.2719,229.4844 252.1625,229.4844 C253.3813,229.4844 254.5375,229.1875 255.2875,228.6406 C255.8656,228.2344 256.1938,227.7813 256.1938,227.3906 C256.1938,226.9375 255.8031,226.5469 255.3344,226.5469 C255.1156,226.5469 254.9125,226.625 254.725,226.8125 C254.2719,227.2969 254.2719,227.2969 254.0844,227.3906 C253.6625,227.6563 252.975,227.7813 252.2094,227.7813 C250.1625,227.7813 248.8656,226.6875 248.8656,224.9844 L248.8656,223.8906 C248.8656,222.1094 250.1156,220.7969 251.85,220.7969 C252.4281,220.7969 253.0375,220.9531 253.5063,221.2031 C253.9906,221.4844 254.1625,221.7031 254.2563,222.1094 C254.3188,222.5156 254.35,222.6406 254.4906,222.7656 C254.6313,222.9063 254.8656,223.0156 255.0844,223.0156 C255.35,223.0156 255.6156,222.875 255.7875,222.6563 C255.8969,222.5 255.9281,222.3125 255.9281,221.8906 L255.9281,220.4688 C255.9281,220.0313 255.9125,219.9063 255.8188,219.75 C255.6625,219.4844 255.3813,219.3438 255.0844,219.3438 C254.7875,219.3438 254.5844,219.4375 254.3656,219.75 L254.1938,219.6719 Z "/><text fill="#000000" font-family="sans-serif" font-size="12" lengthAdjust="spacingAndGlyphs" textLength="34" x="266.15" y="228.1543">Circle</text><line style="stroke: #A80036; stroke-width: 1.5;" x1="236.5" x2="303.5" y1="240" y2="240"/><line style="stroke: #A80036; stroke-width: 1.5;" x1="236.5" x2="303.5" y1="248" y2="248"/><text fill="#000000" font-family="sans-serif" font-size="11" lengthAdjust="spacingAndGlyphs" textLength="57" x="241.5" y="262.2104">+display()</text><!--MD5=[cf2e2892314c5911da46e6c555bf1c0d]
class APIV1--><rect codeLine="16" fill="#FEFECE" filter="url(#f1sh9ltnhesdva)" height="60.8047" id="APIV1" style="stroke: #A80036; stroke-width: 1.5;" width="64" x="7" y="208"/><ellipse cx="22" cy="224" fill="#ADD1B2" rx="11" ry="11" style="stroke: #A80036; stroke-width: 1.0;"/><path d="M24.3438,219.6719 C23.4063,219.2344 22.8125,219.0938 21.9375,219.0938 C19.3125,219.0938 17.3125,221.1719 17.3125,223.8906 L17.3125,225.0156 C17.3125,227.5938 19.4219,229.4844 22.3125,229.4844 C23.5313,229.4844 24.6875,229.1875 25.4375,228.6406 C26.0156,228.2344 26.3438,227.7813 26.3438,227.3906 C26.3438,226.9375 25.9531,226.5469 25.4844,226.5469 C25.2656,226.5469 25.0625,226.625 24.875,226.8125 C24.4219,227.2969 24.4219,227.2969 24.2344,227.3906 C23.8125,227.6563 23.125,227.7813 22.3594,227.7813 C20.3125,227.7813 19.0156,226.6875 19.0156,224.9844 L19.0156,223.8906 C19.0156,222.1094 20.2656,220.7969 22,220.7969 C22.5781,220.7969 23.1875,220.9531 23.6563,221.2031 C24.1406,221.4844 24.3125,221.7031 24.4063,222.1094 C24.4688,222.5156 24.5,222.6406 24.6406,222.7656 C24.7813,222.9063 25.0156,223.0156 25.2344,223.0156 C25.5,223.0156 25.7656,222.875 25.9375,222.6563 C26.0469,222.5 26.0781,222.3125 26.0781,221.8906 L26.0781,220.4688 C26.0781,220.0313 26.0625,219.9063 25.9688,219.75 C25.8125,219.4844 25.5313,219.3438 25.2344,219.3438 C24.9375,219.3438 24.7344,219.4375 24.5156,219.75 L24.3438,219.6719 Z "/><text fill="#000000" font-family="sans-serif" font-size="12" lengthAdjust="spacingAndGlyphs" textLength="32" x="36" y="228.1543">APIV1</text><line style="stroke: #A80036; stroke-width: 1.5;" x1="8" x2="70" y1="240" y2="240"/><line style="stroke: #A80036; stroke-width: 1.5;" x1="8" x2="70" y1="248" y2="248"/><text fill="#000000" font-family="sans-serif" font-size="11" lengthAdjust="spacingAndGlyphs" textLength="44" x="13" y="262.2104">+draw()</text><!--MD5=[bd2c6730ed99709f78c315b261505ade]
class APIV2--><rect codeLine="20" fill="#FEFECE" filter="url(#f1sh9ltnhesdva)" height="60.8047" id="APIV2" style="stroke: #A80036; stroke-width: 1.5;" width="65" x="106.5" y="208"/><ellipse cx="121.5" cy="224" fill="#ADD1B2" rx="11" ry="11" style="stroke: #A80036; stroke-width: 1.0;"/><path d="M123.8438,219.6719 C122.9063,219.2344 122.3125,219.0938 121.4375,219.0938 C118.8125,219.0938 116.8125,221.1719 116.8125,223.8906 L116.8125,225.0156 C116.8125,227.5938 118.9219,229.4844 121.8125,229.4844 C123.0313,229.4844 124.1875,229.1875 124.9375,228.6406 C125.5156,228.2344 125.8438,227.7813 125.8438,227.3906 C125.8438,226.9375 125.4531,226.5469 124.9844,226.5469 C124.7656,226.5469 124.5625,226.625 124.375,226.8125 C123.9219,227.2969 123.9219,227.2969 123.7344,227.3906 C123.3125,227.6563 122.625,227.7813 121.8594,227.7813 C119.8125,227.7813 118.5156,226.6875 118.5156,224.9844 L118.5156,223.8906 C118.5156,222.1094 119.7656,220.7969 121.5,220.7969 C122.0781,220.7969 122.6875,220.9531 123.1563,221.2031 C123.6406,221.4844 123.8125,221.7031 123.9063,222.1094 C123.9688,222.5156 124,222.6406 124.1406,222.7656 C124.2813,222.9063 124.5156,223.0156 124.7344,223.0156 C125,223.0156 125.2656,222.875 125.4375,222.6563 C125.5469,222.5 125.5781,222.3125 125.5781,221.8906 L125.5781,220.4688 C125.5781,220.0313 125.5625,219.9063 125.4688,219.75 C125.3125,219.4844 125.0313,219.3438 124.7344,219.3438 C124.4375,219.3438 124.2344,219.4375 124.0156,219.75 L123.8438,219.6719 Z "/><text fill="#000000" font-family="sans-serif" font-size="12" lengthAdjust="spacingAndGlyphs" textLength="33" x="135.5" y="228.1543">APIV2</text><line style="stroke: #A80036; stroke-width: 1.5;" x1="107.5" x2="170.5" y1="240" y2="240"/><line style="stroke: #A80036; stroke-width: 1.5;" x1="107.5" x2="170.5" y1="248" y2="248"/><text fill="#000000" font-family="sans-serif" font-size="11" lengthAdjust="spacingAndGlyphs" textLength="44" x="112.5" y="262.2104">+draw()</text><!--MD5=[d637a7d0c5b779627461b5a6979d5756]
reverse link Shape to Circle--><path codeLine="24" d="M270,107.511 C270,140.915 270,181.1339 270,207.902 " fill="none" id="Shape-backto-Circle" style="stroke: #A80036; stroke-width: 1.0; stroke-dasharray: 7.0,7.0;"/><polygon fill="none" points="263,107.265,270,87.265,277,107.264,263,107.265" style="stroke: #A80036; stroke-width: 1.0;"/><!--MD5=[439657a2041087bee230ef43c4c52369]
reverse link DrawingAPI to APIV1--><path codeLine="25" d="M89.9033,99.697 C77.0761,134.423 60.6293,178.9463 49.9561,207.8402 " fill="none" id="DrawingAPI-backto-APIV1" style="stroke: #A80036; stroke-width: 1.0; stroke-dasharray: 7.0,7.0;"/><polygon fill="none" points="83.47,96.912,96.9666,80.576,96.6027,101.763,83.47,96.912" style="stroke: #A80036; stroke-width: 1.0;"/><!--MD5=[bbc5fce2441267eebb875558427f88f9]
reverse link DrawingAPI to APIV2--><path codeLine="26" d="M117.339,100.674 C122.813,135.253 129.773,179.2163 134.305,207.8402 " fill="none" id="DrawingAPI-backto-APIV2" style="stroke: #A80036; stroke-width: 1.0; stroke-dasharray: 7.0,7.0;"/><polygon fill="none" points="110.371,101.425,114.157,80.576,124.198,99.236,110.371,101.425" style="stroke: #A80036; stroke-width: 1.0;"/><!--MD5=[1515bcd49940d8885aa127c9d49be657]
link DrawingAPI to Shape--><path codeLine="27" d="M172.205,47 C179.447,47 186.69,47 193.932,47 " fill="none" id="DrawingAPI-to-Shape" style="stroke: #A80036; stroke-width: 1.0;"/><polygon fill="#FFFFFF" points="206.968,47,200.968,43,194.968,47,200.968,51,206.968,47" style="stroke: #A80036; stroke-width: 1.0;"/><!--MD5=[551b37cbb4eefac5d5d5e5d4f07e561f]
@startuml
skinparam classAttributeIconSize 0
interface "<<Interface>>\n Shape" as Shape
{
- impl:DrawingAPI
+paint()
}
note "paint() will call impl.draw()" as N1
interface "<<Interface>>\n DrawingAPI" as DrawingAPI
{
+draw()
}
class Circle 
{
+display()
}
class APIV1
{
+draw()
}
class APIV2
{
+draw()
}
Circle -up..|> Shape
APIV1 -up..|> DrawingAPI
APIV2 -up..|> DrawingAPI
DrawingAPI -left- -o  Shape
@enduml

PlantUML version 1.2020.17beta5(Unknown compile time)
(GPL source distribution)
Java Runtime: Java(TM) SE Runtime Environment
JVM: Java HotSpot(TM) 64-Bit Server VM
Default Encoding: UTF-8
Language: en
Country: US
--></g></svg>