<?xml version="1.0" encoding="UTF-8" standalone="no"?><svg xmlns="http://www.w3.org/2000/svg" xmlns:xlink="http://www.w3.org/1999/xlink" contentScriptType="application/ecmascript" contentStyleType="text/css" height="651px" preserveAspectRatio="none" style="width:813px;height:651px;" version="1.1" viewBox="0 0 813 651" width="813px" zoomAndPan="magnify"><defs><filter height="300%" id="f1j85h9mx9id5n" width="300%" x="-1" y="-1"><feGaussianBlur result="blurOut" stdDeviation="2.0"/><feColorMatrix in="blurOut" result="blurOut2" type="matrix" values="0 0 0 0 0 0 0 0 0 0 0 0 0 0 0 0 0 0 .4 0"/><feOffset dx="4.0" dy="4.0" in="blurOut2" result="blurOut3"/><feBlend in="SourceGraphic" in2="blurOut3" mode="normal"/></filter></defs><g><!--MD5=[248f897e4bb16c2722904b15df30346f]
class Logger--><rect codeLine="5" fill="#FEFECE" filter="url(#f1j85h9mx9id5n)" height="66.7422" id="Logger" style="stroke: #A80036; stroke-width: 1.5;" width="126" x="48.5" y="121"/><ellipse cx="63.5" cy="139.9688" fill="#B4A7E5" rx="11" ry="11" style="stroke: #A80036; stroke-width: 1.0;"/><path d="M64.4531,136.75 L66.1719,136.75 C66.5625,136.75 66.75,136.7188 66.875,136.6406 C67.1406,136.4844 67.2813,136.2031 67.2813,135.9063 C67.2813,135.6406 67.1719,135.375 66.9375,135.2031 C66.7656,135.0938 66.625,135.0625 66.1719,135.0625 L61.0313,135.0625 C60.5938,135.0625 60.4688,135.0781 60.3125,135.1719 C60.0625,135.3281 59.9063,135.625 59.9063,135.9063 C59.9063,136.1875 60.0469,136.4375 60.2656,136.6094 C60.4219,136.7188 60.6094,136.75 61.0313,136.75 L62.75,136.75 L62.75,143.2656 L61.0313,143.2656 C60.5938,143.2656 60.4688,143.2813 60.3125,143.3906 C60.0625,143.5469 59.9063,143.8281 59.9063,144.125 C59.9063,144.375 60.0469,144.6406 60.2656,144.7969 C60.4219,144.9219 60.625,144.9688 61.0313,144.9688 L66.1719,144.9688 C66.9219,144.9688 67.2813,144.6875 67.2813,144.125 C67.2813,143.8438 67.1719,143.5938 66.9375,143.4219 C66.7656,143.2969 66.625,143.2656 66.1719,143.2656 L64.4531,143.2656 L64.4531,136.75 Z "/><text fill="#000000" font-family="sans-serif" font-size="12" font-style="italic" lengthAdjust="spacingAndGlyphs" textLength="94" x="77.5" y="137.1387">&lt;&lt;Interface&gt;&gt;</text><text fill="#000000" font-family="sans-serif" font-size="12" font-style="italic" lengthAdjust="spacingAndGlyphs" textLength="42" x="105.5" y="151.1074">Logger</text><line style="stroke: #A80036; stroke-width: 1.5;" x1="49.5" x2="173.5" y1="158.9375" y2="158.9375"/><line style="stroke: #A80036; stroke-width: 1.5;" x1="49.5" x2="173.5" y1="166.9375" y2="166.9375"/><text fill="#000000" font-family="sans-serif" font-size="11" font-style="italic" lengthAdjust="spacingAndGlyphs" textLength="94" x="54.5" y="181.1479">+log(string):void</text><!--MD5=[27a2caf253a0da4852d53bf0c6340241]
class FileLogger--><rect codeLine="10" fill="#FEFECE" filter="url(#f1j85h9mx9id5n)" height="60.8047" id="FileLogger" style="stroke: #A80036; stroke-width: 1.5;" width="104" x="251.5" y="321.5"/><ellipse cx="270.1" cy="337.5" fill="#ADD1B2" rx="11" ry="11" style="stroke: #A80036; stroke-width: 1.0;"/><path d="M272.4438,333.1719 C271.5063,332.7344 270.9125,332.5938 270.0375,332.5938 C267.4125,332.5938 265.4125,334.6719 265.4125,337.3906 L265.4125,338.5156 C265.4125,341.0938 267.5219,342.9844 270.4125,342.9844 C271.6313,342.9844 272.7875,342.6875 273.5375,342.1406 C274.1156,341.7344 274.4438,341.2813 274.4438,340.8906 C274.4438,340.4375 274.0531,340.0469 273.5844,340.0469 C273.3656,340.0469 273.1625,340.125 272.975,340.3125 C272.5219,340.7969 272.5219,340.7969 272.3344,340.8906 C271.9125,341.1563 271.225,341.2813 270.4594,341.2813 C268.4125,341.2813 267.1156,340.1875 267.1156,338.4844 L267.1156,337.3906 C267.1156,335.6094 268.3656,334.2969 270.1,334.2969 C270.6781,334.2969 271.2875,334.4531 271.7563,334.7031 C272.2406,334.9844 272.4125,335.2031 272.5063,335.6094 C272.5688,336.0156 272.6,336.1406 272.7406,336.2656 C272.8813,336.4063 273.1156,336.5156 273.3344,336.5156 C273.6,336.5156 273.8656,336.375 274.0375,336.1563 C274.1469,336 274.1781,335.8125 274.1781,335.3906 L274.1781,333.9688 C274.1781,333.5313 274.1625,333.4063 274.0688,333.25 C273.9125,332.9844 273.6313,332.8438 273.3344,332.8438 C273.0375,332.8438 272.8344,332.9375 272.6156,333.25 L272.4438,333.1719 Z "/><text fill="#000000" font-family="sans-serif" font-size="12" lengthAdjust="spacingAndGlyphs" textLength="64" x="284.9" y="341.6543">FileLogger</text><line style="stroke: #A80036; stroke-width: 1.5;" x1="252.5" x2="354.5" y1="353.5" y2="353.5"/><line style="stroke: #A80036; stroke-width: 1.5;" x1="252.5" x2="354.5" y1="361.5" y2="361.5"/><text fill="#000000" font-family="sans-serif" font-size="11" lengthAdjust="spacingAndGlyphs" textLength="92" x="257.5" y="375.7104">+log(string):void</text><path d="M390.5,339.5 L390.5,348 L355.641,352 L390.5,356 L390.5,364.6328 A0,0 0 0 0 390.5,364.6328 L500.5,364.6328 A0,0 0 0 0 500.5,364.6328 L500.5,349.5 L490.5,339.5 L390.5,339.5 A0,0 0 0 0 390.5,339.5 " fill="#FBFB77" filter="url(#f1j85h9mx9id5n)" style="stroke: #A80036; stroke-width: 1.0;"/><path d="M490.5,339.5 L490.5,349.5 L500.5,349.5 L490.5,339.5 " fill="#FBFB77" style="stroke: #A80036; stroke-width: 1.0;"/><text fill="#000000" font-family="sans-serif" font-size="13" lengthAdjust="spacingAndGlyphs" textLength="89" x="396.5" y="356.5669">log to text file</text><!--MD5=[426e8e66a368feb6f2205a140c67284b]
class LoggerDecorator--><rect codeLine="17" fill="#FEFECE" filter="url(#f1j85h9mx9id5n)" height="86.4141" id="LoggerDecorator" style="stroke: #A80036; stroke-width: 1.5;" width="209" x="7" y="309"/><ellipse cx="55.25" cy="325" fill="#ADD1B2" rx="11" ry="11" style="stroke: #A80036; stroke-width: 1.0;"/><path d="M57.5938,320.6719 C56.6563,320.2344 56.0625,320.0938 55.1875,320.0938 C52.5625,320.0938 50.5625,322.1719 50.5625,324.8906 L50.5625,326.0156 C50.5625,328.5938 52.6719,330.4844 55.5625,330.4844 C56.7813,330.4844 57.9375,330.1875 58.6875,329.6406 C59.2656,329.2344 59.5938,328.7813 59.5938,328.3906 C59.5938,327.9375 59.2031,327.5469 58.7344,327.5469 C58.5156,327.5469 58.3125,327.625 58.125,327.8125 C57.6719,328.2969 57.6719,328.2969 57.4844,328.3906 C57.0625,328.6563 56.375,328.7813 55.6094,328.7813 C53.5625,328.7813 52.2656,327.6875 52.2656,325.9844 L52.2656,324.8906 C52.2656,323.1094 53.5156,321.7969 55.25,321.7969 C55.8281,321.7969 56.4375,321.9531 56.9063,322.2031 C57.3906,322.4844 57.5625,322.7031 57.6563,323.1094 C57.7188,323.5156 57.75,323.6406 57.8906,323.7656 C58.0313,323.9063 58.2656,324.0156 58.4844,324.0156 C58.75,324.0156 59.0156,323.875 59.1875,323.6563 C59.2969,323.5 59.3281,323.3125 59.3281,322.8906 L59.3281,321.4688 C59.3281,321.0313 59.3125,320.9063 59.2188,320.75 C59.0625,320.4844 58.7813,320.3438 58.4844,320.3438 C58.1875,320.3438 57.9844,320.4375 57.7656,320.75 L57.5938,320.6719 Z "/><text fill="#000000" font-family="sans-serif" font-size="12" lengthAdjust="spacingAndGlyphs" textLength="104" x="75.75" y="329.1543">LoggerDecorator</text><line style="stroke: #A80036; stroke-width: 1.5;" x1="8" x2="215" y1="341" y2="341"/><text fill="#000000" font-family="sans-serif" font-size="11" lengthAdjust="spacingAndGlyphs" textLength="114" x="13" y="355.2104">#m_logger: Logger*</text><line style="stroke: #A80036; stroke-width: 1.5;" x1="8" x2="215" y1="361.8047" y2="361.8047"/><text fill="#000000" font-family="sans-serif" font-size="11" lengthAdjust="spacingAndGlyphs" textLength="197" x="13" y="376.0151">+LoggerDecorator(Logger* logger)</text><text fill="#000000" font-family="sans-serif" font-size="11" font-style="italic" lengthAdjust="spacingAndGlyphs" textLength="94" x="13" y="388.8198">+log(string):void</text><!--MD5=[617aad309f2d9c01a8b5954e6956c653]
class HTML--><rect codeLine="24" fill="#FEFECE" filter="url(#f1j85h9mx9id5n)" height="73.6094" id="HTML" style="stroke: #A80036; stroke-width: 1.5;" width="137" x="8" y="558"/><ellipse cx="56.25" cy="574" fill="#ADD1B2" rx="11" ry="11" style="stroke: #A80036; stroke-width: 1.0;"/><path d="M58.5938,569.6719 C57.6563,569.2344 57.0625,569.0938 56.1875,569.0938 C53.5625,569.0938 51.5625,571.1719 51.5625,573.8906 L51.5625,575.0156 C51.5625,577.5938 53.6719,579.4844 56.5625,579.4844 C57.7813,579.4844 58.9375,579.1875 59.6875,578.6406 C60.2656,578.2344 60.5938,577.7813 60.5938,577.3906 C60.5938,576.9375 60.2031,576.5469 59.7344,576.5469 C59.5156,576.5469 59.3125,576.625 59.125,576.8125 C58.6719,577.2969 58.6719,577.2969 58.4844,577.3906 C58.0625,577.6563 57.375,577.7813 56.6094,577.7813 C54.5625,577.7813 53.2656,576.6875 53.2656,574.9844 L53.2656,573.8906 C53.2656,572.1094 54.5156,570.7969 56.25,570.7969 C56.8281,570.7969 57.4375,570.9531 57.9063,571.2031 C58.3906,571.4844 58.5625,571.7031 58.6563,572.1094 C58.7188,572.5156 58.75,572.6406 58.8906,572.7656 C59.0313,572.9063 59.2656,573.0156 59.4844,573.0156 C59.75,573.0156 60.0156,572.875 60.1875,572.6563 C60.2969,572.5 60.3281,572.3125 60.3281,571.8906 L60.3281,570.4688 C60.3281,570.0313 60.3125,569.9063 60.2188,569.75 C60.0625,569.4844 59.7813,569.3438 59.4844,569.3438 C59.1875,569.3438 58.9844,569.4375 58.7656,569.75 L58.5938,569.6719 Z "/><text fill="#000000" font-family="sans-serif" font-size="12" lengthAdjust="spacingAndGlyphs" textLength="32" x="76.75" y="578.1543">HTML</text><line style="stroke: #A80036; stroke-width: 1.5;" x1="9" x2="144" y1="590" y2="590"/><line style="stroke: #A80036; stroke-width: 1.5;" x1="9" x2="144" y1="598" y2="598"/><text fill="#000000" font-family="sans-serif" font-size="11" lengthAdjust="spacingAndGlyphs" textLength="92" x="14" y="612.2104">+log(string):void</text><text fill="#000000" font-family="sans-serif" font-size="11" lengthAdjust="spacingAndGlyphs" textLength="125" x="14" y="625.0151">+HTMLLog(string):void</text><!--MD5=[62c586656c8e4b39ade03990a7c3a6b2]
class SQL--><rect codeLine="30" fill="#FEFECE" filter="url(#f1j85h9mx9id5n)" height="73.6094" id="SQL" style="stroke: #A80036; stroke-width: 1.5;" width="123" x="203" y="559"/><ellipse cx="248.25" cy="575" fill="#ADD1B2" rx="11" ry="11" style="stroke: #A80036; stroke-width: 1.0;"/><path d="M250.5938,570.6719 C249.6563,570.2344 249.0625,570.0938 248.1875,570.0938 C245.5625,570.0938 243.5625,572.1719 243.5625,574.8906 L243.5625,576.0156 C243.5625,578.5938 245.6719,580.4844 248.5625,580.4844 C249.7813,580.4844 250.9375,580.1875 251.6875,579.6406 C252.2656,579.2344 252.5938,578.7813 252.5938,578.3906 C252.5938,577.9375 252.2031,577.5469 251.7344,577.5469 C251.5156,577.5469 251.3125,577.625 251.125,577.8125 C250.6719,578.2969 250.6719,578.2969 250.4844,578.3906 C250.0625,578.6563 249.375,578.7813 248.6094,578.7813 C246.5625,578.7813 245.2656,577.6875 245.2656,575.9844 L245.2656,574.8906 C245.2656,573.1094 246.5156,571.7969 248.25,571.7969 C248.8281,571.7969 249.4375,571.9531 249.9063,572.2031 C250.3906,572.4844 250.5625,572.7031 250.6563,573.1094 C250.7188,573.5156 250.75,573.6406 250.8906,573.7656 C251.0313,573.9063 251.2656,574.0156 251.4844,574.0156 C251.75,574.0156 252.0156,573.875 252.1875,573.6563 C252.2969,573.5 252.3281,573.3125 252.3281,572.8906 L252.3281,571.4688 C252.3281,571.0313 252.3125,570.9063 252.2188,570.75 C252.0625,570.4844 251.7813,570.3438 251.4844,570.3438 C251.1875,570.3438 250.9844,570.4375 250.7656,570.75 L250.5938,570.6719 Z "/><text fill="#000000" font-family="sans-serif" font-size="12" lengthAdjust="spacingAndGlyphs" textLength="24" x="268.75" y="579.1543">SQL</text><line style="stroke: #A80036; stroke-width: 1.5;" x1="204" x2="325" y1="591" y2="591"/><line style="stroke: #A80036; stroke-width: 1.5;" x1="204" x2="325" y1="599" y2="599"/><text fill="#000000" font-family="sans-serif" font-size="11" lengthAdjust="spacingAndGlyphs" textLength="92" x="209" y="613.2104">+log(string):void</text><text fill="#000000" font-family="sans-serif" font-size="11" lengthAdjust="spacingAndGlyphs" textLength="111" x="209" y="626.0151">+sqlLog(string):void</text><!--MD5=[ed6624c6556d5e7b1bd23032162d20b7]
class Client--><rect codeLine="36" fill="#FEFECE" filter="url(#f1j85h9mx9id5n)" height="48" id="Client" style="stroke: #A80036; stroke-width: 1.5;" width="65" x="79" y="9.5"/><ellipse cx="94" cy="25.5" fill="#ADD1B2" rx="11" ry="11" style="stroke: #A80036; stroke-width: 1.0;"/><path d="M96.3438,21.1719 C95.4063,20.7344 94.8125,20.5938 93.9375,20.5938 C91.3125,20.5938 89.3125,22.6719 89.3125,25.3906 L89.3125,26.5156 C89.3125,29.0938 91.4219,30.9844 94.3125,30.9844 C95.5313,30.9844 96.6875,30.6875 97.4375,30.1406 C98.0156,29.7344 98.3438,29.2813 98.3438,28.8906 C98.3438,28.4375 97.9531,28.0469 97.4844,28.0469 C97.2656,28.0469 97.0625,28.125 96.875,28.3125 C96.4219,28.7969 96.4219,28.7969 96.2344,28.8906 C95.8125,29.1563 95.125,29.2813 94.3594,29.2813 C92.3125,29.2813 91.0156,28.1875 91.0156,26.4844 L91.0156,25.3906 C91.0156,23.6094 92.2656,22.2969 94,22.2969 C94.5781,22.2969 95.1875,22.4531 95.6563,22.7031 C96.1406,22.9844 96.3125,23.2031 96.4063,23.6094 C96.4688,24.0156 96.5,24.1406 96.6406,24.2656 C96.7813,24.4063 97.0156,24.5156 97.2344,24.5156 C97.5,24.5156 97.7656,24.375 97.9375,24.1563 C98.0469,24 98.0781,23.8125 98.0781,23.3906 L98.0781,21.9688 C98.0781,21.5313 98.0625,21.4063 97.9688,21.25 C97.8125,20.9844 97.5313,20.8438 97.2344,20.8438 C96.9375,20.8438 96.7344,20.9375 96.5156,21.25 L96.3438,21.1719 Z "/><text fill="#000000" font-family="sans-serif" font-size="12" lengthAdjust="spacingAndGlyphs" textLength="33" x="108" y="29.6543">Client</text><line style="stroke: #A80036; stroke-width: 1.5;" x1="80" x2="143" y1="41.5" y2="41.5"/><line style="stroke: #A80036; stroke-width: 1.5;" x1="80" x2="143" y1="49.5" y2="49.5"/><path d="M179.5,6 L179.5,29.5 L144.07,33.5 L179.5,37.5 L179.5,61.3984 A0,0 0 0 0 179.5,61.3984 L801.5,61.3984 A0,0 0 0 0 801.5,61.3984 L801.5,16 L791.5,6 L179.5,6 A0,0 0 0 0 179.5,6 " fill="#FBFB77" filter="url(#f1j85h9mx9id5n)" style="stroke: #A80036; stroke-width: 1.0;"/><path d="M791.5,6 L791.5,16 L801.5,16 L791.5,6 " fill="#FBFB77" style="stroke: #A80036; stroke-width: 1.0;"/><text fill="#000000" font-family="sans-serif" font-size="13" lengthAdjust="spacingAndGlyphs" textLength="242" x="185.5" y="23.0669">Logger *file_logger=new FileLogger();</text><text fill="#000000" font-family="sans-serif" font-size="13" lengthAdjust="spacingAndGlyphs" textLength="318" x="185.5" y="38.1997">Logger *file_logger_HTML=new HTML(file_logger);</text><text fill="#000000" font-family="sans-serif" font-size="13" lengthAdjust="spacingAndGlyphs" textLength="601" x="185.5" y="53.3325">Logger *file_logger_HTML_SQL=new SQL(file_logger_HTML);file_logger_HTML_SQL-&gt;log(string)</text><path d="M201,455 L201,495.2656 A0,0 0 0 0 201,495.2656 L292.206,495.2656 L327.5,609 L300.206,495.2656 L362,495.2656 A0,0 0 0 0 362,495.2656 L362,465 L352,455 L201,455 A0,0 0 0 0 201,455 " fill="#FBFB77" filter="url(#f1j85h9mx9id5n)" style="stroke: #A80036; stroke-width: 1.0;"/><path d="M352,455 L352,465 L362,465 L352,455 " fill="#FBFB77" style="stroke: #A80036; stroke-width: 1.0;"/><text fill="#000000" font-family="sans-serif" font-size="13" lengthAdjust="spacingAndGlyphs" textLength="140" x="207" y="472.0669">m_logger-&gt;log(string)</text><text fill="#000000" font-family="sans-serif" font-size="13" lengthAdjust="spacingAndGlyphs" textLength="96" x="207" y="487.1997">sqlLog(string) ;</text><!--MD5=[44d3129ac4a4684486463eebc15938f9]
reverse link Logger to LoggerDecorator--><path codeLine="37" d="M100.016,208.576 C98.0967,240.121 98.3597,279.573 100.8048,308.951 " fill="none" id="Logger-backto-LoggerDecorator" style="stroke: #A80036; stroke-width: 1.0; stroke-dasharray: 7.0,7.0;"/><polygon fill="none" points="93.0743,207.58,101.6933,188.222,107.027,208.73,93.0743,207.58" style="stroke: #A80036; stroke-width: 1.0;"/><!--MD5=[fd1c3bd61aadcb41acd904590574f495]
reverse link LoggerDecorator to Logger--><path codeLine="38" d="M123.8,295.664 C125.889,260.993 125.25,217.49 121.884,188.222 " fill="none" id="LoggerDecorator-backto-Logger" style="stroke: #A80036; stroke-width: 1.0;"/><polygon fill="#FFFFFF" points="122.824,308.951,127.253,303.2603,123.7035,296.9833,119.2745,302.674,122.824,308.951" style="stroke: #A80036; stroke-width: 1.0;"/><!--MD5=[ebf78f96974fdac24a1171489ac97f4d]
reverse link LoggerDecorator to SQL--><path codeLine="40" d="M138.54,413.385 C151.015,439.234 166.764,469.316 183.5,495 C196.957,515.653 213.973,537.0079 228.931,554.5737 " fill="none" id="LoggerDecorator-backto-SQL" style="stroke: #A80036; stroke-width: 1.0; stroke-dasharray: 7.0,7.0;"/><polygon fill="none" points="132.075,416.087,129.872,395.012,144.736,410.114,132.075,416.087" style="stroke: #A80036; stroke-width: 1.0;"/><!--MD5=[ac6370f136706ab27db15ee311223d2e]
reverse link LoggerDecorator to HTML--><path codeLine="41" d="M102.4681,415.191 C95.9029,460.397 87.2424,520.031 81.771,557.7054 " fill="none" id="LoggerDecorator-backto-HTML" style="stroke: #A80036; stroke-width: 1.0; stroke-dasharray: 7.0,7.0;"/><polygon fill="none" points="95.5616,414.041,105.3634,395.255,109.416,416.053,95.5616,414.041" style="stroke: #A80036; stroke-width: 1.0;"/><!--MD5=[ca9943a1d91ee5f8a8798faaa687f9ad]
reverse link Logger to FileLogger--><path codeLine="44" d="M157.809,202.654 C194.101,239.606 243.472,289.877 274.406,321.376 " fill="none" id="Logger-backto-FileLogger" style="stroke: #A80036; stroke-width: 1.0; stroke-dasharray: 7.0,7.0;"/><polygon fill="none" points="152.656,207.396,143.636,188.222,162.645,197.587,152.656,207.396" style="stroke: #A80036; stroke-width: 1.0;"/><!--MD5=[6ed9a70b9357eeeb249e036f24c5af71]
link Client to Logger--><path codeLine="45" d="M111.5,57.727 C111.5,74.173 111.5,96.597 111.5,115.613 " fill="none" id="Client-to-Logger" style="stroke: #A80036; stroke-width: 1.0;"/><polygon fill="#A80036" points="111.5,120.878,115.5,111.878,111.5,115.878,107.5,111.878,111.5,120.878" style="stroke: #A80036; stroke-width: 1.0;"/><!--MD5=[f07fbf6e5de6c07b9b82c91a1acd31c4]
@startuml
skinparam classAttributeIconSize 0



interface "<<Interface>>\n Logger" as Logger
{
    +{abstract} log(string):void
}

class FileLogger
{
    +log(string):void
}
note "log to text file" as FileLoggerNote
FileLoggerNote -left.. FileLogger

class LoggerDecorator
{
# m_logger: Logger*
+LoggerDecorator(Logger* logger)    
+{abstract} log(string):void
}

class HTML
{
+ log(string):void
+ HTMLLog(string):void
}

class SQL
{
+ log(string):void
+ sqlLog(string):void
}

class Client{}
LoggerDecorator -up..|> Logger
LoggerDecorator o- - Logger

SQL -up..|> LoggerDecorator
HTML -up..|> LoggerDecorator


FileLogger -up..|> Logger
Client - -> Logger


note "Logger *file_logger=new FileLogger();\nLogger *file_logger_HTML=new HTML(file_logger);\nLogger *file_logger_HTML_SQL=new SQL(file_logger_HTML);\ file_logger_HTML_SQL->log(string)" as ClientNote


ClientNote -left- -Client

note "m_logger->log(string)\nsqlLog(string) ;" as SQLlog

SQLlog - - SQL::log
@enduml

PlantUML version 1.2020.18beta4(Unknown compile time)
(GPL source distribution)
Java Runtime: Java(TM) SE Runtime Environment
JVM: Java HotSpot(TM) 64-Bit Server VM
Default Encoding: UTF-8
Language: en
Country: US
--></g></svg>