<?xml version="1.0" encoding="UTF-8" standalone="no"?><svg xmlns="http://www.w3.org/2000/svg" xmlns:xlink="http://www.w3.org/1999/xlink" contentScriptType="application/ecmascript" contentStyleType="text/css" height="548px" preserveAspectRatio="none" style="width:981px;height:548px;" version="1.1" viewBox="0 0 981 548" width="981px" zoomAndPan="magnify"><defs><filter height="300%" id="f1cxr70dfa2mlx" width="300%" x="-1" y="-1"><feGaussianBlur result="blurOut" stdDeviation="2.0"/><feColorMatrix in="blurOut" result="blurOut2" type="matrix" values="0 0 0 0 0 0 0 0 0 0 0 0 0 0 0 0 0 0 .4 0"/><feOffset dx="4.0" dy="4.0" in="blurOut2" result="blurOut3"/><feBlend in="SourceGraphic" in2="blurOut3" mode="normal"/></filter></defs><g><!--MD5=[90ba54f54370e77ef24813dec6818fa3]
class Button--><rect codeLine="3" fill="#FEFECE" filter="url(#f1cxr70dfa2mlx)" height="66.7422" id="Button" style="stroke: #A80036; stroke-width: 1.5;" width="129" x="687" y="121.5"/><ellipse cx="702" cy="140.4688" fill="#B4A7E5" rx="11" ry="11" style="stroke: #A80036; stroke-width: 1.0;"/><path d="M702.9531,137.25 L704.6719,137.25 C705.0625,137.25 705.25,137.2188 705.375,137.1406 C705.6406,136.9844 705.7813,136.7031 705.7813,136.4063 C705.7813,136.1406 705.6719,135.875 705.4375,135.7031 C705.2656,135.5938 705.125,135.5625 704.6719,135.5625 L699.5313,135.5625 C699.0938,135.5625 698.9688,135.5781 698.8125,135.6719 C698.5625,135.8281 698.4063,136.125 698.4063,136.4063 C698.4063,136.6875 698.5469,136.9375 698.7656,137.1094 C698.9219,137.2188 699.1094,137.25 699.5313,137.25 L701.25,137.25 L701.25,143.7656 L699.5313,143.7656 C699.0938,143.7656 698.9688,143.7813 698.8125,143.8906 C698.5625,144.0469 698.4063,144.3281 698.4063,144.625 C698.4063,144.875 698.5469,145.1406 698.7656,145.2969 C698.9219,145.4219 699.125,145.4688 699.5313,145.4688 L704.6719,145.4688 C705.4219,145.4688 705.7813,145.1875 705.7813,144.625 C705.7813,144.3438 705.6719,144.0938 705.4375,143.9219 C705.2656,143.7969 705.125,143.7656 704.6719,143.7656 L702.9531,143.7656 L702.9531,137.25 Z "/><text fill="#000000" font-family="sans-serif" font-size="12" font-style="italic" lengthAdjust="spacingAndGlyphs" textLength="93" x="716" y="137.6387">&lt;&lt;interafce&gt;&gt;</text><text fill="#000000" font-family="sans-serif" font-size="12" font-style="italic" lengthAdjust="spacingAndGlyphs" textLength="41" x="746" y="151.6074">Button</text><line style="stroke: #A80036; stroke-width: 1.5;" x1="688" x2="815" y1="159.4375" y2="159.4375"/><line style="stroke: #A80036; stroke-width: 1.5;" x1="688" x2="815" y1="167.4375" y2="167.4375"/><text fill="#000000" font-family="sans-serif" font-size="11" font-style="italic" lengthAdjust="spacingAndGlyphs" textLength="73" x="693" y="181.6479">+draw():void</text><!--MD5=[f0268dd29ee89052933f031546cb1cab]
class Menu--><rect codeLine="8" fill="#FEFECE" filter="url(#f1cxr70dfa2mlx)" height="66.7422" id="Menu" style="stroke: #A80036; stroke-width: 1.5;" width="129" x="470" y="121.5"/><ellipse cx="485" cy="140.4688" fill="#B4A7E5" rx="11" ry="11" style="stroke: #A80036; stroke-width: 1.0;"/><path d="M485.9531,137.25 L487.6719,137.25 C488.0625,137.25 488.25,137.2188 488.375,137.1406 C488.6406,136.9844 488.7813,136.7031 488.7813,136.4063 C488.7813,136.1406 488.6719,135.875 488.4375,135.7031 C488.2656,135.5938 488.125,135.5625 487.6719,135.5625 L482.5313,135.5625 C482.0938,135.5625 481.9688,135.5781 481.8125,135.6719 C481.5625,135.8281 481.4063,136.125 481.4063,136.4063 C481.4063,136.6875 481.5469,136.9375 481.7656,137.1094 C481.9219,137.2188 482.1094,137.25 482.5313,137.25 L484.25,137.25 L484.25,143.7656 L482.5313,143.7656 C482.0938,143.7656 481.9688,143.7813 481.8125,143.8906 C481.5625,144.0469 481.4063,144.3281 481.4063,144.625 C481.4063,144.875 481.5469,145.1406 481.7656,145.2969 C481.9219,145.4219 482.125,145.4688 482.5313,145.4688 L487.6719,145.4688 C488.4219,145.4688 488.7813,145.1875 488.7813,144.625 C488.7813,144.3438 488.6719,144.0938 488.4375,143.9219 C488.2656,143.7969 488.125,143.7656 487.6719,143.7656 L485.9531,143.7656 L485.9531,137.25 Z "/><text fill="#000000" font-family="sans-serif" font-size="12" font-style="italic" lengthAdjust="spacingAndGlyphs" textLength="93" x="499" y="137.6387">&lt;&lt;interafce&gt;&gt;</text><text fill="#000000" font-family="sans-serif" font-size="12" font-style="italic" lengthAdjust="spacingAndGlyphs" textLength="33" x="533" y="151.6074">Menu</text><line style="stroke: #A80036; stroke-width: 1.5;" x1="471" x2="598" y1="159.4375" y2="159.4375"/><line style="stroke: #A80036; stroke-width: 1.5;" x1="471" x2="598" y1="167.4375" y2="167.4375"/><text fill="#000000" font-family="sans-serif" font-size="11" font-style="italic" lengthAdjust="spacingAndGlyphs" textLength="73" x="476" y="181.6479">+draw():void</text><!--MD5=[4c48139c2514dc86f767ef24cb2e60f9]
class LinuxButton--><rect codeLine="13" fill="#FEFECE" filter="url(#f1cxr70dfa2mlx)" height="48" id="LinuxButton" style="stroke: #A80036; stroke-width: 1.5;" width="100" x="701.5" y="329"/><ellipse cx="716.5" cy="345" fill="#ADD1B2" rx="11" ry="11" style="stroke: #A80036; stroke-width: 1.0;"/><path d="M718.8438,340.6719 C717.9063,340.2344 717.3125,340.0938 716.4375,340.0938 C713.8125,340.0938 711.8125,342.1719 711.8125,344.8906 L711.8125,346.0156 C711.8125,348.5938 713.9219,350.4844 716.8125,350.4844 C718.0313,350.4844 719.1875,350.1875 719.9375,349.6406 C720.5156,349.2344 720.8438,348.7813 720.8438,348.3906 C720.8438,347.9375 720.4531,347.5469 719.9844,347.5469 C719.7656,347.5469 719.5625,347.625 719.375,347.8125 C718.9219,348.2969 718.9219,348.2969 718.7344,348.3906 C718.3125,348.6563 717.625,348.7813 716.8594,348.7813 C714.8125,348.7813 713.5156,347.6875 713.5156,345.9844 L713.5156,344.8906 C713.5156,343.1094 714.7656,341.7969 716.5,341.7969 C717.0781,341.7969 717.6875,341.9531 718.1563,342.2031 C718.6406,342.4844 718.8125,342.7031 718.9063,343.1094 C718.9688,343.5156 719,343.6406 719.1406,343.7656 C719.2813,343.9063 719.5156,344.0156 719.7344,344.0156 C720,344.0156 720.2656,343.875 720.4375,343.6563 C720.5469,343.5 720.5781,343.3125 720.5781,342.8906 L720.5781,341.4688 C720.5781,341.0313 720.5625,340.9063 720.4688,340.75 C720.3125,340.4844 720.0313,340.3438 719.7344,340.3438 C719.4375,340.3438 719.2344,340.4375 719.0156,340.75 L718.8438,340.6719 Z "/><text fill="#000000" font-family="sans-serif" font-size="12" lengthAdjust="spacingAndGlyphs" textLength="68" x="730.5" y="349.1543">LinuxButton</text><line style="stroke: #A80036; stroke-width: 1.5;" x1="702.5" x2="800.5" y1="361" y2="361"/><line style="stroke: #A80036; stroke-width: 1.5;" x1="702.5" x2="800.5" y1="369" y2="369"/><!--MD5=[e89f6e1cf8eb620547694a2419424e7b]
class LinuxMenu--><rect codeLine="14" fill="#FEFECE" filter="url(#f1cxr70dfa2mlx)" height="48" id="LinuxMenu" style="stroke: #A80036; stroke-width: 1.5;" width="94" x="417.5" y="329"/><ellipse cx="432.5" cy="345" fill="#ADD1B2" rx="11" ry="11" style="stroke: #A80036; stroke-width: 1.0;"/><path d="M434.8438,340.6719 C433.9063,340.2344 433.3125,340.0938 432.4375,340.0938 C429.8125,340.0938 427.8125,342.1719 427.8125,344.8906 L427.8125,346.0156 C427.8125,348.5938 429.9219,350.4844 432.8125,350.4844 C434.0313,350.4844 435.1875,350.1875 435.9375,349.6406 C436.5156,349.2344 436.8438,348.7813 436.8438,348.3906 C436.8438,347.9375 436.4531,347.5469 435.9844,347.5469 C435.7656,347.5469 435.5625,347.625 435.375,347.8125 C434.9219,348.2969 434.9219,348.2969 434.7344,348.3906 C434.3125,348.6563 433.625,348.7813 432.8594,348.7813 C430.8125,348.7813 429.5156,347.6875 429.5156,345.9844 L429.5156,344.8906 C429.5156,343.1094 430.7656,341.7969 432.5,341.7969 C433.0781,341.7969 433.6875,341.9531 434.1563,342.2031 C434.6406,342.4844 434.8125,342.7031 434.9063,343.1094 C434.9688,343.5156 435,343.6406 435.1406,343.7656 C435.2813,343.9063 435.5156,344.0156 435.7344,344.0156 C436,344.0156 436.2656,343.875 436.4375,343.6563 C436.5469,343.5 436.5781,343.3125 436.5781,342.8906 L436.5781,341.4688 C436.5781,341.0313 436.5625,340.9063 436.4688,340.75 C436.3125,340.4844 436.0313,340.3438 435.7344,340.3438 C435.4375,340.3438 435.2344,340.4375 435.0156,340.75 L434.8438,340.6719 Z "/><text fill="#000000" font-family="sans-serif" font-size="12" lengthAdjust="spacingAndGlyphs" textLength="62" x="446.5" y="349.1543">LinuxMenu</text><line style="stroke: #A80036; stroke-width: 1.5;" x1="418.5" x2="510.5" y1="361" y2="361"/><line style="stroke: #A80036; stroke-width: 1.5;" x1="418.5" x2="510.5" y1="369" y2="369"/><!--MD5=[e7ead23f5f29037e681f7eee9e8c75aa]
class WindowsButton--><rect codeLine="15" fill="#FEFECE" filter="url(#f1cxr70dfa2mlx)" height="48" id="WindowsButton" style="stroke: #A80036; stroke-width: 1.5;" width="125" x="837" y="329"/><ellipse cx="852" cy="345" fill="#ADD1B2" rx="11" ry="11" style="stroke: #A80036; stroke-width: 1.0;"/><path d="M854.3438,340.6719 C853.4063,340.2344 852.8125,340.0938 851.9375,340.0938 C849.3125,340.0938 847.3125,342.1719 847.3125,344.8906 L847.3125,346.0156 C847.3125,348.5938 849.4219,350.4844 852.3125,350.4844 C853.5313,350.4844 854.6875,350.1875 855.4375,349.6406 C856.0156,349.2344 856.3438,348.7813 856.3438,348.3906 C856.3438,347.9375 855.9531,347.5469 855.4844,347.5469 C855.2656,347.5469 855.0625,347.625 854.875,347.8125 C854.4219,348.2969 854.4219,348.2969 854.2344,348.3906 C853.8125,348.6563 853.125,348.7813 852.3594,348.7813 C850.3125,348.7813 849.0156,347.6875 849.0156,345.9844 L849.0156,344.8906 C849.0156,343.1094 850.2656,341.7969 852,341.7969 C852.5781,341.7969 853.1875,341.9531 853.6563,342.2031 C854.1406,342.4844 854.3125,342.7031 854.4063,343.1094 C854.4688,343.5156 854.5,343.6406 854.6406,343.7656 C854.7813,343.9063 855.0156,344.0156 855.2344,344.0156 C855.5,344.0156 855.7656,343.875 855.9375,343.6563 C856.0469,343.5 856.0781,343.3125 856.0781,342.8906 L856.0781,341.4688 C856.0781,341.0313 856.0625,340.9063 855.9688,340.75 C855.8125,340.4844 855.5313,340.3438 855.2344,340.3438 C854.9375,340.3438 854.7344,340.4375 854.5156,340.75 L854.3438,340.6719 Z "/><text fill="#000000" font-family="sans-serif" font-size="12" lengthAdjust="spacingAndGlyphs" textLength="93" x="866" y="349.1543">WindowsButton</text><line style="stroke: #A80036; stroke-width: 1.5;" x1="838" x2="961" y1="361" y2="361"/><line style="stroke: #A80036; stroke-width: 1.5;" x1="838" x2="961" y1="369" y2="369"/><!--MD5=[63361093a1b5f5732bb13391ba1a154c]
class WindowsMenu--><rect codeLine="16" fill="#FEFECE" filter="url(#f1cxr70dfa2mlx)" height="48" id="WindowsMenu" style="stroke: #A80036; stroke-width: 1.5;" width="119" x="547" y="329"/><ellipse cx="562" cy="345" fill="#ADD1B2" rx="11" ry="11" style="stroke: #A80036; stroke-width: 1.0;"/><path d="M564.3438,340.6719 C563.4063,340.2344 562.8125,340.0938 561.9375,340.0938 C559.3125,340.0938 557.3125,342.1719 557.3125,344.8906 L557.3125,346.0156 C557.3125,348.5938 559.4219,350.4844 562.3125,350.4844 C563.5313,350.4844 564.6875,350.1875 565.4375,349.6406 C566.0156,349.2344 566.3438,348.7813 566.3438,348.3906 C566.3438,347.9375 565.9531,347.5469 565.4844,347.5469 C565.2656,347.5469 565.0625,347.625 564.875,347.8125 C564.4219,348.2969 564.4219,348.2969 564.2344,348.3906 C563.8125,348.6563 563.125,348.7813 562.3594,348.7813 C560.3125,348.7813 559.0156,347.6875 559.0156,345.9844 L559.0156,344.8906 C559.0156,343.1094 560.2656,341.7969 562,341.7969 C562.5781,341.7969 563.1875,341.9531 563.6563,342.2031 C564.1406,342.4844 564.3125,342.7031 564.4063,343.1094 C564.4688,343.5156 564.5,343.6406 564.6406,343.7656 C564.7813,343.9063 565.0156,344.0156 565.2344,344.0156 C565.5,344.0156 565.7656,343.875 565.9375,343.6563 C566.0469,343.5 566.0781,343.3125 566.0781,342.8906 L566.0781,341.4688 C566.0781,341.0313 566.0625,340.9063 565.9688,340.75 C565.8125,340.4844 565.5313,340.3438 565.2344,340.3438 C564.9375,340.3438 564.7344,340.4375 564.5156,340.75 L564.3438,340.6719 Z "/><text fill="#000000" font-family="sans-serif" font-size="12" lengthAdjust="spacingAndGlyphs" textLength="87" x="576" y="349.1543">WindowsMenu</text><line style="stroke: #A80036; stroke-width: 1.5;" x1="548" x2="665" y1="361" y2="361"/><line style="stroke: #A80036; stroke-width: 1.5;" x1="548" x2="665" y1="369" y2="369"/><!--MD5=[dcda66dabdb739ec36f1175150e3c9d5]
class Factory--><rect codeLine="18" fill="#FEFECE" filter="url(#f1cxr70dfa2mlx)" height="79.5469" id="Factory" style="stroke: #A80036; stroke-width: 1.5;" width="158" x="224.5" y="115"/><ellipse cx="252.55" cy="133.9688" fill="#B4A7E5" rx="11" ry="11" style="stroke: #A80036; stroke-width: 1.0;"/><path d="M253.5031,130.75 L255.2219,130.75 C255.6125,130.75 255.8,130.7188 255.925,130.6406 C256.1906,130.4844 256.3313,130.2031 256.3313,129.9063 C256.3313,129.6406 256.2219,129.375 255.9875,129.2031 C255.8156,129.0938 255.675,129.0625 255.2219,129.0625 L250.0813,129.0625 C249.6438,129.0625 249.5188,129.0781 249.3625,129.1719 C249.1125,129.3281 248.9563,129.625 248.9563,129.9063 C248.9563,130.1875 249.0969,130.4375 249.3156,130.6094 C249.4719,130.7188 249.6594,130.75 250.0813,130.75 L251.8,130.75 L251.8,137.2656 L250.0813,137.2656 C249.6438,137.2656 249.5188,137.2813 249.3625,137.3906 C249.1125,137.5469 248.9563,137.8281 248.9563,138.125 C248.9563,138.375 249.0969,138.6406 249.3156,138.7969 C249.4719,138.9219 249.675,138.9688 250.0813,138.9688 L255.2219,138.9688 C255.9719,138.9688 256.3313,138.6875 256.3313,138.125 C256.3313,137.8438 256.2219,137.5938 255.9875,137.4219 C255.8156,137.2969 255.675,137.2656 255.2219,137.2656 L253.5031,137.2656 L253.5031,130.75 Z "/><text fill="#000000" font-family="sans-serif" font-size="12" font-style="italic" lengthAdjust="spacingAndGlyphs" textLength="93" x="269.45" y="131.1387">&lt;&lt;interafce&gt;&gt;</text><text fill="#000000" font-family="sans-serif" font-size="12" font-style="italic" lengthAdjust="spacingAndGlyphs" textLength="45" x="297.45" y="145.1074">Factory</text><line style="stroke: #A80036; stroke-width: 1.5;" x1="225.5" x2="381.5" y1="152.9375" y2="152.9375"/><line style="stroke: #A80036; stroke-width: 1.5;" x1="225.5" x2="381.5" y1="160.9375" y2="160.9375"/><text fill="#000000" font-family="sans-serif" font-size="11" font-style="italic" lengthAdjust="spacingAndGlyphs" textLength="146" x="230.5" y="175.1479">+create_button(): *Button</text><text fill="#000000" font-family="sans-serif" font-size="11" font-style="italic" lengthAdjust="spacingAndGlyphs" textLength="135" x="230.5" y="187.9526">+create_menu(): *Menu</text><!--MD5=[7e85821152d07c4c9a933004c8946c39]
class LinuxFactory--><rect codeLine="24" fill="#FEFECE" filter="url(#f1cxr70dfa2mlx)" height="73.6094" id="LinuxFactory" style="stroke: #A80036; stroke-width: 1.5;" width="158" x="24.5" y="316"/><ellipse cx="62.45" cy="332" fill="#ADD1B2" rx="11" ry="11" style="stroke: #A80036; stroke-width: 1.0;"/><path d="M64.7938,327.6719 C63.8563,327.2344 63.2625,327.0938 62.3875,327.0938 C59.7625,327.0938 57.7625,329.1719 57.7625,331.8906 L57.7625,333.0156 C57.7625,335.5938 59.8719,337.4844 62.7625,337.4844 C63.9813,337.4844 65.1375,337.1875 65.8875,336.6406 C66.4656,336.2344 66.7938,335.7813 66.7938,335.3906 C66.7938,334.9375 66.4031,334.5469 65.9344,334.5469 C65.7156,334.5469 65.5125,334.625 65.325,334.8125 C64.8719,335.2969 64.8719,335.2969 64.6844,335.3906 C64.2625,335.6563 63.575,335.7813 62.8094,335.7813 C60.7625,335.7813 59.4656,334.6875 59.4656,332.9844 L59.4656,331.8906 C59.4656,330.1094 60.7156,328.7969 62.45,328.7969 C63.0281,328.7969 63.6375,328.9531 64.1063,329.2031 C64.5906,329.4844 64.7625,329.7031 64.8563,330.1094 C64.9188,330.5156 64.95,330.6406 65.0906,330.7656 C65.2313,330.9063 65.4656,331.0156 65.6844,331.0156 C65.95,331.0156 66.2156,330.875 66.3875,330.6563 C66.4969,330.5 66.5281,330.3125 66.5281,329.8906 L66.5281,328.4688 C66.5281,328.0313 66.5125,327.9063 66.4188,327.75 C66.2625,327.4844 65.9813,327.3438 65.6844,327.3438 C65.3875,327.3438 65.1844,327.4375 64.9656,327.75 L64.7938,327.6719 Z "/><text fill="#000000" font-family="sans-serif" font-size="12" lengthAdjust="spacingAndGlyphs" textLength="75" x="81.55" y="336.1543">LinuxFactory</text><line style="stroke: #A80036; stroke-width: 1.5;" x1="25.5" x2="181.5" y1="348" y2="348"/><line style="stroke: #A80036; stroke-width: 1.5;" x1="25.5" x2="181.5" y1="356" y2="356"/><text fill="#000000" font-family="sans-serif" font-size="11" lengthAdjust="spacingAndGlyphs" textLength="146" x="30.5" y="370.2104">+create_button(): *Button</text><text fill="#000000" font-family="sans-serif" font-size="11" lengthAdjust="spacingAndGlyphs" textLength="137" x="30.5" y="383.0151">+create_menu(): *Menu</text><path d="M6,511 L6,536.1328 A0,0 0 0 0 6,536.1328 L177,536.1328 A0,0 0 0 0 177,536.1328 L177,521 L167,511 L96.3388,511 L100.9257,390.147 L88.3388,511 L6,511 A0,0 0 0 0 6,511 " fill="#FBFB77" filter="url(#f1cxr70dfa2mlx)" style="stroke: #A80036; stroke-width: 1.0;"/><path d="M167,511 L167,521 L177,521 L167,511 " fill="#FBFB77" style="stroke: #A80036; stroke-width: 1.0;"/><text fill="#000000" font-family="sans-serif" font-size="13" lengthAdjust="spacingAndGlyphs" textLength="150" x="12" y="528.0669">return new LinuxButton</text><!--MD5=[696920af758feacbda922dd39c3ba604]
class WindowsFactory--><rect codeLine="30" fill="#FEFECE" filter="url(#f1cxr70dfa2mlx)" height="73.6094" id="WindowsFactory" style="stroke: #A80036; stroke-width: 1.5;" width="158" x="224.5" y="316"/><ellipse cx="251.2" cy="332" fill="#ADD1B2" rx="11" ry="11" style="stroke: #A80036; stroke-width: 1.0;"/><path d="M253.5438,327.6719 C252.6063,327.2344 252.0125,327.0938 251.1375,327.0938 C248.5125,327.0938 246.5125,329.1719 246.5125,331.8906 L246.5125,333.0156 C246.5125,335.5938 248.6219,337.4844 251.5125,337.4844 C252.7313,337.4844 253.8875,337.1875 254.6375,336.6406 C255.2156,336.2344 255.5438,335.7813 255.5438,335.3906 C255.5438,334.9375 255.1531,334.5469 254.6844,334.5469 C254.4656,334.5469 254.2625,334.625 254.075,334.8125 C253.6219,335.2969 253.6219,335.2969 253.4344,335.3906 C253.0125,335.6563 252.325,335.7813 251.5594,335.7813 C249.5125,335.7813 248.2156,334.6875 248.2156,332.9844 L248.2156,331.8906 C248.2156,330.1094 249.4656,328.7969 251.2,328.7969 C251.7781,328.7969 252.3875,328.9531 252.8563,329.2031 C253.3406,329.4844 253.5125,329.7031 253.6063,330.1094 C253.6688,330.5156 253.7,330.6406 253.8406,330.7656 C253.9813,330.9063 254.2156,331.0156 254.4344,331.0156 C254.7,331.0156 254.9656,330.875 255.1375,330.6563 C255.2469,330.5 255.2781,330.3125 255.2781,329.8906 L255.2781,328.4688 C255.2781,328.0313 255.2625,327.9063 255.1688,327.75 C255.0125,327.4844 254.7313,327.3438 254.4344,327.3438 C254.1375,327.3438 253.9344,327.4375 253.7156,327.75 L253.5438,327.6719 Z "/><text fill="#000000" font-family="sans-serif" font-size="12" lengthAdjust="spacingAndGlyphs" textLength="100" x="267.8" y="336.1543">WindowsFactory</text><line style="stroke: #A80036; stroke-width: 1.5;" x1="225.5" x2="381.5" y1="348" y2="348"/><line style="stroke: #A80036; stroke-width: 1.5;" x1="225.5" x2="381.5" y1="356" y2="356"/><text fill="#000000" font-family="sans-serif" font-size="11" lengthAdjust="spacingAndGlyphs" textLength="146" x="230.5" y="370.2104">+create_button(): *Button</text><text fill="#000000" font-family="sans-serif" font-size="11" lengthAdjust="spacingAndGlyphs" textLength="137" x="230.5" y="383.0151">+create_menu(): *Menu</text><path d="M212,511 L212,536.1328 A0,0 0 0 0 212,536.1328 L407,536.1328 A0,0 0 0 0 407,536.1328 L407,521 L397,511 L313.081,511 L304.787,390.147 L305.081,511 L212,511 A0,0 0 0 0 212,511 " fill="#FBFB77" filter="url(#f1cxr70dfa2mlx)" style="stroke: #A80036; stroke-width: 1.0;"/><path d="M397,511 L397,521 L407,521 L397,511 " fill="#FBFB77" style="stroke: #A80036; stroke-width: 1.0;"/><text fill="#000000" font-family="sans-serif" font-size="13" lengthAdjust="spacingAndGlyphs" textLength="174" x="218" y="528.0669">return new WindowsButton</text><!--MD5=[ed6624c6556d5e7b1bd23032162d20b7]
class Client--><rect codeLine="49" fill="#FEFECE" filter="url(#f1cxr70dfa2mlx)" height="48" id="Client" style="stroke: #A80036; stroke-width: 1.5;" width="65" x="502" y="7"/><ellipse cx="517" cy="23" fill="#ADD1B2" rx="11" ry="11" style="stroke: #A80036; stroke-width: 1.0;"/><path d="M519.3438,18.6719 C518.4063,18.2344 517.8125,18.0938 516.9375,18.0938 C514.3125,18.0938 512.3125,20.1719 512.3125,22.8906 L512.3125,24.0156 C512.3125,26.5938 514.4219,28.4844 517.3125,28.4844 C518.5313,28.4844 519.6875,28.1875 520.4375,27.6406 C521.0156,27.2344 521.3438,26.7813 521.3438,26.3906 C521.3438,25.9375 520.9531,25.5469 520.4844,25.5469 C520.2656,25.5469 520.0625,25.625 519.875,25.8125 C519.4219,26.2969 519.4219,26.2969 519.2344,26.3906 C518.8125,26.6563 518.125,26.7813 517.3594,26.7813 C515.3125,26.7813 514.0156,25.6875 514.0156,23.9844 L514.0156,22.8906 C514.0156,21.1094 515.2656,19.7969 517,19.7969 C517.5781,19.7969 518.1875,19.9531 518.6563,20.2031 C519.1406,20.4844 519.3125,20.7031 519.4063,21.1094 C519.4688,21.5156 519.5,21.6406 519.6406,21.7656 C519.7813,21.9063 520.0156,22.0156 520.2344,22.0156 C520.5,22.0156 520.7656,21.875 520.9375,21.6563 C521.0469,21.5 521.0781,21.3125 521.0781,20.8906 L521.0781,19.4688 C521.0781,19.0313 521.0625,18.9063 520.9688,18.75 C520.8125,18.4844 520.5313,18.3438 520.2344,18.3438 C519.9375,18.3438 519.7344,18.4375 519.5156,18.75 L519.3438,18.6719 Z "/><text fill="#000000" font-family="sans-serif" font-size="12" lengthAdjust="spacingAndGlyphs" textLength="33" x="531" y="27.1543">Client</text><line style="stroke: #A80036; stroke-width: 1.5;" x1="503" x2="566" y1="39" y2="39"/><line style="stroke: #A80036; stroke-width: 1.5;" x1="503" x2="566" y1="47" y2="47"/><!--MD5=[cf2d78a8a46b3c5b1c102709ec661e55]
reverse link Button to LinuxButton--><path codeLine="37" d="M751.5,208.821 C751.5,248.024 751.5,299.576 751.5,328.919 " fill="none" id="Button-backto-LinuxButton" style="stroke: #A80036; stroke-width: 1.0; stroke-dasharray: 7.0,7.0;"/><polygon fill="none" points="744.5,208.806,751.5,188.806,758.5,208.806,744.5,208.806" style="stroke: #A80036; stroke-width: 1.0;"/><!--MD5=[8bba3a1b9ca808612abad1fabd01b591]
reverse link Menu to LinuxMenu--><path codeLine="38" d="M516.022,207.737 C501.975,247.07 483.32,299.305 472.743,328.919 " fill="none" id="Menu-backto-LinuxMenu" style="stroke: #A80036; stroke-width: 1.0; stroke-dasharray: 7.0,7.0;"/><polygon fill="none" points="509.465,205.286,522.784,188.806,522.649,209.995,509.465,205.286" style="stroke: #A80036; stroke-width: 1.0;"/><!--MD5=[e18339c8002be8ea8941e593fb806cbc]
reverse link Button to WindowsButton--><path codeLine="40" d="M788.343,204.792 C818.27,244.426 859.147,298.559 882.071,328.919 " fill="none" id="Button-backto-WindowsButton" style="stroke: #A80036; stroke-width: 1.0; stroke-dasharray: 7.0,7.0;"/><polygon fill="none" points="782.738,208.985,776.272,188.806,793.91,200.549,782.738,208.985" style="stroke: #A80036; stroke-width: 1.0;"/><!--MD5=[fa3891e5e4511465fca4db95a9d0bfa8]
reverse link Menu to WindowsMenu--><path codeLine="41" d="M553.506,207.737 C567.954,247.07 587.143,299.305 598.021,328.919 " fill="none" id="Menu-backto-WindowsMenu" style="stroke: #A80036; stroke-width: 1.0; stroke-dasharray: 7.0,7.0;"/><polygon fill="none" points="546.877,209.993,546.551,188.806,560.018,205.166,546.877,209.993" style="stroke: #A80036; stroke-width: 1.0;"/><!--MD5=[10b3347d9aad484a836a9a0346b8e216]
reverse link Factory to LinuxFactory--><path codeLine="43" d="M248.877,209.531 C214.407,243.311 170.808,286.038 140.388,315.85 " fill="none" id="Factory-backto-LinuxFactory" style="stroke: #A80036; stroke-width: 1.0; stroke-dasharray: 7.0,7.0;"/><polygon fill="none" points="244.324,204.192,263.508,195.192,254.123,214.191,244.324,204.192" style="stroke: #A80036; stroke-width: 1.0;"/><!--MD5=[525d4efab8a6b2bf26f2998be2ac865c]
reverse link Factory to WindowsFactory--><path codeLine="44" d="M303.5,215.525 C303.5,248.249 303.5,287.776 303.5,315.85 " fill="none" id="Factory-backto-WindowsFactory" style="stroke: #A80036; stroke-width: 1.0; stroke-dasharray: 7.0,7.0;"/><polygon fill="none" points="296.5,215.192,303.5,195.192,310.5,215.192,296.5,215.192" style="stroke: #A80036; stroke-width: 1.0;"/><!--MD5=[487a26189a27787923ee7f5233f926e2]
link Client to Button--><path codeLine="50" d="M567.458,50.529 C600.893,69.327 653.328,98.807 693.691,121.499 " fill="none" id="Client-Button" style="stroke: #A80036; stroke-width: 1.0;"/><!--MD5=[3c3ef507ba43c838107eb128a617e698]
link Client to Menu--><path codeLine="51" d="M534.5,55.234 C534.5,73.901 534.5,100.346 534.5,121.175 " fill="none" id="Client-Menu" style="stroke: #A80036; stroke-width: 1.0;"/><!--MD5=[acb2335de36b06223ae1cf05587a0664]
link Client to Factory--><path codeLine="52" d="M501.893,49.221 C469.683,66.233 419.292,92.846 377.358,114.993 " fill="none" id="Client-Factory" style="stroke: #A80036; stroke-width: 1.0;"/><!--MD5=[df4c90fe2cbe2a19d6cb26ea9210bd4d]
@startuml
skinparam classAttributeIconSize 0

interface "<<interafce>> \n Button" as Button
{
+{abstract}  draw():void
}

interface "<<interafce>> \n Menu" as Menu
{
+{abstract}  draw():void
}

class LinuxButton{}
class LinuxMenu{}
class WindowsButton{}
class WindowsMenu{}

interface "<<interafce>> \n Factory" as Factory
{
    +{abstract} create_button(): *Button
    +{abstract} create_menu(): *Menu
}

class LinuxFactory
{
    + create_button(): *Button
    + create_menu(): *Menu
}
note  "return new LinuxButton" as LinuxFactorycreate_button
class WindowsFactory
{
    + create_button(): *Button
    + create_menu(): *Menu
}
note  "return new WindowsButton" as WindowsFactorycreate_button

LinuxButton -up..|> Button
LinuxMenu -up..|> Menu

WindowsButton -up..|> Button
WindowsMenu -up..|> Menu

LinuxFactory -up..|> Factory
WindowsFactory -up..|> Factory

WindowsFactorycreate_button -up..WindowsFactory
LinuxFactorycreate_button -up..LinuxFactory

class Client{}
Client- -Button
Client- -Menu
Client- -Factory
@enduml

PlantUML version 1.2020.17beta5(Unknown compile time)
(GPL source distribution)
Java Runtime: Java(TM) SE Runtime Environment
JVM: Java HotSpot(TM) 64-Bit Server VM
Default Encoding: UTF-8
Language: en
Country: US
--></g></svg>