<?xml version="1.0" encoding="UTF-8" standalone="no"?><svg xmlns="http://www.w3.org/2000/svg" xmlns:xlink="http://www.w3.org/1999/xlink" contentScriptType="application/ecmascript" contentStyleType="text/css" height="536px" preserveAspectRatio="none" style="width:1230px;height:536px;" version="1.1" viewBox="0 0 1230 536" width="1230px" zoomAndPan="magnify"><defs><filter height="300%" id="fl7q7yv7psb23" width="300%" x="-1" y="-1"><feGaussianBlur result="blurOut" stdDeviation="2.0"/><feColorMatrix in="blurOut" result="blurOut2" type="matrix" values="0 0 0 0 0 0 0 0 0 0 0 0 0 0 0 0 0 0 .4 0"/><feOffset dx="4.0" dy="4.0" in="blurOut2" result="blurOut3"/><feBlend in="SourceGraphic" in2="blurOut3" mode="normal"/></filter></defs><g><!--MD5=[23f49622d9caa5a284bac2a813e0efdc]
class BulletType--><rect codeLine="3" fill="#FEFECE" filter="url(#fl7q7yv7psb23)" height="73.6094" id="BulletType" style="stroke: #A80036; stroke-width: 1.5;" width="95" x="1116" y="58"/><ellipse cx="1131" cy="74" fill="#EB937F" rx="11" ry="11" style="stroke: #A80036; stroke-width: 1.0;"/><path d="M1129.7969,74.875 L1131.25,74.875 L1131.25,74.9844 C1131.25,75.3906 1131.2813,75.5469 1131.3594,75.7031 C1131.5156,75.9531 1131.7969,76.1094 1132.0938,76.1094 C1132.3438,76.1094 1132.6094,75.9688 1132.7656,75.75 C1132.8906,75.5938 1132.9219,75.4375 1132.9219,74.9844 L1132.9219,73.0625 C1132.9219,72.9063 1132.9219,72.8594 1132.9063,72.7031 C1132.8438,72.2344 1132.5313,71.9219 1132.0781,71.9219 C1131.8281,71.9219 1131.5625,72.0625 1131.3906,72.2813 C1131.2813,72.4531 1131.25,72.6094 1131.25,73.0625 L1131.25,73.1875 L1129.7969,73.1875 L1129.7969,70.7813 L1133.7813,70.7813 L1133.7813,71.6406 C1133.7813,72.0469 1133.8125,72.2188 1133.8906,72.375 C1134.0625,72.625 1134.3438,72.7813 1134.625,72.7813 C1134.8906,72.7813 1135.1563,72.6406 1135.3281,72.4219 C1135.4375,72.25 1135.4688,72.1094 1135.4688,71.6406 L1135.4688,69.0938 L1127.8438,69.0938 C1127.4063,69.0938 1127.2813,69.1094 1127.125,69.2031 C1126.875,69.3594 1126.7188,69.6563 1126.7188,69.9375 C1126.7188,70.2188 1126.8594,70.4688 1127.0781,70.6406 C1127.2344,70.75 1127.4219,70.7813 1127.8438,70.7813 L1128.0938,70.7813 L1128.0938,77.2969 L1127.8438,77.2969 C1127.4375,77.2969 1127.2813,77.3125 1127.125,77.4219 C1126.875,77.5938 1126.7188,77.8594 1126.7188,78.1563 C1126.7188,78.4219 1126.8594,78.6719 1127.0781,78.8281 C1127.2188,78.9531 1127.4531,79 1127.8438,79 L1135.8438,79 L1135.8438,76.4219 C1135.8438,75.9844 1135.8125,75.8438 1135.7344,75.6875 C1135.5625,75.4375 1135.2813,75.2813 1135,75.2813 C1134.7344,75.2813 1134.4688,75.3906 1134.2969,75.6406 C1134.1875,75.7969 1134.1563,75.9375 1134.1563,76.4219 L1134.1563,77.2969 L1129.7969,77.2969 L1129.7969,74.875 Z "/><text fill="#000000" font-family="sans-serif" font-size="12" lengthAdjust="spacingAndGlyphs" textLength="63" x="1145" y="78.1543">BulletType</text><line style="stroke: #A80036; stroke-width: 1.5;" x1="1117" x2="1210" y1="90" y2="90"/><text fill="#000000" font-family="sans-serif" font-size="11" lengthAdjust="spacingAndGlyphs" textLength="42" x="1122" y="104.2104">SIMPLE,</text><text fill="#000000" font-family="sans-serif" font-size="11" lengthAdjust="spacingAndGlyphs" textLength="62" x="1122" y="117.0151">EXPLOSIVE</text><line style="stroke: #A80036; stroke-width: 1.5;" x1="1117" x2="1210" y1="123.6094" y2="123.6094"/><!--MD5=[2824395d61b6e4620487641a86c41e67]
class Bullet--><rect codeLine="9" fill="#FEFECE" filter="url(#fl7q7yv7psb23)" height="176.0469" id="Bullet" style="stroke: #A80036; stroke-width: 1.5;" width="443" x="638" y="7"/><ellipse cx="838.75" cy="23" fill="#ADD1B2" rx="11" ry="11" style="stroke: #A80036; stroke-width: 1.0;"/><path d="M841.0938,18.6719 C840.1563,18.2344 839.5625,18.0938 838.6875,18.0938 C836.0625,18.0938 834.0625,20.1719 834.0625,22.8906 L834.0625,24.0156 C834.0625,26.5938 836.1719,28.4844 839.0625,28.4844 C840.2813,28.4844 841.4375,28.1875 842.1875,27.6406 C842.7656,27.2344 843.0938,26.7813 843.0938,26.3906 C843.0938,25.9375 842.7031,25.5469 842.2344,25.5469 C842.0156,25.5469 841.8125,25.625 841.625,25.8125 C841.1719,26.2969 841.1719,26.2969 840.9844,26.3906 C840.5625,26.6563 839.875,26.7813 839.1094,26.7813 C837.0625,26.7813 835.7656,25.6875 835.7656,23.9844 L835.7656,22.8906 C835.7656,21.1094 837.0156,19.7969 838.75,19.7969 C839.3281,19.7969 839.9375,19.9531 840.4063,20.2031 C840.8906,20.4844 841.0625,20.7031 841.1563,21.1094 C841.2188,21.5156 841.25,21.6406 841.3906,21.7656 C841.5313,21.9063 841.7656,22.0156 841.9844,22.0156 C842.25,22.0156 842.5156,21.875 842.6875,21.6563 C842.7969,21.5 842.8281,21.3125 842.8281,20.8906 L842.8281,19.4688 C842.8281,19.0313 842.8125,18.9063 842.7188,18.75 C842.5625,18.4844 842.2813,18.3438 841.9844,18.3438 C841.6875,18.3438 841.4844,18.4375 841.2656,18.75 L841.0938,18.6719 Z "/><text fill="#000000" font-family="sans-serif" font-size="12" lengthAdjust="spacingAndGlyphs" textLength="33" x="859.25" y="27.1543">Bullet</text><line style="stroke: #A80036; stroke-width: 1.5;" x1="639" x2="1080" y1="39" y2="39"/><text fill="#000000" font-family="sans-serif" font-size="11" lengthAdjust="spacingAndGlyphs" textLength="67" x="644" y="53.2104">name:string</text><text fill="#000000" font-family="sans-serif" font-size="11" lengthAdjust="spacingAndGlyphs" textLength="82" x="644" y="66.0151">-speed:double</text><text fill="#000000" font-family="sans-serif" font-size="11" lengthAdjust="spacingAndGlyphs" textLength="99" x="644" y="78.8198">-firePower:double</text><text fill="#000000" font-family="sans-serif" font-size="11" lengthAdjust="spacingAndGlyphs" textLength="120" x="644" y="91.6245">-damgePower:double</text><text fill="#000000" font-family="sans-serif" font-size="11" lengthAdjust="spacingAndGlyphs" textLength="95" x="644" y="104.4292">-direction:double</text><text fill="#000000" font-family="sans-serif" font-size="11" lengthAdjust="spacingAndGlyphs" textLength="31" x="644" y="117.2339">-id:int</text><line style="stroke: #A80036; stroke-width: 1.5;" x1="639" x2="1080" y1="123.8281" y2="123.8281"/><text fill="#000000" font-family="sans-serif" font-size="11" lengthAdjust="spacingAndGlyphs" textLength="155" x="644" y="138.0386">+fire(double direction):void</text><text fill="#000000" font-family="sans-serif" font-size="11" font-style="italic" lengthAdjust="spacingAndGlyphs" textLength="161" x="644" y="150.8433">+clone():unique_ptr&lt;Bullet&gt;</text><text fill="#000000" font-family="sans-serif" font-size="11" lengthAdjust="spacingAndGlyphs" textLength="98" x="644" y="163.6479">+virtual ~Bullet()</text><text fill="#000000" font-family="sans-serif" font-size="11" lengthAdjust="spacingAndGlyphs" textLength="431" x="644" y="176.4526">+Bullet(string name, double speed, double firePower, double damgePower)</text><!--MD5=[be48abb85bb320cc6c93616e7da4d6d2]
class ExplosiveBullet--><rect codeLine="25" fill="#FEFECE" filter="url(#fl7q7yv7psb23)" height="60.8047" id="ExplosiveBullet" style="stroke: #A80036; stroke-width: 1.5;" width="174" x="633.5" y="310.5"/><ellipse cx="671.45" cy="326.5" fill="#ADD1B2" rx="11" ry="11" style="stroke: #A80036; stroke-width: 1.0;"/><path d="M673.7938,322.1719 C672.8563,321.7344 672.2625,321.5938 671.3875,321.5938 C668.7625,321.5938 666.7625,323.6719 666.7625,326.3906 L666.7625,327.5156 C666.7625,330.0938 668.8719,331.9844 671.7625,331.9844 C672.9813,331.9844 674.1375,331.6875 674.8875,331.1406 C675.4656,330.7344 675.7938,330.2813 675.7938,329.8906 C675.7938,329.4375 675.4031,329.0469 674.9344,329.0469 C674.7156,329.0469 674.5125,329.125 674.325,329.3125 C673.8719,329.7969 673.8719,329.7969 673.6844,329.8906 C673.2625,330.1563 672.575,330.2813 671.8094,330.2813 C669.7625,330.2813 668.4656,329.1875 668.4656,327.4844 L668.4656,326.3906 C668.4656,324.6094 669.7156,323.2969 671.45,323.2969 C672.0281,323.2969 672.6375,323.4531 673.1063,323.7031 C673.5906,323.9844 673.7625,324.2031 673.8563,324.6094 C673.9188,325.0156 673.95,325.1406 674.0906,325.2656 C674.2313,325.4063 674.4656,325.5156 674.6844,325.5156 C674.95,325.5156 675.2156,325.375 675.3875,325.1563 C675.4969,325 675.5281,324.8125 675.5281,324.3906 L675.5281,322.9688 C675.5281,322.5313 675.5125,322.4063 675.4188,322.25 C675.2625,321.9844 674.9813,321.8438 674.6844,321.8438 C674.3875,321.8438 674.1844,321.9375 673.9656,322.25 L673.7938,322.1719 Z "/><text fill="#000000" font-family="sans-serif" font-size="12" lengthAdjust="spacingAndGlyphs" textLength="91" x="690.55" y="330.6543">ExplosiveBullet</text><line style="stroke: #A80036; stroke-width: 1.5;" x1="634.5" x2="806.5" y1="342.5" y2="342.5"/><line style="stroke: #A80036; stroke-width: 1.5;" x1="634.5" x2="806.5" y1="350.5" y2="350.5"/><text fill="#000000" font-family="sans-serif" font-size="11" lengthAdjust="spacingAndGlyphs" textLength="162" x="639.5" y="364.7104">+clone():unique_ptr&lt;Bullet&gt;</text><path d="M567.5,499 L567.5,524.1328 A0,0 0 0 0 567.5,524.1328 L873.5,524.1328 A0,0 0 0 0 873.5,524.1328 L873.5,509 L863.5,499 L724.5,499 L720.5,371.737 L716.5,499 L567.5,499 A0,0 0 0 0 567.5,499 " fill="#FBFB77" filter="url(#fl7q7yv7psb23)" style="stroke: #A80036; stroke-width: 1.0;"/><path d="M863.5,499 L863.5,509 L873.5,509 L863.5,499 " fill="#FBFB77" style="stroke: #A80036; stroke-width: 1.0;"/><text fill="#000000" font-family="sans-serif" font-size="13" lengthAdjust="spacingAndGlyphs" textLength="285" x="573.5" y="516.0669">return make_unique&lt;ExplosiveBullet&gt;(*this)</text><!--MD5=[ae5410837a7b169562c3a3220c7e2936]
class SimpleBullet--><rect codeLine="33" fill="#FEFECE" filter="url(#fl7q7yv7psb23)" height="60.8047" id="SimpleBullet" style="stroke: #A80036; stroke-width: 1.5;" width="174" x="842.5" y="310.5"/><ellipse cx="888.25" cy="326.5" fill="#ADD1B2" rx="11" ry="11" style="stroke: #A80036; stroke-width: 1.0;"/><path d="M890.5938,322.1719 C889.6563,321.7344 889.0625,321.5938 888.1875,321.5938 C885.5625,321.5938 883.5625,323.6719 883.5625,326.3906 L883.5625,327.5156 C883.5625,330.0938 885.6719,331.9844 888.5625,331.9844 C889.7813,331.9844 890.9375,331.6875 891.6875,331.1406 C892.2656,330.7344 892.5938,330.2813 892.5938,329.8906 C892.5938,329.4375 892.2031,329.0469 891.7344,329.0469 C891.5156,329.0469 891.3125,329.125 891.125,329.3125 C890.6719,329.7969 890.6719,329.7969 890.4844,329.8906 C890.0625,330.1563 889.375,330.2813 888.6094,330.2813 C886.5625,330.2813 885.2656,329.1875 885.2656,327.4844 L885.2656,326.3906 C885.2656,324.6094 886.5156,323.2969 888.25,323.2969 C888.8281,323.2969 889.4375,323.4531 889.9063,323.7031 C890.3906,323.9844 890.5625,324.2031 890.6563,324.6094 C890.7188,325.0156 890.75,325.1406 890.8906,325.2656 C891.0313,325.4063 891.2656,325.5156 891.4844,325.5156 C891.75,325.5156 892.0156,325.375 892.1875,325.1563 C892.2969,325 892.3281,324.8125 892.3281,324.3906 L892.3281,322.9688 C892.3281,322.5313 892.3125,322.4063 892.2188,322.25 C892.0625,321.9844 891.7813,321.8438 891.4844,321.8438 C891.1875,321.8438 890.9844,321.9375 890.7656,322.25 L890.5938,322.1719 Z "/><text fill="#000000" font-family="sans-serif" font-size="12" lengthAdjust="spacingAndGlyphs" textLength="74" x="908.75" y="330.6543">SimpleBullet</text><line style="stroke: #A80036; stroke-width: 1.5;" x1="843.5" x2="1015.5" y1="342.5" y2="342.5"/><line style="stroke: #A80036; stroke-width: 1.5;" x1="843.5" x2="1015.5" y1="350.5" y2="350.5"/><text fill="#000000" font-family="sans-serif" font-size="11" lengthAdjust="spacingAndGlyphs" textLength="162" x="848.5" y="364.7104">+clone():unique_ptr&lt;Bullet&gt;</text><!--MD5=[77cb04ed833f2aeebdc2047b9ac524b7]
class BulletFactory--><rect codeLine="42" fill="#FEFECE" filter="url(#fl7q7yv7psb23)" height="73.6094" id="BulletFactory" style="stroke: #A80036; stroke-width: 1.5;" width="412" x="98.5" y="304"/><ellipse cx="261.25" cy="320" fill="#ADD1B2" rx="11" ry="11" style="stroke: #A80036; stroke-width: 1.0;"/><path d="M263.5938,315.6719 C262.6563,315.2344 262.0625,315.0938 261.1875,315.0938 C258.5625,315.0938 256.5625,317.1719 256.5625,319.8906 L256.5625,321.0156 C256.5625,323.5938 258.6719,325.4844 261.5625,325.4844 C262.7813,325.4844 263.9375,325.1875 264.6875,324.6406 C265.2656,324.2344 265.5938,323.7813 265.5938,323.3906 C265.5938,322.9375 265.2031,322.5469 264.7344,322.5469 C264.5156,322.5469 264.3125,322.625 264.125,322.8125 C263.6719,323.2969 263.6719,323.2969 263.4844,323.3906 C263.0625,323.6563 262.375,323.7813 261.6094,323.7813 C259.5625,323.7813 258.2656,322.6875 258.2656,320.9844 L258.2656,319.8906 C258.2656,318.1094 259.5156,316.7969 261.25,316.7969 C261.8281,316.7969 262.4375,316.9531 262.9063,317.2031 C263.3906,317.4844 263.5625,317.7031 263.6563,318.1094 C263.7188,318.5156 263.75,318.6406 263.8906,318.7656 C264.0313,318.9063 264.2656,319.0156 264.4844,319.0156 C264.75,319.0156 265.0156,318.875 265.1875,318.6563 C265.2969,318.5 265.3281,318.3125 265.3281,317.8906 L265.3281,316.4688 C265.3281,316.0313 265.3125,315.9063 265.2188,315.75 C265.0625,315.4844 264.7813,315.3438 264.4844,315.3438 C264.1875,315.3438 263.9844,315.4375 263.7656,315.75 L263.5938,315.6719 Z "/><text fill="#000000" font-family="sans-serif" font-size="12" lengthAdjust="spacingAndGlyphs" textLength="78" x="281.75" y="324.1543">BulletFactory</text><line style="stroke: #A80036; stroke-width: 1.5;" x1="99.5" x2="509.5" y1="336" y2="336"/><text fill="#000000" font-family="sans-serif" font-size="11" lengthAdjust="spacingAndGlyphs" textLength="400" x="104.5" y="350.2104">-unordered_map&lt;BulletType, unique_ptr&lt;Bullet&gt;,hash&lt;int&gt; &gt; bullets</text><line style="stroke: #A80036; stroke-width: 1.5;" x1="99.5" x2="509.5" y1="356.8047" y2="356.8047"/><text fill="#000000" font-family="sans-serif" font-size="11" lengthAdjust="spacingAndGlyphs" textLength="308" x="104.5" y="371.0151">std::unique_ptr&lt;Bullet&gt; createBullet(BulletType type)</text><path d="M6,82.5 L6,107.6328 A0,0 0 0 0 6,107.6328 L300.5,107.6328 L304.5,303.993 L308.5,107.6328 L603,107.6328 A0,0 0 0 0 603,107.6328 L603,92.5 L593,82.5 L6,82.5 A0,0 0 0 0 6,82.5 " fill="#FBFB77" filter="url(#fl7q7yv7psb23)" style="stroke: #A80036; stroke-width: 1.0;"/><path d="M593,82.5 L593,92.5 L603,92.5 L593,82.5 " fill="#FBFB77" style="stroke: #A80036; stroke-width: 1.0;"/><text fill="#000000" font-family="sans-serif" font-size="13" lengthAdjust="spacingAndGlyphs" textLength="576" x="12" y="99.5669">Unordered map is an associative container that contains key-value pairs with unique keys</text><path d="M183.5,499 L183.5,524.1328 A0,0 0 0 0 183.5,524.1328 L425.5,524.1328 A0,0 0 0 0 425.5,524.1328 L425.5,509 L415.5,499 L308.5,499 L304.5,378.147 L300.5,499 L183.5,499 A0,0 0 0 0 183.5,499 " fill="#FBFB77" filter="url(#fl7q7yv7psb23)" style="stroke: #A80036; stroke-width: 1.0;"/><path d="M415.5,499 L415.5,509 L425.5,509 L415.5,499 " fill="#FBFB77" style="stroke: #A80036; stroke-width: 1.0;"/><text fill="#000000" font-family="sans-serif" font-size="13" lengthAdjust="spacingAndGlyphs" textLength="221" x="189.5" y="516.0669">return bullets[BulletType]-&gt;clone()</text><!--MD5=[79c10812b6a0982d46043753c42a3792]
reverse link Bullet to ExplosiveBullet--><path codeLine="39" d="M799.948,200.538 C777.228,240.421 753.059,282.845 737.427,310.286 " fill="none" id="Bullet-backto-ExplosiveBullet" style="stroke: #A80036; stroke-width: 1.0;"/><polygon fill="none" points="793.924,196.969,809.906,183.056,806.089,203.899,793.924,196.969" style="stroke: #A80036; stroke-width: 1.0;"/><!--MD5=[4873540c8f93b6de423a7d3b382c72fc]
reverse link Bullet to SimpleBullet--><path codeLine="40" d="M890.03,202.418 C901.313,241.749 913.227,283.276 920.976,310.286 " fill="none" id="Bullet-backto-SimpleBullet" style="stroke: #A80036; stroke-width: 1.0;"/><polygon fill="none" points="883.262,204.211,884.475,183.056,896.719,200.35,883.262,204.211" style="stroke: #A80036; stroke-width: 1.0;"/><!--MD5=[c0c99daa163052af1e728c75781c6cae]
@startuml
skinparam classAttributeIconSize 0

enum BulletType
{
    SIMPLE,
    EXPLOSIVE
}

class Bullet
{
    name:string
-    speed:double
-    firePower:double
-    damgePower:double
-    direction:double
-    id:int


+    fire(double direction):void
+    {abstract} clone():unique_ptr<Bullet>
+    virtual ~Bullet()
+    Bullet(string name, double speed, double firePower, double damgePower)
}

class ExplosiveBullet
{
+    clone():unique_ptr<Bullet> 
}

note "return make_unique<ExplosiveBullet>(*this)" as ExplosiveBulletclone
ExplosiveBulletclone -up- -ExplosiveBullet

class SimpleBullet
{
+    clone():unique_ptr<Bullet> 
}
 

ExplosiveBullet -up- -|> Bullet
SimpleBullet  -up- -|> Bullet

class BulletFactory
{
    -unordered_map<BulletType, unique_ptr<Bullet>,hash<int> > bullets

    std::unique_ptr<Bullet> createBullet(BulletType type)


}

note "Unordered map is an associative container that contains key-value pairs with unique keys" as unordered_map


note "return bullets[BulletType]->clone()" as BulletFactoryCreateBullet

BulletFactoryCreateBullet -up- -BulletFactory

unordered_map -down- -BulletFactory
@enduml

PlantUML version 1.2020.17beta5(Unknown compile time)
(GPL source distribution)
Java Runtime: Java(TM) SE Runtime Environment
JVM: Java HotSpot(TM) 64-Bit Server VM
Default Encoding: UTF-8
Language: en
Country: US
--></g></svg>