<?xml version="1.0" encoding="UTF-8" standalone="no"?><svg xmlns="http://www.w3.org/2000/svg" xmlns:xlink="http://www.w3.org/1999/xlink" contentScriptType="application/ecmascript" contentStyleType="text/css" height="637px" preserveAspectRatio="none" style="width:534px;height:637px;" version="1.1" viewBox="0 0 534 637" width="534px" zoomAndPan="magnify"><defs><filter height="300%" id="f1rhirhl32i3qr" width="300%" x="-1" y="-1"><feGaussianBlur result="blurOut" stdDeviation="2.0"/><feColorMatrix in="blurOut" result="blurOut2" type="matrix" values="0 0 0 0 0 0 0 0 0 0 0 0 0 0 0 0 0 0 .4 0"/><feOffset dx="4.0" dy="4.0" in="blurOut2" result="blurOut3"/><feBlend in="SourceGraphic" in2="blurOut3" mode="normal"/></filter></defs><g><!--MD5=[db25027423b3b96a5b12184dc6d389a4]
class Computer--><rect codeLine="3" fill="#FEFECE" filter="url(#f1rhirhl32i3qr)" height="53.9375" id="Computer" style="stroke: #A80036; stroke-width: 1.5;" width="129" x="312.5" y="395"/><ellipse cx="327.5" cy="413.9688" fill="#B4A7E5" rx="11" ry="11" style="stroke: #A80036; stroke-width: 1.0;"/><path d="M328.4531,410.75 L330.1719,410.75 C330.5625,410.75 330.75,410.7188 330.875,410.6406 C331.1406,410.4844 331.2813,410.2031 331.2813,409.9063 C331.2813,409.6406 331.1719,409.375 330.9375,409.2031 C330.7656,409.0938 330.625,409.0625 330.1719,409.0625 L325.0313,409.0625 C324.5938,409.0625 324.4688,409.0781 324.3125,409.1719 C324.0625,409.3281 323.9063,409.625 323.9063,409.9063 C323.9063,410.1875 324.0469,410.4375 324.2656,410.6094 C324.4219,410.7188 324.6094,410.75 325.0313,410.75 L326.75,410.75 L326.75,417.2656 L325.0313,417.2656 C324.5938,417.2656 324.4688,417.2813 324.3125,417.3906 C324.0625,417.5469 323.9063,417.8281 323.9063,418.125 C323.9063,418.375 324.0469,418.6406 324.2656,418.7969 C324.4219,418.9219 324.625,418.9688 325.0313,418.9688 L330.1719,418.9688 C330.9219,418.9688 331.2813,418.6875 331.2813,418.125 C331.2813,417.8438 331.1719,417.5938 330.9375,417.4219 C330.7656,417.2969 330.625,417.2656 330.1719,417.2656 L328.4531,417.2656 L328.4531,410.75 Z "/><text fill="#000000" font-family="sans-serif" font-size="12" font-style="italic" lengthAdjust="spacingAndGlyphs" textLength="93" x="341.5" y="411.1387">&lt;&lt;interface&gt;&gt;</text><text fill="#000000" font-family="sans-serif" font-size="12" font-style="italic" lengthAdjust="spacingAndGlyphs" textLength="60" x="362" y="425.1074">Computer</text><line style="stroke: #A80036; stroke-width: 1.5;" x1="313.5" x2="440.5" y1="432.9375" y2="432.9375"/><line style="stroke: #A80036; stroke-width: 1.5;" x1="313.5" x2="440.5" y1="440.9375" y2="440.9375"/><!--MD5=[f1ed6ec0e75c2db0ed1a22499acde86e]
class Laptop--><rect codeLine="7" fill="#FEFECE" filter="url(#f1rhirhl32i3qr)" height="48" id="Laptop" style="stroke: #A80036; stroke-width: 1.5;" width="73" x="274.5" y="570"/><ellipse cx="289.5" cy="586" fill="#ADD1B2" rx="11" ry="11" style="stroke: #A80036; stroke-width: 1.0;"/><path d="M291.8438,581.6719 C290.9063,581.2344 290.3125,581.0938 289.4375,581.0938 C286.8125,581.0938 284.8125,583.1719 284.8125,585.8906 L284.8125,587.0156 C284.8125,589.5938 286.9219,591.4844 289.8125,591.4844 C291.0313,591.4844 292.1875,591.1875 292.9375,590.6406 C293.5156,590.2344 293.8438,589.7813 293.8438,589.3906 C293.8438,588.9375 293.4531,588.5469 292.9844,588.5469 C292.7656,588.5469 292.5625,588.625 292.375,588.8125 C291.9219,589.2969 291.9219,589.2969 291.7344,589.3906 C291.3125,589.6563 290.625,589.7813 289.8594,589.7813 C287.8125,589.7813 286.5156,588.6875 286.5156,586.9844 L286.5156,585.8906 C286.5156,584.1094 287.7656,582.7969 289.5,582.7969 C290.0781,582.7969 290.6875,582.9531 291.1563,583.2031 C291.6406,583.4844 291.8125,583.7031 291.9063,584.1094 C291.9688,584.5156 292,584.6406 292.1406,584.7656 C292.2813,584.9063 292.5156,585.0156 292.7344,585.0156 C293,585.0156 293.2656,584.875 293.4375,584.6563 C293.5469,584.5 293.5781,584.3125 293.5781,583.8906 L293.5781,582.4688 C293.5781,582.0313 293.5625,581.9063 293.4688,581.75 C293.3125,581.4844 293.0313,581.3438 292.7344,581.3438 C292.4375,581.3438 292.2344,581.4375 292.0156,581.75 L291.8438,581.6719 Z "/><text fill="#000000" font-family="sans-serif" font-size="12" lengthAdjust="spacingAndGlyphs" textLength="41" x="303.5" y="590.1543">Laptop</text><line style="stroke: #A80036; stroke-width: 1.5;" x1="275.5" x2="346.5" y1="602" y2="602"/><line style="stroke: #A80036; stroke-width: 1.5;" x1="275.5" x2="346.5" y1="610" y2="610"/><!--MD5=[bfb968859f739763f27427bc587d4382]
class Desktop--><rect codeLine="8" fill="#FEFECE" filter="url(#f1rhirhl32i3qr)" height="48" id="Desktop" style="stroke: #A80036; stroke-width: 1.5;" width="83" x="405.5" y="570"/><ellipse cx="420.5" cy="586" fill="#ADD1B2" rx="11" ry="11" style="stroke: #A80036; stroke-width: 1.0;"/><path d="M422.8438,581.6719 C421.9063,581.2344 421.3125,581.0938 420.4375,581.0938 C417.8125,581.0938 415.8125,583.1719 415.8125,585.8906 L415.8125,587.0156 C415.8125,589.5938 417.9219,591.4844 420.8125,591.4844 C422.0313,591.4844 423.1875,591.1875 423.9375,590.6406 C424.5156,590.2344 424.8438,589.7813 424.8438,589.3906 C424.8438,588.9375 424.4531,588.5469 423.9844,588.5469 C423.7656,588.5469 423.5625,588.625 423.375,588.8125 C422.9219,589.2969 422.9219,589.2969 422.7344,589.3906 C422.3125,589.6563 421.625,589.7813 420.8594,589.7813 C418.8125,589.7813 417.5156,588.6875 417.5156,586.9844 L417.5156,585.8906 C417.5156,584.1094 418.7656,582.7969 420.5,582.7969 C421.0781,582.7969 421.6875,582.9531 422.1563,583.2031 C422.6406,583.4844 422.8125,583.7031 422.9063,584.1094 C422.9688,584.5156 423,584.6406 423.1406,584.7656 C423.2813,584.9063 423.5156,585.0156 423.7344,585.0156 C424,585.0156 424.2656,584.875 424.4375,584.6563 C424.5469,584.5 424.5781,584.3125 424.5781,583.8906 L424.5781,582.4688 C424.5781,582.0313 424.5625,581.9063 424.4688,581.75 C424.3125,581.4844 424.0313,581.3438 423.7344,581.3438 C423.4375,581.3438 423.2344,581.4375 423.0156,581.75 L422.8438,581.6719 Z "/><text fill="#000000" font-family="sans-serif" font-size="12" lengthAdjust="spacingAndGlyphs" textLength="51" x="434.5" y="590.1543">Desktop</text><line style="stroke: #A80036; stroke-width: 1.5;" x1="406.5" x2="487.5" y1="602" y2="602"/><line style="stroke: #A80036; stroke-width: 1.5;" x1="406.5" x2="487.5" y1="610" y2="610"/><!--MD5=[700661336306af5f908b9f739aad0a8b]
class ComputerFactory--><rect codeLine="9" fill="#FEFECE" filter="url(#f1rhirhl32i3qr)" height="60.8047" id="ComputerFactory" style="stroke: #A80036; stroke-width: 1.5;" width="276" x="239" y="18.5"/><ellipse cx="320.75" cy="34.5" fill="#ADD1B2" rx="11" ry="11" style="stroke: #A80036; stroke-width: 1.0;"/><path d="M323.0938,30.1719 C322.1563,29.7344 321.5625,29.5938 320.6875,29.5938 C318.0625,29.5938 316.0625,31.6719 316.0625,34.3906 L316.0625,35.5156 C316.0625,38.0938 318.1719,39.9844 321.0625,39.9844 C322.2813,39.9844 323.4375,39.6875 324.1875,39.1406 C324.7656,38.7344 325.0938,38.2813 325.0938,37.8906 C325.0938,37.4375 324.7031,37.0469 324.2344,37.0469 C324.0156,37.0469 323.8125,37.125 323.625,37.3125 C323.1719,37.7969 323.1719,37.7969 322.9844,37.8906 C322.5625,38.1563 321.875,38.2813 321.1094,38.2813 C319.0625,38.2813 317.7656,37.1875 317.7656,35.4844 L317.7656,34.3906 C317.7656,32.6094 319.0156,31.2969 320.75,31.2969 C321.3281,31.2969 321.9375,31.4531 322.4063,31.7031 C322.8906,31.9844 323.0625,32.2031 323.1563,32.6094 C323.2188,33.0156 323.25,33.1406 323.3906,33.2656 C323.5313,33.4063 323.7656,33.5156 323.9844,33.5156 C324.25,33.5156 324.5156,33.375 324.6875,33.1563 C324.7969,33 324.8281,32.8125 324.8281,32.3906 L324.8281,30.9688 C324.8281,30.5313 324.8125,30.4063 324.7188,30.25 C324.5625,29.9844 324.2813,29.8438 323.9844,29.8438 C323.6875,29.8438 323.4844,29.9375 323.2656,30.25 L323.0938,30.1719 Z "/><text fill="#000000" font-family="sans-serif" font-size="12" lengthAdjust="spacingAndGlyphs" textLength="104" x="341.25" y="38.6543">ComputerFactory</text><line style="stroke: #A80036; stroke-width: 1.5;" x1="240" x2="514" y1="50.5" y2="50.5"/><line style="stroke: #A80036; stroke-width: 1.5;" x1="240" x2="514" y1="58.5" y2="58.5"/><text fill="#000000" font-family="sans-serif" font-size="11" lengthAdjust="spacingAndGlyphs" textLength="264" x="245" y="72.7104">+NewComputer(string description):Computer *</text><path d="M6,6 L6,91.6641 A0,0 0 0 0 6,91.6641 L204,91.6641 A0,0 0 0 0 204,91.6641 L204,53 L238.865,49 L204,45 L204,16 L194,6 L6,6 A0,0 0 0 0 6,6 " fill="#FBFB77" filter="url(#f1rhirhl32i3qr)" style="stroke: #A80036; stroke-width: 1.0;"/><path d="M194,6 L194,16 L204,16 L194,6 " fill="#FBFB77" style="stroke: #A80036; stroke-width: 1.0;"/><text fill="#000000" font-family="sans-serif" font-size="13" lengthAdjust="spacingAndGlyphs" textLength="162" x="12" y="23.0669">if(description == 'laptop')</text><text fill="#000000" font-family="sans-serif" font-size="13" lengthAdjust="spacingAndGlyphs" textLength="118" x="16" y="38.1997">return new Laptop</text><text fill="#000000" font-family="sans-serif" font-size="13" lengthAdjust="spacingAndGlyphs" textLength="173" x="16" y="53.3325">if(description == 'desktop')</text><text fill="#000000" font-family="sans-serif" font-size="13" lengthAdjust="spacingAndGlyphs" textLength="127" x="16" y="68.4653">return new Desktop</text><text fill="#000000" font-family="sans-serif" font-size="13" lengthAdjust="spacingAndGlyphs" textLength="83" x="16" y="83.5981">return nullptr</text><!--MD5=[ed6624c6556d5e7b1bd23032162d20b7]
class Client--><rect codeLine="21" fill="#FEFECE" filter="url(#f1rhirhl32i3qr)" height="60.8047" id="Client" style="stroke: #A80036; stroke-width: 1.5;" width="74" x="340" y="213"/><ellipse cx="359.05" cy="229" fill="#ADD1B2" rx="11" ry="11" style="stroke: #A80036; stroke-width: 1.0;"/><path d="M361.3938,224.6719 C360.4563,224.2344 359.8625,224.0938 358.9875,224.0938 C356.3625,224.0938 354.3625,226.1719 354.3625,228.8906 L354.3625,230.0156 C354.3625,232.5938 356.4719,234.4844 359.3625,234.4844 C360.5813,234.4844 361.7375,234.1875 362.4875,233.6406 C363.0656,233.2344 363.3938,232.7813 363.3938,232.3906 C363.3938,231.9375 363.0031,231.5469 362.5344,231.5469 C362.3156,231.5469 362.1125,231.625 361.925,231.8125 C361.4719,232.2969 361.4719,232.2969 361.2844,232.3906 C360.8625,232.6563 360.175,232.7813 359.4094,232.7813 C357.3625,232.7813 356.0656,231.6875 356.0656,229.9844 L356.0656,228.8906 C356.0656,227.1094 357.3156,225.7969 359.05,225.7969 C359.6281,225.7969 360.2375,225.9531 360.7063,226.2031 C361.1906,226.4844 361.3625,226.7031 361.4563,227.1094 C361.5188,227.5156 361.55,227.6406 361.6906,227.7656 C361.8313,227.9063 362.0656,228.0156 362.2844,228.0156 C362.55,228.0156 362.8156,227.875 362.9875,227.6563 C363.0969,227.5 363.1281,227.3125 363.1281,226.8906 L363.1281,225.4688 C363.1281,225.0313 363.1125,224.9063 363.0188,224.75 C362.8625,224.4844 362.5813,224.3438 362.2844,224.3438 C361.9875,224.3438 361.7844,224.4375 361.5656,224.75 L361.3938,224.6719 Z "/><text fill="#000000" font-family="sans-serif" font-size="12" lengthAdjust="spacingAndGlyphs" textLength="33" x="373.95" y="233.1543">Client</text><line style="stroke: #A80036; stroke-width: 1.5;" x1="341" x2="413" y1="245" y2="245"/><line style="stroke: #A80036; stroke-width: 1.5;" x1="341" x2="413" y1="253" y2="253"/><text fill="#000000" font-family="sans-serif" font-size="11" lengthAdjust="spacingAndGlyphs" textLength="62" x="346" y="267.2104">+main():int</text><!--MD5=[000e08db52d5ff7399227b49eb6ae535]
reverse link Computer to Laptop--><path codeLine="16" d="M359.529,468 C346.824,500.726 330.14,543.7005 320.012,569.7867 " fill="none" id="Computer-backto-Laptop" style="stroke: #A80036; stroke-width: 1.0; stroke-dasharray: 7.0,7.0;"/><polygon fill="none" points="353.068,465.301,366.832,449.19,366.119,470.368,353.068,465.301" style="stroke: #A80036; stroke-width: 1.0;"/><!--MD5=[d706220ae2379aeb8d45fb79a0cf58b6]
reverse link Computer to Desktop--><path codeLine="17" d="M395.529,468 C409.005,500.726 426.7,543.7005 437.442,569.7867 " fill="none" id="Computer-backto-Desktop" style="stroke: #A80036; stroke-width: 1.0; stroke-dasharray: 7.0,7.0;"/><polygon fill="none" points="388.926,470.349,387.784,449.19,401.872,465.018,388.926,470.349" style="stroke: #A80036; stroke-width: 1.0;"/><!--MD5=[972cefa68d3ddd779b24216f3b737af0]
link Client to Computer--><path codeLine="25" d="M377,274.042 C377,307.801 377,362.535 377,394.82 " fill="none" id="Client-Computer" style="stroke: #A80036; stroke-width: 1.0;"/><!--MD5=[5df716ef6319768de2c2597856445b81]
link ComputerFactory to Client--><path codeLine="26" d="M377,79.656 C377,115.831 377,176.62 377,212.81 " fill="none" id="ComputerFactory-Client" style="stroke: #A80036; stroke-width: 1.0;"/><!--MD5=[0cc94a66bd89b3e82798b980e9f817cd]
link ComputerFactory to Laptop--><path codeLine="27" d="M344.444,79.57 C309.516,114.693 259,176.841 259,242.5 C259,242.5 259,242.5 259,423 C259,477.475 283.718,537.6425 299.07,569.759 " fill="none" id="ComputerFactory-Laptop" style="stroke: #A80036; stroke-width: 1.0;"/><!--MD5=[8e0459ac389a9ae0b9125c766e012900]
link ComputerFactory to Desktop--><path codeLine="28" d="M409.556,79.57 C444.484,114.693 495,176.841 495,242.5 C495,242.5 495,242.5 495,423 C495,477.282 472.054,537.7694 457.892,569.9322 " fill="none" id="ComputerFactory-Desktop" style="stroke: #A80036; stroke-width: 1.0;"/><!--MD5=[d57a647efb8b0bdb37144ede3eed469a]
@startuml
skinparam classAttributeIconSize 0

interface "<<interface>> \n Computer" as Computer
{
}

class Laptop{}
class Desktop{}
class ComputerFactory
{
+ NewComputer(string description):Computer *
}

note  "if(description == 'laptop')\n return new Laptop \n if(description == 'desktop')\n return new Desktop \n return nullptr" as NewComputerFactory

Laptop -up..|> Computer
Desktop -up..|> Computer

NewComputerFactory -right..ComputerFactory

class Client
{
+main():int
}
Client -down- -Computer
Client -up- -ComputerFactory
ComputerFactory -down- - Laptop 
ComputerFactory -down- - Desktop
@enduml

PlantUML version 1.2020.18beta4(Unknown compile time)
(GPL source distribution)
Java Runtime: Java(TM) SE Runtime Environment
JVM: Java HotSpot(TM) 64-Bit Server VM
Default Encoding: UTF-8
Language: en
Country: US
--></g></svg>