<?xml version="1.0" encoding="UTF-8" standalone="no"?><svg xmlns="http://www.w3.org/2000/svg" xmlns:xlink="http://www.w3.org/1999/xlink" contentScriptType="application/ecmascript" contentStyleType="text/css" height="430px" preserveAspectRatio="none" style="width:755px;height:430px;" version="1.1" viewBox="0 0 755 430" width="755px" zoomAndPan="magnify"><defs><filter height="300%" id="fnai76t36me4t" width="300%" x="-1" y="-1"><feGaussianBlur result="blurOut" stdDeviation="2.0"/><feColorMatrix in="blurOut" result="blurOut2" type="matrix" values="0 0 0 0 0 0 0 0 0 0 0 0 0 0 0 0 0 0 .4 0"/><feOffset dx="4.0" dy="4.0" in="blurOut2" result="blurOut3"/><feBlend in="SourceGraphic" in2="blurOut3" mode="normal"/></filter></defs><g><!--MD5=[72136138052d025cffdce3c22fbd185f]
class Product--><rect codeLine="3" fill="#FEFECE" filter="url(#fnai76t36me4t)" height="53.9375" id="Product" style="stroke: #A80036; stroke-width: 1.5;" width="129" x="174" y="128"/><ellipse cx="189" cy="146.9688" fill="#B4A7E5" rx="11" ry="11" style="stroke: #A80036; stroke-width: 1.0;"/><path d="M189.9531,143.75 L191.6719,143.75 C192.0625,143.75 192.25,143.7188 192.375,143.6406 C192.6406,143.4844 192.7813,143.2031 192.7813,142.9063 C192.7813,142.6406 192.6719,142.375 192.4375,142.2031 C192.2656,142.0938 192.125,142.0625 191.6719,142.0625 L186.5313,142.0625 C186.0938,142.0625 185.9688,142.0781 185.8125,142.1719 C185.5625,142.3281 185.4063,142.625 185.4063,142.9063 C185.4063,143.1875 185.5469,143.4375 185.7656,143.6094 C185.9219,143.7188 186.1094,143.75 186.5313,143.75 L188.25,143.75 L188.25,150.2656 L186.5313,150.2656 C186.0938,150.2656 185.9688,150.2813 185.8125,150.3906 C185.5625,150.5469 185.4063,150.8281 185.4063,151.125 C185.4063,151.375 185.5469,151.6406 185.7656,151.7969 C185.9219,151.9219 186.125,151.9688 186.5313,151.9688 L191.6719,151.9688 C192.4219,151.9688 192.7813,151.6875 192.7813,151.125 C192.7813,150.8438 192.6719,150.5938 192.4375,150.4219 C192.2656,150.2969 192.125,150.2656 191.6719,150.2656 L189.9531,150.2656 L189.9531,143.75 Z "/><text fill="#000000" font-family="sans-serif" font-size="12" font-style="italic" lengthAdjust="spacingAndGlyphs" textLength="93" x="203" y="144.1387">&lt;&lt;interafce&gt;&gt;</text><text fill="#000000" font-family="sans-serif" font-size="12" font-style="italic" lengthAdjust="spacingAndGlyphs" textLength="47" x="230" y="158.1074">Product</text><line style="stroke: #A80036; stroke-width: 1.5;" x1="175" x2="302" y1="165.9375" y2="165.9375"/><line style="stroke: #A80036; stroke-width: 1.5;" x1="175" x2="302" y1="173.9375" y2="173.9375"/><!--MD5=[6f5007e1c68ae197b6a2c49f2221322a]
class ConcreteProductA--><rect codeLine="7" fill="#FEFECE" filter="url(#fnai76t36me4t)" height="48" id="ConcreteProductA" style="stroke: #A80036; stroke-width: 1.5;" width="140" x="88.5" y="363"/><ellipse cx="103.5" cy="379" fill="#ADD1B2" rx="11" ry="11" style="stroke: #A80036; stroke-width: 1.0;"/><path d="M105.8438,374.6719 C104.9063,374.2344 104.3125,374.0938 103.4375,374.0938 C100.8125,374.0938 98.8125,376.1719 98.8125,378.8906 L98.8125,380.0156 C98.8125,382.5938 100.9219,384.4844 103.8125,384.4844 C105.0313,384.4844 106.1875,384.1875 106.9375,383.6406 C107.5156,383.2344 107.8438,382.7813 107.8438,382.3906 C107.8438,381.9375 107.4531,381.5469 106.9844,381.5469 C106.7656,381.5469 106.5625,381.625 106.375,381.8125 C105.9219,382.2969 105.9219,382.2969 105.7344,382.3906 C105.3125,382.6563 104.625,382.7813 103.8594,382.7813 C101.8125,382.7813 100.5156,381.6875 100.5156,379.9844 L100.5156,378.8906 C100.5156,377.1094 101.7656,375.7969 103.5,375.7969 C104.0781,375.7969 104.6875,375.9531 105.1563,376.2031 C105.6406,376.4844 105.8125,376.7031 105.9063,377.1094 C105.9688,377.5156 106,377.6406 106.1406,377.7656 C106.2813,377.9063 106.5156,378.0156 106.7344,378.0156 C107,378.0156 107.2656,377.875 107.4375,377.6563 C107.5469,377.5 107.5781,377.3125 107.5781,376.8906 L107.5781,375.4688 C107.5781,375.0313 107.5625,374.9063 107.4688,374.75 C107.3125,374.4844 107.0313,374.3438 106.7344,374.3438 C106.4375,374.3438 106.2344,374.4375 106.0156,374.75 L105.8438,374.6719 Z "/><text fill="#000000" font-family="sans-serif" font-size="12" lengthAdjust="spacingAndGlyphs" textLength="108" x="117.5" y="383.1543">ConcreteProductA</text><line style="stroke: #A80036; stroke-width: 1.5;" x1="89.5" x2="227.5" y1="395" y2="395"/><line style="stroke: #A80036; stroke-width: 1.5;" x1="89.5" x2="227.5" y1="403" y2="403"/><!--MD5=[11c793f6f48c6887422b4b9cce32ef56]
class ConcreteProductB--><rect codeLine="8" fill="#FEFECE" filter="url(#fnai76t36me4t)" height="48" id="ConcreteProductB" style="stroke: #A80036; stroke-width: 1.5;" width="140" x="277.5" y="363"/><ellipse cx="292.5" cy="379" fill="#ADD1B2" rx="11" ry="11" style="stroke: #A80036; stroke-width: 1.0;"/><path d="M294.8438,374.6719 C293.9063,374.2344 293.3125,374.0938 292.4375,374.0938 C289.8125,374.0938 287.8125,376.1719 287.8125,378.8906 L287.8125,380.0156 C287.8125,382.5938 289.9219,384.4844 292.8125,384.4844 C294.0313,384.4844 295.1875,384.1875 295.9375,383.6406 C296.5156,383.2344 296.8438,382.7813 296.8438,382.3906 C296.8438,381.9375 296.4531,381.5469 295.9844,381.5469 C295.7656,381.5469 295.5625,381.625 295.375,381.8125 C294.9219,382.2969 294.9219,382.2969 294.7344,382.3906 C294.3125,382.6563 293.625,382.7813 292.8594,382.7813 C290.8125,382.7813 289.5156,381.6875 289.5156,379.9844 L289.5156,378.8906 C289.5156,377.1094 290.7656,375.7969 292.5,375.7969 C293.0781,375.7969 293.6875,375.9531 294.1563,376.2031 C294.6406,376.4844 294.8125,376.7031 294.9063,377.1094 C294.9688,377.5156 295,377.6406 295.1406,377.7656 C295.2813,377.9063 295.5156,378.0156 295.7344,378.0156 C296,378.0156 296.2656,377.875 296.4375,377.6563 C296.5469,377.5 296.5781,377.3125 296.5781,376.8906 L296.5781,375.4688 C296.5781,375.0313 296.5625,374.9063 296.4688,374.75 C296.3125,374.4844 296.0313,374.3438 295.7344,374.3438 C295.4375,374.3438 295.2344,374.4375 295.0156,374.75 L294.8438,374.6719 Z "/><text fill="#000000" font-family="sans-serif" font-size="12" lengthAdjust="spacingAndGlyphs" textLength="108" x="306.5" y="383.1543">ConcreteProductB</text><line style="stroke: #A80036; stroke-width: 1.5;" x1="278.5" x2="416.5" y1="395" y2="395"/><line style="stroke: #A80036; stroke-width: 1.5;" x1="278.5" x2="416.5" y1="403" y2="403"/><!--MD5=[2c589014e840926a718801db2289e0a7]
class Creator--><rect codeLine="13" fill="#FEFECE" filter="url(#fnai76t36me4t)" height="60.8047" id="Creator" style="stroke: #A80036; stroke-width: 1.5;" width="157" x="156" y="7"/><ellipse cx="207.75" cy="23" fill="#ADD1B2" rx="11" ry="11" style="stroke: #A80036; stroke-width: 1.0;"/><path d="M210.0938,18.6719 C209.1563,18.2344 208.5625,18.0938 207.6875,18.0938 C205.0625,18.0938 203.0625,20.1719 203.0625,22.8906 L203.0625,24.0156 C203.0625,26.5938 205.1719,28.4844 208.0625,28.4844 C209.2813,28.4844 210.4375,28.1875 211.1875,27.6406 C211.7656,27.2344 212.0938,26.7813 212.0938,26.3906 C212.0938,25.9375 211.7031,25.5469 211.2344,25.5469 C211.0156,25.5469 210.8125,25.625 210.625,25.8125 C210.1719,26.2969 210.1719,26.2969 209.9844,26.3906 C209.5625,26.6563 208.875,26.7813 208.1094,26.7813 C206.0625,26.7813 204.7656,25.6875 204.7656,23.9844 L204.7656,22.8906 C204.7656,21.1094 206.0156,19.7969 207.75,19.7969 C208.3281,19.7969 208.9375,19.9531 209.4063,20.2031 C209.8906,20.4844 210.0625,20.7031 210.1563,21.1094 C210.2188,21.5156 210.25,21.6406 210.3906,21.7656 C210.5313,21.9063 210.7656,22.0156 210.9844,22.0156 C211.25,22.0156 211.5156,21.875 211.6875,21.6563 C211.7969,21.5 211.8281,21.3125 211.8281,20.8906 L211.8281,19.4688 C211.8281,19.0313 211.8125,18.9063 211.7188,18.75 C211.5625,18.4844 211.2813,18.3438 210.9844,18.3438 C210.6875,18.3438 210.4844,18.4375 210.2656,18.75 L210.0938,18.6719 Z "/><text fill="#000000" font-family="sans-serif" font-size="12" lengthAdjust="spacingAndGlyphs" textLength="45" x="228.25" y="27.1543">Creator</text><line style="stroke: #A80036; stroke-width: 1.5;" x1="157" x2="312" y1="39" y2="39"/><line style="stroke: #A80036; stroke-width: 1.5;" x1="157" x2="312" y1="47" y2="47"/><text fill="#000000" font-family="sans-serif" font-size="11" lengthAdjust="spacingAndGlyphs" textLength="145" x="162" y="61.2104">+createPoduct():Product *</text><!--MD5=[9f84bda03622407ef060f60512b88649]
class ConcreteCreatorA--><rect codeLine="19" fill="#FEFECE" filter="url(#fnai76t36me4t)" height="60.8047" id="ConcreteCreatorA" style="stroke: #A80036; stroke-width: 1.5;" width="157" x="7" y="242"/><ellipse cx="29.65" cy="258" fill="#ADD1B2" rx="11" ry="11" style="stroke: #A80036; stroke-width: 1.0;"/><path d="M31.9938,253.6719 C31.0563,253.2344 30.4625,253.0938 29.5875,253.0938 C26.9625,253.0938 24.9625,255.1719 24.9625,257.8906 L24.9625,259.0156 C24.9625,261.5938 27.0719,263.4844 29.9625,263.4844 C31.1813,263.4844 32.3375,263.1875 33.0875,262.6406 C33.6656,262.2344 33.9938,261.7813 33.9938,261.3906 C33.9938,260.9375 33.6031,260.5469 33.1344,260.5469 C32.9156,260.5469 32.7125,260.625 32.525,260.8125 C32.0719,261.2969 32.0719,261.2969 31.8844,261.3906 C31.4625,261.6563 30.775,261.7813 30.0094,261.7813 C27.9625,261.7813 26.6656,260.6875 26.6656,258.9844 L26.6656,257.8906 C26.6656,256.1094 27.9156,254.7969 29.65,254.7969 C30.2281,254.7969 30.8375,254.9531 31.3063,255.2031 C31.7906,255.4844 31.9625,255.7031 32.0563,256.1094 C32.1188,256.5156 32.15,256.6406 32.2906,256.7656 C32.4313,256.9063 32.6656,257.0156 32.8844,257.0156 C33.15,257.0156 33.4156,256.875 33.5875,256.6563 C33.6969,256.5 33.7281,256.3125 33.7281,255.8906 L33.7281,254.4688 C33.7281,254.0313 33.7125,253.9063 33.6188,253.75 C33.4625,253.4844 33.1813,253.3438 32.8844,253.3438 C32.5875,253.3438 32.3844,253.4375 32.1656,253.75 L31.9938,253.6719 Z "/><text fill="#000000" font-family="sans-serif" font-size="12" lengthAdjust="spacingAndGlyphs" textLength="108" x="45.35" y="262.1543">ConcreteCreatorA</text><line style="stroke: #A80036; stroke-width: 1.5;" x1="8" x2="163" y1="274" y2="274"/><line style="stroke: #A80036; stroke-width: 1.5;" x1="8" x2="163" y1="282" y2="282"/><text fill="#000000" font-family="sans-serif" font-size="11" lengthAdjust="spacingAndGlyphs" textLength="145" x="13" y="296.2104">+createPoduct():Product *</text><!--MD5=[e0ec6819900d5ac2984e4e9769287075]
class ConcreteCreatorB--><rect codeLine="23" fill="#FEFECE" filter="url(#fnai76t36me4t)" height="60.8047" id="ConcreteCreatorB" style="stroke: #A80036; stroke-width: 1.5;" width="157" x="342" y="242"/><ellipse cx="364.65" cy="258" fill="#ADD1B2" rx="11" ry="11" style="stroke: #A80036; stroke-width: 1.0;"/><path d="M366.9938,253.6719 C366.0563,253.2344 365.4625,253.0938 364.5875,253.0938 C361.9625,253.0938 359.9625,255.1719 359.9625,257.8906 L359.9625,259.0156 C359.9625,261.5938 362.0719,263.4844 364.9625,263.4844 C366.1813,263.4844 367.3375,263.1875 368.0875,262.6406 C368.6656,262.2344 368.9938,261.7813 368.9938,261.3906 C368.9938,260.9375 368.6031,260.5469 368.1344,260.5469 C367.9156,260.5469 367.7125,260.625 367.525,260.8125 C367.0719,261.2969 367.0719,261.2969 366.8844,261.3906 C366.4625,261.6563 365.775,261.7813 365.0094,261.7813 C362.9625,261.7813 361.6656,260.6875 361.6656,258.9844 L361.6656,257.8906 C361.6656,256.1094 362.9156,254.7969 364.65,254.7969 C365.2281,254.7969 365.8375,254.9531 366.3063,255.2031 C366.7906,255.4844 366.9625,255.7031 367.0563,256.1094 C367.1188,256.5156 367.15,256.6406 367.2906,256.7656 C367.4313,256.9063 367.6656,257.0156 367.8844,257.0156 C368.15,257.0156 368.4156,256.875 368.5875,256.6563 C368.6969,256.5 368.7281,256.3125 368.7281,255.8906 L368.7281,254.4688 C368.7281,254.0313 368.7125,253.9063 368.6188,253.75 C368.4625,253.4844 368.1813,253.3438 367.8844,253.3438 C367.5875,253.3438 367.3844,253.4375 367.1656,253.75 L366.9938,253.6719 Z "/><text fill="#000000" font-family="sans-serif" font-size="12" lengthAdjust="spacingAndGlyphs" textLength="108" x="380.35" y="262.1543">ConcreteCreatorB</text><line style="stroke: #A80036; stroke-width: 1.5;" x1="343" x2="498" y1="274" y2="274"/><line style="stroke: #A80036; stroke-width: 1.5;" x1="343" x2="498" y1="282" y2="282"/><text fill="#000000" font-family="sans-serif" font-size="11" lengthAdjust="spacingAndGlyphs" textLength="145" x="348" y="296.2104">+createPoduct():Product *</text><path d="M534,260 L534,268.5 L499.27,272.5 L534,276.5 L534,285.1328 A0,0 0 0 0 534,285.1328 L743,285.1328 A0,0 0 0 0 743,285.1328 L743,270 L733,260 L534,260 A0,0 0 0 0 534,260 " fill="#FBFB77" filter="url(#fnai76t36me4t)" style="stroke: #A80036; stroke-width: 1.0;"/><path d="M733,260 L733,270 L743,270 L733,260 " fill="#FBFB77" style="stroke: #A80036; stroke-width: 1.0;"/><text fill="#000000" font-family="sans-serif" font-size="13" lengthAdjust="spacingAndGlyphs" textLength="188" x="540" y="277.0669">return new ConcreteCreatorB</text><!--MD5=[9046728ffccef25c7ecc784b4df03c70]
reverse link Product to ConcreteProductA--><path codeLine="10" d="M222.718,201.372 C205.839,249.902 179.731,324.9615 166.611,362.6806 " fill="none" id="Product-backto-ConcreteProductA" style="stroke: #A80036; stroke-width: 1.0; stroke-dasharray: 7.0,7.0;"/><polygon fill="none" points="216.141,198.974,229.323,182.384,229.364,203.574,216.141,198.974" style="stroke: #A80036; stroke-width: 1.0;"/><!--MD5=[176390addf7664512acacb798f62abe7]
reverse link Product to ConcreteProductB--><path codeLine="11" d="M259.695,200.724 C282.683,249.231 318.493,324.7931 336.449,362.6806 " fill="none" id="Product-backto-ConcreteProductB" style="stroke: #A80036; stroke-width: 1.0; stroke-dasharray: 7.0,7.0;"/><polygon fill="none" points="253.243,203.455,251.004,182.384,265.894,197.459,253.243,203.455" style="stroke: #A80036; stroke-width: 1.0;"/><!--MD5=[a1f955bf317dda8c1afc267cb4f57d57]
reverse link Creator to ConcreteCreatorA--><path codeLine="28" d="M191.271,83.528 C179.241,97.228 166.692,112.717 156.5,128 C131.748,165.116 110.125,212.098 97.4363,241.985 " fill="none" id="Creator-backto-ConcreteCreatorA" style="stroke: #A80036; stroke-width: 1.0;"/><polygon fill="none" points="186.369,78.513,204.983,68.387,196.746,87.911,186.369,78.513" style="stroke: #A80036; stroke-width: 1.0;"/><!--MD5=[ea54d07fbf0dea1e98d8f0139e3903c5]
reverse link Creator to ConcreteCreatorB--><path codeLine="29" d="M279.446,82.517 C293.113,96.62 307.853,112.584 320.5,128 C351.315,165.563 382.674,212.227 401.859,241.942 " fill="none" id="Creator-backto-ConcreteCreatorB" style="stroke: #A80036; stroke-width: 1.0;"/><polygon fill="none" points="274.246,87.214,265.185,68.059,284.213,77.383,274.246,87.214" style="stroke: #A80036; stroke-width: 1.0;"/><!--MD5=[6c9c06a5f98e2ddf14f48b85ea9f29b1]
link ConcreteCreatorA to ConcreteProductA--><path codeLine="31" d="M104.6799,303.058 C115.723,320.0769 129.52,341.3396 140.38,358.0755 " fill="none" id="ConcreteCreatorA-to-ConcreteProductA" style="stroke: #A80036; stroke-width: 1.0; stroke-dasharray: 7.0,7.0;"/><polygon fill="#A80036" points="143.361,362.6686,141.8173,352.9415,140.6393,358.4743,135.1064,357.2962,143.361,362.6686" style="stroke: #A80036; stroke-width: 1.0;"/><!--MD5=[990b493f1497b4c73bd9de4fabb38138]
link ConcreteCreatorB to ConcreteProductB--><path codeLine="32" d="M401.32,303.058 C390.277,320.0769 376.48,341.3396 365.62,358.0755 " fill="none" id="ConcreteCreatorB-to-ConcreteProductB" style="stroke: #A80036; stroke-width: 1.0; stroke-dasharray: 7.0,7.0;"/><polygon fill="#A80036" points="362.639,362.6686,370.8936,357.2962,365.3607,358.4743,364.1827,352.9415,362.639,362.6686" style="stroke: #A80036; stroke-width: 1.0;"/><!--MD5=[e30ed003223f38f469bce1fe151af89e]
@startuml
skinparam classAttributeIconSize 0

interface "<<interafce>> \n Product" as Product
{
}

class ConcreteProductA{}
class ConcreteProductB{}

ConcreteProductA -up..|> Product
ConcreteProductB -up..|> Product

class Creator
{
+ createPoduct():Product *
}


class ConcreteCreatorA
{
+ createPoduct():Product *
}
class ConcreteCreatorB
{
+ createPoduct():Product *
}

ConcreteCreatorA -up- -|>Creator
ConcreteCreatorB -up- -|>Creator

ConcreteCreatorA ..> ConcreteProductA
ConcreteCreatorB ..> ConcreteProductB

note  "return new ConcreteCreatorB" as createPoductConcreteCreatorB
createPoductConcreteCreatorB -left- -ConcreteCreatorB
@enduml

PlantUML version 1.2020.17beta5(Unknown compile time)
(GPL source distribution)
Java Runtime: Java(TM) SE Runtime Environment
JVM: Java HotSpot(TM) 64-Bit Server VM
Default Encoding: UTF-8
Language: en
Country: US
--></g></svg>