<?xml version="1.0" encoding="UTF-8" standalone="no"?><svg xmlns="http://www.w3.org/2000/svg" xmlns:xlink="http://www.w3.org/1999/xlink" contentScriptType="application/ecmascript" contentStyleType="text/css" height="112px" preserveAspectRatio="none" style="width:396px;height:112px;" version="1.1" viewBox="0 0 396 112" width="396px" zoomAndPan="magnify"><defs><filter height="300%" id="f1fcv19ty0nf2v" width="300%" x="-1" y="-1"><feGaussianBlur result="blurOut" stdDeviation="2.0"/><feColorMatrix in="blurOut" result="blurOut2" type="matrix" values="0 0 0 0 0 0 0 0 0 0 0 0 0 0 0 0 0 0 .4 0"/><feOffset dx="4.0" dy="4.0" in="blurOut2" result="blurOut3"/><feBlend in="SourceGraphic" in2="blurOut3" mode="normal"/></filter></defs><g><!--MD5=[2f4e497837a991172d40b04b7a7d0ca2]
class Singleton--><rect codeLine="3" fill="#FEFECE" filter="url(#f1fcv19ty0nf2v)" height="86.4141" id="Singleton" style="stroke: #A80036; stroke-width: 1.5;" width="159" x="7" y="7"/><ellipse cx="54.25" cy="23" fill="#ADD1B2" rx="11" ry="11" style="stroke: #A80036; stroke-width: 1.0;"/><path d="M56.5938,18.6719 C55.6563,18.2344 55.0625,18.0938 54.1875,18.0938 C51.5625,18.0938 49.5625,20.1719 49.5625,22.8906 L49.5625,24.0156 C49.5625,26.5938 51.6719,28.4844 54.5625,28.4844 C55.7813,28.4844 56.9375,28.1875 57.6875,27.6406 C58.2656,27.2344 58.5938,26.7813 58.5938,26.3906 C58.5938,25.9375 58.2031,25.5469 57.7344,25.5469 C57.5156,25.5469 57.3125,25.625 57.125,25.8125 C56.6719,26.2969 56.6719,26.2969 56.4844,26.3906 C56.0625,26.6563 55.375,26.7813 54.6094,26.7813 C52.5625,26.7813 51.2656,25.6875 51.2656,23.9844 L51.2656,22.8906 C51.2656,21.1094 52.5156,19.7969 54.25,19.7969 C54.8281,19.7969 55.4375,19.9531 55.9063,20.2031 C56.3906,20.4844 56.5625,20.7031 56.6563,21.1094 C56.7188,21.5156 56.75,21.6406 56.8906,21.7656 C57.0313,21.9063 57.2656,22.0156 57.4844,22.0156 C57.75,22.0156 58.0156,21.875 58.1875,21.6563 C58.2969,21.5 58.3281,21.3125 58.3281,20.8906 L58.3281,19.4688 C58.3281,19.0313 58.3125,18.9063 58.2188,18.75 C58.0625,18.4844 57.7813,18.3438 57.4844,18.3438 C57.1875,18.3438 56.9844,18.4375 56.7656,18.75 L56.5938,18.6719 Z "/><text fill="#000000" font-family="sans-serif" font-size="12" lengthAdjust="spacingAndGlyphs" textLength="56" x="74.75" y="27.1543">Singleton</text><line style="stroke: #A80036; stroke-width: 1.5;" x1="8" x2="165" y1="39" y2="39"/><text fill="#000000" font-family="sans-serif" font-size="11" lengthAdjust="spacingAndGlyphs" textLength="119" x="13" y="53.2104">-instance: Singleton*</text><line style="stroke: #A80036; stroke-width: 1.5;" x1="8" x2="165" y1="59.8047" y2="59.8047"/><text fill="#000000" font-family="sans-serif" font-size="11" lengthAdjust="spacingAndGlyphs" textLength="66" x="13" y="74.0151">-Singleton()</text><text fill="#000000" font-family="sans-serif" font-size="11" lengthAdjust="spacingAndGlyphs" text-decoration="underline" textLength="147" x="13" y="86.8198">+getInstance():Singleton*</text><path d="M201,22.5 L201,46 L166.164,50 L201,54 L201,77.8984 A0,0 0 0 0 201,77.8984 L384,77.8984 A0,0 0 0 0 384,77.8984 L384,32.5 L374,22.5 L201,22.5 A0,0 0 0 0 201,22.5 " fill="#FBFB77" filter="url(#f1fcv19ty0nf2v)" style="stroke: #A80036; stroke-width: 1.0;"/><path d="M374,22.5 L374,32.5 L384,32.5 L374,22.5 " fill="#FBFB77" style="stroke: #A80036; stroke-width: 1.0;"/><text fill="#000000" font-family="sans-serif" font-size="13" lengthAdjust="spacingAndGlyphs" textLength="132" x="211" y="39.5669">if(instance==nullptr)</text><text fill="#000000" font-family="sans-serif" font-size="13" lengthAdjust="spacingAndGlyphs" textLength="154" x="215" y="54.6997">instance=new Logger();</text><text fill="#000000" font-family="sans-serif" font-size="13" lengthAdjust="spacingAndGlyphs" textLength="102" x="211" y="69.8325">return instance;</text><!--MD5=[e482bba99e560f65845121d0acf850af]
@startuml
skinparam classAttributeIconSize 0

class Singleton
{
-instance: Singleton*
-Singleton()
+{static} getInstance():Singleton* 
}

note " if(instance==nullptr)\n  instance=new Logger();\n return instance;" as n1
n1 -left- -Singleton
@enduml

PlantUML version 1.2020.17beta5(Unknown compile time)
(GPL source distribution)
Java Runtime: Java(TM) SE Runtime Environment
JVM: Java HotSpot(TM) 64-Bit Server VM
Default Encoding: UTF-8
Language: en
Country: US
--></g></svg>