<?xml version="1.0" encoding="UTF-8" standalone="no"?><svg xmlns="http://www.w3.org/2000/svg" xmlns:xlink="http://www.w3.org/1999/xlink" contentScriptType="application/ecmascript" contentStyleType="text/css" height="138px" preserveAspectRatio="none" style="width:202px;height:138px;" version="1.1" viewBox="0 0 202 138" width="202px" zoomAndPan="magnify"><defs><filter height="300%" id="fiql719edwlzs" width="300%" x="-1" y="-1"><feGaussianBlur result="blurOut" stdDeviation="2.0"/><feColorMatrix in="blurOut" result="blurOut2" type="matrix" values="0 0 0 0 0 0 0 0 0 0 0 0 0 0 0 0 0 0 .4 0"/><feOffset dx="4.0" dy="4.0" in="blurOut2" result="blurOut3"/><feBlend in="SourceGraphic" in2="blurOut3" mode="normal"/></filter></defs><g><!--MD5=[7fd4401f5c5cb0e3d029c879cad30c04]
class Animal--><rect codeLine="2" fill="#FEFECE" filter="url(#fiql719edwlzs)" height="112.0234" id="Animal" style="stroke: #A80036; stroke-width: 1.5;" width="176" x="7" y="7"/><ellipse cx="71.25" cy="23" fill="#ADD1B2" rx="11" ry="11" style="stroke: #A80036; stroke-width: 1.0;"/><path d="M73.5938,18.6719 C72.6563,18.2344 72.0625,18.0938 71.1875,18.0938 C68.5625,18.0938 66.5625,20.1719 66.5625,22.8906 L66.5625,24.0156 C66.5625,26.5938 68.6719,28.4844 71.5625,28.4844 C72.7813,28.4844 73.9375,28.1875 74.6875,27.6406 C75.2656,27.2344 75.5938,26.7813 75.5938,26.3906 C75.5938,25.9375 75.2031,25.5469 74.7344,25.5469 C74.5156,25.5469 74.3125,25.625 74.125,25.8125 C73.6719,26.2969 73.6719,26.2969 73.4844,26.3906 C73.0625,26.6563 72.375,26.7813 71.6094,26.7813 C69.5625,26.7813 68.2656,25.6875 68.2656,23.9844 L68.2656,22.8906 C68.2656,21.1094 69.5156,19.7969 71.25,19.7969 C71.8281,19.7969 72.4375,19.9531 72.9063,20.2031 C73.3906,20.4844 73.5625,20.7031 73.6563,21.1094 C73.7188,21.5156 73.75,21.6406 73.8906,21.7656 C74.0313,21.9063 74.2656,22.0156 74.4844,22.0156 C74.75,22.0156 75.0156,21.875 75.1875,21.6563 C75.2969,21.5 75.3281,21.3125 75.3281,20.8906 L75.3281,19.4688 C75.3281,19.0313 75.3125,18.9063 75.2188,18.75 C75.0625,18.4844 74.7813,18.3438 74.4844,18.3438 C74.1875,18.3438 73.9844,18.4375 73.7656,18.75 L73.5938,18.6719 Z "/><text fill="#000000" font-family="sans-serif" font-size="12" lengthAdjust="spacingAndGlyphs" textLength="39" x="91.75" y="27.1543">Animal</text><line style="stroke: #A80036; stroke-width: 1.5;" x1="8" x2="182" y1="39" y2="39"/><text fill="#000000" font-family="sans-serif" font-size="11" lengthAdjust="spacingAndGlyphs" textLength="71" x="13" y="53.2104">-name:string</text><text fill="#000000" font-family="sans-serif" font-size="11" lengthAdjust="spacingAndGlyphs" textLength="40" x="13" y="66.0151">#id: int</text><line style="stroke: #A80036; stroke-width: 1.5;" x1="8" x2="182" y1="72.6094" y2="72.6094"/><text fill="#000000" font-family="sans-serif" font-size="11" lengthAdjust="spacingAndGlyphs" textLength="164" x="13" y="86.8198">+setName(string name):void</text><text fill="#000000" font-family="sans-serif" font-size="11" font-style="italic" lengthAdjust="spacingAndGlyphs" textLength="81" x="13" y="99.6245">+move(): void</text><text fill="#000000" font-family="sans-serif" font-size="11" lengthAdjust="spacingAndGlyphs" text-decoration="underline" textLength="69" x="13" y="112.4292">+count(): int</text><!--MD5=[269230859bef6b6c7467e4e3dba1a718]
@startuml
skinparam classAttributeIconSize 0
class Animal
{
-	name:string 
#	id: int 
+	setName(string name):void 
+	{abstract} move(): void
+	{static}  count(): int
}
@enduml

PlantUML version 1.2020.16beta7(Unknown compile time)
(GPL source distribution)
Java Runtime: Java(TM) SE Runtime Environment
JVM: Java HotSpot(TM) 64-Bit Server VM
Default Encoding: UTF-8
Language: en
Country: US
--></g></svg>