<?xml version="1.0" encoding="UTF-8" standalone="no"?><svg xmlns="http://www.w3.org/2000/svg" xmlns:xlink="http://www.w3.org/1999/xlink" contentScriptType="application/ecmascript" contentStyleType="text/css" height="199px" preserveAspectRatio="none" style="width:97px;height:199px;" version="1.1" viewBox="0 0 97 199" width="97px" zoomAndPan="magnify"><defs><filter height="300%" id="f1wlhlq04fty8k" width="300%" x="-1" y="-1"><feGaussianBlur result="blurOut" stdDeviation="2.0"/><feColorMatrix in="blurOut" result="blurOut2" type="matrix" values="0 0 0 0 0 0 0 0 0 0 0 0 0 0 0 0 0 0 .4 0"/><feOffset dx="4.0" dy="4.0" in="blurOut2" result="blurOut3"/><feBlend in="SourceGraphic" in2="blurOut3" mode="normal"/></filter></defs><g><!--MD5=[d1dcc9c41ef051a777528f9336a950e3]
class Folder--><rect codeLine="1" fill="#FEFECE" filter="url(#f1wlhlq04fty8k)" height="48" id="Folder" style="stroke: #A80036; stroke-width: 1.5;" width="71" x="7" y="7"/><ellipse cx="22" cy="23" fill="#ADD1B2" rx="11" ry="11" style="stroke: #A80036; stroke-width: 1.0;"/><path d="M24.3438,18.6719 C23.4063,18.2344 22.8125,18.0938 21.9375,18.0938 C19.3125,18.0938 17.3125,20.1719 17.3125,22.8906 L17.3125,24.0156 C17.3125,26.5938 19.4219,28.4844 22.3125,28.4844 C23.5313,28.4844 24.6875,28.1875 25.4375,27.6406 C26.0156,27.2344 26.3438,26.7813 26.3438,26.3906 C26.3438,25.9375 25.9531,25.5469 25.4844,25.5469 C25.2656,25.5469 25.0625,25.625 24.875,25.8125 C24.4219,26.2969 24.4219,26.2969 24.2344,26.3906 C23.8125,26.6563 23.125,26.7813 22.3594,26.7813 C20.3125,26.7813 19.0156,25.6875 19.0156,23.9844 L19.0156,22.8906 C19.0156,21.1094 20.2656,19.7969 22,19.7969 C22.5781,19.7969 23.1875,19.9531 23.6563,20.2031 C24.1406,20.4844 24.3125,20.7031 24.4063,21.1094 C24.4688,21.5156 24.5,21.6406 24.6406,21.7656 C24.7813,21.9063 25.0156,22.0156 25.2344,22.0156 C25.5,22.0156 25.7656,21.875 25.9375,21.6563 C26.0469,21.5 26.0781,21.3125 26.0781,20.8906 L26.0781,19.4688 C26.0781,19.0313 26.0625,18.9063 25.9688,18.75 C25.8125,18.4844 25.5313,18.3438 25.2344,18.3438 C24.9375,18.3438 24.7344,18.4375 24.5156,18.75 L24.3438,18.6719 Z "/><text fill="#000000" font-family="sans-serif" font-size="12" lengthAdjust="spacingAndGlyphs" textLength="39" x="36" y="27.1543">Folder</text><line style="stroke: #A80036; stroke-width: 1.5;" x1="8" x2="77" y1="39" y2="39"/><line style="stroke: #A80036; stroke-width: 1.5;" x1="8" x2="77" y1="47" y2="47"/><!--MD5=[63dd87716ef75a5caca5dce59428e94a]
class File--><rect codeLine="2" fill="#FEFECE" filter="url(#f1wlhlq04fty8k)" height="48" id="File" style="stroke: #A80036; stroke-width: 1.5;" width="53" x="16" y="132"/><ellipse cx="31" cy="148" fill="#ADD1B2" rx="11" ry="11" style="stroke: #A80036; stroke-width: 1.0;"/><path d="M33.3438,143.6719 C32.4063,143.2344 31.8125,143.0938 30.9375,143.0938 C28.3125,143.0938 26.3125,145.1719 26.3125,147.8906 L26.3125,149.0156 C26.3125,151.5938 28.4219,153.4844 31.3125,153.4844 C32.5313,153.4844 33.6875,153.1875 34.4375,152.6406 C35.0156,152.2344 35.3438,151.7813 35.3438,151.3906 C35.3438,150.9375 34.9531,150.5469 34.4844,150.5469 C34.2656,150.5469 34.0625,150.625 33.875,150.8125 C33.4219,151.2969 33.4219,151.2969 33.2344,151.3906 C32.8125,151.6563 32.125,151.7813 31.3594,151.7813 C29.3125,151.7813 28.0156,150.6875 28.0156,148.9844 L28.0156,147.8906 C28.0156,146.1094 29.2656,144.7969 31,144.7969 C31.5781,144.7969 32.1875,144.9531 32.6563,145.2031 C33.1406,145.4844 33.3125,145.7031 33.4063,146.1094 C33.4688,146.5156 33.5,146.6406 33.6406,146.7656 C33.7813,146.9063 34.0156,147.0156 34.2344,147.0156 C34.5,147.0156 34.7656,146.875 34.9375,146.6563 C35.0469,146.5 35.0781,146.3125 35.0781,145.8906 L35.0781,144.4688 C35.0781,144.0313 35.0625,143.9063 34.9688,143.75 C34.8125,143.4844 34.5313,143.3438 34.2344,143.3438 C33.9375,143.3438 33.7344,143.4375 33.5156,143.75 L33.3438,143.6719 Z "/><text fill="#000000" font-family="sans-serif" font-size="12" lengthAdjust="spacingAndGlyphs" textLength="21" x="45" y="152.1543">File</text><line style="stroke: #A80036; stroke-width: 1.5;" x1="17" x2="68" y1="164" y2="164"/><line style="stroke: #A80036; stroke-width: 1.5;" x1="17" x2="68" y1="172" y2="172"/><!--MD5=[982650921ae870dc70f313cd92631acb]
reverse link Folder to File--><path codeLine="3" d="M42.5,68.214 C42.5,88.8329 42.5,114.0433 42.5,131.9684 " fill="none" id="Folder&lt;-File" style="stroke: #A80036; stroke-width: 1.0;"/><polygon fill="#A80036" points="42.5,55.135,38.5,61.135,42.5,67.135,46.5,61.135,42.5,55.135" style="stroke: #A80036; stroke-width: 1.0;"/><text fill="#000000" font-family="sans-serif" font-size="13" lengthAdjust="spacingAndGlyphs" textLength="23" x="43.5" y="98.0669">has</text><text fill="#000000" font-family="sans-serif" font-size="13" lengthAdjust="spacingAndGlyphs" textLength="8" x="33.525" y="74.9291">1</text><text fill="#000000" font-family="sans-serif" font-size="13" lengthAdjust="spacingAndGlyphs" textLength="7" x="34.6031" y="120.9723">*</text><!--MD5=[bcaeafea384b997621d39ffd368d033f]
@startuml
class Folder
class File
Folder "1" *- - "*" File : has
@enduml

PlantUML version 1.2020.16beta7(Unknown compile time)
(GPL source distribution)
Java Runtime: Java(TM) SE Runtime Environment
JVM: Java HotSpot(TM) 64-Bit Server VM
Default Encoding: UTF-8
Language: en
Country: US
--></g></svg>