<?xml version="1.0" encoding="UTF-8" standalone="no"?><svg xmlns="http://www.w3.org/2000/svg" xmlns:xlink="http://www.w3.org/1999/xlink" contentScriptType="application/ecmascript" contentStyleType="text/css" height="199px" preserveAspectRatio="none" style="width:99px;height:199px;" version="1.1" viewBox="0 0 99 199" width="99px" zoomAndPan="magnify"><defs><filter height="300%" id="f4biq48pes01p" width="300%" x="-1" y="-1"><feGaussianBlur result="blurOut" stdDeviation="2.0"/><feColorMatrix in="blurOut" result="blurOut2" type="matrix" values="0 0 0 0 0 0 0 0 0 0 0 0 0 0 0 0 0 0 .4 0"/><feOffset dx="4.0" dy="4.0" in="blurOut2" result="blurOut3"/><feBlend in="SourceGraphic" in2="blurOut3" mode="normal"/></filter></defs><g><!--MD5=[09ce52be0ee7de43c61b6e2d59bf108b]
class Person--><rect codeLine="1" fill="#FEFECE" filter="url(#f4biq48pes01p)" height="48" id="Person" style="stroke: #A80036; stroke-width: 1.5;" width="73" x="7" y="7"/><ellipse cx="22" cy="23" fill="#ADD1B2" rx="11" ry="11" style="stroke: #A80036; stroke-width: 1.0;"/><path d="M24.3438,18.6719 C23.4063,18.2344 22.8125,18.0938 21.9375,18.0938 C19.3125,18.0938 17.3125,20.1719 17.3125,22.8906 L17.3125,24.0156 C17.3125,26.5938 19.4219,28.4844 22.3125,28.4844 C23.5313,28.4844 24.6875,28.1875 25.4375,27.6406 C26.0156,27.2344 26.3438,26.7813 26.3438,26.3906 C26.3438,25.9375 25.9531,25.5469 25.4844,25.5469 C25.2656,25.5469 25.0625,25.625 24.875,25.8125 C24.4219,26.2969 24.4219,26.2969 24.2344,26.3906 C23.8125,26.6563 23.125,26.7813 22.3594,26.7813 C20.3125,26.7813 19.0156,25.6875 19.0156,23.9844 L19.0156,22.8906 C19.0156,21.1094 20.2656,19.7969 22,19.7969 C22.5781,19.7969 23.1875,19.9531 23.6563,20.2031 C24.1406,20.4844 24.3125,20.7031 24.4063,21.1094 C24.4688,21.5156 24.5,21.6406 24.6406,21.7656 C24.7813,21.9063 25.0156,22.0156 25.2344,22.0156 C25.5,22.0156 25.7656,21.875 25.9375,21.6563 C26.0469,21.5 26.0781,21.3125 26.0781,20.8906 L26.0781,19.4688 C26.0781,19.0313 26.0625,18.9063 25.9688,18.75 C25.8125,18.4844 25.5313,18.3438 25.2344,18.3438 C24.9375,18.3438 24.7344,18.4375 24.5156,18.75 L24.3438,18.6719 Z "/><text fill="#000000" font-family="sans-serif" font-size="12" lengthAdjust="spacingAndGlyphs" textLength="41" x="36" y="27.1543">Person</text><line style="stroke: #A80036; stroke-width: 1.5;" x1="8" x2="79" y1="39" y2="39"/><line style="stroke: #A80036; stroke-width: 1.5;" x1="8" x2="79" y1="47" y2="47"/><!--MD5=[9bb5813e59df3e2529d11a5afaed7800]
class Heart--><rect codeLine="2" fill="#FEFECE" filter="url(#f4biq48pes01p)" height="48" id="Heart" style="stroke: #A80036; stroke-width: 1.5;" width="65" x="11" y="132"/><ellipse cx="26" cy="148" fill="#ADD1B2" rx="11" ry="11" style="stroke: #A80036; stroke-width: 1.0;"/><path d="M28.3438,143.6719 C27.4063,143.2344 26.8125,143.0938 25.9375,143.0938 C23.3125,143.0938 21.3125,145.1719 21.3125,147.8906 L21.3125,149.0156 C21.3125,151.5938 23.4219,153.4844 26.3125,153.4844 C27.5313,153.4844 28.6875,153.1875 29.4375,152.6406 C30.0156,152.2344 30.3438,151.7813 30.3438,151.3906 C30.3438,150.9375 29.9531,150.5469 29.4844,150.5469 C29.2656,150.5469 29.0625,150.625 28.875,150.8125 C28.4219,151.2969 28.4219,151.2969 28.2344,151.3906 C27.8125,151.6563 27.125,151.7813 26.3594,151.7813 C24.3125,151.7813 23.0156,150.6875 23.0156,148.9844 L23.0156,147.8906 C23.0156,146.1094 24.2656,144.7969 26,144.7969 C26.5781,144.7969 27.1875,144.9531 27.6563,145.2031 C28.1406,145.4844 28.3125,145.7031 28.4063,146.1094 C28.4688,146.5156 28.5,146.6406 28.6406,146.7656 C28.7813,146.9063 29.0156,147.0156 29.2344,147.0156 C29.5,147.0156 29.7656,146.875 29.9375,146.6563 C30.0469,146.5 30.0781,146.3125 30.0781,145.8906 L30.0781,144.4688 C30.0781,144.0313 30.0625,143.9063 29.9688,143.75 C29.8125,143.4844 29.5313,143.3438 29.2344,143.3438 C28.9375,143.3438 28.7344,143.4375 28.5156,143.75 L28.3438,143.6719 Z "/><text fill="#000000" font-family="sans-serif" font-size="12" lengthAdjust="spacingAndGlyphs" textLength="33" x="40" y="152.1543">Heart</text><line style="stroke: #A80036; stroke-width: 1.5;" x1="12" x2="75" y1="164" y2="164"/><line style="stroke: #A80036; stroke-width: 1.5;" x1="12" x2="75" y1="172" y2="172"/><!--MD5=[b4b4a0cde7e19c2acde71987b6064d4f]
reverse link Person to Heart--><path codeLine="3" d="M43.5,68.214 C43.5,88.8329 43.5,114.0433 43.5,131.9684 " fill="none" id="Person&lt;-Heart" style="stroke: #A80036; stroke-width: 1.0;"/><polygon fill="#A80036" points="43.5,55.135,39.5,61.135,43.5,67.135,47.5,61.135,43.5,55.135" style="stroke: #A80036; stroke-width: 1.0;"/><text fill="#000000" font-family="sans-serif" font-size="13" lengthAdjust="spacingAndGlyphs" textLength="23" x="44.5" y="98.0669">has</text><text fill="#000000" font-family="sans-serif" font-size="13" lengthAdjust="spacingAndGlyphs" textLength="8" x="34.525" y="74.9291">1</text><text fill="#000000" font-family="sans-serif" font-size="13" lengthAdjust="spacingAndGlyphs" textLength="8" x="34.475" y="120.9723">1</text><!--MD5=[7ce6081144505f06d3a727fb507dbe7c]
@startuml
class Person
class Heart
Person "1" *- - "1" Heart : has
@enduml

PlantUML version 1.2020.16beta7(Unknown compile time)
(GPL source distribution)
Java Runtime: Java(TM) SE Runtime Environment
JVM: Java HotSpot(TM) 64-Bit Server VM
Default Encoding: UTF-8
Language: en
Country: US
--></g></svg>