<?xml version="1.0" encoding="UTF-8" standalone="no"?><svg xmlns="http://www.w3.org/2000/svg" xmlns:xlink="http://www.w3.org/1999/xlink" contentScriptType="application/ecmascript" contentStyleType="text/css" height="249px" preserveAspectRatio="none" style="width:258px;height:249px;" version="1.1" viewBox="0 0 258 249" width="258px" zoomAndPan="magnify"><defs><filter height="300%" id="f1wy6nsxsqts5s" width="300%" x="-1" y="-1"><feGaussianBlur result="blurOut" stdDeviation="2.0"/><feColorMatrix in="blurOut" result="blurOut2" type="matrix" values="0 0 0 0 0 0 0 0 0 0 0 0 0 0 0 0 0 0 .4 0"/><feOffset dx="4.0" dy="4.0" in="blurOut2" result="blurOut3"/><feBlend in="SourceGraphic" in2="blurOut3" mode="normal"/></filter></defs><g><!--MD5=[2ce409087c256806e794369f9639a134]
class Playlist--><rect codeLine="3" fill="#FEFECE" filter="url(#f1wy6nsxsqts5s)" height="48" id="Playlist" style="stroke: #A80036; stroke-width: 1.5;" width="72" x="7" y="10"/><ellipse cx="22" cy="26" fill="#ADD1B2" rx="11" ry="11" style="stroke: #A80036; stroke-width: 1.0;"/><path d="M24.3438,21.6719 C23.4063,21.2344 22.8125,21.0938 21.9375,21.0938 C19.3125,21.0938 17.3125,23.1719 17.3125,25.8906 L17.3125,27.0156 C17.3125,29.5938 19.4219,31.4844 22.3125,31.4844 C23.5313,31.4844 24.6875,31.1875 25.4375,30.6406 C26.0156,30.2344 26.3438,29.7813 26.3438,29.3906 C26.3438,28.9375 25.9531,28.5469 25.4844,28.5469 C25.2656,28.5469 25.0625,28.625 24.875,28.8125 C24.4219,29.2969 24.4219,29.2969 24.2344,29.3906 C23.8125,29.6563 23.125,29.7813 22.3594,29.7813 C20.3125,29.7813 19.0156,28.6875 19.0156,26.9844 L19.0156,25.8906 C19.0156,24.1094 20.2656,22.7969 22,22.7969 C22.5781,22.7969 23.1875,22.9531 23.6563,23.2031 C24.1406,23.4844 24.3125,23.7031 24.4063,24.1094 C24.4688,24.5156 24.5,24.6406 24.6406,24.7656 C24.7813,24.9063 25.0156,25.0156 25.2344,25.0156 C25.5,25.0156 25.7656,24.875 25.9375,24.6563 C26.0469,24.5 26.0781,24.3125 26.0781,23.8906 L26.0781,22.4688 C26.0781,22.0313 26.0625,21.9063 25.9688,21.75 C25.8125,21.4844 25.5313,21.3438 25.2344,21.3438 C24.9375,21.3438 24.7344,21.4375 24.5156,21.75 L24.3438,21.6719 Z "/><text fill="#000000" font-family="sans-serif" font-size="12" lengthAdjust="spacingAndGlyphs" textLength="40" x="36" y="30.1543">Playlist</text><line style="stroke: #A80036; stroke-width: 1.5;" x1="8" x2="78" y1="42" y2="42"/><line style="stroke: #A80036; stroke-width: 1.5;" x1="8" x2="78" y1="50" y2="50"/><!--MD5=[5a61a6b4a7c689fed4ddead890305065]
class Spotify--><rect codeLine="4" fill="#FEFECE" filter="url(#f1wy6nsxsqts5s)" height="48" id="Spotify" style="stroke: #A80036; stroke-width: 1.5;" width="74" x="140" y="182"/><ellipse cx="155" cy="198" fill="#ADD1B2" rx="11" ry="11" style="stroke: #A80036; stroke-width: 1.0;"/><path d="M157.3438,193.6719 C156.4063,193.2344 155.8125,193.0938 154.9375,193.0938 C152.3125,193.0938 150.3125,195.1719 150.3125,197.8906 L150.3125,199.0156 C150.3125,201.5938 152.4219,203.4844 155.3125,203.4844 C156.5313,203.4844 157.6875,203.1875 158.4375,202.6406 C159.0156,202.2344 159.3438,201.7813 159.3438,201.3906 C159.3438,200.9375 158.9531,200.5469 158.4844,200.5469 C158.2656,200.5469 158.0625,200.625 157.875,200.8125 C157.4219,201.2969 157.4219,201.2969 157.2344,201.3906 C156.8125,201.6563 156.125,201.7813 155.3594,201.7813 C153.3125,201.7813 152.0156,200.6875 152.0156,198.9844 L152.0156,197.8906 C152.0156,196.1094 153.2656,194.7969 155,194.7969 C155.5781,194.7969 156.1875,194.9531 156.6563,195.2031 C157.1406,195.4844 157.3125,195.7031 157.4063,196.1094 C157.4688,196.5156 157.5,196.6406 157.6406,196.7656 C157.7813,196.9063 158.0156,197.0156 158.2344,197.0156 C158.5,197.0156 158.7656,196.875 158.9375,196.6563 C159.0469,196.5 159.0781,196.3125 159.0781,195.8906 L159.0781,194.4688 C159.0781,194.0313 159.0625,193.9063 158.9688,193.75 C158.8125,193.4844 158.5313,193.3438 158.2344,193.3438 C157.9375,193.3438 157.7344,193.4375 157.5156,193.75 L157.3438,193.6719 Z "/><text fill="#000000" font-family="sans-serif" font-size="12" lengthAdjust="spacingAndGlyphs" textLength="42" x="169" y="202.1543">Spotify</text><line style="stroke: #A80036; stroke-width: 1.5;" x1="141" x2="213" y1="214" y2="214"/><line style="stroke: #A80036; stroke-width: 1.5;" x1="141" x2="213" y1="222" y2="222"/><!--MD5=[a664fa1bf59865fa43f25e28dac38862]
class TrackData--><rect codeLine="5" fill="#FEFECE" filter="url(#f1wy6nsxsqts5s)" height="53.9375" id="TrackData" style="stroke: #A80036; stroke-width: 1.5;" width="125" x="114.5" y="7"/><ellipse cx="129.5" cy="25.9688" fill="#B4A7E5" rx="11" ry="11" style="stroke: #A80036; stroke-width: 1.0;"/><path d="M130.4531,22.75 L132.1719,22.75 C132.5625,22.75 132.75,22.7188 132.875,22.6406 C133.1406,22.4844 133.2813,22.2031 133.2813,21.9063 C133.2813,21.6406 133.1719,21.375 132.9375,21.2031 C132.7656,21.0938 132.625,21.0625 132.1719,21.0625 L127.0313,21.0625 C126.5938,21.0625 126.4688,21.0781 126.3125,21.1719 C126.0625,21.3281 125.9063,21.625 125.9063,21.9063 C125.9063,22.1875 126.0469,22.4375 126.2656,22.6094 C126.4219,22.7188 126.6094,22.75 127.0313,22.75 L128.75,22.75 L128.75,29.2656 L127.0313,29.2656 C126.5938,29.2656 126.4688,29.2813 126.3125,29.3906 C126.0625,29.5469 125.9063,29.8281 125.9063,30.125 C125.9063,30.375 126.0469,30.6406 126.2656,30.7969 C126.4219,30.9219 126.625,30.9688 127.0313,30.9688 L132.1719,30.9688 C132.9219,30.9688 133.2813,30.6875 133.2813,30.125 C133.2813,29.8438 133.1719,29.5938 132.9375,29.4219 C132.7656,29.2969 132.625,29.2656 132.1719,29.2656 L130.4531,29.2656 L130.4531,22.75 Z "/><text fill="#000000" font-family="sans-serif" font-size="12" font-style="italic" lengthAdjust="spacingAndGlyphs" textLength="93" x="143.5" y="23.1387">&lt;&lt;interface&gt;&gt;</text><text fill="#000000" font-family="sans-serif" font-size="12" font-style="italic" lengthAdjust="spacingAndGlyphs" textLength="61" x="161.5" y="37.1074">TrackData</text><line style="stroke: #A80036; stroke-width: 1.5;" x1="115.5" x2="238.5" y1="44.9375" y2="44.9375"/><line style="stroke: #A80036; stroke-width: 1.5;" x1="115.5" x2="238.5" y1="52.9375" y2="52.9375"/><!--MD5=[56ee474cb4e072edf77770810d299388]
link Playlist to TrackData--><path codeLine="6" d="M79.1172,34 C89.1022,34 99.0873,34 109.072,34 " fill="none" id="Playlist-to-TrackData" style="stroke: #A80036; stroke-width: 1.0; stroke-dasharray: 7.0,7.0;"/><polygon fill="#A80036" points="114.294,34,105.294,30,109.294,34,105.294,38,114.294,34" style="stroke: #A80036; stroke-width: 1.0;"/><!--MD5=[2f5edb2b6ff66db7d82f73e51f89f17c]
reverse link TrackData to Spotify--><path codeLine="7" d="M177,81.395 C177,113.939 177,156.0696 177,181.7867 " fill="none" id="TrackData-backto-Spotify" style="stroke: #A80036; stroke-width: 1.0; stroke-dasharray: 7.0,7.0;"/><polygon fill="none" points="170,81.19,177,61.19,184,81.19,170,81.19" style="stroke: #A80036; stroke-width: 1.0;"/><!--MD5=[b1a782f4d46f60af538869097feb1060]
@startuml
skinparam classAttributeIconSize 0

class Playlist
class Spotify
interface "<<interface>>\n TrackData" as TrackData
Playlist -right..> TrackData
Spotify -up..|> TrackData
@enduml

PlantUML version 1.2020.16beta10(Unknown compile time)
(GPL source distribution)
Java Runtime: Java(TM) SE Runtime Environment
JVM: Java HotSpot(TM) 64-Bit Server VM
Default Encoding: UTF-8
Language: en
Country: US
--></g></svg>