<?xml version="1.0" encoding="UTF-8" standalone="no"?><svg xmlns="http://www.w3.org/2000/svg" xmlns:xlink="http://www.w3.org/1999/xlink" contentScriptType="application/ecmascript" contentStyleType="text/css" height="587px" preserveAspectRatio="none" style="width:641px;height:587px;" version="1.1" viewBox="0 0 641 587" width="641px" zoomAndPan="magnify"><defs><filter height="300%" id="f12lm9jnriq504" width="300%" x="-1" y="-1"><feGaussianBlur result="blurOut" stdDeviation="2.0"/><feColorMatrix in="blurOut" result="blurOut2" type="matrix" values="0 0 0 0 0 0 0 0 0 0 0 0 0 0 0 0 0 0 .4 0"/><feOffset dx="4.0" dy="4.0" in="blurOut2" result="blurOut3"/><feBlend in="SourceGraphic" in2="blurOut3" mode="normal"/></filter></defs><g><!--MD5=[3d2d9012ebc99b12a467e2a114f0ed0c]
class Sauce--><rect codeLine="3" fill="#FEFECE" filter="url(#f12lm9jnriq504)" height="48" id="Sauce" style="stroke: #A80036; stroke-width: 1.5;" width="69" x="553.5" y="351"/><ellipse cx="568.5" cy="367" fill="#ADD1B2" rx="11" ry="11" style="stroke: #A80036; stroke-width: 1.0;"/><path d="M570.8438,362.6719 C569.9063,362.2344 569.3125,362.0938 568.4375,362.0938 C565.8125,362.0938 563.8125,364.1719 563.8125,366.8906 L563.8125,368.0156 C563.8125,370.5938 565.9219,372.4844 568.8125,372.4844 C570.0313,372.4844 571.1875,372.1875 571.9375,371.6406 C572.5156,371.2344 572.8438,370.7813 572.8438,370.3906 C572.8438,369.9375 572.4531,369.5469 571.9844,369.5469 C571.7656,369.5469 571.5625,369.625 571.375,369.8125 C570.9219,370.2969 570.9219,370.2969 570.7344,370.3906 C570.3125,370.6563 569.625,370.7813 568.8594,370.7813 C566.8125,370.7813 565.5156,369.6875 565.5156,367.9844 L565.5156,366.8906 C565.5156,365.1094 566.7656,363.7969 568.5,363.7969 C569.0781,363.7969 569.6875,363.9531 570.1563,364.2031 C570.6406,364.4844 570.8125,364.7031 570.9063,365.1094 C570.9688,365.5156 571,365.6406 571.1406,365.7656 C571.2813,365.9063 571.5156,366.0156 571.7344,366.0156 C572,366.0156 572.2656,365.875 572.4375,365.6563 C572.5469,365.5 572.5781,365.3125 572.5781,364.8906 L572.5781,363.4688 C572.5781,363.0313 572.5625,362.9063 572.4688,362.75 C572.3125,362.4844 572.0313,362.3438 571.7344,362.3438 C571.4375,362.3438 571.2344,362.4375 571.0156,362.75 L570.8438,362.6719 Z "/><text fill="#000000" font-family="sans-serif" font-size="12" lengthAdjust="spacingAndGlyphs" textLength="37" x="582.5" y="371.1543">Sauce</text><line style="stroke: #A80036; stroke-width: 1.5;" x1="554.5" x2="621.5" y1="383" y2="383"/><line style="stroke: #A80036; stroke-width: 1.5;" x1="554.5" x2="621.5" y1="391" y2="391"/><!--MD5=[6665003b7dc756f28c9ac48c4493979c]
class Topping--><rect codeLine="4" fill="#FEFECE" filter="url(#f12lm9jnriq504)" height="48" id="Topping" style="stroke: #A80036; stroke-width: 1.5;" width="81" x="437.5" y="351"/><ellipse cx="452.5" cy="367" fill="#ADD1B2" rx="11" ry="11" style="stroke: #A80036; stroke-width: 1.0;"/><path d="M454.8438,362.6719 C453.9063,362.2344 453.3125,362.0938 452.4375,362.0938 C449.8125,362.0938 447.8125,364.1719 447.8125,366.8906 L447.8125,368.0156 C447.8125,370.5938 449.9219,372.4844 452.8125,372.4844 C454.0313,372.4844 455.1875,372.1875 455.9375,371.6406 C456.5156,371.2344 456.8438,370.7813 456.8438,370.3906 C456.8438,369.9375 456.4531,369.5469 455.9844,369.5469 C455.7656,369.5469 455.5625,369.625 455.375,369.8125 C454.9219,370.2969 454.9219,370.2969 454.7344,370.3906 C454.3125,370.6563 453.625,370.7813 452.8594,370.7813 C450.8125,370.7813 449.5156,369.6875 449.5156,367.9844 L449.5156,366.8906 C449.5156,365.1094 450.7656,363.7969 452.5,363.7969 C453.0781,363.7969 453.6875,363.9531 454.1563,364.2031 C454.6406,364.4844 454.8125,364.7031 454.9063,365.1094 C454.9688,365.5156 455,365.6406 455.1406,365.7656 C455.2813,365.9063 455.5156,366.0156 455.7344,366.0156 C456,366.0156 456.2656,365.875 456.4375,365.6563 C456.5469,365.5 456.5781,365.3125 456.5781,364.8906 L456.5781,363.4688 C456.5781,363.0313 456.5625,362.9063 456.4688,362.75 C456.3125,362.4844 456.0313,362.3438 455.7344,362.3438 C455.4375,362.3438 455.2344,362.4375 455.0156,362.75 L454.8438,362.6719 Z "/><text fill="#000000" font-family="sans-serif" font-size="12" lengthAdjust="spacingAndGlyphs" textLength="49" x="466.5" y="371.1543">Topping</text><line style="stroke: #A80036; stroke-width: 1.5;" x1="438.5" x2="517.5" y1="383" y2="383"/><line style="stroke: #A80036; stroke-width: 1.5;" x1="438.5" x2="517.5" y1="391" y2="391"/><!--MD5=[919adf279038e080f59aa8594646240a]
class Dough--><rect codeLine="5" fill="#FEFECE" filter="url(#f12lm9jnriq504)" height="48" id="Dough" style="stroke: #A80036; stroke-width: 1.5;" width="71" x="331.5" y="351"/><ellipse cx="346.5" cy="367" fill="#ADD1B2" rx="11" ry="11" style="stroke: #A80036; stroke-width: 1.0;"/><path d="M348.8438,362.6719 C347.9063,362.2344 347.3125,362.0938 346.4375,362.0938 C343.8125,362.0938 341.8125,364.1719 341.8125,366.8906 L341.8125,368.0156 C341.8125,370.5938 343.9219,372.4844 346.8125,372.4844 C348.0313,372.4844 349.1875,372.1875 349.9375,371.6406 C350.5156,371.2344 350.8438,370.7813 350.8438,370.3906 C350.8438,369.9375 350.4531,369.5469 349.9844,369.5469 C349.7656,369.5469 349.5625,369.625 349.375,369.8125 C348.9219,370.2969 348.9219,370.2969 348.7344,370.3906 C348.3125,370.6563 347.625,370.7813 346.8594,370.7813 C344.8125,370.7813 343.5156,369.6875 343.5156,367.9844 L343.5156,366.8906 C343.5156,365.1094 344.7656,363.7969 346.5,363.7969 C347.0781,363.7969 347.6875,363.9531 348.1563,364.2031 C348.6406,364.4844 348.8125,364.7031 348.9063,365.1094 C348.9688,365.5156 349,365.6406 349.1406,365.7656 C349.2813,365.9063 349.5156,366.0156 349.7344,366.0156 C350,366.0156 350.2656,365.875 350.4375,365.6563 C350.5469,365.5 350.5781,365.3125 350.5781,364.8906 L350.5781,363.4688 C350.5781,363.0313 350.5625,362.9063 350.4688,362.75 C350.3125,362.4844 350.0313,362.3438 349.7344,362.3438 C349.4375,362.3438 349.2344,362.4375 349.0156,362.75 L348.8438,362.6719 Z "/><text fill="#000000" font-family="sans-serif" font-size="12" lengthAdjust="spacingAndGlyphs" textLength="39" x="360.5" y="371.1543">Dough</text><line style="stroke: #A80036; stroke-width: 1.5;" x1="332.5" x2="401.5" y1="383" y2="383"/><line style="stroke: #A80036; stroke-width: 1.5;" x1="332.5" x2="401.5" y1="391" y2="391"/><!--MD5=[5c5a2dd8ed299478ae091ad6bda6d6bd]
class Pizza--><rect codeLine="7" fill="#FEFECE" filter="url(#f12lm9jnriq504)" height="124.8281" id="Pizza" style="stroke: #A80036; stroke-width: 1.5;" width="210" x="379" y="166"/><ellipse cx="464.75" cy="182" fill="#ADD1B2" rx="11" ry="11" style="stroke: #A80036; stroke-width: 1.0;"/><path d="M467.0938,177.6719 C466.1563,177.2344 465.5625,177.0938 464.6875,177.0938 C462.0625,177.0938 460.0625,179.1719 460.0625,181.8906 L460.0625,183.0156 C460.0625,185.5938 462.1719,187.4844 465.0625,187.4844 C466.2813,187.4844 467.4375,187.1875 468.1875,186.6406 C468.7656,186.2344 469.0938,185.7813 469.0938,185.3906 C469.0938,184.9375 468.7031,184.5469 468.2344,184.5469 C468.0156,184.5469 467.8125,184.625 467.625,184.8125 C467.1719,185.2969 467.1719,185.2969 466.9844,185.3906 C466.5625,185.6563 465.875,185.7813 465.1094,185.7813 C463.0625,185.7813 461.7656,184.6875 461.7656,182.9844 L461.7656,181.8906 C461.7656,180.1094 463.0156,178.7969 464.75,178.7969 C465.3281,178.7969 465.9375,178.9531 466.4063,179.2031 C466.8906,179.4844 467.0625,179.7031 467.1563,180.1094 C467.2188,180.5156 467.25,180.6406 467.3906,180.7656 C467.5313,180.9063 467.7656,181.0156 467.9844,181.0156 C468.25,181.0156 468.5156,180.875 468.6875,180.6563 C468.7969,180.5 468.8281,180.3125 468.8281,179.8906 L468.8281,178.4688 C468.8281,178.0313 468.8125,177.9063 468.7188,177.75 C468.5625,177.4844 468.2813,177.3438 467.9844,177.3438 C467.6875,177.3438 467.4844,177.4375 467.2656,177.75 L467.0938,177.6719 Z "/><text fill="#000000" font-family="sans-serif" font-size="12" lengthAdjust="spacingAndGlyphs" textLength="30" x="485.25" y="186.1543">Pizza</text><line style="stroke: #A80036; stroke-width: 1.5;" x1="380" x2="588" y1="198" y2="198"/><text fill="#000000" font-family="sans-serif" font-size="11" lengthAdjust="spacingAndGlyphs" textLength="96" x="385" y="212.2104">-m_dough:Dough</text><text fill="#000000" font-family="sans-serif" font-size="11" lengthAdjust="spacingAndGlyphs" textLength="94" x="385" y="225.0151">-m_sauce:Sauce</text><text fill="#000000" font-family="sans-serif" font-size="11" lengthAdjust="spacingAndGlyphs" textLength="111" x="385" y="237.8198">-m_topping:Topping</text><line style="stroke: #A80036; stroke-width: 1.5;" x1="380" x2="588" y1="244.4141" y2="244.4141"/><text fill="#000000" font-family="sans-serif" font-size="11" lengthAdjust="spacingAndGlyphs" textLength="175" x="385" y="258.6245">+setDough(Dough dough):void</text><text fill="#000000" font-family="sans-serif" font-size="11" lengthAdjust="spacingAndGlyphs" textLength="172" x="385" y="271.4292">+setSauce(Sauce sauce):void</text><text fill="#000000" font-family="sans-serif" font-size="11" lengthAdjust="spacingAndGlyphs" textLength="198" x="385" y="284.2339">+setTopping(Topping topping):void</text><!--MD5=[b8d9844403cccae6406b2214e0cb0925]
class PizzaBuilder--><rect codeLine="20" fill="#FEFECE" filter="url(#f12lm9jnriq504)" height="92.3516" id="PizzaBuilder" style="stroke: #A80036; stroke-width: 1.5;" width="163" x="180.5" y="182.5"/><ellipse cx="195.5" cy="201.4688" fill="#B4A7E5" rx="11" ry="11" style="stroke: #A80036; stroke-width: 1.0;"/><path d="M196.4531,198.25 L198.1719,198.25 C198.5625,198.25 198.75,198.2188 198.875,198.1406 C199.1406,197.9844 199.2813,197.7031 199.2813,197.4063 C199.2813,197.1406 199.1719,196.875 198.9375,196.7031 C198.7656,196.5938 198.625,196.5625 198.1719,196.5625 L193.0313,196.5625 C192.5938,196.5625 192.4688,196.5781 192.3125,196.6719 C192.0625,196.8281 191.9063,197.125 191.9063,197.4063 C191.9063,197.6875 192.0469,197.9375 192.2656,198.1094 C192.4219,198.2188 192.6094,198.25 193.0313,198.25 L194.75,198.25 L194.75,204.7656 L193.0313,204.7656 C192.5938,204.7656 192.4688,204.7813 192.3125,204.8906 C192.0625,205.0469 191.9063,205.3281 191.9063,205.625 C191.9063,205.875 192.0469,206.1406 192.2656,206.2969 C192.4219,206.4219 192.625,206.4688 193.0313,206.4688 L198.1719,206.4688 C198.9219,206.4688 199.2813,206.1875 199.2813,205.625 C199.2813,205.3438 199.1719,205.0938 198.9375,204.9219 C198.7656,204.7969 198.625,204.7656 198.1719,204.7656 L196.4531,204.7656 L196.4531,198.25 Z "/><text fill="#000000" font-family="sans-serif" font-size="12" font-style="italic" lengthAdjust="spacingAndGlyphs" textLength="93" x="226.5" y="198.6387">&lt;&lt;interface&gt;&gt;</text><text fill="#000000" font-family="sans-serif" font-size="12" font-style="italic" lengthAdjust="spacingAndGlyphs" textLength="127" x="213.5" y="212.6074">PizzaBuilder (Builder)</text><line style="stroke: #A80036; stroke-width: 1.5;" x1="181.5" x2="342.5" y1="220.4375" y2="220.4375"/><line style="stroke: #A80036; stroke-width: 1.5;" x1="181.5" x2="342.5" y1="228.4375" y2="228.4375"/><text fill="#000000" font-family="sans-serif" font-size="11" font-style="italic" lengthAdjust="spacingAndGlyphs" textLength="99" x="186.5" y="242.6479">buildDough():void</text><text fill="#000000" font-family="sans-serif" font-size="11" font-style="italic" lengthAdjust="spacingAndGlyphs" textLength="97" x="186.5" y="255.4526">buildSauce():void</text><text fill="#000000" font-family="sans-serif" font-size="11" font-style="italic" lengthAdjust="spacingAndGlyphs" textLength="108" x="186.5" y="268.2573">buildTopping():void</text><!--MD5=[b7d54dec3b9b13fa2654889fd1fe387d]
class Cook--><rect codeLine="27" fill="#FEFECE" filter="url(#f12lm9jnriq504)" height="99.2188" id="Cook" style="stroke: #A80036; stroke-width: 1.5;" width="208" x="269" y="7"/><ellipse cx="321.75" cy="23" fill="#ADD1B2" rx="11" ry="11" style="stroke: #A80036; stroke-width: 1.0;"/><path d="M324.0938,18.6719 C323.1563,18.2344 322.5625,18.0938 321.6875,18.0938 C319.0625,18.0938 317.0625,20.1719 317.0625,22.8906 L317.0625,24.0156 C317.0625,26.5938 319.1719,28.4844 322.0625,28.4844 C323.2813,28.4844 324.4375,28.1875 325.1875,27.6406 C325.7656,27.2344 326.0938,26.7813 326.0938,26.3906 C326.0938,25.9375 325.7031,25.5469 325.2344,25.5469 C325.0156,25.5469 324.8125,25.625 324.625,25.8125 C324.1719,26.2969 324.1719,26.2969 323.9844,26.3906 C323.5625,26.6563 322.875,26.7813 322.1094,26.7813 C320.0625,26.7813 318.7656,25.6875 318.7656,23.9844 L318.7656,22.8906 C318.7656,21.1094 320.0156,19.7969 321.75,19.7969 C322.3281,19.7969 322.9375,19.9531 323.4063,20.2031 C323.8906,20.4844 324.0625,20.7031 324.1563,21.1094 C324.2188,21.5156 324.25,21.6406 324.3906,21.7656 C324.5313,21.9063 324.7656,22.0156 324.9844,22.0156 C325.25,22.0156 325.5156,21.875 325.6875,21.6563 C325.7969,21.5 325.8281,21.3125 325.8281,20.8906 L325.8281,19.4688 C325.8281,19.0313 325.8125,18.9063 325.7188,18.75 C325.5625,18.4844 325.2813,18.3438 324.9844,18.3438 C324.6875,18.3438 324.4844,18.4375 324.2656,18.75 L324.0938,18.6719 Z "/><text fill="#000000" font-family="sans-serif" font-size="12" lengthAdjust="spacingAndGlyphs" textLength="94" x="342.25" y="27.1543">Cook (Director)</text><line style="stroke: #A80036; stroke-width: 1.5;" x1="270" x2="476" y1="39" y2="39"/><text fill="#000000" font-family="sans-serif" font-size="11" lengthAdjust="spacingAndGlyphs" textLength="172" x="275" y="53.2104">-m_pizzaBuilder:pizzaBuilder*</text><line style="stroke: #A80036; stroke-width: 1.5;" x1="270" x2="476" y1="59.8047" y2="59.8047"/><text fill="#000000" font-family="sans-serif" font-size="11" lengthAdjust="spacingAndGlyphs" textLength="196" x="275" y="74.0151">+Cook(PizzaBuilder *pizzaBuilder)</text><text fill="#000000" font-family="sans-serif" font-size="11" lengthAdjust="spacingAndGlyphs" textLength="115" x="275" y="86.8198">+createPizza(): void</text><text fill="#000000" font-family="sans-serif" font-size="11" lengthAdjust="spacingAndGlyphs" textLength="103" x="275" y="99.6245">+showPizza():void</text><path d="M6,21 L6,91.5313 A0,0 0 0 0 6,91.5313 L234,91.5313 A0,0 0 0 0 234,91.5313 L234,60.5 L268.86,56.5 L234,52.5 L234,31 L224,21 L6,21 A0,0 0 0 0 6,21 " fill="#FBFB77" filter="url(#f12lm9jnriq504)" style="stroke: #A80036; stroke-width: 1.0;"/><path d="M224,21 L224,31 L234,31 L224,21 " fill="#FBFB77" style="stroke: #A80036; stroke-width: 1.0;"/><text fill="#000000" font-family="sans-serif" font-size="13" lengthAdjust="spacingAndGlyphs" textLength="203" x="12" y="38.0669">pizzaBuilder-&gt;createNewPizza()</text><text fill="#000000" font-family="sans-serif" font-size="13" lengthAdjust="spacingAndGlyphs" textLength="173" x="16" y="53.1997">pizzaBuilder-&gt;buildDough()</text><text fill="#000000" font-family="sans-serif" font-size="13" lengthAdjust="spacingAndGlyphs" textLength="170" x="16" y="68.3325">pizzaBuilder-&gt;buildSauce()</text><text fill="#000000" font-family="sans-serif" font-size="13" lengthAdjust="spacingAndGlyphs" textLength="182" x="16" y="83.4653">pizzaBuilder-&gt;buildTopping()</text><!--MD5=[de8dc456e19a92f90345d4e85e01e4de]
class SpicyPizzaBuilder--><rect codeLine="39" fill="#FEFECE" filter="url(#f12lm9jnriq504)" height="48" id="SpicyPizzaBuilder" style="stroke: #A80036; stroke-width: 1.5;" width="137" x="353.5" y="520"/><ellipse cx="368.5" cy="536" fill="#ADD1B2" rx="11" ry="11" style="stroke: #A80036; stroke-width: 1.0;"/><path d="M370.8438,531.6719 C369.9063,531.2344 369.3125,531.0938 368.4375,531.0938 C365.8125,531.0938 363.8125,533.1719 363.8125,535.8906 L363.8125,537.0156 C363.8125,539.5938 365.9219,541.4844 368.8125,541.4844 C370.0313,541.4844 371.1875,541.1875 371.9375,540.6406 C372.5156,540.2344 372.8438,539.7813 372.8438,539.3906 C372.8438,538.9375 372.4531,538.5469 371.9844,538.5469 C371.7656,538.5469 371.5625,538.625 371.375,538.8125 C370.9219,539.2969 370.9219,539.2969 370.7344,539.3906 C370.3125,539.6563 369.625,539.7813 368.8594,539.7813 C366.8125,539.7813 365.5156,538.6875 365.5156,536.9844 L365.5156,535.8906 C365.5156,534.1094 366.7656,532.7969 368.5,532.7969 C369.0781,532.7969 369.6875,532.9531 370.1563,533.2031 C370.6406,533.4844 370.8125,533.7031 370.9063,534.1094 C370.9688,534.5156 371,534.6406 371.1406,534.7656 C371.2813,534.9063 371.5156,535.0156 371.7344,535.0156 C372,535.0156 372.2656,534.875 372.4375,534.6563 C372.5469,534.5 372.5781,534.3125 372.5781,533.8906 L372.5781,532.4688 C372.5781,532.0313 372.5625,531.9063 372.4688,531.75 C372.3125,531.4844 372.0313,531.3438 371.7344,531.3438 C371.4375,531.3438 371.2344,531.4375 371.0156,531.75 L370.8438,531.6719 Z "/><text fill="#000000" font-family="sans-serif" font-size="12" lengthAdjust="spacingAndGlyphs" textLength="105" x="382.5" y="540.1543">SpicyPizzaBuilder</text><line style="stroke: #A80036; stroke-width: 1.5;" x1="354.5" x2="489.5" y1="552" y2="552"/><line style="stroke: #A80036; stroke-width: 1.5;" x1="354.5" x2="489.5" y1="560" y2="560"/><!--MD5=[f21a1adf658ba4807b98a7d092956800]
reverse link PizzaBuilder to SpicyPizzaBuilder--><path codeLine="41" d="M276.271,294.372 C284.796,326.827 297.263,366.099 314,399 C337.662,445.515 376.412,492.6219 400.496,519.754 " fill="none" id="PizzaBuilder-backto-SpicyPizzaBuilder" style="stroke: #A80036; stroke-width: 1.0; stroke-dasharray: 7.0,7.0;"/><polygon fill="none" points="269.404,295.766,271.351,274.666,282.987,292.375,269.404,295.766" style="stroke: #A80036; stroke-width: 1.0;"/><!--MD5=[7cccda6ade5b27e35b052b72cf20f886]
reverse link Sauce to SpicyPizzaBuilder--><path codeLine="43" d="M561.09,403.072 C528.812,435.545 475.262,489.417 444.886,519.9766 " fill="none" id="Sauce-backto-SpicyPizzaBuilder" style="stroke: #A80036; stroke-width: 1.0; stroke-dasharray: 7.0,7.0;"/><polygon fill="#A80036" points="564.918,399.221,555.7364,402.7844,561.3932,402.7672,561.4103,408.4241,564.918,399.221" style="stroke: #A80036; stroke-width: 1.0;"/><!--MD5=[7c05ee26fa7e83e1fcc60dabb2a61c75]
reverse link Topping to SpicyPizzaBuilder--><path codeLine="44" d="M468.521,404.269 C457.593,436.855 439.843,489.7897 429.72,519.9766 " fill="none" id="Topping-backto-SpicyPizzaBuilder" style="stroke: #A80036; stroke-width: 1.0; stroke-dasharray: 7.0,7.0;"/><polygon fill="#A80036" points="470.213,399.221,463.5584,406.4816,468.6229,403.9614,471.1431,409.0258,470.213,399.221" style="stroke: #A80036; stroke-width: 1.0;"/><!--MD5=[6948bdf6d5f7bd13bd1e584f9c3b447a]
reverse link Dough to SpicyPizzaBuilder--><path codeLine="45" d="M376.31,404.269 C387.042,436.855 404.476,489.7897 414.417,519.9766 " fill="none" id="Dough-backto-SpicyPizzaBuilder" style="stroke: #A80036; stroke-width: 1.0; stroke-dasharray: 7.0,7.0;"/><polygon fill="#A80036" points="374.648,399.221,373.6639,409.0206,376.212,403.9701,381.2625,406.5182,374.648,399.221" style="stroke: #A80036; stroke-width: 1.0;"/><!--MD5=[901e6232a0116ebe9d08cdc7bb823297]
link Cook to Pizza--><path codeLine="47" d="M404.808,106.215 C415.97,123.31 428.706,142.816 440.652,161.111 " fill="none" id="Cook-to-Pizza" style="stroke: #A80036; stroke-width: 1.0;"/><polygon fill="#A80036" points="443.671,165.734,442.0977,156.0116,440.9365,161.548,435.4001,160.3868,443.671,165.734" style="stroke: #A80036; stroke-width: 1.0;"/><!--MD5=[4928e1343aacf9fd17af06acd7fa7836]
reverse link Cook to PizzaBuilder--><path codeLine="48" d="M334.048,117.156 C320.079,138.551 304.569,162.304 291.53,182.274 " fill="none" id="Cook-backto-PizzaBuilder" style="stroke: #A80036; stroke-width: 1.0;"/><polygon fill="#FFFFFF" points="341.192,106.215,334.5624,109.0519,334.6312,116.2627,341.2608,113.4258,341.192,106.215" style="stroke: #A80036; stroke-width: 1.0;"/><!--MD5=[adf42550418c113896f72592c40ab3ca]
link Pizza to Sauce--><path codeLine="50" d="M528.407,291.2 C542.335,310.552 557.006,330.936 568.306,346.637 " fill="none" id="Pizza-to-Sauce" style="stroke: #A80036; stroke-width: 1.0; stroke-dasharray: 7.0,7.0;"/><polygon fill="#A80036" points="571.4,350.936,569.3908,341.2943,568.4799,346.8773,562.8969,345.9664,571.4,350.936" style="stroke: #A80036; stroke-width: 1.0;"/><!--MD5=[64fa522c449dc593f89aa844f1f63a50]
link Pizza to Topping--><path codeLine="51" d="M481.438,291.2 C480.648,310.221 479.817,330.24 479.17,345.828 " fill="none" id="Pizza-to-Topping" style="stroke: #A80036; stroke-width: 1.0; stroke-dasharray: 7.0,7.0;"/><polygon fill="#A80036" points="478.958,350.936,483.3274,342.1094,479.1651,345.9403,475.3343,341.778,478.958,350.936" style="stroke: #A80036; stroke-width: 1.0;"/><!--MD5=[7191585329a168e62a0246c1c589c614]
link Pizza to Dough--><path codeLine="52" d="M434.042,291.2 C418.239,310.718 401.586,331.285 388.831,347.038 " fill="none" id="Pizza-to-Dough" style="stroke: #A80036; stroke-width: 1.0; stroke-dasharray: 7.0,7.0;"/><polygon fill="#A80036" points="385.674,350.936,394.4469,346.4597,388.8209,347.0505,388.2301,341.4246,385.674,350.936" style="stroke: #A80036; stroke-width: 1.0;"/><!--MD5=[9c08dbd6fb3bce608dc2f9cbc4601365]
@startuml
skinparam classAttributeIconSize 0

class Sauce{}
class Topping{}
class Dough{}

class "Pizza" as Pizza
{

-    m_dough:Dough 
-    m_sauce:Sauce 
-    m_topping:Topping 
+     setDough(Dough dough):void
+     setSauce(Sauce sauce):void
+     setTopping(Topping topping):void 


}

interface "<<interface>> \n PizzaBuilder (Builder)" as PizzaBuilder
{
    {abstract} buildDough():void
    {abstract} buildSauce():void
    {abstract} buildTopping():void
}

class "Cook (Director)" as Cook
{
- m_pizzaBuilder:pizzaBuilder*
 +   Cook(PizzaBuilder *pizzaBuilder)
 +   createPizza(): void
 +   showPizza():void

}

note "pizzaBuilder->createNewPizza() \n pizzaBuilder->buildDough() \n pizzaBuilder->buildSauce() \n pizzaBuilder->buildTopping()" as pizzaBuildercreateNewPizza


class SpicyPizzaBuilder{}

SpicyPizzaBuilder -up..|> PizzaBuilder

SpicyPizzaBuilder -up..> Sauce
SpicyPizzaBuilder -up..> Topping
SpicyPizzaBuilder -up..> Dough

Cook - -> Pizza
Cook o- - PizzaBuilder

Pizza ..> Sauce
Pizza ..> Topping
Pizza ..> Dough

pizzaBuildercreateNewPizza -right- -Cook
@enduml

PlantUML version 1.2020.17(Sat Sep 19 12:30:11 UTC 2020)
(GPL source distribution)
Java Runtime: Java(TM) SE Runtime Environment
JVM: Java HotSpot(TM) 64-Bit Server VM
Default Encoding: UTF-8
Language: en
Country: US
--></g></svg>