<?xml version="1.0" encoding="UTF-8" standalone="no"?><svg xmlns="http://www.w3.org/2000/svg" xmlns:xlink="http://www.w3.org/1999/xlink" contentStyleType="text/css" height="59px" preserveAspectRatio="none" style="width:365px;height:59px;background:#FFFFFF;" version="1.1" viewBox="0 0 365 59" width="365px" zoomAndPan="magnify"><defs/><g><!--MD5=[5f175ec018c225c86e8e77149e6345d4]
entity component--><g id="elem_component"><rect fill="#F1F1F1" height="46.2969" rx="2.5" ry="2.5" style="stroke:#181818;stroke-width:0.5;" width="120" x="239" y="7"/><rect fill="#F1F1F1" height="10" style="stroke:#181818;stroke-width:0.5;" width="15" x="339" y="12"/><rect fill="#F1F1F1" height="2" style="stroke:#181818;stroke-width:0.5;" width="4" x="337" y="14"/><rect fill="#F1F1F1" height="2" style="stroke:#181818;stroke-width:0.5;" width="4" x="337" y="18"/><text fill="#000000" font-family="sans-serif" font-size="14" lengthAdjust="spacing" textLength="80" x="254" y="39.9951">component</text></g><g id="elem_GMN5"><path d="M6,17.5 L6,42.6328 A0,0 0 0 0 6,42.6328 L204,42.6328 A0,0 0 0 0 204,42.6328 L204,35.5 L238.69,30 L204,27.5 L204,27.5 L194,17.5 L6,17.5 A0,0 0 0 0 6,17.5 " fill="#FEFFDD" style="stroke:#181818;stroke-width:0.5;"/><path d="M194,17.5 L194,27.5 L204,27.5 L194,17.5 " fill="#FEFFDD" style="stroke:#181818;stroke-width:0.5;"/><text fill="#000000" font-family="sans-serif" font-size="13" lengthAdjust="spacing" textLength="177" x="12" y="34.5669">This is the UML 2.0 notation</text></g><!--MD5=[40c883604e1ca2c41d8588fd390a3f83]
@startuml
[component]
note left : This is the UML 2.0 notation
@enduml

PlantUML version 1.2022.5(Sat Apr 30 12:55:52 CEST 2022)
(GPL source distribution)
Java Runtime: OpenJDK Runtime Environment
JVM: OpenJDK 64-Bit Server VM
Default Encoding: UTF-8
Language: en
Country: US
--></g></svg>