<?xml version="1.0" encoding="UTF-8" standalone="no"?><svg xmlns="http://www.w3.org/2000/svg" xmlns:xlink="http://www.w3.org/1999/xlink" contentStyleType="text/css" height="230px" preserveAspectRatio="none" style="width:539px;height:230px;background:#FFFFFF;" version="1.1" viewBox="0 0 539 230" width="539px" zoomAndPan="magnify"><defs/><g><!--MD5=[eb3c4068ba3702a628ae4f682a10bfae]
cluster SalesServer--><g id="cluster_SalesServer"><rect height="130" rx="2.5" ry="2.5" style="stroke:#181818;stroke-width:1.0;fill:none;" width="342" x="191" y="94"/><rect height="10" style="stroke:#181818;stroke-width:1.0;fill:none;" width="15" x="513" y="99"/><rect height="2" style="stroke:#181818;stroke-width:1.0;fill:none;" width="4" x="511" y="101"/><rect height="2" style="stroke:#181818;stroke-width:1.0;fill:none;" width="4" x="511" y="105"/><text fill="#000000" font-family="sans-serif" font-size="14" font-weight="bold" lengthAdjust="spacing" textLength="100" x="312" y="119.9951">Sales Server</text></g><!--MD5=[00ec90a8503d4b9f1338f321e2873bce]
entity TransactionProcessor--><g id="elem_TransactionProcessor"><rect fill="#F1F1F1" height="62.5938" rx="2.5" ry="2.5" style="stroke:#181818;stroke-width:0.5;" width="121" x="387.5" y="137"/><rect fill="#F1F1F1" height="10" style="stroke:#181818;stroke-width:0.5;" width="15" x="488.5" y="142"/><rect fill="#F1F1F1" height="2" style="stroke:#181818;stroke-width:0.5;" width="4" x="486.5" y="144"/><rect fill="#F1F1F1" height="2" style="stroke:#181818;stroke-width:0.5;" width="4" x="486.5" y="148"/><text fill="#000000" font-family="sans-serif" font-size="14" lengthAdjust="spacing" textLength="81" x="402.5" y="169.9951">Transaction</text><text fill="#000000" font-family="sans-serif" font-size="14" lengthAdjust="spacing" textLength="70" x="402.5" y="186.292">Processor</text></g><!--MD5=[09041f892825edfb73dfe8946363c7a4]
entity AccountingDriver--><g id="elem_AccountingDriver"><rect fill="#F1F1F1" height="62.5938" rx="2.5" ry="2.5" style="stroke:#181818;stroke-width:0.5;" width="118" x="234" y="137"/><rect fill="#F1F1F1" height="10" style="stroke:#181818;stroke-width:0.5;" width="15" x="332" y="142"/><rect fill="#F1F1F1" height="2" style="stroke:#181818;stroke-width:0.5;" width="4" x="330" y="144"/><rect fill="#F1F1F1" height="2" style="stroke:#181818;stroke-width:0.5;" width="4" x="330" y="148"/><text fill="#000000" font-family="sans-serif" font-size="14" lengthAdjust="spacing" textLength="78" x="249" y="169.9951">Accounting</text><text fill="#000000" font-family="sans-serif" font-size="14" lengthAdjust="spacing" textLength="40" x="253" y="186.292">Driver</text></g><!--MD5=[c1fe354191168b098bc4322397caaff0]
entity POS--><g id="elem_POS"><rect fill="#F1F1F1" height="62.5938" rx="2.5" ry="2.5" style="stroke:#181818;stroke-width:0.5;" width="131" x="249.5" y="7"/><rect fill="#F1F1F1" height="10" style="stroke:#181818;stroke-width:0.5;" width="15" x="360.5" y="12"/><rect fill="#F1F1F1" height="2" style="stroke:#181818;stroke-width:0.5;" width="4" x="358.5" y="14"/><rect fill="#F1F1F1" height="2" style="stroke:#181818;stroke-width:0.5;" width="4" x="358.5" y="18"/><text fill="#000000" font-family="sans-serif" font-size="14" lengthAdjust="spacing" textLength="52" x="264.5" y="39.9951">Point of</text><text fill="#000000" font-family="sans-serif" font-size="14" lengthAdjust="spacing" textLength="91" x="264.5" y="56.292">Sale Machine</text></g><!--MD5=[ab8011494b009f71eb7a101944338a8c]
entity MessageQueue--><g id="elem_MessageQueue"><rect fill="#F1F1F1" height="46.2969" rx="2.5" ry="2.5" style="stroke:#181818;stroke-width:0.5;" width="154" x="7" y="15.5"/><rect fill="#F1F1F1" height="10" style="stroke:#181818;stroke-width:0.5;" width="15" x="141" y="20.5"/><rect fill="#F1F1F1" height="2" style="stroke:#181818;stroke-width:0.5;" width="4" x="139" y="22.5"/><rect fill="#F1F1F1" height="2" style="stroke:#181818;stroke-width:0.5;" width="4" x="139" y="26.5"/><text fill="#000000" font-family="sans-serif" font-size="14" lengthAdjust="spacing" textLength="114" x="22" y="48.4951">Message Queue</text></g><!--MD5=[13af838779be5f3bf93da592b0035d26]
entity SalesMessages--><g id="elem_SalesMessages"><ellipse cx="205" cy="38.5" fill="#F1F1F1" rx="8" ry="8" style="stroke:#181818;stroke-width:0.5;"/><text fill="#000000" font-family="sans-serif" font-size="14" lengthAdjust="spacing" textLength="37" x="167.5" y="68.4951">Sales</text><text fill="#000000" font-family="sans-serif" font-size="14" lengthAdjust="spacing" textLength="71" x="171.5" y="84.792">Messages</text></g><!--MD5=[ab4954cbe87980fa1c0011221a861d20]
reverse link MessageQueue to SalesServer--><g id="link_MessageQueue_SalesServer"><path d="M107.28,65.42 C123.815,83.82 146.2775,108.8175 164.8338,129.47 C174.1119,139.7963 182.4134,149.0363 188.5092,155.8222 C189.2712,156.6704 189.9987,157.4803 190.6893,158.2492 C190.7757,158.3453 190.8614,158.4408 190.9466,158.5356 " fill="none" id="MessageQueue-backto-SalesServer" style="stroke:#181818;stroke-width:1.0;"/><rect fill="#FFFFFF" height="10" style="stroke:#181818;stroke-width:1.5;" width="10" x="98.77" y="56.5"/></g><!--MD5=[c1a2bf20449444cb9edd15e8dba408e6]
link MessageQueue to SalesMessages--><g id="link_MessageQueue_SalesMessages"><path codeLine="15" d="M161.04,38.5 C172.6,38.5 184.17,38.5 195.73,38.5 " fill="none" id="MessageQueue-SalesMessages" style="stroke:#181818;stroke-width:1.0;"/></g><!--MD5=[ece8e2f3bd1ff34a8de761be1c5693e8]
reverse link SalesMessages to POS--><g id="link_SalesMessages_POS"><path codeLine="16" d="M224.17,38.5 C232.49,38.5 240.81,38.5 249.13,38.5 " fill="none" id="SalesMessages-backto-POS" style="stroke:#181818;stroke-width:1.0;"/><path d="M217.0982,46.9572 A9,9 0 0 0 217.0982 30.0428" fill="none" style="stroke:#181818;stroke-width:1.5;"/></g><!--MD5=[4ebe9bd9592bf23d7ad96d0099acbed6]
reverse link POS to SalesServer--><g id="link_POS_SalesServer"><path d="M244.68,64.79 C231.15,70.22 220.39,75.17 218,78 C214.8238,81.7625 212.1381,85.9263 209.8709,90.3389 C209.3041,91.442 208.7634,92.5608 208.2478,93.6926 " fill="none" id="POS-backto-SalesServer" style="stroke:#181818;stroke-width:1.0;"/><rect fill="#FFFFFF" height="10" style="stroke:#181818;stroke-width:1.5;" width="10" x="244.37" y="57.94"/></g><!--MD5=[0864b109b5e6c3e675c01f2927e278c3]
@startuml
component "Sales Server" as SalesServer {
  component "Transaction\nProcessor" as TransactionProcessor{
  }
  component "Accounting\n Driver" as AccountingDriver{
  }
}
component "Point of\nSale Machine" as POS{
}
component "Message Queue" as MessageQueue{
}
MessageQueue #- - SalesServer

() "Sales\n Messages" as SalesMessages

MessageQueue - SalesMessages
POS -left-(SalesMessages
POS #- - SalesServer
@enduml

PlantUML version 1.2022.5(Sat Apr 30 12:55:52 CEST 2022)
(GPL source distribution)
Java Runtime: OpenJDK Runtime Environment
JVM: OpenJDK 64-Bit Server VM
Default Encoding: UTF-8
Language: en
Country: US
--></g></svg>