<?xml version="1.0" encoding="UTF-8" standalone="no"?><svg xmlns="http://www.w3.org/2000/svg" xmlns:xlink="http://www.w3.org/1999/xlink" contentScriptType="application/ecmascript" contentStyleType="text/css" height="185px" preserveAspectRatio="none" style="width:223px;height:185px;" version="1.1" viewBox="0 0 223 185" width="223px" zoomAndPan="magnify"><defs><filter height="300%" id="fwy3r1nuc4qh1" width="300%" x="-1" y="-1"><feGaussianBlur result="blurOut" stdDeviation="2.0"/><feColorMatrix in="blurOut" result="blurOut2" type="matrix" values="0 0 0 0 0 0 0 0 0 0 0 0 0 0 0 0 0 0 .4 0"/><feOffset dx="4.0" dy="4.0" in="blurOut2" result="blurOut3"/><feBlend in="SourceGraphic" in2="blurOut3" mode="normal"/></filter></defs><g><!--MD5=[d10371c429a20e8e62c953c705282488]
class Foo--><rect codeLine="1" fill="#FEFECE" filter="url(#fwy3r1nuc4qh1)" height="48" id="Foo" style="stroke: #A80036; stroke-width: 1.5;" width="74" x="20" y="10"/><ellipse cx="35" cy="26" fill="#ADD1B2" rx="11" ry="11" style="stroke: #A80036; stroke-width: 1.0;"/><path d="M37.3438,21.6719 C36.4063,21.2344 35.8125,21.0938 34.9375,21.0938 C32.3125,21.0938 30.3125,23.1719 30.3125,25.8906 L30.3125,27.0156 C30.3125,29.5938 32.4219,31.4844 35.3125,31.4844 C36.5313,31.4844 37.6875,31.1875 38.4375,30.6406 C39.0156,30.2344 39.3438,29.7813 39.3438,29.3906 C39.3438,28.9375 38.9531,28.5469 38.4844,28.5469 C38.2656,28.5469 38.0625,28.625 37.875,28.8125 C37.4219,29.2969 37.4219,29.2969 37.2344,29.3906 C36.8125,29.6563 36.125,29.7813 35.3594,29.7813 C33.3125,29.7813 32.0156,28.6875 32.0156,26.9844 L32.0156,25.8906 C32.0156,24.1094 33.2656,22.7969 35,22.7969 C35.5781,22.7969 36.1875,22.9531 36.6563,23.2031 C37.1406,23.4844 37.3125,23.7031 37.4063,24.1094 C37.4688,24.5156 37.5,24.6406 37.6406,24.7656 C37.7813,24.9063 38.0156,25.0156 38.2344,25.0156 C38.5,25.0156 38.7656,24.875 38.9375,24.6563 C39.0469,24.5 39.0781,24.3125 39.0781,23.8906 L39.0781,22.4688 C39.0781,22.0313 39.0625,21.9063 38.9688,21.75 C38.8125,21.4844 38.5313,21.3438 38.2344,21.3438 C37.9375,21.3438 37.7344,21.4375 37.5156,21.75 L37.3438,21.6719 Z "/><text fill="#000000" font-family="sans-serif" font-size="12" lengthAdjust="spacingAndGlyphs" textLength="23" x="49" y="30.1543">Foo</text><rect fill="#FFFFFF" height="15.9688" style="stroke: #000000; stroke-width: 1.0; stroke-dasharray: 2.0,2.0;" width="17" x="80" y="7"/><text fill="#000000" font-family="sans-serif" font-size="12" font-style="italic" lengthAdjust="spacingAndGlyphs" textLength="7" x="85" y="19.1387">T</text><line style="stroke: #A80036; stroke-width: 1.5;" x1="21" x2="93" y1="42" y2="42"/><line style="stroke: #A80036; stroke-width: 1.5;" x1="21" x2="93" y1="50" y2="50"/><!--MD5=[d5034caf6096f9aad11a7dfaa4c347d9]
class Foo_int--><rect codeLine="2" fill="#FEFECE" filter="url(#fwy3r1nuc4qh1)" height="48" id="Foo_int" style="stroke: #A80036; stroke-width: 1.5;" width="75" x="129.5" y="10"/><ellipse cx="144.5" cy="26" fill="#ADD1B2" rx="11" ry="11" style="stroke: #A80036; stroke-width: 1.0;"/><path d="M146.8438,21.6719 C145.9063,21.2344 145.3125,21.0938 144.4375,21.0938 C141.8125,21.0938 139.8125,23.1719 139.8125,25.8906 L139.8125,27.0156 C139.8125,29.5938 141.9219,31.4844 144.8125,31.4844 C146.0313,31.4844 147.1875,31.1875 147.9375,30.6406 C148.5156,30.2344 148.8438,29.7813 148.8438,29.3906 C148.8438,28.9375 148.4531,28.5469 147.9844,28.5469 C147.7656,28.5469 147.5625,28.625 147.375,28.8125 C146.9219,29.2969 146.9219,29.2969 146.7344,29.3906 C146.3125,29.6563 145.625,29.7813 144.8594,29.7813 C142.8125,29.7813 141.5156,28.6875 141.5156,26.9844 L141.5156,25.8906 C141.5156,24.1094 142.7656,22.7969 144.5,22.7969 C145.0781,22.7969 145.6875,22.9531 146.1563,23.2031 C146.6406,23.4844 146.8125,23.7031 146.9063,24.1094 C146.9688,24.5156 147,24.6406 147.1406,24.7656 C147.2813,24.9063 147.5156,25.0156 147.7344,25.0156 C148,25.0156 148.2656,24.875 148.4375,24.6563 C148.5469,24.5 148.5781,24.3125 148.5781,23.8906 L148.5781,22.4688 C148.5781,22.0313 148.5625,21.9063 148.4688,21.75 C148.3125,21.4844 148.0313,21.3438 147.7344,21.3438 C147.4375,21.3438 147.2344,21.4375 147.0156,21.75 L146.8438,21.6719 Z "/><text fill="#000000" font-family="sans-serif" font-size="12" lengthAdjust="spacingAndGlyphs" textLength="23" x="158.5" y="30.1543">Foo</text><rect fill="#FFFFFF" height="15.9688" style="stroke: #000000; stroke-width: 1.0; stroke-dasharray: 2.0,2.0;" width="18" x="189.5" y="7"/><text fill="#000000" font-family="sans-serif" font-size="12" font-style="italic" lengthAdjust="spacingAndGlyphs" textLength="16" x="190.5" y="19.1387">int</text><line style="stroke: #A80036; stroke-width: 1.5;" x1="130.5" x2="203.5" y1="42" y2="42"/><line style="stroke: #A80036; stroke-width: 1.5;" x1="130.5" x2="203.5" y1="50" y2="50"/><!--MD5=[455a20e1bcf0b8bf86487a7530912168]
class Foo_double--><rect codeLine="3" fill="#FEFECE" filter="url(#fwy3r1nuc4qh1)" height="48" id="Foo_double" style="stroke: #A80036; stroke-width: 1.5;" width="100" x="7" y="118"/><ellipse cx="22" cy="134" fill="#ADD1B2" rx="11" ry="11" style="stroke: #A80036; stroke-width: 1.0;"/><path d="M24.3438,129.6719 C23.4063,129.2344 22.8125,129.0938 21.9375,129.0938 C19.3125,129.0938 17.3125,131.1719 17.3125,133.8906 L17.3125,135.0156 C17.3125,137.5938 19.4219,139.4844 22.3125,139.4844 C23.5313,139.4844 24.6875,139.1875 25.4375,138.6406 C26.0156,138.2344 26.3438,137.7813 26.3438,137.3906 C26.3438,136.9375 25.9531,136.5469 25.4844,136.5469 C25.2656,136.5469 25.0625,136.625 24.875,136.8125 C24.4219,137.2969 24.4219,137.2969 24.2344,137.3906 C23.8125,137.6563 23.125,137.7813 22.3594,137.7813 C20.3125,137.7813 19.0156,136.6875 19.0156,134.9844 L19.0156,133.8906 C19.0156,132.1094 20.2656,130.7969 22,130.7969 C22.5781,130.7969 23.1875,130.9531 23.6563,131.2031 C24.1406,131.4844 24.3125,131.7031 24.4063,132.1094 C24.4688,132.5156 24.5,132.6406 24.6406,132.7656 C24.7813,132.9063 25.0156,133.0156 25.2344,133.0156 C25.5,133.0156 25.7656,132.875 25.9375,132.6563 C26.0469,132.5 26.0781,132.3125 26.0781,131.8906 L26.0781,130.4688 C26.0781,130.0313 26.0625,129.9063 25.9688,129.75 C25.8125,129.4844 25.5313,129.3438 25.2344,129.3438 C24.9375,129.3438 24.7344,129.4375 24.5156,129.75 L24.3438,129.6719 Z "/><text fill="#000000" font-family="sans-serif" font-size="12" lengthAdjust="spacingAndGlyphs" textLength="23" x="36" y="138.1543">Foo</text><rect fill="#FFFFFF" height="15.9688" style="stroke: #000000; stroke-width: 1.0; stroke-dasharray: 2.0,2.0;" width="43" x="67" y="115"/><text fill="#000000" font-family="sans-serif" font-size="12" font-style="italic" lengthAdjust="spacingAndGlyphs" textLength="41" x="68" y="127.1387">double</text><line style="stroke: #A80036; stroke-width: 1.5;" x1="8" x2="106" y1="150" y2="150"/><line style="stroke: #A80036; stroke-width: 1.5;" x1="8" x2="106" y1="158" y2="158"/><!--MD5=[214c6364363e0070f96070346e3dfda9]
link Foo to Foo_int--><!--MD5=[9ba18ac62662c38d9029f6f0b9d7e770]
link Foo to Foo_double--><!--MD5=[de268eab4de54af3d06ae63d9bf0509d]
@startuml
class Foo< T > 
class "Foo<int>" as Foo_int
class "Foo<double>" as Foo_double
@enduml

PlantUML version 1.2020.16beta10(Unknown compile time)
(GPL source distribution)
Java Runtime: Java(TM) SE Runtime Environment
JVM: Java HotSpot(TM) 64-Bit Server VM
Default Encoding: UTF-8
Language: en
Country: US
--></g></svg>